<?xml version="1.0" encoding="UTF-8"?>
<svg id="Layer_1" xmlns="http://www.w3.org/2000/svg" version="1.1" viewBox="0 0 197 193">
  <!-- Generator: Adobe Illustrator 30.3.0, SVG Export Plug-In . SVG Version: 2.1.3 Build 182)  -->
  <defs>
    <style>
      .st0 {
        fill: #faf7f2;
      }

      .st1 {
        fill: #ffbfaa;
      }

      .st2 {
        fill-opacity: 0;
      }

      .st3 {
        fill: #191919;
      }

      .st4 {
        fill: #5b7b9a;
      }

      .st5 {
        fill: #4a6fa5;
      }

      .st6 {
        fill: #65d39f;
      }
    </style>
  </defs>
  <ellipse class="st0" cx="24.8" cy="120" rx="24.8" ry="14"/>
  <ellipse class="st0" cx="99.2" cy="109.3" rx="65.5" ry="70.8"/>
  <ellipse class="st0" cx="24.9" cy="120.6" rx="23" ry="14.6"/>
  <ellipse class="st0" cx="174.7" cy="109.7" rx="17.8" ry="13.3"/>
  <ellipse class="st0" cx="81.4" cy="173.4" rx="29.9" ry="16.1"/>
  <g>
    <path class="st2" d="M0,193.2V0h197v193.1H0Z"/>
    <path class="st5" d="M150.8,54.8c-6-.6-12.1-1-18-1.9-4.5-.7-12.4-3.5-16.1-3.5-15.5,0-32.8,3.8-48.6,3.6-3.9,6.3-14,5.9-20.3,8-1.3.4-1.5,3.7-3.8,3.5-2.2-.5-1.7-11.5-2.2-13.6-.3-1.1-2.7-.7-2.7-2.8,0-2.5,4.2-3.2,4.9-4.8.3-.7-.4-2.3,0-3.6,3.5-11.3,9.4-16.6,19.2-22.5,2.8-1.7,10.1-4.3,11.7-5.8,1-.8.6-2.6,1.4-3.2.8-.5,15.5-4.5,17.5-4.7,5.7-.8,24.4-1.6,28.7,1.3,1.4.9,1.7,2.7,2.8,3.4,5.2,3.7,9.2,4.6,13.7,10.2,2,2.4,5.1,9.6,5.8,10.2,1.7,1.4,5.4,1.2,7.5,4.1,1.8,2.4,0,3.6.5,5.6.6,3.4,5.3,19.5,1.2,20.8-1,.3-2.3.2-3.3,0-2.8-1.5-.7-2.5.3-4.3h0Z"/>
    <path class="st1" d="M97.4,167.6c4.1,12.2-11.8,13.5-20.4,12-8.9-1.5-17.3-13-18.3-21.6-.8-7.2,2.3-19.5,11-19.9,9.9-.5,7.8,10.3,8.6,16.2,1.8,12.1,9.8,9.9,19.1,13.3h0Z"/>
    <path class="st4" d="M13.3,67.2c-16.3-6,7.4-18.4,14.7-19.5,7.4-1.1,14.3,2.5,12.6,10.8-1.5,7.5-25.8,31-33.9,29.9-9.8-1.3,3.2-18.3,6.6-21.3h0Z"/>
    <path class="st1" d="M94.8,100.1h-2.5c-1.7-9.6,9.6-17.1,15.2-6.9,3.8,7,9.8,37.1-5.5,32.1-9-2.9-6.8-18.1-7.1-25.3h0Z"/>
    <path class="st3" d="M129.4,3.5c1.4,1.2-1.1.5,3.1,1.7,2.3.7,13,9.6,14.8,11.8,6.7,8.6,9.5,25.8,10.5,36.5.1,1.4-1.3,3-1.3,4.3,0,2.8,1.9,7.6,2.3,10.7.7,5.3,1.4,11.6,1.8,16.8.2,3.2.5,7.3-.9,10.2,1-.3,3.2-.1,4-.3.8-.2,1.2-1.1,1.9-1.3,4.6-1.1,10.2-1.6,14.9-1,4.6.5,10.2,3.8,12.8,7.6,2.6,4,4.6,8.2,3.5,13-.5,2.3-6.2,7.8-8.4,8.4-.9.3-2.6,0-2.9.2,0,0-.8,2.2-.8,2.3,0,.9.8,2.1.8,3.4.1,7-.3,15.9-9.4,10.3l-3.1-8.9c-1.4,4.1.1,9-2.2,12.4-.8,1.1-2.7,2.2-3,3.2-1,3.6,1.6,7.3.7,10.5-.6,2.2-4,1-5.6,1.5-1.4.4-4.8,4.5-7.3,5.1-2,.4-4.1-.1-6,.2-9.4,1.3-16.9,11.1-26.8,14-7.4,2.2-6.3-.5-12,5.3-1.8,1.9-12.4,8.6-15.4,9.8-1.2.5-7.6,2-8.7,2s-2.4-.8-3.6-.9c-3.1-.3-6.5-.2-9.6-1.1-6.2-1.7-19.9-10.3-23.2-15.8-1-1.6-.8-4.1-2.7-5.3-3.2,4.6-7.3-2.4-10.7-4.4l-3.4,1.7-3.7-2.6c-.7-6.8,1.3-13.5,1.4-20.4-2.7,2.4-5.7,4.6-7.8.3-1.4-2.9,0-4.3-.2-5.1-.5-2.4-3-.5-4-.5-1.1,0-2.1-1.4-3.1-.5-1.9,2.6-3,6.7-5.3,8.9-1.2,1.1-4.5,3.3-5.8,1.4-2.2-3.6.3-10,.6-14.1l1.6-.5c-8.7-4.9-7.8-17.7-.8-23.9,3.4-3,17.4-9.3,21.7-9.3s6.8,2.5,7.5,1.8c3.3-8.9,1.2-18.6,1.7-28,.1-2.6,1.6-5.4.9-8.4-2.5,1.1-4.2,3.2-6.2,4.9-2.6,2.1-.5,1.1-1.7,2.7-1.9,2.5-16.2,16.1-18.2,16.1-.5,0-1.8-1-2.1-.5-.4.6.5,1.9-2.4,2.4-2.5.5-4.2,0-6.4-.8.1-1.4-.9-2.8-1-3.9-.4-4.7,7-14.6,9.8-18.6-.7-1.6-2.8-1-3.4-1.5-.3-.2-.2-1.1-.6-1.6-1.2-1.4-2.5-1.8-2.1-3.9.1-.8,2.8-4.8,3.5-5.4,2.9-2.9,12.1-9.5,15.9-10.7,3.9-1.2,12.5-.9,16,1.4-2-18.8,8.7-29.2,24.8-35.9,1.9-.8,4.4-2.1,6.1-1.4.4-2.1,6.5-3.6,9.2-4.6,12.4-4.3,28.9-6.3,42.3-3.7,1.2.2,7.4,2,7.8,2.4h0ZM124.2,6c-3.1,0-6.3-1.2-9.3-1.4-6.4-.5-15.6-.2-22.2,0-1,0-3.2,1.8-4.6,2.2-2.5.7-5,.4-7.7,2-5.4,3.2-8.5,15.5-7.5,21.4.8,4.4,4.4,11.3,9.2,6.9,4.9-4.6-1.3-8.6-1.4-13.8,0-1.5,2.2-3.6,1.9-5.7,8.8-3.7,8.4,3.3,7.9,10.1-.1,1.7-1.9,3.8-.5,5.8.8,1.2,6.5,3.2,8,3.2,8.2,0,11.5-6.3,10.2-13.8-3.9.2-13.6.6-15-4.1-1.9-6.3,7.3-7.4,11.7-5.5.6.3,2.9,1.6,3.3,2,.9.9,1.3,2.8,2.3,3.1,3.5,1,15.6-7.1,13.7-12.4h0ZM132.8,10.7c-.5-.4-4.9-3.1-5.1-2.9-.8,3.5-3,8.3-7.1,8l.9,1.7-10.3,4.5c.3,4.3,1.2,7.5-.6,11.8-1,2.3-4.1,5.3-6.6,5.8-2.1.5-9.2.5-11.2,0-2.3-.5-3.9-3.5-5.5-3.5-3.3.7-3.1,4.6-6.4,5.2-4.1.7-5.9.3-8.1-3.1-3.5-5.2-4.6-13.2-2.6-19.2l3.8-8.6c-7.3,3.5-17,6.6-23.3,11.8-.3.2,0,1-.4,1.3-.5.5-1.5.4-2,1.1-.7.8-3.2,4.5-3.5,5.3-1.3,3-1.8,7.2-3.1,10.2.7.6.7,1.3,1.8.9,1.9-.7,4.2-2.6,5.9-3,6.1-1.3,12.4.5,11,7.8,4.1.5,7.9,2.7,11.2,5.3,5.8-1.3,10.9-2.4,16.8-2.6,5.4-.2,10.5-.4,15.9-.8,1.9-.1,6.8.9,8.3-.2.2-.1.3-1.4,1-2.1,5.3-6.1,11.4-9.5,19.6-9.7,1.7-1.2.4-7.1,3.4-6.8-1.5-2.6,2.9-3.4,5-4.4l5.7,1.4c-2.6-3.8-5.2-8.6-9.7-10.3l.4-1.6c-1.9,1.4-4.4-2.9-5.1-3.4h0ZM95.8,15.8c-.8,4.1,4.5,4.5,7.5,4.4,1.7,0,2.8.4,4-1.3-2.9-3.9-7.1-3.1-11.5-3.1h0ZM85.6,19.3c-3,.9-1.6,8.2.9,9.7,1.9,0,2.4-10.8-.9-9.7ZM151.6,31.7c-2.3,1.7-2.9-1.4-4.4-2.2-.7-.3-3.4-1.1-4.2-1.2-4.2-.6-4.5,3.3-5.6,6.5,1.7,2.1,4,.9,6.5,2.4,6.9,4.1,2,9.8-5.1,7.7-1.9-.5-2.6-4-4.1-4.8-4.4-2.3-12.8,3-16.3,5.9-1,.8-1.8.9-1.5,2.5,2.5-1.1,5.3,1.4,6.6,1.5,7.2.2,13.2,1.3,20.4,3,3.1.7,6.3,1.6,9.3,2.6-.1-1.9.2-3.8,0-5.7-.4-3.6-2.7-9.1-2.7-12.4,0-1.9,1.5-3.7,1-5.8h0ZM85.6,33.5c-.6,0-.6.9,0,.9s.6-.9,0-.9ZM143.7,40.6l-4.4-.9c.3,1.6,2.1,1.7,3.1,2.7l1.3-1.8h0ZM56.8,45c-1-6.1-7.6-3-11-.8-5.2,3.5-2.7,4.8-2.4,9.2.2,2.5,0,5,0,7.5.9,1,9-4.2,10.6-4.9,1.1-.5,2.5-.3,3.6-.8,2.6-1,5.7-2,7.9-3.6l-6.5-2.2c-3.4,3.2-8.6,9.8-12.6,3.5-1-1.5.7-4.1,1.8-5.3,2-2.2,5.7-1.6,8.4-2.7ZM119.3,41.5c-.6,0-.6.9,0,.9s.6-.9,0-.9ZM34.6,58.2c.6-.6,1.5-3.1,2.7-3.9,1.3-2.7-2.6-8.4-4.9-9.1-1.5-.4-8.7-.3-10.4,0-2.5.5-10.1,5.6-12.1,7.4-.7.6-.7,1.6-1.1,2-.8.8-5.2,2.6-1.9,4.6,4,2.4,10.7-4.4,15.2-5.1,1.3-.2,2.7.8,4.1,0,3.7,3.2-1.8,5.4-4.5,6.9-8.7.2-14.8,9.2-18.2,16.4-1,2.1-1.8,4.5-1.6,6.8.8.8,6.9-2.4,8-3.1,7.7-5.5,13.5-14.4,19.7-19.7,1-.9,4.2-2.3,5-3.1h0ZM54.1,49.5c-2.1-.4-3.6.7-4.4,2.7,2.1.4,3.6-.7,4.4-2.7ZM129.5,68.1l-2.7-.4c-3.5-4.1-6.9-9.5-10.6-13.4-3.1-3.3-4.3-1.5-7.5-1.2-1.8.1-3.3-.6-4.5-.6-3.6,0-8.8,2.2-11.5-1.2l-.4.4c1.7,3.2-1.8,1.6-3.1,1.7-3.4.2-7.6,1.2-10.7,1.4-1.2,0-2.1-.7-2.7-.7-.3,0-4.5,2.7-5.8,2.8-2.1,4.7-6,8.1-8.8,12.4l4.9,1.3c12.9,0,28,8.1,30.4,21.9.7,4.1,0,9,.1,13.2.1,2.2,0,5.1.2,6.9.1,1.6,1,4.1,1.1,6,3.2,1.9,6.2,4.8,10.2,4.4-1.6-2.4-.4-11.2,3.6-8.4,2.3,1.6,1.4,7.5,0,9.7-.6.9-2.1.8-2.7,1.9,2.2,2.4,5.2,3.8,4.4,7.5-4.3-2.6-7.9-2.8-12.7-1.6-2.6.6-4.4,4-4.9,6.6-1.2,6.5,4.4,8.9,9.9,7.3,2-.6,3.5-5.3,6.8-4.3.6,6.8-11.2,10.9-16,8.4-.3-.2-3.8-3.7-4-4-2.8-5.5-.4-16.2,5.7-18.2,2.2-.7,5.1.7,4.5-2.2-3.9-.3-8.9-4.5-12.1-5.2-5.3-1.2-14.6.2-19.8,2.1-.7.3-4.9,2.2-5.1,2.4-.3.4-.3,1.3-.6,1.6-9.5,8.7-12.1,15.8-13.7,28.9-.3,2.4.6,3.5.8,5.3,0,.6-.6,1.3-.5,1.8.8,4.9,6.1,15,9.8,18.2,1.9,1.6,10.3,6.4,12.6,6.9,3.1.7,7.5.3,10.5,1.9l-.5-1.8c3.9.9,6.9-1.1,10.2-1.8,1.1-.2,3.6.3,3.9-.1.2-.3,0-1.1.2-1.4.4-.4,3.5-1.4,4.6-2.1,5.4-3.5,5.5-5,8.1-9.6.6-1,2.1-1.9,3-3.2,2.9-4.4,4.4-15,3.7-20.2-.4-3.2-2.8-7.4-2.6-11.1,1.5-.3.4,1,1.4,1.8,1.1.9,1.7.4,2.6,2.6,2.2,6.1,2.7,15.4,1.1,21.6-.8,3-2.4,5.7-3.4,8.6.8.7,8.5-2.2,10-2.8,2.9-1.3,8.9-5,11.1-7.1.6-.6,7.4-9.9,8.1-11,5-8.4,6.9-24.6,7.2-34.4.1-3.8.5-21.7-.4-23.6-.3-.6-3.2-3.3-4-4-.9-.8-1.1-1.7-2.7-1.3,2.7,3.3,1.6,7.8-3.1,7.1-1-.2.3-2.2-1.3-1.8.4,8.2-3.5,11-11.5,9.7-1.9-4.7-2.3-8.3-.9-13.3-3.2,1.1-6,3-8.8,4.9-1.9,1.3-2.5,3.7-5.4,3.1-2.1-5.7,5.5-10.3,10-12.6,4.8-2.4,10.4-4.4,15.7-3.4-3.2-5-5.9-6.2-11.8-5.1-2.9.5-10.2,2.7-13.1,3.8-2.9,1.1-5.7,5-7.9,1.8-.3-3.1,2.2-4.6,4.4-6.1,1.2-.8,3.7-2.3,5-2.9,3.8-1.8,9.3-2.2,11.8-5.5h0ZM147.2,55.7h-1.8v1.8l2.2.9.4-.4-.9-2.2ZM138.8,56.6c-.6,0-.6.9,0,.9s.6-.9,0-.9ZM92.2,116.8c.6-3.1,0-6,.2-9.1.2-3.2,0-3.7-.2-6.4-.3-5.4.8-11.8-3.6-15.9-4-2.1-7.8-3.5-12.2-4.7-6.1-1.7-13-3.2-19.2-3.8-.7,2.4-2.5,2.1-4.5,3.6-7.3,5.6-8.5,15.9-8.4,24.4,0,10.5,2.4,22.6,4.3,32.9.2,1.3.3,2.5.2,3.8l3.1-9.7c3.3-5.3,8.6-11.5,14.6-13.8,4.4-1.7,14.5-3.5,19.1-3,1.8.2,4.8,1.2,6.7,1.8h0ZM173.8,123.9c-.2-3.3,1.4-9.2,5.7-7.9,1.2.4,2,3.6,3.6,4.3,3.5-1.8,9.4-4.9,9.4-9.2,0-3.6-2.7-8.2-5.4-10.6-4-3.5-9.7-2.7-14.6-4.1-4.4,1.1-8.2,1.3-12,4-5,3.5-3.7,6.6-2.7,11.9,6.8-1.5,12.8-5.3,19.2-7.9l2.9.8v3.4c-7.3,3.3-15,7.7-23,8.1,1.3,2.3,1.3,4.8,0,7.1l7.1.9c0-2,.7-5,2.2-6.2,3.7-3,7.2,2,4.9,5.3h2.7,0ZM39.9,118.6c-.4-3.2,1.2-7.4-1.3-9.8-3.3-3.2-8.1-3.1-12.5-2.7-3.7.3-15.5,5.9-17.7,8.9-1.1,1.5-1.5,3.6-3,5l1.7,9.2c2.3,0,3.1-2.4,5.3-3.1,2.7-.9,3.8-.4,5.3,1.9l-.8,5.6c8.4,1.3,6.3-2.1,9.3-6.2,2.5-3.5,7.6-4.3,9.1.6.3,1-.2,3,.6,2.9l6.7-2.7c-.7-2.1-.3-5.2-3.2-6.1-1.2-.3-2.7,0-4.1-.3-2.4-.6-15.9-3.6-16.5-4.3-.1-.1-.1-3.3,0-3.5.1-.1,2.6-.8,2.9-.8,1.1.1,2.6,1.2,3.9,1.4,5,.9,9.7,1.3,14.4,3.7h0ZM180.9,135.5v-8.4s-2.2-5.8-2.2-5.8c-1.6,1.1-1.4,2.3-1.4,4,0,2,.7,5.7,1.1,7.8.2,1.3.7,2.9,2.5,2.4ZM169.4,139.9c-.7-3.5-1.1-6.6-.9-10.2,0-1.4.9-2.6.9-3.5,0-.5-.7-3.3-1.8-3.1l-1.8,9.3v7.5s3.5,0,3.5,0ZM157.4,128.4c-.6,0-.6.9,0,.9s.6-.9,0-.9ZM27.5,139.9c3.5-1.7,3.7-6.3,3.5-9.8-2.4.2-2.4,4.9-2.7,5.2-.3.3-2.8-.2-3.5,1.4,1.1,1.4,3.2.9,2.7,3.1ZM8,144.3c3.3-3.2,5.9-8.7,5.3-13.3l-3.4,4.1-1.9,9.2h0ZM154.7,150.5c-.6,0-.6.9,0,.9s.6-.9,0-.9ZM33.3,154.1c-.6,0-.6.9,0,.9s.6-.9,0-.9ZM148.1,155h-1.8v.9h1.8v-.9ZM153.9,155.9c-.6,0-.6.9,0,.9s.6-.9,0-.9ZM32.4,159.4c-.6,0-.6.9,0,.9s.6-.9,0-.9ZM47.9,168.3c.3-1.6-.9-2.9-2.7-2.7l2.7,2.7Z"/>
    <path class="st3" d="M172.5,142.6c.6,0,.6.9,0,.9s-.6-.9,0-.9Z"/>
    <path class="st3" d="M137.5,117.7c-2.1-5.4,6.1-11.6,7.9-5.7,1.2,3.8-4.7,7.1-7.9,5.7Z"/>
    <path class="st3" d="M87.8,100h-3.5l-1,7c-10.9,5.8-11-6.1-10.6-14.1-5.2-1-9.9-1.5-12.2,4.2-1.4,3.4,0,5.6-4.6,4.6-2.7-8.4,2.2-17.7,11.9-16.8,2.1.2,10.1,3.6,12,4.9.9.6,7.3,6.9,7.6,7.5.5.9.5,1.7.4,2.7h0Z"/>
    <path class="st6" d="M166.1,128.9c6.5-.5,5.6,23.1-3.7,22.1-9.5-2.4-2.4-21.6,3.7-22.1Z"/>
    <path class="st3" d="M166.5,126.2c1.8-.3,2.5-.1,3.4,1.4,3.7,6,7.8,20.6.4,25-7.4,4.4-10.8-5.7-10.1-11.8.2-1.4,2.1-6.3,2.8-7.8.9-2.1,2.9-4.4,3.4-6.8h0ZM169,149.1c1.3-1.2,2.1-6.4,1.9-8.3-.2-2.2-1.5-7.3-3.5-8.4-1.1,5.8-5.4,12.6-.4,17.7.4-.9,1.8-.7,2.1-1Z"/>
    <path class="st6" d="M28,135.2c6.5-.5,5.6,23.1-3.7,22.1-9.5-2.4-2.4-21.6,3.7-22.1Z"/>
    <path class="st3" d="M28.3,132.5c1.8-.3,2.5-.1,3.4,1.4,3.7,6,7.8,20.6.4,25-7.4,4.4-10.8-5.7-10.1-11.8.2-1.4,2.1-6.3,2.8-7.8.9-2.1,2.9-4.4,3.4-6.8h0ZM30.9,155.4c1.3-1.2,2.1-6.4,1.9-8.3-.2-2.2-1.5-7.3-3.5-8.4-1.1,5.8-5.4,12.6-.4,17.7.4-.9,1.8-.7,2.1-1Z"/>
  </g>
</svg>