<svg xmlns="http://www.w3.org/2000/svg" xmlns:xlink="http://www.w3.org/1999/xlink" viewBox="0 0 197 193"><g transform="translate(-0.006 -0.083)"><path d="M 0.006 193.156 L 0.006 0.013 L 197.006 0.013 L 197.006 193.156 Z" fill="transparent"></path><rect x="0" y="0" width="197" height="193" rx="28" ry="28" fill="#FAF7F2"/><path d="M 150.761 54.797 C 144.806 54.164 138.626 53.847 132.716 52.888 C 128.175 52.153 120.288 49.402 116.634 49.393 C 101.163 49.355 83.787 53.21 68.046 52.986 C 64.174 59.294 53.997 58.875 47.716 61.007 C 46.394 61.454 46.199 64.754 43.951 64.53 C 41.755 64.051 42.234 53.037 41.745 50.966 C 41.485 49.863 39.047 50.23 39 48.145 C 38.949 45.673 43.169 44.91 43.895 43.313 C 44.226 42.587 43.467 40.995 43.858 39.729 C 47.362 28.454 53.272 23.143 63.062 17.185 C 65.896 15.458 73.131 12.865 74.802 11.417 C 75.775 10.575 75.416 8.769 76.226 8.215 C 76.98 7.703 91.731 3.76 93.68 3.481 C 99.339 2.671 118.054 1.87 122.344 4.747 C 123.735 5.678 124.085 7.479 125.099 8.196 C 130.297 11.874 134.266 12.846 138.794 18.437 C 140.771 20.872 143.861 28.022 144.568 28.617 C 146.267 30.051 149.928 29.772 152.083 32.681 C 153.856 35.074 152.181 36.238 152.558 38.276 C 153.191 41.67 157.835 57.762 153.735 59.126 C 152.716 59.466 151.479 59.322 150.426 59.117 C 147.611 57.595 149.687 56.645 150.748 54.806 Z" fill="rgb(74, 111, 165)"></path><path d="M 97.356 167.582 C 101.451 179.797 85.574 181.04 76.947 179.574 C 68.032 178.061 59.614 166.623 58.66 157.974 C 57.86 150.726 60.954 138.47 69.66 138.056 C 79.511 137.585 77.44 148.404 78.297 154.287 C 80.06 166.428 88.055 164.23 97.356 167.577 Z" fill="rgb(255,191,170)"></path><path d="M 13.347 67.212 C -2.912 61.202 20.787 48.857 28.028 47.759 C 35.44 46.632 42.327 50.305 40.629 58.577 C 39.088 66.081 14.784 89.607 6.744 88.504 C -3.089 87.158 9.908 70.205 13.347 67.216 Z" fill="rgb(91, 123, 154)"></path><path d="M 94.811 100.057 L 92.354 99.945 C 90.698 90.477 102 83.006 107.505 93.172 C 111.284 100.155 117.305 130.25 101.958 125.319 C 92.927 122.419 95.183 107.212 94.816 100.057 Z" fill="rgb(255,191,170)"></path><path d="M 129.357 3.55 C 130.772 4.784 128.245 4.03 132.427 5.282 C 134.746 5.976 145.476 14.848 147.23 17.096 C 153.94 25.699 156.699 42.913 157.682 53.628 C 157.807 54.983 156.429 56.584 156.397 57.888 C 156.332 60.662 158.31 65.517 158.718 68.548 C 159.44 73.896 160.143 80.125 160.491 85.389 C 160.706 88.639 160.957 92.684 159.622 95.565 C 160.654 95.314 162.804 95.463 163.609 95.23 C 164.367 95.011 164.805 94.155 165.554 93.973 C 170.124 92.851 175.731 92.4 180.436 92.93 C 185.019 93.442 190.608 96.706 193.19 100.569 C 195.838 104.526 197.764 108.762 196.713 113.598 C 196.206 115.917 190.468 121.367 188.281 122.028 C 187.345 122.312 185.685 121.963 185.392 122.22 C 185.298 122.298 184.595 124.394 184.586 124.514 C 184.507 125.464 185.354 126.581 185.377 127.89 C 185.507 134.844 185.032 143.823 176.001 138.144 L 172.925 129.253 C 171.506 133.313 173.046 138.209 170.683 141.64 C 169.924 142.743 168.03 143.804 167.713 144.875 C 166.676 148.427 169.319 152.151 168.416 155.33 C 167.788 157.537 164.465 156.359 162.837 156.838 C 161.403 157.257 158.082 161.33 155.495 161.903 C 153.503 162.345 151.404 161.786 149.455 162.066 C 140.06 163.407 132.567 173.149 122.656 176.044 C 115.257 178.205 116.393 175.496 110.636 181.361 C 108.817 183.218 98.227 189.93 95.188 191.131 C 93.987 191.606 87.622 193.148 86.491 193.148 C 85.072 193.148 84.071 192.319 82.931 192.202 C 79.855 191.886 76.459 192.012 73.35 191.146 C 67.166 189.428 53.416 180.821 50.154 175.337 C 49.204 173.741 49.367 171.251 47.487 170.031 C 44.305 174.644 40.145 167.642 36.79 165.613 L 33.397 167.33 L 29.684 164.734 C 28.963 157.932 30.95 151.229 31.085 144.321 C 28.409 146.76 25.422 148.921 23.277 144.601 C 21.848 141.724 23.277 140.299 23.095 139.494 C 22.555 137.111 20.122 138.991 19.117 138.981 C 18.028 138.973 17.018 137.594 15.99 138.502 C 14.133 141.071 12.956 145.21 10.685 147.412 C 9.531 148.534 6.143 150.76 4.91 148.771 C 2.695 145.205 5.227 138.772 5.506 134.648 L 7.144 134.127 C -1.553 129.239 -0.623 116.424 6.297 110.228 C 9.675 107.202 23.654 100.89 27.976 100.89 C 29.368 100.89 34.817 103.367 35.505 102.65 C 38.8 93.787 36.72 84.011 37.246 74.692 C 37.39 72.109 38.893 69.283 38.167 66.309 C 35.705 67.458 33.951 69.516 31.922 71.178 C 29.335 73.305 31.462 72.253 30.256 73.845 C 28.372 76.335 14.068 89.914 12.016 89.947 C 11.485 89.956 10.252 88.922 9.866 89.411 C 9.419 89.974 10.41 91.292 7.432 91.846 C 4.98 92.302 3.268 91.944 1.029 91.027 C 1.16 89.602 0.113 88.261 0.015 87.093 C -0.376 82.368 6.986 72.495 9.791 68.515 C 9.089 66.928 6.99 67.51 6.381 67.053 C 6.115 66.853 6.171 65.922 5.794 65.466 C 4.612 64.046 3.277 63.688 3.686 61.556 C 3.835 60.774 6.455 56.785 7.144 56.11 C 10.061 53.256 19.242 46.618 23.049 45.422 C 26.92 44.207 35.542 44.537 39.046 46.795 C 37.087 28.003 47.785 17.604 63.858 10.877 C 65.714 10.1 68.273 8.75 69.972 9.462 C 70.344 7.405 76.487 5.817 79.204 4.872 C 91.591 0.567 108.068 -1.444 121.511 1.162 C 122.661 1.386 128.928 3.173 129.347 3.536 Z M 124.168 6.032 C 121.079 6.041 117.915 4.831 114.857 4.602 C 108.506 4.128 99.246 4.435 92.671 4.537 C 91.656 4.551 89.497 6.339 88.101 6.758 C 85.616 7.502 83.108 7.181 80.391 8.801 C 74.988 12.022 71.903 24.293 72.913 30.237 C 73.671 34.683 77.282 41.53 82.089 37.094 C 87.035 32.528 80.819 28.501 80.712 23.306 C 80.679 21.784 82.931 19.712 82.592 17.655 C 91.391 13.987 91.009 20.923 90.456 27.733 C 90.316 29.441 88.594 31.517 89.986 33.556 C 90.786 34.734 96.5 36.717 98.008 36.712 C 106.244 36.689 109.511 30.447 108.203 22.868 C 104.29 23.078 94.625 23.455 93.238 18.777 C 91.377 12.497 100.581 11.399 104.918 13.303 C 105.551 13.582 107.789 14.946 108.194 15.341 C 109.087 16.217 109.459 18.102 110.497 18.395 C 114.039 19.401 126.09 11.273 124.164 6.027 Z M 132.846 10.691 C 132.331 10.291 127.896 7.572 127.714 7.805 C 126.904 11.32 124.685 16.072 120.609 15.793 L 121.502 17.515 L 111.241 21.975 C 111.534 26.253 112.442 29.525 110.684 33.775 C 109.725 36.098 106.546 39.026 104.076 39.58 C 102.019 40.041 94.909 40.031 92.843 39.58 C 90.539 39.077 88.981 36.126 87.375 36.126 C 84.043 36.791 84.253 40.744 81.019 41.33 C 76.952 42.07 75.16 41.665 72.871 38.272 C 69.353 33.054 68.246 25.061 70.307 19.107 L 74.081 10.472 C 66.766 14.01 57.073 17.087 50.768 22.222 C 50.503 22.436 50.68 23.264 50.4 23.539 C 49.921 24 48.949 23.948 48.381 24.642 C 47.697 25.475 45.217 29.143 44.835 29.986 C 43.509 32.956 43.071 37.173 41.727 40.171 C 42.42 40.809 42.411 41.46 43.49 41.065 C 45.342 40.385 47.729 38.463 49.4 38.095 C 55.538 36.75 61.796 38.635 60.358 45.906 C 64.486 46.39 68.301 48.578 71.535 51.157 C 77.301 49.891 82.401 48.731 88.306 48.559 C 93.731 48.396 98.79 48.117 104.243 47.763 C 106.132 47.642 111.042 48.69 112.521 47.577 C 112.693 47.447 112.865 46.181 113.484 45.468 C 118.761 39.398 124.862 35.972 133.074 35.777 C 134.788 34.585 133.48 28.641 136.462 28.976 C 134.922 26.364 139.38 25.601 141.479 24.609 L 147.211 25.987 C 144.638 22.166 141.977 17.39 137.528 15.695 L 137.951 14.131 C 136.011 15.574 133.512 11.217 132.852 10.7 Z M 95.798 15.784 C 94.988 19.871 100.297 20.304 103.331 20.225 C 105.03 20.178 106.174 20.578 107.314 18.889 C 104.369 14.941 100.172 15.751 95.793 15.788 Z M 85.602 19.331 C 82.647 20.252 84.02 27.565 86.486 29.078 C 88.39 29.125 88.841 18.321 85.602 19.331 Z M 151.646 31.736 C 149.333 33.412 148.793 30.321 147.23 29.511 C 146.573 29.171 143.856 28.459 143.019 28.333 C 138.775 27.686 138.528 31.676 137.467 34.813 C 139.143 36.936 141.516 35.73 143.991 37.187 C 150.911 41.256 145.987 46.963 138.905 44.933 C 137.03 44.398 136.345 40.925 134.829 40.143 C 130.38 37.853 122.032 43.183 118.538 46.064 C 117.584 46.851 116.709 46.963 117.072 48.587 C 119.529 47.498 122.373 50.021 123.698 50.063 C 130.92 50.291 136.914 51.413 144.089 53.037 C 147.197 53.74 150.408 54.648 153.414 55.677 C 153.312 53.782 153.601 51.827 153.396 49.932 C 153.005 46.33 150.687 40.865 150.683 37.499 C 150.683 35.637 152.157 33.826 151.642 31.732 Z M 85.602 33.514 C 85.025 33.514 85.025 34.399 85.602 34.399 C 86.179 34.399 86.179 33.514 85.602 33.514 Z M 143.666 40.609 L 139.231 39.724 C 139.487 41.279 141.362 41.377 142.335 42.377 L 143.661 40.613 Z M 56.789 45.035 C 55.835 38.984 49.209 42 45.831 44.272 C 40.666 47.749 43.137 49.104 43.476 53.475 C 43.667 55.965 43.383 58.507 43.495 60.993 C 44.444 61.975 52.485 56.752 54.095 56.077 C 55.24 55.598 56.557 55.728 57.715 55.267 C 60.33 54.234 63.397 53.261 65.654 51.683 L 59.121 49.532 C 55.733 52.711 50.559 59.377 46.566 53.042 C 45.589 51.492 47.222 48.941 48.376 47.703 C 50.41 45.52 54.076 46.055 56.789 45.035 Z M 119.288 41.493 C 118.71 41.493 118.71 42.377 119.288 42.377 C 119.864 42.377 119.864 41.493 119.288 41.493 Z M 34.593 58.186 C 35.231 57.548 36.05 55.099 37.334 54.28 C 38.614 51.622 34.714 45.845 32.448 45.184 C 30.94 44.742 23.761 44.845 22.067 45.217 C 19.596 45.762 11.927 50.84 9.936 52.618 C 9.219 53.256 9.266 54.238 8.87 54.634 C 8.028 55.477 3.668 57.213 6.925 59.191 C 10.913 61.607 17.6 54.797 22.123 54.071 C 23.453 53.857 24.784 54.825 26.264 53.992 C 29.987 57.231 24.468 59.345 21.746 60.862 C 13.077 61.095 6.911 70.014 3.551 77.243 C 2.588 79.319 1.779 81.772 1.969 84.081 C 2.76 84.882 8.847 81.726 9.926 80.958 C 17.59 75.507 23.412 66.593 29.633 61.258 C 30.666 60.374 33.784 58.996 34.589 58.19 Z M 54.128 49.472 C 52.043 49.09 50.507 50.202 49.693 52.125 C 51.778 52.507 53.313 51.394 54.128 49.472 Z M 129.482 68.087 L 126.783 67.682 C 123.298 63.562 119.836 58.162 116.216 54.313 C 113.075 50.971 111.87 52.823 108.682 53.065 C 106.882 53.2 105.341 52.451 104.215 52.479 C 100.637 52.572 95.416 54.657 92.689 51.25 L 92.256 51.687 C 93.908 54.923 90.423 53.307 89.148 53.382 C 85.746 53.582 81.545 54.606 78.464 54.825 C 77.31 54.909 76.375 54.136 75.812 54.159 C 75.491 54.173 71.312 56.859 70.056 56.98 C 67.994 61.63 64.03 65.08 61.219 69.423 L 66.114 70.731 C 79.018 70.815 94.16 78.863 96.509 92.637 C 97.203 96.696 96.435 101.603 96.64 105.806 C 96.747 108.05 96.719 110.954 96.854 112.695 C 96.975 114.255 97.877 116.81 97.961 118.668 C 101.158 120.553 104.201 123.518 108.203 123.053 C 106.621 120.66 107.775 111.824 111.772 114.609 C 114.117 116.238 113.191 122.117 111.8 124.277 C 111.232 125.157 109.711 125.031 109.096 126.158 C 111.26 128.568 114.322 129.947 113.522 133.694 C 109.236 131.073 105.593 130.943 100.837 132.102 C 98.236 132.735 96.444 136.087 95.96 138.736 C 94.778 145.201 100.316 147.612 105.876 145.992 C 107.882 145.406 109.399 140.686 112.633 141.672 C 113.214 148.515 101.433 152.551 96.654 150.116 C 96.347 149.963 92.847 146.448 92.675 146.118 C 89.827 140.653 92.228 129.956 98.403 127.884 C 100.581 127.154 103.531 128.545 102.884 125.715 C 98.985 125.385 94.011 121.251 90.772 120.539 C 85.481 119.375 76.124 120.743 70.958 122.597 C 70.219 122.862 66.012 124.794 65.817 124.999 C 65.482 125.352 65.556 126.25 65.212 126.568 C 55.663 135.305 53.137 142.357 51.48 155.432 C 51.173 157.848 52.113 158.915 52.304 160.753 C 52.369 161.363 51.74 162.098 51.81 162.503 C 52.648 167.41 57.887 177.497 61.647 180.691 C 63.569 182.325 71.964 187.095 74.216 187.626 C 77.343 188.361 81.735 187.938 84.718 189.539 L 84.257 187.771 C 88.18 188.711 91.121 186.621 94.471 186.007 C 95.551 185.806 98.031 186.309 98.371 185.88 C 98.575 185.625 98.306 184.777 98.603 184.434 C 98.976 183.995 102.075 183.032 103.187 182.31 C 108.603 178.796 108.715 177.297 111.297 172.707 C 111.86 171.711 113.419 170.794 114.284 169.472 C 117.179 165.045 118.635 154.441 117.942 149.223 C 117.514 145.996 115.155 141.774 115.299 138.13 C 116.812 137.86 115.68 139.15 116.747 139.954 C 117.896 140.82 118.491 140.304 119.311 142.538 C 121.54 148.609 122.055 157.918 120.427 164.096 C 119.646 167.06 118.036 169.807 117.067 172.703 C 117.859 173.377 125.592 170.523 127.082 169.863 C 130.022 168.56 136.016 164.891 138.161 162.769 C 138.742 162.192 145.56 152.854 146.211 151.76 C 151.209 143.366 153.135 127.139 153.446 117.346 C 153.568 113.59 153.967 95.695 152.996 93.787 C 152.697 93.205 149.771 90.477 148.984 89.821 C 148.086 89.071 147.844 88.126 146.322 88.494 C 149.036 91.757 147.919 96.301 143.237 95.621 C 142.19 95.467 143.517 93.447 141.893 93.815 C 142.27 101.984 138.356 104.819 130.408 103.52 C 128.496 98.819 128.082 95.207 129.478 90.268 C 126.276 91.362 123.428 93.238 120.655 95.183 C 118.775 96.501 118.11 98.921 115.299 98.246 C 113.2 92.567 120.786 87.931 125.322 85.664 C 130.12 83.267 135.69 81.237 141.008 82.289 C 137.798 77.327 135.154 76.107 129.208 77.141 C 126.322 77.643 118.976 79.841 116.151 80.93 C 113.275 82.038 110.464 85.939 108.222 82.694 C 107.952 79.617 110.427 78.072 112.656 76.545 C 113.876 75.712 116.365 74.245 117.691 73.603 C 121.469 71.769 126.942 71.392 129.478 68.105 Z M 147.211 55.677 L 145.439 55.677 L 145.439 57.446 L 147.658 58.33 L 148.095 57.892 Z M 138.794 56.561 C 138.216 56.561 138.216 57.446 138.794 57.446 C 139.371 57.446 139.371 56.561 138.794 56.561 Z M 92.247 116.848 C 92.866 113.776 92.298 110.866 92.48 107.733 C 92.666 104.535 92.419 104.028 92.266 101.314 C 91.959 95.919 93.085 89.49 88.697 85.38 C 84.662 83.299 80.907 81.926 76.524 80.711 C 70.386 79.012 63.555 77.508 57.283 76.908 C 56.557 79.319 54.76 78.979 52.787 80.478 C 45.454 86.064 44.319 96.389 44.356 104.917 C 44.402 115.381 46.734 127.512 48.623 137.865 C 48.856 139.144 48.902 140.378 48.818 141.663 L 51.931 131.926 C 55.277 126.576 60.484 120.45 66.515 118.142 C 70.931 116.448 81.037 114.678 85.588 115.092 C 87.422 115.26 90.4 116.243 92.252 116.848 Z M 173.81 123.942 C 173.6 120.613 175.164 114.72 179.509 116.019 C 180.748 116.387 181.487 119.649 183.107 120.302 C 186.573 118.505 192.539 115.446 192.492 111.08 C 192.455 107.491 189.756 102.841 187.075 100.476 C 183.06 96.938 177.42 97.776 172.521 96.422 C 168.142 97.488 164.358 97.762 160.533 100.467 C 155.527 104.005 156.811 107.053 157.853 112.412 C 164.689 110.931 170.622 107.119 177.058 104.54 L 179.98 105.359 L 179.933 108.785 C 172.697 112.127 165.028 116.508 156.969 116.848 C 158.286 119.143 158.295 121.619 156.969 123.938 L 164.061 124.827 C 164.145 122.862 164.763 119.822 166.243 118.584 C 169.896 115.535 173.45 120.595 171.152 123.932 L 173.814 123.932 Z M 39.944 118.617 C 39.549 115.423 41.094 111.205 38.642 108.841 C 35.366 105.676 30.545 105.769 26.166 106.169 C 22.467 106.509 10.708 112.053 8.498 115.092 C 7.414 116.582 6.995 118.682 5.464 120.064 L 7.148 129.258 C 9.475 129.327 10.252 126.828 12.416 126.111 C 15.073 125.227 16.232 125.743 17.721 128.047 L 16.892 133.694 C 25.305 135.03 23.235 131.608 26.217 127.507 C 28.739 124.04 33.853 123.253 35.347 128.099 C 35.668 129.137 35.119 131.064 35.957 131.041 L 42.611 128.359 C 41.899 126.279 42.346 123.118 39.391 122.285 C 38.162 121.936 36.678 122.327 35.254 121.992 C 32.862 121.423 19.391 118.342 18.712 117.695 C 18.567 117.559 18.567 114.362 18.707 114.236 C 18.814 114.134 21.276 113.403 21.606 113.45 C 22.7 113.598 24.212 114.665 25.501 114.897 C 30.508 115.795 35.235 116.178 39.944 118.63 Z M 180.901 135.458 L 180.886 127.051 L 178.686 121.275 C 177.136 122.373 177.303 123.597 177.322 125.277 C 177.345 127.256 178.016 130.97 178.406 133.085 C 178.653 134.424 179.082 136.016 180.901 135.458 Z M 169.375 139.895 C 168.676 136.399 168.258 133.28 168.448 129.662 C 168.523 128.243 169.375 127.089 169.379 126.139 C 169.379 125.618 168.714 122.796 167.607 123.053 L 165.847 132.376 L 165.829 139.895 Z M 157.406 128.369 C 156.83 128.369 156.83 129.253 157.406 129.253 C 157.984 129.253 157.984 128.369 157.406 128.369 Z M 27.534 139.895 C 31.043 138.2 31.252 133.6 31.075 130.142 C 28.716 130.351 28.656 135.081 28.344 135.384 C 28.037 135.682 25.524 135.23 24.877 136.79 C 25.929 138.167 28.042 137.73 27.534 139.895 Z M 8.033 144.326 C 11.35 141.119 13.9 135.658 13.347 131.031 L 9.95 135.169 L 8.028 144.331 Z M 154.75 150.53 C 154.172 150.53 154.172 151.415 154.75 151.415 C 155.326 151.415 155.326 150.53 154.75 150.53 Z M 33.295 154.078 C 32.718 154.078 32.718 154.963 33.295 154.963 C 33.872 154.963 33.872 154.078 33.295 154.078 Z M 148.1 154.967 L 146.328 154.967 L 146.328 155.852 L 148.1 155.852 Z M 153.861 155.852 C 153.283 155.852 153.283 156.736 153.861 156.736 C 154.438 156.736 154.438 155.852 153.861 155.852 Z M 32.411 159.399 C 31.834 159.399 31.834 160.283 32.411 160.283 C 32.988 160.283 32.988 159.399 32.411 159.399 Z M 47.92 168.261 C 48.19 166.637 47.004 165.353 45.263 165.604 Z" fill="rgb(25,25,25)"></path><path d="M 172.479 142.552 C 173.055 142.552 173.055 143.437 172.479 143.437 C 171.901 143.437 171.901 142.552 172.479 142.552 Z" fill="rgb(25,25,25)"></path><path d="M 137.481 117.718 C 135.374 112.309 143.553 106.113 145.355 112.062 C 146.518 115.902 140.623 119.189 137.481 117.718 Z" fill="rgb(25,25,25)"></path><path d="M 87.817 100.001 L 84.271 100.001 L 83.308 107.016 C 72.438 112.826 72.35 100.895 72.741 92.916 C 67.506 91.878 62.862 91.431 60.535 97.097 C 59.13 100.509 60.596 102.687 55.952 101.728 C 53.216 93.34 58.19 83.988 67.85 84.947 C 69.977 85.157 77.938 88.545 79.818 89.83 C 80.679 90.417 87.082 96.715 87.398 97.32 C 87.896 98.265 87.896 98.991 87.817 100.006 Z" fill="rgb(25,25,25)"></path><path d="M 166.15 128.909 C 172.617 128.388 171.748 152.02 162.483 151.001 C 152.944 148.641 160.11 129.397 166.15 128.909 Z" fill="rgb(101,211,159)"></path><path d="M 166.476 126.185 C 168.314 125.911 168.937 126.078 169.873 127.595 C 173.59 133.643 177.709 148.199 170.3 152.626 C 162.902 157.047 159.454 146.91 160.25 140.797 C 160.436 139.378 162.395 134.508 163.065 132.977 C 164.005 130.836 165.949 128.56 166.476 126.181 Z M 168.988 149.097 C 170.315 147.915 171.05 142.738 170.845 140.807 C 170.612 138.638 169.356 133.466 167.322 132.367 C 166.257 138.14 161.883 144.94 166.876 150.084 C 167.304 149.214 168.658 149.39 168.988 149.097 Z" fill="rgb(25,25,25)"></path><path d="M 28.018 135.198 C 34.486 134.676 33.616 158.309 24.352 157.29 C 14.812 154.93 21.978 135.686 28.018 135.198 Z" fill="rgb(101,211,159)"></path><path d="M 28.344 132.474 C 30.182 132.2 30.806 132.367 31.741 133.885 C 35.459 139.931 39.577 154.488 32.169 158.915 C 24.77 163.336 21.322 153.198 22.118 147.086 C 22.304 145.666 24.263 140.797 24.933 139.266 C 25.873 137.125 27.818 134.849 28.344 132.47 Z M 30.857 155.382 C 32.183 154.199 32.918 149.023 32.713 147.091 C 32.481 144.921 31.224 139.75 29.191 138.652 C 28.125 144.423 23.751 151.224 28.744 156.369 C 29.172 155.497 30.526 155.675 30.857 155.382 Z" fill="rgb(25,25,25)"></path></g></svg>