<?xml version="1.0" encoding="UTF-8"?>
<svg id="Layer_2" data-name="Layer 2" xmlns="http://www.w3.org/2000/svg" viewBox="0 0 247 251.01">
  <defs>
    <style>
      .cls-1 {
        fill: #de4f4f;
      }

      .cls-2 {
        fill: #f7d3c0;
      }

      .cls-3 {
        fill: #d8906f;
      }

      .cls-4 {
        fill: #aacf6d;
      }

      .cls-5 {
        fill: #f5ede9;
      }

      .cls-6 {
        fill: #036ca4;
      }

      .cls-7 {
        fill: #f2b200;
      }

      .cls-8 {
        fill: #6aa49a;
      }

      .cls-9 {
        fill: #9fd2cd;
      }

      .cls-10 {
        fill: #f6ceb9;
      }

      .cls-11 {
        fill: #571010;
      }
    </style>
  </defs>
  <g id="_Layer_" data-name="&amp;lt;Layer&amp;gt;">
    <g>
      <path class="cls-5" d="M226.67,152.25c-1.34-1.34-7.98-2.4-19.83-2.66-11.84-.27-54.42.27-53.76.4.67.13,18.36,19.29,21.56,32.2,3.19,12.91,4.92,19.16,1.73,27.81s-11.44,18.63-13.84,21.16-7.19,7.72-7.19,7.72c0,0,2.13,1.6,4.26,1.6s21.96,1.46,25.42,1.46,26.08-2,29.54-2.26c3.46-.27,10.38,0,11.31-2,.93-2,1.06-14.77,1.06-14.77,0,0,10.51-4.26,14.9-12.24,4.39-7.98,4.52-16.9,3.19-24.48-1.33-7.58-3.46-16.1-8.52-18.23-5.06-2.13-9.05-3.86-9.05-3.86l-.4,8.25s3.99,2.4,6.25,7.58c2.26,5.19,2.93,13.71,1.86,18.36-1.06,4.66-2.4,7.98-3.99,10.25-1.6,2.26-3.86,3.86-3.99,3.19-.13-.67-.27-50.96-.27-53.23s.4-5.59-.27-6.25Z"/>
      <path class="cls-7" d="M172.91,174.73s7.45-2.4,12.91-2.53c5.46-.13,11.18,3.73,15.7,7.98s7.85,8.25,7.32,14.64c-.53,6.39-2.26,11.31-5.32,13.84-3.06,2.53-4.39,5.72-9.05,6.12-4.66.4-9.71.13-12.24-.13-2.53-.27-6.39-1.6-6.39-1.6,0,0,3.14-9.85,2.53-13.31-.61-3.46-3.46-16.77-3.99-19.16-.53-2.4-1.46-5.86-1.46-5.86Z"/>
      <path class="cls-8" d="M142.7,138.27s-.4-17.03.53-17.7c.93-.67,10.11-4.79,10.91-4.13.8.67,5.06,13.84,9.58,15.17s5.99,2.4,9.71,1.73c3.73-.67,4.92-.93,4.92-2.4s-2.13-7.19-5.99-11.18c-3.86-3.99-9.31-7.32-9.31-7.32,0,0,2.13-1.73,4.26-1.2,2.13.53,9.01,1.16,13.97.4,4.96-.76,5.32-2.66,5.59-4.12.27-1.46-3.59-5.59-7.85-5.59s-8.38.27-10.25,2-4.66,3.59-6.25,4.39c-1.6.8-6.92,3.33-6.12,1.6.8-1.73,5.75-10.49,4.92-11.18s-6.97,1.33-9.18,5.32c-2.21,3.99-1.86,5.19-1.73,5.99.13.8.8,1.73.13,2-.67.27-5.86,5.06-6.52,3.59s-.4-2.93.67-6.92c1.06-3.99,2.93-17.17,4.12-17.96,1.2-.8,12.64-3.19,14.77-3.86,2.13-.67,9.85-2.53,11.18-2,1.33.53,5.46,9.85,10.65,12.91s9.99,4.9,11.44,3.99c1.45-.9,3.19-8.25-.4-13.44-3.59-5.19-15.57-7.98-15.04-8.38.53-.4,5.49-4.33,7.32-4.12,1.83.2,10.51,9.45,17.57,10.38,7.05.93,15.57-2.13,18.76-3.06,3.19-.93,6.65-4.26,6.12-6.12s-5.85-7.72-12.51-9.71c-6.65-2-15.44-3.46-20.63-.53-5.19,2.93-6.52,3.86-8.12,4.12-1.6.27-10.78,4.13-10.65,3.33.13-.8.67-3.86,1.73-4.52,1.06-.67,7.58-4.92,9.18-6.25s5.06-5.86,6.12-7.85c1.06-2,2-5.59,1.2-8.65-.8-3.06-1.6-5.72-3.19-5.06-1.6.67-15.17,9.98-17.3,13.04s-5.46,7.32-4.66,9.85c.8,2.53,3.06,3.46,3.06,5.19s-.53,8.38-1.73,9.31c-1.2.93-27.41,7.72-27.94,6.25-.53-1.46-1.6-19.43-.4-20.76,1.2-1.33,9.31-6.25,13.84-12.77,4.52-6.52,6.39-11.31,7.05-11.31s4.52,4.26,7.85,3.99,5.46,0,5.06-1.6c-.4-1.6-3.19-5.06-5.19-5.46-2-.4-6.25.53-5.32-.8.93-1.33,3.06-9.85,4.26-9.71,1.2.13,11.18,7.32,22.62-1.73,11.44-9.05,11.84-22.75,10.91-23.29-.93-.53-10.91-2.93-18.9.8-7.98,3.73-13.97,12.11-14.9,13.31-.93,1.2-3.73,6.79-3.73,8.25s-1.33,7.05-1.46,6.65c-.13-.4-4.79-11.18-6.79-12.91s-8.25-4.26-8.52-2.93c-.27,1.33,2.26,11.98,4.79,14.77,2.53,2.79,5.72,5.19,5.46,6.39s-3.73,5.99-5.19,7.85c-1.46,1.86-5.32,5.85-7.45,7.98s-2.79,3.86-3.33,1.46c-.53-2.4-4.26-19.43-4.12-20.89.13-1.46,3.73-9.45,2.93-14.37-.8-4.92-4.52-8.92-4.79-7.98-.27.93-1.06,7.58-.93,9.71.13,2.13.53,5.32-.4,4.79-.93-.53-4.66-3.19-5.59-2.13-.93,1.06-2.13,1.33-.53,3.06,1.6,1.73,5.99,5.99,6.39,7.58.4,1.6,2.26,13.31,2.4,17.3.13,3.99,0,6.92-.8,6.39-.8-.53-12.38-10.38-12.38-10.38,0,0,3.46-6.52,1.73-11.04-1.73-4.52-5.46-8.25-6.12-7.85-.67.4-2.26,5.59-1.86,9.05.4,3.46,1.2,7.72,1.2,7.72,0,0-12.11-4.79-13.17-6.79-1.06-2-3.99-9.71-12.38-13.84-8.38-4.13-23.82-7.45-27.28-7.45s-7.72.53-7.58,1.73c.13,1.2,5.19,13.84,15.97,19.56,10.78,5.72,17.56,4.39,19.16,3.99,1.6-.4,5.99-1.46,7.58-1.6,1.6-.13,13.44,5.85,14.24,6.92.8,1.06,2.66,5.32,1.73,5.19-.93-.13-11.98-2-18.5.53-6.52,2.53-9.05,6.79-8.38,7.58.67.8,10.38,8.12,19.69,5.32,9.31-2.79,15.17-8.92,15.7-8.65s7.05,4.92,8.52,8.25c1.46,3.33.67,23.95-.53,24.62s-2.66-.27-4.79-.8c-2.13-.53-7.85-3.33-7.98-4.26-.13-.93,1.6-6.39-3.33-9.18-4.92-2.79-13.31-5.86-16.5-5.99-3.19-.13-10.25-.4-10.11,1.2.13,1.6,9.18,12.24,16.37,15.04,7.19,2.79,14.77,4.66,15.04,5.59.27.93.27,1.73-1.73,2-2,.27-7.19.27-9.85,2.13s-5.19,4.79-3.86,5.99,9.18,4.92,12.24,2.26c3.06-2.66,8.65-8.52,9.45-8.65.8-.13,6.52,1.06,6.12,3.06-.4,2-4.66,16.1-4.52,18.9.13,2.79.8,16.63.8,16.63l7.05,4.26Z"/>
      <path class="cls-5" d="M170.78,171.94c-2-2.53-23.02-28.21-24.88-29.94-1.86-1.73-37.39-30.61-46.71-36.2-9.31-5.59-16.37-11.18-19.56-12.9-3.2-1.73-28.74-18.5-30.74-19.3-2-.8-15.3-4.52-21.03-3.59-5.72.93-8.78,3.86-9.44,4.52-1.67,1.66-6.52,9.18-1.07,17.03,5.46,7.85,16.24,20.63,15.84,24.48-.4,3.86-5.99,17.57-9.85,24.89-3.86,7.32-13.97,22.49-18.23,39.52-4.26,17.03-6.38,33.53-3.72,42.31,2.66,8.79,7.58,20.63,10.24,22.09,2.66,1.46,2.53,2.8,6.52,2.13,3.99-.66,63.61,3.2,67.6,3.06,3.99-.13,56.82-1.46,58.15-2.92,1.33-1.46,24.43-19.8,28.61-27.42,4.18-7.61,5.59-16.37,5.73-21.02.13-4.66-5.46-24.22-7.45-26.75ZM81.23,105.01c-.27.8-37.26,9.71-39.26,10.38-2,.66-2.13-5.19-4.12-8.25-2-3.06-10.64-15.31-13.97-19.03-3.32-3.72-1.46-6.52.53-8.52,1.06-1.06,4.79-2.26,7.85-2.13s9.58,1.46,23.15,7.18c13.57,5.73,23.69,16.37,25.01,17.17,1.33.8,1.06,2.4.8,3.2Z"/>
      <path class="cls-3" d="M38.38,125.37c-1.6,2.4.67,7.98.67,7.98l11.98-.93s.67-7.85-.67-8.38c-1.33-.53-7.05-.4-8.38,0-1.33.4-3.59,1.33-3.59,1.33Z"/>
      <path class="cls-10" d="M39.58,137.34s-1.33-3.33-.67-3.46c.67-.13,12.11-1.46,12.11-1.46l-.13,4.66-11.31.27Z"/>
      <path class="cls-9" d="M132.96,164.85l-26.98,9.88s-22.29,0-33.22-.12c-.43-9.2-.85-18.51-.85-18.51l12.78-18.1s-.08-.42-.21-1.07c6,.07,20.77.37,27.85.38,4.14,3.23,17.97,14.04,18.53,15.06.2.36,1.03,5.47,2.1,12.47Z"/>
      <path class="cls-6" d="M112.73,137.32c-7.07-.01-21.85-.31-27.85-.38-.45-2.36-1.44-7.83-1.13-8.25.4-.53,22.75.14,24.48,1.33,1.73,1.2,3.33,6.39,3.33,6.39,0,0,.43.33,1.16.91Z"/>
      <path class="cls-6" d="M138.47,199.27l-27.31,8.33-31.14-1.56c-3.21-7.09-5.93-13.17-5.98-13.61-.07-.52-.47-9.11-.89-17.81,10.94.12,33.22.12,33.22.12l26.98-9.88c1.62,10.5,3.77,25.25,5.11,34.42Z"/>
      <path class="cls-9" d="M139.37,208.13c-.47,0-22.49,17.84-22.49,17.84l-26.75,3.06s-5.79-12.57-10.51-22.99l31.14,1.56,27.31-8.33c.76,5.18,1.27,8.69,1.3,8.85Z"/>
      <path class="cls-2" d="M38.65,139.74c-.67,1.33-4.26,5.06-5.99,6.25-1.73,1.2-7.19,6.52-7.19,11.04s-3.59,46.84-3.19,55.36c.4,8.52-.27,17.96.53,19.29.8,1.33,0,3.19,6.92,3.99s20.36-.67,20.36-.67c0,0,21.16-71.32,21.02-71.72-.13-.4-5.06-15.44-9.85-18.76-4.79-3.33-7.58-3.46-8.65-4.79-1.06-1.33-1.73-2.26-1.73-2.26l-11.44.67-.8,1.6Z"/>
      <path class="cls-4" d="M52.88,142.53c-1.49,1.49-.8,8.65,5.06,11.98,5.85,3.33,11.71,3.99,11.71,3.99l2.26-.13s1.2-9.31.13-9.85c-1.06-.53-2.66,2.13-2.66,2.13,0,0-2.4-4.66-6.65-6.12s-9.31-2.53-9.85-2Z"/>
      <path class="cls-3" d="M41.71,166.22c-.44,1.54-.93,31.54-.93,31.54,0,0,23.95-10.38,23.95-10.91s.4-25.28-.93-25.42c-1.33-.13-21.82,3.86-22.09,4.79Z"/>
      <path class="cls-7" d="M69.65,159.83s1.33,3.86-.67,4.66c-2,.8-7.19,6.25-7.72,10.38-.53,4.12-1.06,9.31-2,10.51s-10.78,3.33-13.04,6.52c-2.26,3.19-9.58,10.25-11.44,15.84-1.86,5.59-2.13,11.71,1.2,17.3,3.33,5.59,7.85,9.45,10.51,9.98s11.18,4.26,21.16,4.12c9.98-.13,16.23-1.6,19.96-4.92,3.73-3.33,5.86-10.38,7.05-13.57,1.2-3.19,1.46-10.65-2-15.7-3.46-5.06-6.39-9.18-8.25-10.11s-5.32-1.73-4.79-5.06,2-13.17,1.73-17.3c-.27-4.13-.93-5.59-2.66-7.05s-3.06-2-4.26-3.06c-1.2-1.06-2.53-3.99-2.53-3.99l-2.26,1.46Z"/>
      <path class="cls-1" d="M131.53,180.72c-3.47.63-14.9,4.39-18.76,10.78-3.86,6.39-7.72,15.84-4.39,21.56s5.72,10.38,11.44,12.51c5.72,2.13,14.64,3.59,17.96,1.86,3.33-1.73,9.85-8.12,11.58-10.91,1.73-2.79,5.72-9.31,4.26-15.97-1.46-6.65-3.73-11.58-7.98-14.37s-11.18-5.99-14.11-5.46Z"/>
      <g>
        <path class="cls-11" d="M246.98,193.96c-.27-6.74-1.98-13.25-4.6-19.48-2.33-5.55-6.05-9.47-12.2-10.68-1.84-.36-1.92-.6-2.03-2.33-.17-2.75-.25-5.52-.51-8.26-.18-1.91-.81-2.51-2.72-2.78-3.91-.55-7.81-1.31-11.74-1.47-8.41-.35-16.83-.52-25.25-.49-10.13.02-20.26.32-30.39.48-2.05.03-3.18.45-2.86,1.12.61,1.27,1.83.67,2.81.8.64.08,1.31.04,1.97.01,3.81-.17,7.62-.37,11.42-.52,11.18-.42,22.36-.42,33.54.05,5.25.22,10.51.32,15.76.52,1.31.05,2.62.24,3.9.51,1.69.36,2.08.74,2.06,2.36-.04,5.65-.04,11.31-.3,16.96-.31,6.97-.81,13.92.34,20.86.34,2.07.71,4.19.62,6.26-.17,3.81-.6,7.61-1.04,11.39-.55,4.73-.71,9.44.14,14.15.66,3.67.54,7.32-.07,10.99-.35,2.15-1.59,3.29-3.62,3.53-2.73.34-5.49.54-8.24.75-1.44.11-2.94-.11-4.32.21-4.65,1.04-9.36,1.2-14.1,1.34-5.38.15-10.76.51-16.14.74-1.05.04-2.1-.03-3.15-.12-5.11-.39-10.18-1.3-15.33-1.1-1.75.06-3.41-.27-4.5-1.92-.14-.2-.82-.32-.94-.18-.23.25-.33.7-.33,1.07-.02,1.05.66,1.69,1.52,2.11,1.94.94,4.01,1.19,6.15,1.09,2.5-.11,4.99-.17,7.49-.27,4.75-.2,9.44.39,14.13,1.1.48.07.91.45,1.37.68h4.74c2.13-1.2,4.51-1.29,6.86-1.48,3.53-.3,7.16-.16,10.59-.93,3.03-.68,5.98-.48,8.98-.61,2.49-.11,4.99-.12,7.39-1.03,1.75-.67,2.81-1.8,3.18-3.67.57-2.85,1.07-5.77.51-8.61-.54-2.72.51-4.2,2.75-5.27.47-.23.89-.56,1.35-.81,3.99-2.03,6.95-5.18,9.39-8.83,3.69-5.5,5.67-11.64,5.41-18.24ZM227.6,174.81c.21-.58.66-.77,1.22-.5.35.17.72.37.95.67.63.83,1.37,1.64,1.76,2.59,2.8,6.91,4.6,14,2.58,21.45-1,3.67-2.5,7.17-4.72,10.31-.16.23-.63.27-.97.32-.05,0-.24-.45-.24-.68-.02-1.71-.01-3.41-.01-5.11.13-.01.25-.02.38-.03-.24-2.73-.62-5.46-.7-8.2-.22-6.55-.3-13.1-.42-19.66,0-.38.06-.79.19-1.16ZM231.49,219.38c-.44.28-.9.54-1.35.81-2.44,1.45-3.03,1.16-3.12-1.76-.07-2.24.05-4.38,2.3-5.89,1.13-.76,1.96-2.12,2.67-3.35,2.49-4.37,4.66-8.86,4.38-13.54.24-4.05-1.37-14.42-2.67-17.57-.95-2.33-2.09-4.57-4.51-5.75-1.24-.6-1.69-1.56-1.56-2.87.07-.65.08-1.31.18-1.96.26-1.66.74-2,2.36-1.74,3.73.59,6.51,2.63,8.61,5.68,2.26,3.3,3.79,6.96,4.58,10.82.84,4.1,1.61,8.3,1.66,12.46.12,10.65-4.46,18.94-13.54,24.65Z"/>
        <path class="cls-11" d="M187.33,65.62c1.01-1.02,2.01-2.05,3.04-3.06,2.55-2.51,4.78-5.26,6.12-8.63,1.36-3.41,1.2-6.68-1.1-9.7-.91-1.2-1.49-1.46-2.6-.62-5.27,3.93-10.71,7.69-15.12,12.62-1.38,1.54-2.54,3.37-3.45,5.24-1.03,2.12-1.15,4.35.91,6.12,1.36,1.18,1.61,2.59,1.1,4.28-.68,2.26-1.25,4.56-1.88,6.84-.3,1.09-.92,1.78-2.14,2-8.16,1.45-15.9,4.62-24.14,5.76-.52.07-1.02.27-1.54.33-1.24.16-1.96-.42-2.13-1.74-.1-.78-.09-1.57-.1-2.36-.04-5.13-.03-10.26-.14-15.39-.04-1.74.53-3.04,1.9-4.08,1.78-1.35,3.57-2.71,5.23-4.19,4.36-3.88,7.82-8.52,10.92-13.43,1.05-1.67,2.11-3.34,3.22-4.96.51-.74,1.26-.92,2.04-.35.85.62,1.67,1.28,2.51,1.92,2.02,1.54,4.3,1.84,6.74,1.38.98-.18,1.42-1,.84-1.68-2.14-2.51-4.61-4.31-8.17-3.72-.38.06-.87.24-1.14.08-.39-.23-.74-.69-.89-1.12-.11-.31.1-.77.25-1.12,1.27-2.89,2.54-5.77,3.87-8.63.48-1.03,1.27-1.31,2.27-.93.49.18.95.45,1.42.69,4.76,2.44,9.67,2.38,14.52.48,8.07-3.16,12.93-9.23,15.12-17.5.47-1.77.63-3.62.87-5.44.14-1.09-.48-1.71-1.49-1.99-.13-.04-.25-.08-.38-.09-5.24-.43-10.49-1.01-15.65.64-2.54.81-4.76,2.22-6.78,3.94-5.03,4.27-8.5,9.64-10.94,15.71-.33.83-.31,1.8-.52,2.68-.49,2.04-1,4.07-1.56,6.09-.21.77-.62,1.52-1.57,1.52-1.01,0-1.2-.81-1.39-1.6-.53-2.17-.98-4.37-1.63-6.5-1.37-4.53-4.52-7.28-8.98-8.61-1.02-.31-1.66.14-1.49,1.12,1.06,5.91,2.6,11.59,7.78,15.42.32.23.66.44.96.69,1.61,1.33,1.88,2.14,1.05,4.12-.56,1.32-1.16,2.72-2.09,3.78-3.56,4.04-7.22,8-10.94,11.9-.78.82-1.94,1.32-2.99,1.82-.75.35-1.71-.16-1.89-.94-.2-.89-.28-1.81-.39-2.72-.65-5.62-1.33-11.23-3.14-16.63-.2-.59-.63-1.09-.96-1.64.26-1.01.43-2.06.79-3.03.68-1.84,1.51-3.63,2.18-5.47.83-2.25,1.3-4.58.36-6.9-.69-1.69-1.58-3.3-2.41-4.93-.1-.2-.48-.48-.58-.43-.32.16-.79.45-.8.71-.09,2.61-.17,5.22-.1,7.83.05,1.83.38,3.65.48,5.48.02.4-.37,1.09-.69,1.17-.36.09-.93-.28-1.27-.59-.47-.44-.78-1.06-1.23-1.52-1.51-1.52-3.47-2.25-3.63-1.47-.3,1.51.97,2.32,1.77,3.27,1.68,1.98,3.46,3.89,5.2,5.83-.51,3.47.81,6.76,1.01,10.17.17,2.89.64,5.75.81,8.64.08,1.43-.12,2.89-.35,4.31-.27,1.71-1.34,2.07-2.84,1.07-.22-.14-.43-.31-.63-.48-3.34-2.78-6.69-5.54-9.99-8.36-1.47-1.25-1.52-1.7-.76-3.4.22-.48.5-.93.72-1.41,2.3-4.92.71-10.9-3.75-14.01-.5-.35-1.04-.1-1.25.47-.23.61-.41,1.25-.47,1.89-.43,4.5-.49,8.95,2.06,12.99.16.25.11.82-.08,1.04-.21.24-.72.39-1.04.32-.63-.13-1.25-.39-1.83-.68-3.28-1.67-6.54-3.39-9.82-5.06-1.73-.88-2.83-2.16-3.55-4.01-1.94-4.99-5.46-8.62-10.2-11.07-9.62-4.96-19.81-7.72-30.68-7.78-4.62-.03-4.91.48-2.64,4.57,5.05,9.11,12.79,14.84,22.6,17.95,3.98,1.26,8.05,1.07,12.11.43,1.16-.18,2.31-.51,3.43-.88,1.73-.57,3.3-.4,4.94.45,3.27,1.69,6.6,3.26,9.92,4.84,1.61.76,2.94,1.77,3.54,3.51.5,1.45,2.51,2.8,1.63,4.17-1.14,1.76-3.13.25-4.68-.08-4.45-.95-8.87-1.13-13.29.08-3.63.99-6.85,2.68-9.3,5.64-.92,1.11-.86,1.87.33,2.62,6.99,4.38,14.28,6.12,21.99,1.98,3.23-1.74,6.28-3.82,9.33-5.87,1.73-1.16,1.95-1.29,3.4-.15,2.27,1.79,4.59,3.52,6.77,5.41.75.65,1.4,1.62,1.67,2.56.39,1.37.57,2.85.53,4.27-.17,6.18-.38,12.37-.7,18.54-.19,3.8-1.29,4.45-4.72,2.94-2.89-1.27-5.71-2.7-8.59-3.99-1.35-.6-2.22-1.48-2.03-3.01.7-5.36-2.57-8.1-6.84-9.78-3.4-1.34-7.02-2.19-10.6-2.99-2.16-.48-4.43-.51-6.66-.58-1.02-.03-2.07.31-3.07.59-.21.06-.42.62-.38.91.05.36.32.73.58,1.01,4.59,4.91,9.21,9.76,15.56,12.53,2.32,1.01,4.68,1.82,7.15,2.13,2.58.32,4.69,1.66,6.97,2.65.93.4,1.29,1.27,1.48,2.2.19.94-.44,1.99-1.37,2.05-1.57.1-3.15.06-4.73.05-2-.01-3.94.24-5.74,1.18-1.79.93-3.29,2.17-4.28,3.96-.52.94-.27,1.79.76,2.27,6.71,3.14,11.2,1.96,15.2-2.84.92-1.11,1.68-2.36,2.63-3.45,1.39-1.6,2.22-1.74,4.16-.98.37.14.73.31,1.09.47,3.98,1.77,4.3,2.29,3.36,6.59-.45,2.05-1.16,4.04-1.79,6.05-.55,1.76-1.2,3.48-1.7,5.25-.94,3.33-1.28,6.7-.6,10.15.41,2.06.64,4.16.9,6.25.1.78.12,1.58.03,2.35-.03.24-.53.49-.85.6-.12.04-.51-.27-.55-.47-.2-1.16-.43-2.33-.46-3.5-.09-3.55-.07-7.11-.13-10.66-.06-3.75,1.25-7.24,2.08-10.81.53-2.31,1.13-4.6,1.61-6.91.3-1.47.11-1.71-1.31-2.42-.24-.12-.47-.24-.71-.35-2.95-1.35-2.98-1.33-4.84,1.16-.79,1.05-1.54,2.14-2.45,3.09-3.25,3.41-7.14,4.84-11.8,3.54-1.64-.46-3.29-.93-4.85-1.62-2.32-1.02-2.78-2.52-1.58-4.78,1.51-2.83,3.89-4.67,7.01-5.3,2.3-.46,4.69-.52,7.03-.79.37-.04.73-.23,1.1-.35-.31-.36-.55-.89-.95-1.05-1.33-.53-2.7-1.22-4.09-1.32-4.11-.31-7.56-2.08-10.85-4.34-1.84-1.27-3.7-2.51-5.57-3.74-3.1-2.04-5.88-4.44-8.15-7.39-.48-.63-.97-1.25-1.37-1.93-1.09-1.84-.61-3.01,1.55-3.36,3.66-.59,7.34-.53,11,.06,5.14.83,9.82,2.94,14.3,5.46,3.14,1.77,5.34,4.3,4.84,8.3-.12.99.09,1.89,1.04,2.35,2.84,1.37,5.69,2.71,8.57,3.99.84.37,1.6-.14,1.7-1.04.22-1.96.51-3.92.56-5.89.13-4.6.1-9.21.2-13.82.06-2.57-.7-4.53-3.07-5.92-1.57-.92-2.84-2.33-4.26-3.51-1.18-.97-1.35-.93-2.74-.05-3,1.89-5.94,3.92-9.06,5.58-8.36,4.46-16.29,2.75-23.83-2.14-2.21-1.43-2.35-2.87-.65-4.93,3.54-4.29,8.23-6.48,13.68-6.98,3.54-.32,7.1-.28,10.62.4.34.07,1-.04,1.04-.19.12-.46.18-1.09-.05-1.44-.49-.74-1.1-1.48-1.82-1.99-.85-.6-1.88-.93-2.81-1.42-2.55-1.36-5.18-2.59-7.59-4.18-1.49-.98-2.84-1.18-4.45-.74-1.39.38-2.8.72-4.21,1.05-6.56,1.5-12.82.7-18.72-2.53-7.1-3.89-12.54-9.52-16.78-16.34-.82-1.32-1.35-2.85-1.84-4.34-.38-1.15.18-2.08,1.4-2.42.99-.28,2.05-.39,3.09-.47,3.71-.29,7.39.17,10.98.91,5.79,1.19,11.57,2.48,17.13,4.57.86.32,1.74.61,2.58.98,4.58,2.03,8.65,4.86,10.55,9.6,1.93,4.82,5.4,7.56,10,9.31.12.05.23.13.35.18,1.09.41,2.18.82,3.28,1.23,1.07-1.24.11-2.5-.02-3.73-.34-3.04-.24-6.05.55-9.01.2-.75.51-1.49.89-2.17.42-.75,1.33-.94,2.06-.55,5.56,3.01,8.44,10.65,5.86,16.33-1.42,3.13-1.38,3.12,1.14,5.19,2.33,1.93,4.61,3.92,6.95,5.85.37.31.96.63,1.37.56.85-.16.62-1.02.65-1.62.2-4.37-.4-8.67-1.09-12.96-.13-.78-.32-1.55-.41-2.33-.36-3.21-1.33-6.04-3.92-8.29-1.45-1.26-2.45-3.07-3.56-4.69-.53-.78-.81-1.86-.02-2.54.63-.54,1.62-.87,2.46-.88.87,0,1.75.49,2.63.75,1.01.29,1.45-.02,1.47-1.14.05-2.76-.01-5.53.11-8.29.05-1.16.34-2.33.7-3.44.35-1.07,1.58-1.34,2.17-.49,2.62,3.79,5.28,7.57,4.93,12.57-.16,2.3-.88,4.42-1.94,6.37-1.35,2.49-1.43,4.83-.72,7.55,1.25,4.83,2.4,9.71,2.66,14.74.03.64.27,1.3.56,1.87.11.22.74.4.98.29.58-.27,1.17-.65,1.6-1.12,3.28-3.59,6.55-7.2,9.75-10.86.68-.78,1.14-1.77,1.61-2.71.84-1.71.77-1.9-.67-3.41-4.07-4.27-6.89-9.27-8.47-14.94-.38-1.37-.49-2.84-.53-4.27-.04-1.28.84-1.97,2.07-1.72,3.46.7,6.46,2.25,8.58,5.16.69.95,1.25,2.01,1.81,3.05.87,1.62,1.67,3.28,2.56,4.89.15.27.61.42.95.51.12.03.4-.3.48-.51.17-.49.32-1.01.38-1.53.18-1.89,1.02-3.5,1.95-5.11,2.31-4,4.83-7.84,8.01-11.22,7.07-7.51,15.88-9.88,25.86-8.8.64.07,1.28.28,1.89.51,1.24.47,1.93,1.42,1.85,2.74-.09,1.44-.28,2.88-.55,4.29-.76,4.04-2.03,7.9-4.27,11.38-4.69,7.31-11.52,11.03-20.08,11.41-2.43.11-4.92-.66-7.36-1.11-1.79-.34-2.02-.32-2.87,1.2-.58,1.03-1.1,2.1-1.62,3.16-.94,1.94-.89,2.11,1.15,2.64,2.63.68,4.79,2.14,6.68,4,.64.63,1.12,1.45,1.51,2.27.44.92-.1,1.86-1.07,2.17-3.44,1.09-6.73.96-9.76-1.23-.53-.38-1.08-.77-1.66-1.07-.65-.34-1.27-.23-1.71.42-.59.87-1.18,1.74-1.74,2.64-4.4,7.11-9.5,13.6-16.38,18.5-1.15.82-1.85,1.76-1.83,3.26.1,5.13.11,10.27.21,15.4.03,1.62.55,1.97,2.33,1.67,2.33-.4,4.65-.85,6.97-1.32,5.02-1.02,10.01-2.21,15.07-3.04,2.07-.34,3.02-1.33,3.33-3.18.37-2.18.73-4.36.94-6.55.05-.53-.35-1.3-.79-1.64-2.96-2.3-2.85-5.22-1.48-8.17.93-2,2.13-3.97,3.59-5.61,4.6-5.13,10.25-9.04,15.78-13.06.32-.23.68-.41,1.04-.56,1.28-.52,2.25-.26,3.1.91,1.94,2.69,2.61,5.7,2.11,8.98-.04.26-.11.51-.19.77-1.8,5.89-5.3,10.48-10.54,13.72l-.11-.12Z"/>
        <path class="cls-11" d="M154.44,202.43c-.54-6.69-3.01-12.49-8.79-16.46-.54-.37-1.03-.83-1.58-1.18-1.99-1.27-3.99-2.52-5.99-3.78-.5-2.42-.96-4.86-1.51-7.27-1.47-6.53-3.71-12.89-4.32-19.6-.15-1.61-.94-2.64-2.17-3.53-3.73-2.69-7.4-5.49-11.19-8.09-3.43-2.35-6.63-4.97-8.02-8.95-1.31-3.72-3.91-4.99-7.44-5.26-.53-.04-1.05-.04-1.58-.08-2.49-.21-4.97-.51-7.46-.6-3.15-.12-6.31-.15-9.47-.08-2.13.04-2.77.81-2.55,3.04.17,1.69.54,3.37,1,5.01.3,1.1.32,2.04-.34,2.98-2.63,3.78-5.23,7.58-7.87,11.34-.66.93-1.17.83-1.58-.17-1.1-2.69-1.37-2.84-3.88-1.47-.88.48-1.46.42-2-.35-1.87-2.71-4.46-4.57-7.53-5.46-2.62-.76-4.55-2.45-6.74-3.82-1.53-.95-2.08-2.32-1.97-4,.05-.91.38-1.81.37-2.72-.02-2.09-.07-4.18-.31-6.25-.19-1.63-1.41-2.52-2.96-2.77-2.91-.46-5.77-.22-8.46,1.12-1.92.95-3.06,2.51-3.21,4.64-.15,2.07-.42,4.14.58,6.17,1.38,2.77.27,5.11-1.74,7.09-1.03,1.01-2.23,1.84-3.39,2.7-2.03,1.5-3.78,3.24-5.27,5.28-1.27,1.74-2.08,3.67-2.27,5.8-.33,3.53-.62,7.07-.86,10.61-.33,4.72-.48,9.47-.93,14.17-.85,8.78-1.33,17.56-1.56,28.73-.54,5.16.55,12.61.9,20.09.11,2.28,1.15,3.99,2.99,5.27,1.31.92,2.69,1.58,4.3,1.84,3.4.56,6.79.68,10.21.25,3.42-.44,6.77-.51,10.05.93,1.42.63,3.04.87,4.6,1.04,4.83.53,9.67,1.31,14.51,1.32,8.93.02,17.35-1.63,22.97-9.68.47-.67,1.05-1.07,1.93-1.16,3-.31,5.99-.76,9-1.04,4.58-.43,9.17-.73,13.75-1.16,1.86-.17,3.63-.03,5.42.58,1.73.6,3.53,1.12,5.35,1.34,4.2.51,8.44.79,12.19-1.79,6.58-4.51,11.65-10.26,13.95-18.05.62-2.11,1.01-4.42.84-6.59ZM113.49,139.3c3.73,3.71,7.66,7.22,11.97,10.27.54.38,1.06.78,1.53,1.24.25.25.53.67.48.96-.05.28-.46.64-.77.71-2.94.66-5.9,1.27-8.86,1.87-1.44.29-2.27.9-1.88,1.44.57.81,1.41.6,2.13.45,2.71-.53,5.4-1.14,8.1-1.7.9-.18,1.8-.38,2.71-.46.86-.07,1.53.26,1.74,1.21.56,2.43,1.2,4.84,1.7,7.28.88,4.38,1.69,8.77,2.53,13.16.12.65.25,1.3.32,1.95.13,1.26-.2,1.76-1.42,1.82-4.45.18-8.44,1.82-12.34,3.77-3.93,1.95-7.38,4.54-10.09,8.04-.24.32-.45.66-.74.92-.28.25-.66.56-.97.54-.22-.01-.53-.53-.58-.85-.56-3.9-1.16-7.79-1.61-11.7-.53-4.56-.92-9.14-1.37-13.72-.07-.65-.17-1.31-.2-1.96-.04-1.04-.25-2.14.03-3.1.35-1.17,1.74-.94,2.67-1.36.18-.08.41-.49.34-.61-.18-.31-.45-.65-.76-.76-.34-.12-.79-.07-1.15.05-1,.33-1.8.06-2.51-.65-1.67-1.67-3.46-3.24-4.99-5.03-2.65-3.1-5.14-6.33-7.69-9.5-1.31-1.62-2.61-3.23-3.92-4.84,2-1.3,4.3-.59,6.44-.89,1.81-.25,3.68-.05,5.51-.05v-.31c3.02,0,6.05.03,9.07-.01,1.8-.02,3.24.49,4.57,1.82ZM85.99,129.04c.65-.06,1.31-.01,2.36-.01,5.36.43,11.11.89,16.86,1.34,1.4.11,2.5.73,3.29,1.89.52.76,1.07,1.5,1.51,2.3.23.43.47,1.27.3,1.41-.44.35-1.14.61-1.7.55-7.07-.76-14.14-.61-21.22-.23-1.66.09-1.92.03-2.41-1.27-.42-1.1-.78-2.23-1.02-3.38-.34-1.67.29-2.42,2.04-2.6ZM73.27,156.09c.91-1.45,1.95-2.8,2.92-4.21,2.54-3.68,5.05-7.37,7.6-11.05.64-.93,1.29-1.09,1.94-.46,5.3,5.11,10.67,10.14,15.22,15.97.08.11.16.21.23.32.62.9.37,1.53-.7,1.6-5.37.35-10.75.66-16.11.99,0-.11-.01-.23-.02-.34-3.16,0-6.31.03-9.47-.01-1.91-.02-2.62-1.22-1.62-2.8ZM70.7,150.2c0-.1.41-.18.64-.28.67.54.37,1.15.07,1.72-.11.19-.41.26-.62.39-.04-.61-.11-1.22-.09-1.83ZM38.78,130.06c.04-2.85,1.11-4.45,4.08-4.99,1.77-.33,3.65-.19,5.46-.07.52.03,1,.72,1.49,1.12.09.07.13.23.15.35,1,5.47,2.06,5.8-3.84,5.81-1.81,0-3.62.47-5.44.63-1.46.13-1.84-.28-1.9-1.77,0-.26,0-.52,0-1.08ZM50.55,134.95c-.02.98-.59,1.56-1.75,1.75-.39.06-.79.09-1.17.1-.66.02-1.32,0-2.7,0-.97-.15-2.66-.38-4.33-.67-.21-.04-.52-.32-.53-.51-.01-.18.27-.48.47-.55.87-.28,1.74-.58,2.63-.74,1.81-.31,3.63-.57,5.46-.76,1.27-.13,1.94.42,1.92,1.38ZM41.86,234.28c-.05.24-.57.53-.89.53-3.81.03-7.64.14-11.44-.04-3.3-.16-6.04-1.84-6.32-6.24-.03-.4-.07-.79-.07-1.18,0-6.05,0-12.1,0-18.16.22-5.53.36-11.05.67-16.57.28-4.86.78-9.7,1.12-14.55.36-5.25.64-10.5.96-15.76.09-1.57.2-3.15.31-4.73.26-3.73,1.88-6.81,4.58-9.33,1.15-1.07,2.39-2.08,3.65-3.02,2.03-1.52,3.86-3.2,4.91-5.56.42-.95,1.06-1.41,2.1-1.47,2.36-.15,4.72-.4,7.09-.53,1.88-.11,3.19.8,3.88,2.6.11.28-.04.84-.27,1.02-2.34,1.93-1.68,4.3-.71,6.45,1.67,3.66,4.22,6.66,7.88,8.56.82.42,1.79.65,2.45,1.24.51.45.75,1.31.88,2.02.15.83-.61,1.08-1.24,1.24-5.84,1.53-11.59,3.54-17.7,3.76-2.28.08-3.11,1.04-3.19,3.47-.17,5.39-.47,10.78-.77,16.17-.14,2.62-.5,5.24-.56,7.87-.05,1.95.68,4.03.22,5.84-.46,1.82-1.98,3.36-3.04,5.02-4.25,6.62-4.71,13.44-1.47,20.66,1.64,3.66,3.36,7.14,6.55,9.7.26.21.49.71.42,1ZM63.23,163.56c.29,1.95.51,3.91-.61,5.74-2.52,4.14-3.65,8.65-3.73,13.49-.04,2.5-.19,2.76-2.5,3.3-4.91,1.15-8.9,3.76-12.36,7.31-.45.47-.95.9-1.46,1.31-.57.45-1.3.12-1.36-.66-.12-1.56-.17-3.13-.25-4.7h.3c.24-6.43.48-12.85.73-19.28.02-.53.05-1.05.13-1.57.23-1.54.66-2.11,2.25-2.24,5.27-.45,10.31-1.92,15.4-3.19.76-.19,1.55-.35,2.32-.31.41.02,1.09.47,1.14.8ZM90.71,229.13c-1.85,2.84-4.3,4.97-7.36,6.38-2.76,1.27-5.67,2.22-8.7,2.42-7.64.52-15.32.34-22.74-1.61-8.91-2.33-14.88-8.09-17.48-17.08-.79-2.72-.74-5.43.13-8.15,1.25-3.93,3.05-7.61,5.68-10.76,2.36-2.81,4.97-5.43,7.6-8,2-1.95,4.45-3.25,7.11-4.13.87-.29,1.73-.62,2.6-.92,1.65-.58,2.58-1.7,2.73-3.49.11-1.31.46-2.6.54-3.91.22-3.52,1.54-6.65,3.34-9.59,1.17-1.91,2.5-3.73,4.69-4.65,1.1-.45,1.54-1.3,1.54-2.49,0-1.65.11-3.3.17-4.95-2.83-.94-5.59-1.65-8.31-2.44-5.55-1.62-8.07-5.93-9.64-11.03-.26-.85.41-1.67,1.25-1.57,3.8.46,7.53,1.3,10.71,3.57,1.01.72,1.7,1.95,2.43,3.02,1.02,1.5,1.59,3.23,2.89,4.64.68.75.44,2.36.57,3.61.11.08.1.14.1.2.07.07.14.13.16.21,1.08,3.01,3.27,4.93,6.03,6.4,2.81,1.5,3.98,4.07,4.17,7.16.31,5.06-.61,9.97-1.9,14.81-1.25,4.69-1.88,4.05,2.56,7.4.74.56,1.44,1.15,2.19,1.69,4.56,3.24,7.33,7.82,9.56,12.8,1.51,3.39,1.26,6.97.92,10.5-.34,3.58-1.58,6.9-3.55,9.94ZM64.85,160.5c.14-.6.32-1.7.43-1.7.86.04,1.85.09,2.53.55.98.66,1.19,3.47.34,4.26-.61.57-1.54,1.11-2.31,1.09-.94-.03-.77-1.16-.88-1.88-.09-.64-.08-1.29-.11-1.93,0-.13-.03-.27,0-.39ZM115.09,225.29c-6.53.7-13.06,1.39-19.6,2.05-.96.1-1.38-.52-1.04-1.55,1.06-3.26,1.81-6.57,2.11-10.01.36-4.14-.71-7.82-3.04-11.17-.9-1.29-1.93-2.49-2.91-3.72-.73-.93-1.61-1.77-2.2-2.78-1.65-2.8-3.91-4.92-6.66-6.59-1.85-1.12-1.88-1.21-1.3-3.46,1.13-4.37,1.3-8.85,1.45-13.31.07-1.94-.22-3.96-.71-5.85-.77-2.91-2.65-5.1-5.27-6.62-.34-.2-.72-.34-1-.6-.15-.14-.24-.47-.18-.68.05-.18.32-.41.51-.42,8.27-.37,16.55-.73,24.82-1.07.52-.02,1.05.04,1.58.07,1.06.06,1.71.59,1.85,1.66.31,2.34.81,4.69.87,7.04.1,3.85.76,7.6,1.7,11.29.76,2.98,1.01,5.95.75,8.59.18,3-.38,5.65.65,8.22.25.63.04,1.55-.19,2.27-2.27,7.1-.69,13.51,3.47,19.42,1.43,2.03,3.17,3.85,4.77,5.76.53.62.33,1.37-.42,1.45ZM149.48,214.45c-1.89,3.34-4.24,6.33-7.17,8.82-3.79,3.22-7.93,4.77-13.06,3.83-5.68-1.04-10.81-2.9-15.16-6.87-4.11-3.75-5.32-8.56-5.74-12.79.41-9.31,4.05-15.83,10.92-20.49,3.51-2.38,7.41-3.92,11.54-4.88,1.32-.31,2.53-.3,3.82.25,1.19.51,2.53.66,3.79,1.03,3.63,1.06,6.71,2.94,8.88,6.14.3.43.64.83.94,1.26,5.19,7.65,5.85,15.54,1.24,23.7Z"/>
        <path class="cls-11" d="M187.44,65.74c-1.34,1.03-2.66,2.08-4.01,3.09-.73.55-1.65.92-2.23,1.6-.46.54-.88,1.53-.69,2.11.34,1.02,1.32.38,2.01.19,2.4-.69,4.81-1.34,7.15-2.21,1.58-.59,3.07-1.45,4.51-2.33,4.75-2.86,9.83-4.31,15.4-4.04,3.09.15,5.93,1.15,8.7,2.39,2.4,1.07,4.78,2.2,7.12,3.38,2.91,1.46,5.22,3.55,6.43,6.66.86,2.21.58,3.4-1.35,4.8-3.56,2.6-7.61,4.13-11.85,5.2-7.51,1.88-14.62.74-21.28-3.1-1.58-.91-2.94-2.2-4.35-3.37-1.01-.84-1.92-1.8-2.89-2.69-.86-.79-1.88-.95-2.94-.53-.85.34-1.69.75-2.47,1.23-.54.33-1.36.8-1.38,1.23-.04,1.04,1.13.89,1.77,1.05,4.92,1.21,8.96,3.71,11.97,7.81,2.93,3.99,3.07,8.27,1.24,12.71-.66,1.6-1.39,2.11-3.07,1.82-1.66-.29-3.34-.76-4.88-1.45-5.58-2.51-9.71-6.68-12.98-11.76-.64-.99-1.22-2.03-1.87-3.02-.64-.95-1.55-1.39-2.71-1.22-.78.12-1.56.22-2.33.38-6.44,1.37-12.73,3.28-18.98,5.32-1.26.41-2.46.84-2.82,2.41-1.43,6.28-2.91,12.55-4.37,18.83-.12.51-.25,1.02-.33,1.54-.11.79.52,1.34,1.16,1,1.27-.68,2.5-1.45,3.77-2.14,1.07-.59,1.46-1.38,1.1-2.61-.18-.61-.17-1.31-.07-1.95.66-4.43,6.05-9.51,10.57-10,1.43-.16,2.09.57,1.51,1.84-.71,1.55-1.55,3.04-2.36,4.55-.56,1.04-1.19,2.05-1.75,3.09-.11.2-.14.56-.02.73.11.17.46.31.68.27,2.37-.35,4.48-1.12,6.4-2.73,3.64-3.06,7.95-4.54,12.74-4.49,3,.03,5.65,1.11,8.05,2.86.53.38,1.02.84,1.43,1.34,1.53,1.88,1.16,4.21-.93,5.38-.9.51-1.93.9-2.94,1.09-4.93.89-9.88,1.58-14.87.32-.86-.22-1.8-.17-2.7-.19-.1,0-.35.54-.28.61.35.38.73.75,1.17,1.03,3.15,2.01,5.6,4.76,8.08,7.49,2.28,2.5,3.48,5.56,4.5,8.7.59,1.82.11,2.8-1.59,3.46-5.42,2.09-13.32,2.14-17.84-4.92-1.48-2.31-2.59-4.86-3.83-7.33-.41-.82-.65-1.72-1.02-2.56-.29-.67-.89-1.07-1.59-.83-3.11,1.05-6.21,2.13-9.27,3.33-.44.17-.85,1.04-.85,1.59-.02,4.21.08,8.42.1,12.63,0,1.19,1.05,2.61-.68,3.47-1.24-.79-.96-2.08-.97-3.21-.04-4.21.03-8.43-.03-12.64-.02-1.8.6-2.97,2.37-3.61,3.21-1.17,6.36-2.5,9.57-3.69,1.46-.54,2.17-.16,2.76,1.33.59,1.46.96,3.02,1.66,4.43,1.16,2.35,2.3,4.75,3.81,6.88,3.06,4.33,8.76,5.93,14.55,3.74,1.02-.38,1.34-1.08.94-2.22-.47-1.36-.9-2.79-1.63-4.01-2.83-4.69-6.58-8.49-11.31-11.32-1.14-.68-2.24-.49-3.41-.52-.25,0-.54-.49-.69-.82-.06-.14.13-.51.31-.63,2.6-1.65,5.17-2.67,8.51-1.9,4.65,1.08,9.42.67,14.08-.47.51-.13,1.03-.22,1.51-.42,1.7-.7,2.06-2.15.76-3.4-2.73-2.62-6.07-3.78-9.77-3.18-3.65.59-7.14,1.88-9.96,4.42-1.12,1.01-2.37,1.65-3.76,2.06-1.89.56-3.79,1.09-5.7,1.58-.81.21-1.61-.69-1.27-1.45.38-.83.87-1.61,1.35-2.39,1.38-2.24,2.79-4.46,4.15-6.71.18-.3.11-.75.15-1.12-.47-.05-1-.26-1.4-.12-3.13,1.05-5.4,3.2-7.15,5.92-1.02,1.6-1.68,3.31-.78,5.21.47.99.3,1.86-.6,2.41-2.13,1.3-4.31,2.52-6.49,3.73-.55.3-1.38-.33-1.32-1.04.12-1.3.29-2.61.53-3.9,1.09-5.68,2.21-11.36,3.33-17.04.13-.65.31-1.28.44-1.93.29-1.42,1.13-2.37,2.48-2.82,1.99-.67,3.98-1.4,6.02-1.87,5.5-1.28,11.06-2.37,16.55-3.7,1.84-.45,3.01.08,4.11,1.43,2.25,2.75,4.51,5.5,6.87,8.15,2.77,3.11,6.19,5.3,10.16,6.56,2.51.79,2.98.5,3.79-1.86,1.27-3.69.68-7.08-1.91-9.94-3.23-3.58-7.29-6-11.81-7.64-.61-.22-1.3-.2-1.93-.37-.67-.18-1.63.76-1.96-.37-.07-.24.86-.86,1.4-1.17,1.94-1.1,3.92-2.13,5.88-3.21,1.29-.71,2.54-.56,3.76.12.8.45,1.59.93,2.32,1.48,1.79,1.35,3.55,2.73,5.3,4.12,3.54,2.82,7.51,4.33,12.08,3.83,5.38-.6,10.67-1.56,15.56-4.05.59-.3,1.17-.6,1.74-.93,2.53-1.51,2.87-2.66,1.11-5.08-2.29-3.14-5.15-5.71-8.92-6.88-5.05-1.56-10.24-2.34-15.56-1.91-3.6.29-6.99,1.29-10.09,3.12-1.73,1.02-3.57,1.59-5.5,2.08-2.41.62-4.77,1.46-7.14,2.24-.75.24-1.45.62-2.2.87-.21.07-.55-.01-.72-.15-.15-.12-.25-.47-.18-.65.42-1.1.82-2.22,1.36-3.26.35-.67.82-1.39,1.43-1.77,2-1.25,4.09-2.36,6.14-3.52l.11.12Z"/>
        <path class="cls-11" d="M184.34,173.58c-3.46,0-6.8.61-9.99,1.98-.47.2-.97.35-1.47.42-.17.02-.46-.25-.56-.45-.1-.2-.13-.61,0-.72.59-.5,1.17-1.07,1.87-1.35,7.82-3.16,15.36-2.8,22.61,1.8,5.15,3.26,9.13,7.43,11.38,13.2,2.66,6.84,1.83,13.13-2.56,18.99-2.75,3.67-6.17,6.45-10.47,8.09-3.82,1.45-7.77,1.39-11.67.66-2.57-.48-5.06-1.42-7.57-2.18-.63-.19-1.25-.46-1.17-1.31.06-.65.91-.94,1.97-.62.63.19,1.23.46,1.85.67,3.92,1.28,7.95,1.72,12.06,1.51,2.96-.15,5.68-1.08,8.13-2.72,8.28-5.57,11.22-15.99,6.6-24.64-.98-1.85-2.15-3.62-3.41-5.29-4.39-5.85-10.53-7.99-17.6-8.03Z"/>
        <path class="cls-11" d="M186.26,199.31c-3.07.08-6.03-.98-8.92-2.29-.16-.07-.22-.38-.32-.59.25-.05.53-.21.73-.14,2.49.9,4.99,1.5,7.69,1.48,4.48-.03,8.21-1.59,11.18-4.93.52-.59,1.02-1.2,1.58-1.76.13-.13.53-.15.68-.04.18.12.34.47.29.67-.12.49-.26,1.04-.56,1.43-3.09,3.95-7.05,6.24-12.36,6.17Z"/>
        <path class="cls-11" d="M196.25,236.2c-.13.36-.17.64-.31.84-.14.18-.38.37-.59.38-.22.02-.57-.1-.65-.27-.28-.57-.59-1.18-.68-1.8-.56-3.62-1.07-7.25-1.58-10.88-.03-.22.14-.47.22-.71.2.12.53.21.58.38.92,3.27,1.82,6.55,2.69,9.83.2.75.24,1.55.34,2.22Z"/>
        <path class="cls-11" d="M208.5,157.43c0,.23.07.51-.01.74-1.69,4.7-4.3,8.89-7.23,12.89-.06.08-.34.11-.36.08-.11-.19-.31-.49-.24-.62,1.28-2.41,2.65-4.78,3.89-7.22,1-1.97,1.83-4.03,2.77-6.03.08-.17.42-.33.61-.3.2.02.37.28.58.46Z"/>
        <path class="cls-11" d="M220.51,215.52c-.41.32-.72.74-.95.71-.48-.08-1-.31-1.36-.63-2.04-1.83-4.04-3.71-6.03-5.59-.15-.14-.14-.46-.21-.69.21-.05.51-.2.63-.12,2.35,1.65,4.69,3.32,6.99,5.03.38.28.58.79.93,1.29Z"/>
        <path class="cls-11" d="M176.84,165.4c-.21.74.69,2.53-.93,2.56-1.18.02-.73-1.7-.79-2.67-.05-.9.02-1.83.16-2.72.05-.32.45-.59.68-.88.29.37.77.71.84,1.11.14.76.04,1.56.04,2.61Z"/>
        <path class="cls-11" d="M211.69,178.59c-.19-.15-.5-.26-.54-.45-.05-.21.05-.59.22-.69,1.97-1.27,3.96-2.5,5.96-3.71.13-.08.51.06.64.21.14.17.23.53.15.71-.81,1.68-4.4,3.87-6.42,3.94Z"/>
        <path class="cls-11" d="M178.13,223.92c.14.25.49.59.44.85-.34,1.66-2.09,3.19-3.81,3.35-.2.02-.51-.2-.61-.39-.1-.19-.12-.6,0-.72,1.12-1.06,2.29-2.07,3.45-3.09.07-.06.25,0,.52,0Z"/>
        <path class="cls-11" d="M185.86,186.14c0,.26.03.52,0,.78-.19,1.29.55,2.7-.44,3.9-.11-1.27-.21-2.54-.33-3.81-.11-1.16-.25-2.32-.37-3.48-.04-.38-.11-.8,0-1.15.1-.34.39-.63.6-.93.23.27.65.54.65.81.01,1.29-.08,2.59-.14,3.88.02,0,.03,0,.05,0Z"/>
        <path class="cls-11" d="M177.11,184.74c.59,1.48.87,1.88.86,2.28,0,.22-.47.44-.73.66-.25-.38-.61-.74-.71-1.16-.07-.3.2-.69.57-1.79Z"/>
        <path class="cls-11" d="M196.38,185.15c-.33.2-.66.47-.72.42-.26-.2-.44-.52-.65-.79.21-.13.49-.41.6-.35.29.15.5.45.77.72Z"/>
        <path class="cls-11" d="M124.03,190.27c.09,1.16-.39,1.89-1.31,2.25-.23.09-.84-.17-.92-.39-.37-1.01.32-2.17,1.38-2.33.27-.04.6.33.85.47Z"/>
        <path class="cls-11" d="M143.44,195.72c-.14.37-.25.8-.3.79-.32-.04-.63-.18-.95-.29.08-.23.14-.63.25-.64.31-.04.64.08,1,.15Z"/>
        <path class="cls-11" d="M147.09,208.03c.33.39.69.63.71.89.01.25-.35.52-.54.78-.25-.22-.66-.41-.72-.68-.05-.23.29-.55.55-.99Z"/>
        <path class="cls-11" d="M135.53,189.4c.11.16.3.32.28.45-.03.14-.25.24-.38.36-.07-.08-.22-.19-.2-.24.07-.19.19-.36.3-.57Z"/>
        <path class="cls-11" d="M130.54,192.24c-.19.1-.38.21-.57.31-.05-.22-.19-.47-.13-.65.05-.14.34-.2.52-.3.06.21.12.42.17.63Z"/>
        <path class="cls-11" d="M128.7,208.03c-.05.11-.11.22-.16.33-.16-.13-.33-.25-.45-.4-.03-.03.11-.2.17-.3.15.13.29.25.44.38Z"/>
        <path class="cls-11" d="M125.98,194.8c-.04.08-.07.16-.1.25-.07-.12-.14-.23-.21-.35.11.03.21.07.32.1Z"/>
      </g>
      <path class="cls-11" d="M32.55,69.27c7.16-.23,13.65,1.93,19.72,5.48,3.34,1.95,6.49,4.24,9.82,6.22,7.93,4.7,15.53,9.9,23.17,15.03,2.13,1.43,4.16,3,6.31,4.38,1.54.99,3.23,1.76,4.84,2.65,8.83,4.92,16.81,11.05,24.61,17.42,3.1,2.54,5.97,5.37,8.97,8.03,1.06.94,1.99,2.15,3.64,2.14.17,0,.43.12.51.27,1.34,2.5,3.84,3.74,6.01,5.25,5.24,3.66,9.64,8.12,13.59,13.1,1.68,2.11,3.47,4.13,5.18,6.22.41.49.69,1.09,1.04,1.63.17.26.33.55.55.77.83.82,1.79,1.54,2.5,2.45,2.31,2.95,4.61,5.92,6.77,8.98,3.46,4.91,5.53,10.46,6.73,16.3.94,4.56,1.67,9.17,2.29,13.78.24,1.73.09,3.56-.17,5.31-.93,6.1-2.63,11.99-6.43,16.97-6.25,8.18-13.05,15.86-21.56,21.81-1.51,1.05-3.08,2.03-4.61,3.05-.44.29-1.06.54-1.22.96-.46,1.21-1.36,1.17-2.39,1.2-3.87.13-7.74.34-11.62.5-1.7.07-3.41.05-5.11.12-3.74.15-7.49.3-11.23.51-4.27.24-8.53.66-12.79.8-7.1.24-14.21.53-21.31.41-7.75-.13-15.5-.71-23.24-1.09-2.94-.15-5.87-.19-8.8-.74-1.68-.31-3.52.29-5.27.19-4.79-.27-9.56-.71-14.34-1.05-4.19-.3-8.38-.55-12.57-.84-.44-.03-.92-.13-1.31-.33-2.24-1.17-4.25-2.6-5.72-4.72-4.08-5.86-7-12.2-7.78-19.37-.55-5.09-1.19-10.2-1.3-15.31-.13-5.79,1.2-11.47,2.12-17.18,1.59-9.85,5.23-18.97,9.23-28,1.6-3.61,3.56-7.06,4.96-10.74,1.87-4.88,4.4-9.39,6.88-13.94,1.48-2.71,2.98-5.41,4.46-8.13,2.16-3.97,3.25-8.31,4.36-12.63.36-1.41.33-2.88-.57-4.18-1.19-1.72-2.33-3.48-3.55-5.18-2.14-2.99-4.37-5.93-6.48-8.94-1.47-2.09-2.99-4.18-4.19-6.43-1.75-3.28-2.59-6.85-2.49-10.62.16-6.12,4.51-11.13,10.56-11.93,2.4-.32,4.84-.37,7.26-.55ZM69.2,248.19c-2.11-1.2-4.2-2.44-6.28-3.69-1.07-.64-2.1-1.36-3.2-1.94-.37-.19-1.11-.24-1.36,0-1.44,1.35-2.79,2.79-4.14,4.22-.55.58-.19.98.43,1.11.51.11,1.05.05,1.57.07,2.49.11,4.99.26,7.48.32,1.83.04,3.67-.05,5.5-.08ZM21.77,145.55c.18-.07.4-.09.52-.21,6.82-7.11,13.62-14.23,20.44-21.34.73-.76.26-1.12-.4-1.46-2.46-1.24-4.9-2.52-7.38-3.71-1.27-.61-1.45-.52-1.69.81-.96,5.37-3.2,10.24-5.81,14.97-1.65,2.99-3.28,5.99-4.89,9-.33.62-.51,1.32-.76,1.98-.11.09-.03-.03-.03-.03ZM90.63,204.87c-.29-.26-.5-.5-.76-.68-1.31-.89-2.62-1.76-3.94-2.63-3.46-2.28-6.94-4.51-10.37-6.83-1.63-1.1-3.1-2.45-4.75-3.53-6.61-4.31-13.27-8.54-19.89-12.84-.8-.52-1.26-.37-1.83.29-1.37,1.6-2.82,3.13-4.18,4.74-7.92,9.33-15.83,18.67-23.73,28.02-.97,1.14-.98,1.23.03,2.01,4.95,3.81,9.81,7.76,14.92,11.34,6.2,4.33,12.62,8.34,18.95,12.48,1.04.68,2.12,1.3,3.19,1.95.95-.88,1.91-1.76,2.86-2.65.19-.18.37-.38.56-.56,8.63-8.04,16.57-16.75,24.33-25.62,1.3-1.49,2.59-2.98,3.88-4.48.25-.29.44-.62.72-1.02ZM115.03,165c-.35-.28-.71-.63-1.13-.9-3.26-2.09-6.52-4.21-9.82-6.24-3.63-2.24-7.27-4.48-10.98-6.57s-7.55-3.99-11.28-6.05c-.9-.5-1.46-.56-2.18.26-1.7,1.92-3.49,3.76-5.23,5.65-7.32,7.93-14.63,15.85-21.94,23.79-1.11,1.2-1.06,1.22.27,2.14,2.86,1.99,5.68,4.04,8.56,5.99,4.73,3.2,9.5,6.36,14.27,9.49,3.02,1.98,6.09,3.88,9.12,5.84,2.09,1.36,4.16,2.75,6.21,4.16.78.54,1.35.57,1.98-.27,3.4-4.59,7.01-9.05,10.24-13.76,4.81-7.03,7.95-14.95,11.55-22.63.11-.24.2-.49.36-.9ZM127.16,224.3c.44-.43.97-.88,1.43-1.4,6.59-7.6,13.01-15.35,18.79-23.6,2.67-3.81,5.05-7.85,7.43-11.86,1.69-2.86,1.6-2.92-1.12-4.68-.11-.07-.23-.14-.33-.22-3.28-2.53-7.1-3.92-10.99-5.18-5.32-1.71-10.52-3.74-15.48-6.33-2.61-1.36-5.18-2.82-7.78-4.2-1.75-.93-1.76-.9-2.67.75-2.76,5-5.45,10.05-8.31,14.99-4.12,7.1-7.82,14.48-13.29,20.7-.84.96-.23,1.3.48,1.77,3.75,2.54,7.54,5.04,11.22,7.67,3.75,2.68,7.55,5.25,11.72,7.23,2.73,1.3,5.42,2.66,8.13,4,.18.09.36.16.77.34ZM29.95,70.66c-.72.05-1.44.1-2.17.15-4.28.3-7.68,2.22-10.08,5.75-2.42,3.57-2.49,7.35-.67,11.23,2.09,4.45,5.07,8.29,8.07,12.13,1.91,2.44,3.58,5.02,4.9,7.84.86,1.84,2.02,3.53,2.98,5.33.42.78.82,1.61.96,2.46.08.49.05.82.56,1.05,3.16,1.45,6.33,2.89,9.46,4.41.91.44,1.43.19,2.03-.48,1.31-1.48,2.68-2.9,4-4.37.43-.48.76-1.04,1.13-1.57-.64.05-1.28.05-1.91.16-2.13.4-4.24.86-6.37,1.25-1.17.21-2.09-.21-2.59-1.32-.51-1.14-1.01-2.28-1.41-3.46-.92-2.71-2.23-5.21-4.01-7.42-3.37-4.21-6.87-8.32-10.22-12.55-1.09-1.38-1.99-2.95-2.69-4.56-.41-.96-.41-2.18-.33-3.26.22-3.05,2.14-4.77,4.8-5.93,2.85-1.24,5.72-1.06,8.7-.63,6.44.93,12.52,2.93,18.37,5.69,3.21,1.51,6.34,3.18,9.51,4.76,1.18.59,2.45,1.01,3.54,1.72,5.12,3.37,9.96,7.11,14.17,11.59.72.76,1.18,1.87,1.49,2.9.46,1.56.25,1.9-1.32,2.44-2.48.85-4.98,1.66-7.51,2.38-5.49,1.58-11.01,3.07-16.5,4.65-.78.23-1.61.67-2.16,1.26-2.27,2.38-4.45,4.85-6.64,7.31-.83.94-.79.95.37,1.7,2.26,1.46,4.48,2.99,6.77,4.41,1.73,1.07,3.49,2.12,5.33,2.97,3.71,1.71,7.31,3.57,10.7,5.87,2.55,1.73,5.3,3.17,7.94,4.77.77.47,1.29.36,1.85-.32,1-1.22,2.11-2.35,3.11-3.57,6.96-8.37,12.69-17.6,18.54-26.74.58-.9.19-1.19-.52-1.64-3.22-2.03-6.42-4.11-9.61-6.19-1.98-1.29-3.9-2.67-5.9-3.93-3.33-2.1-6.77-4.04-10.04-6.24-3.98-2.68-7.76-5.66-11.73-8.36-5.83-3.97-12.17-7.06-18.5-10.1-5.16-2.47-10.8-3.18-16.46-3.56ZM78.68,143.41c-.3-.23-.52-.46-.79-.61-1.8-1.08-3.58-2.21-5.44-3.2-4.06-2.15-8.24-4.08-11.94-6.87-1.62-1.22-3.31-2.38-5.09-3.35-2.94-1.6-5.99-2.99-8.97-4.52-.72-.37-1.22-.31-1.73.28-.25.3-.54.58-.81.86-8.06,8.49-16.12,16.97-24.18,25.46-.18.19-.36.38-.56.55q-1.77,1.52.11,2.89c.59.43,1.16.86,1.76,1.26,9.1,6.02,18.2,12.04,27.3,18.04,1.25.83,1.29.81,2.39-.39,6.59-7.16,13.17-14.33,19.76-21.49,2.45-2.66,4.93-5.3,7.39-7.95.26-.29.49-.6.8-.98ZM83.01,249.09c0,.08,0,.16,0,.23,4.14-.21,8.28-.33,12.41-.67,1.65-.13,3.33-.19,4.91-1.14,4.76-2.87,9.17-6.19,13.3-9.87,3.73-3.32,7.27-6.86,10.86-10.35.96-.93.9-.99-.26-1.64-1.72-.97-3.47-1.88-5.15-2.91-3.13-1.93-6.21-3.96-9.34-5.9-5.2-3.22-10.44-6.36-15.63-9.6-1.83-1.14-1.56-1.1-2.8.37-7.94,9.33-16.19,18.36-25.09,26.79-1.72,1.63-3.4,3.3-5.05,5-.98,1.01-.97,1.1.3,1.85,2.72,1.6,5.48,3.14,8.21,4.72.91.53,1.89.98,2.65,1.68,1.1,1.01,2.36,1.41,3.77,1.44,2.3.03,4.61,0,6.91,0ZM177.76,200.31c-.38-2.16-.74-4.22-1.1-6.28-.18-1.01-.78-1.54-1.74-1.91-5.09-1.96-10.15-3.99-15.21-6.01-1.45-.58-1.39-.56-2.22.83-2.62,4.41-5.01,8.99-8,13.13-4.7,6.5-9.8,12.72-14.76,19.02-1.46,1.86-3.05,3.63-4.6,5.42-.51.59-.75,1.01.15,1.52,3.26,1.86,6.4,3.93,9.74,5.62,3.04,1.54,6.29,2.66,9.42,4,1.2.51,2.66.86,3.46,1.77,1.01,1.14,1.49.61,2.15-.08,4.42-4.61,8.94-9.11,13.19-13.87,3.58-4.02,6.13-8.68,7.34-14.01.29-1.28.8-2.51,1.1-3.78.42-1.78.74-3.58,1.1-5.36ZM2.82,198.03c-.37,1.4.15,2.01,1.31,2.55,1.35.63,2.55,1.6,3.74,2.52,3.01,2.34,5.96,4.76,8.98,7.1,1.54,1.19,1.58,1.14,2.8-.28.09-.1.17-.2.25-.3,7.73-9.06,15.46-18.13,23.2-27.18,1.45-1.7,2.95-3.37,4.45-5.03.49-.54.64-.98-.11-1.39-.23-.13-.43-.3-.65-.44-9.6-6.35-19.2-12.7-28.81-19.05-1.2-.8-1.26-.8-1.84.47-3.49,7.65-7.01,15.3-9.65,23.3-1.92,5.83-3.45,11.73-3.66,17.74ZM131.64,132.2c-.25-.35-.44-.78-.76-1.07-3.1-2.74-6.13-5.56-9.36-8.15-3.43-2.75-7.06-5.26-10.6-7.88-1.64-1.21-3.28-2.42-4.9-3.66-.74-.57-1.29-.48-1.74.34-.19.35-.43.66-.64.99-3.8,5.76-7.48,11.6-11.44,17.25-2.83,4.03-6.03,7.79-9.08,11.65-.92,1.16-.95,1.13.3,1.83,1.26.71,2.54,1.38,3.76,2.16,3.28,2.07,6.44,4.33,9.8,6.25,5.99,3.42,12.08,6.65,18.13,9.95,1.15.63,1.15.6,1.94-.95,4.67-9.2,9.34-18.39,14.01-27.58.18-.35.36-.7.58-1.14ZM164.87,165.69c-.29-.43-.61-1.06-1.07-1.55-5.19-5.51-9.9-11.42-14.53-17.4-.92-1.19-1.99-2.3-3.16-3.24-3.18-2.55-6.45-4.98-9.68-7.47-.73-.56-1.46-1.12-2.15-1.74-.66-.59-1.2-.81-1.61.23-.09.24-.24.47-.36.7-3.39,6.9-6.79,13.79-10.17,20.7-1.1,2.24-2.16,4.5-3.24,6.75-.29.6-.64,1.18.18,1.69,2.11,1.33,4.07,2.97,6.32,3.98,3.82,1.72,7.77,3.2,11.76,4.51,4.21,1.38,8.17,3.21,12.02,5.38,2.34,1.32,4.76,2.51,7.12,3.79.7.38,1.19.39,1.58-.43,2.09-4.46,4.22-8.9,6.29-13.36.33-.7.43-1.51.71-2.56ZM30.71,78.16c-1.48.37-3.06.58-4.5,1.15-2.57,1.02-3.5,3.07-2.73,5.74.25.87.71,1.7,1.18,2.47.48.78,1.06,1.51,1.65,2.22,5.93,7.17,11.18,14.79,15.23,23.19.5,1.03,1.2,1.23,2.23.97,4.26-1.09,8.59-1.94,12.78-3.26,7.35-2.32,14.89-3.83,22.37-5.58.61-.14,1.28,0,1.59-.85.32-.92-.21-1.35-.75-1.83-2.31-2.05-4.61-4.13-6.95-6.15-5.21-4.49-10.78-8.45-17.25-10.92-4.72-1.8-9.47-3.57-14.31-5.01-3.38-1-6.93-1.43-10.53-2.14ZM45.61,247.68c.34-.11.67-.13,1-.11,2.56.17,4.77-.48,6.5-2.51.89-1.05,1.94-1.97,2.88-2.98,1.07-1.15,1.06-1.18-.18-1.98-7.63-4.9-15.23-9.82-22.33-15.51-4.24-3.4-8.94-6.23-13.45-9.31-1.31-.89-1.35-.89-2.37.34-2.48,2.98-4.92,6-7.4,8.98-1.43,1.72-2.82,3.48-4.37,5.07-.57.58-.69.96-.42,1.65.97,2.44,1.8,4.94,2.89,7.32,1.15,2.53,2.66,4.88,5.21,6.25.72.38,1.61.69,2.4.64,5.28-.31,10.48.59,15.71.95,4.65.31,9.28.78,13.92,1.19ZM115.95,247.67c5.89.37,11.19.51,16.49-.46,2.89-.53,5.88-.54,8.82-.82.57-.05,1.23-.09,1.68-.39,2.91-1.92,5.77-3.91,8.65-5.87.74-.5.62-.79-.15-1.17-3.51-1.77-6.96-3.67-10.5-5.38-3.84-1.85-7.77-3.53-11.65-5.31-1.79-.82-1.78-.86-3.14.57-4.72,4.97-9.67,9.68-15.07,13.9-1.81,1.42-3.68,2.76-5.52,4.15-.18.14-.28.38-.41.58.24.06.47.18.71.18,3.55.01,7.1,0,10.09,0ZM3.01,202.59c-.13.18-.29.31-.32.47-.08.52-.14,1.04-.16,1.57-.14,4.53-.55,9.06.18,13.57.47,2.9.96,5.81,1.53,8.69.23,1.15.47,1.2,1.16.38,3.63-4.41,7.23-8.85,10.85-13.27.5-.61.61-1.12-.09-1.65-4.14-3.12-8.28-6.25-12.42-9.37-.2-.15-.46-.24-.73-.38ZM175.36,189.55c-.38-1.51-.7-2.85-1.05-4.18-1.58-6.09-3.98-11.82-7.42-17.1-.2-.3-.53-.51-.8-.76-.15.29-.34.56-.43.87-1.34,4.7-3.54,9.04-5.64,13.43-.7,1.46-.7,1.52.76,2.15,4.46,1.93,8.93,3.83,13.4,5.74.18.08.38.21.55.18.23-.04.43-.21.63-.32Z"/>
    </g>
  </g>
</svg>