<?xml version="1.0" encoding="UTF-8"?>
<svg id="Layer_2" data-name="Layer 2" xmlns="http://www.w3.org/2000/svg" viewBox="0 0 871.51 869.58">
  <defs>
    <style>
      .cls-1 {
        fill: #f5b649;
      }

      .cls-2 {
        fill: #59b386;
      }

      .cls-3 {
        fill: #fff;
      }

      .cls-4 {
        fill: #f6a67f;
      }

      .cls-5 {
        fill: #1b1652;
      }

      .cls-6 {
        fill: #5474de;
      }

      .cls-7 {
        fill: #d47e61;
      }

      .cls-8 {
        fill: #f06296;
      }

      .cls-9 {
        fill: #e0c8b3;
      }
    </style>
  </defs>
  <g id="Layer_2-2" data-name="Layer 2">
    <g>
      <path class="cls-6" d="M310.14,367.33s-14.4-37.14-7.58-53.81c6.82-16.67,24.25-25.01,24.25-25.01,0,0-6.82-29.56,5.31-46.23,12.13-16.67,35.62-23.49,43.2-28.04,7.58-4.55,29.56-12.13,27.28-35.62-2.27-23.49-8.05-45.83,4.55-72,12.59-26.17,45.47-52.29,75.79-64.42,30.32-12.13,85.64-25.01,150.06.76,64.42,25.77,73.52,58.36,80.34,72,6.82,13.64,20.67,68.74,37.89,72,17.23,3.26,62.91,17.43,71.24,43.96s4.55,32.59,3.79,37.14c-.76,4.55-6.06,9.85-6.06,9.85,0,0,23.49,7.58,37.89,22.74,14.4,15.16,11.37,25.01,5.31,42.44s-25.01,41.68-25.01,41.68c0,0,23.49,19.71,16.67,45.47-6.82,25.77-13.64,42.44-21.22,46.99-7.58,4.55-30.32,9.09-30.32,9.09l-493.39-118.99Z"/>
      <path class="cls-1" d="M286.14,404.72l-1.52,17.68s19.71,27.28,31.83,38.4c12.13,11.12,22.74,18.95,23.49,18.95s29.05,7.83,29.05,7.83c0,0,46.23,102.82,47.75,101.81s141.98,56.84,143.24,56.84,94.23-33.35,94.23-33.35c0,0-109.64-185.18-120.25-208.67-10.61-23.49-19.45-47.24-19.45-47.24,0,0-35.62.51-44.46-15.41s-15.66-31.33-15.66-31.33c0,0-32.34-16.42-72.25,2.02-39.92,18.44-71.75,53.31-77.56,62.91-5.81,9.6-18.44,29.56-18.44,29.56Z"/>
      <path class="cls-4" d="M542.06,55.08c-2.14-3.21-40.67,6.32-61.14,21.98s-34.61,31.33-38.65,53.31c-4.04,21.98-3.03,39.16-4.29,51.03-1.26,11.87-2.27,54.57,10.61,69.98,12.88,15.41,37.14,20.72,41.68,30.82,4.55,10.11-1.52,35.37-1.52,35.37,0,0-33.85-8.08-33.6-6.57s4.8,19.96,17.18,30.82c12.38,10.86,39.41,12.88,39.41,12.88,0,0,27.54,56.59,33.35,71.24s67.96,118.48,69.47,120.76c1.52,2.27,96.76,72.76,123.28,79.07,26.53,6.32,48-5.81,57.6-26.53s16.67-31.58,13.39-64.42-9.6-66.44-14.65-88.67c-5.05-22.23-22.23-82.86-22.23-82.86,0,0-35.12,39.92-51.79,48.76-16.67,8.84-42.44,23.49-42.44,23.49,0,0-46.74-69.73-52.29-86.91-5.56-17.18-5.56-23.24-2.27-28.8,3.28-5.56,41.94-65.43,46.48-81.85,4.55-16.42,3.79-47.24.51-57.6-3.28-10.36-7.83-20.21-19.2-22.99s-19.2,2.02-19.2,2.02c0,0-6.82-4.55-11.62-1.52-4.8,3.03-8.59,6.82-8.34,5.81.25-1.01-6.57-5.81-11.37-2.27-4.8,3.54-6.82,9.09-6.82,9.09,0,0,1.52-16.67,8.08-28.8,6.57-12.13,9.85-17.94,9.85-17.94,0,0-39.92-22.74-50.78-40.67-10.86-17.94-17.68-26.53-18.69-28.04Z"/>
      <path class="cls-4" d="M224.5,286.49c-.25-1.01,0-25.26-.25-32.08-.25-6.82-3.03-18.95.25-26.27,3.28-7.33,7.33-14.65,10.86-11.87,3.54,2.78,13.14,15.41,15.66,33.6,2.53,18.19,10.36,43.71,15.92,50.02,5.56,6.32,21.47,27.79,21.73,59.37.25,31.58-4.55,39.66-4.55,40.67s-3.28,58.36-3.03,59.87,39.16,41.18,39.16,42.44,44.97,47.49,44.21,48.51-4.55,39.66-4.55,39.66c0,0-42.75,58.44-43.71,58.86-.96.42-110.65-49.26-111.41-49.52-.76-.25-31.33-106.61-31.07-107.87s26.27-67.71,23.24-69.98c-3.03-2.27-89.68-47.49-109.89-59.62-20.21-12.13-31.58-34.61-32.34-46.74-.76-12.13,1.01-23.75,9.6-23.24,8.59.51,25.52,16.67,36.88,29.05,11.37,12.38,37.39,27.79,37.39,27.79,0,0-3.54-22.74-.51-26.02,3.03-3.28,6.06-4.8,6.06-4.8,0,0-3.28-12.63.76-22.99,4.04-10.36,24.25-25.52,24.25-25.52,0,0,12.63-47.24,17.18-54.06,4.55-6.82,20.97-20.97,28.04-17.18,7.07,3.79,12.38,4.8,10.61,13.64-1.77,8.84-8.08,15.92-12.63,28.29s-6.32,32.59-6.32,32.59l18.44,13.39Z"/>
      <path class="cls-2" d="M240.16,88.17c-.76.76-15.41,35.37-22.74,34.61-7.33-.76-1.52-27.79,0-32.59s3.03-12.88,2.53-12.13c-.51.76-38.15-12.13-37.64-24,.51-11.87,42.69,6.82,42.69,5.56s-7.83-22.74.76-34.36c8.59-11.62,24.51-23.75,23.49-19.71-1.01,4.04-2.02,45.47-2.02,45.47,0,0,35.87-19.2,37.39-15.41s-32.08,32.84-32.08,33.6,19.2,35.62,16.93,37.89c-2.27,2.27-29.31-18.95-29.31-18.95Z"/>
      <path class="cls-8" d="M239.41,119.5c12.88,17.17,49.26,13.89,60.38,7.07,11.12-6.82,20.21-28.55,17.43-45.47-2.78-16.93-22.23-32.59-25.26-33.09-3.03-.51-9.6-1.01-9.85-.25-.25.76-32.59,20.46-31.58,20.72,1.01.25,21.73,32.34,18.44,35.87-3.28,3.54-28.8-16.17-28.8-16.17,0,0-8.84,15.66-8.59,16.42.25.76,3.28,8.84,7.83,14.91Z"/>
      <path class="cls-9" d="M313.43,494.66c-.76.25-26.02-16.17-29.56-23.75-3.54-7.58-3.79-12.88-3.79-12.88,0,0,3.79-36.63,4.55-35.62.76,1.01,54.06,56.59,54.06,56.59l-25.26,15.66Z"/>
      <path class="cls-1" d="M624.42,316.05c-4.55,6.06-6.06,18.69,8.34,45.22,14.4,26.53,31.58,57.35,34.86,57.85,3.28.51,35.37-13.39,51.54-26.02,16.17-12.63,45.98-44.97,45.98-44.97,0,0-27.28-83.37-51.28-99.54-24-16.17-48.76,1.52-48.76,1.52l-40.67,65.94Z"/>
      <path class="cls-9" d="M679.74,436.55s34.11-19.96,51.03-32.59,42.69-38.65,42.69-38.65l-6.06-16.17s-37.14,36.63-58.61,48.76c-21.47,12.13-42.19,19.2-42.19,19.2l13.14,19.45Z"/>
      <path class="cls-3" d="M586.02,106.87c-6.82,1.01-48.25,13.14-50.27,24.76-2.02,11.62,27.79,7.07,40.93.76,13.14-6.32,20.46-17.68,20.46-17.68l-11.12-7.83Z"/>
      <path class="cls-3" d="M490.27,139.96c-6.82-.25-44.21,9.09-49.26,19.45-5.05,10.36-4.55,14.91,9.09,14.15,13.64-.76,44.72-18.95,44.72-18.95l-4.55-14.65Z"/>
      <path class="cls-1" d="M87.83,138.7c-8.16.74-13.64-25.52-20.72-29.56-7.07-4.04-17.18-13.89-17.18,1.77s29.81,82.86,29.81,82.86c0,0,22.74-32.08,29.81-43.2,7.07-11.12,10.61-27.79,7.33-29.05-3.28-1.26-26.27,16.93-29.05,17.18Z"/>
      <path class="cls-2" d="M110.82,534.32s17.94-48,58.11-41.43c40.17,6.57,31.58,38.91,31.58,38.91,0,0,30.32-11.87,39.16,12.63,8.84,24.51,4.29,39.16-8.34,47.75-12.63,8.59-51.79,21.47-53.05,26.27-1.26,4.8-3.3,46.79,4.8,61.14,8.1,14.34,11.87,12.63,12.13,11.87.25-.76,5.05-2.02,5.81,0,.76,2.02,6.32,15.41,5.56,15.66-.76.25-51.03-2.53-63.66-10.86-12.63-8.34-23.24-20.72-23.24-20.72,0,0-3.03-22.23-7.83-21.98s-55.58,24.51-80.59,8.08c-25.01-16.42-31.07-55.58-26.27-75.03,4.8-19.45,25.77-30.06,31.07-31.33,5.31-1.26,15.66-.25,15.66-.25,0,0,2.02-19.71,26.78-28.8,24.76-9.09,32.34,8.08,32.34,8.08Z"/>
      <path class="cls-2" d="M260.88,626.53s9.85,56.41,21.98,56.08c12.13-.33,7.83-50.02,8.59-49.52.76.51,41.94,38.91,47.49,32.08,5.56-6.82.76-24.76-9.6-30.06-10.36-5.31-27.79-15.16-27.03-15.41.76-.25,24.51-16.67,18.44-24-6.06-7.33-34.36,1.26-34.86.51-.51-.76-4.04-31.83-2.78-42.19,1.26-10.36,2.78-22.48-.25-22.74s-24.76,23.75-22.99,35.12c1.77,11.37,4.8,36.13,4.29,36.88-.51.76-39.66,2.02-54.57,12.38-14.91,10.36-19.2,16.67-14.91,18.19,4.29,1.52,66.19-7.33,66.19-7.33Z"/>
      <path class="cls-8" d="M200.25,652.81c-3.03,7.07.51,33.85,3.79,41.18,3.28,7.33,7.33,12.88,7.33,12.88,0,0,110.91,4.29,111.66,4.04.76-.25,15.92-14.15,10.11-30.57-5.81-16.42-37.89-46.23-37.89-46.23l-3.79-1.01s6.06,48-2.78,49.26c-8.84,1.26-22.48-27.28-25.01-35.87-2.53-8.59-4.29-21.22-4.29-21.22,0,0-37.14,10.36-42.44,10.61-5.31.25-16.67,16.93-16.67,16.93Z"/>
      <path class="cls-1" d="M330.86,629.31c-.76-.25,8.08-26.53,30.82-36.13,22.74-9.6,85.14-7.83,86.15-12.38,1.01-4.55,23.49-58.11,39.66-68.72,16.17-10.61,36.63-11.62,36.63-11.62,0,0-2.02-.25,3.28,5.31,5.31,5.56,19.96,6.57,19.96,6.57,0,0,8.34,17.43-.51,40.93-8.84,23.49-21.47,54.82-21.73,55.83-.25,1.01,26.27,36.13,25.52,64.42-.76,28.29-13.89,50.53-13.89,50.53,0,0-82.61-4.8-122.78-4.29-40.17.51-88.42-6.57-88.42-6.57,0,0,11.37-16.42,10.11-26.53-1.26-10.11-6.32-17.94-6.32-17.94,0,0,14.91-4.29,14.15-10.11-.76-5.81-12.63-29.31-12.63-29.31Z"/>
      <path class="cls-2" d="M362.69,586.87c-.25-.76-11.62-26.78-11.62-26.78,0,0-26.78,5.81-36.63-15.41-9.85-21.22-4.8-47.49,6.06-55.83,10.86-8.34,45.47-1.52,45.47-1.52,0,0,12.88-29.31,34.36-28.55,21.47.76,26.02,23.24,26.02,23.24,0,0,20.46-21.47,37.39-7.83,16.93,13.64,13.89,34.86,5.31,46.99-8.59,12.13-30.06,24.25-37.39,26.02-7.33,1.77-17.68,1.77-17.68,2.53s7.07,31.83,7.07,31.83l-58.36,5.31Z"/>
      <path class="cls-8" d="M543.83,637.14s9.85-14.65,24.25-18.19c14.4-3.54,34.36,6.57,34.36,6.57,0,0-13.39,25.77-12.38,25.77s23.75-13.39,26.53-11.62c2.78,1.77,22.48,37.64,26.02,37.64s7.07,1.01,7.07,1.01c0,0,6.57,21.22,1.01,29.31-5.56,8.08-12.38,13.14-12.38,13.14,0,0-61.14,7.58-72,7.58s-32.08-4.55-31.33-4.55,20.21-29.31,15.41-52.55c-4.8-23.24-6.57-34.11-6.57-34.11Z"/>
      <path class="cls-2" d="M585.26,589.14c-2.83-1.89-3.03,13.39,4.04,21.98,7.07,8.59,14.4,13.89,14.4,13.89,0,0-15.92,26.02-14.65,27.54,1.26,1.52,30.06-13.64,30.06-13.64,0,0,18.19,42.44,25.52,39.41,7.33-3.03-5.56-38.4-5.31-37.64.25.76,25.26,22.48,29.56,13.14,4.29-9.35-7.58-24.76-18.44-27.54-10.86-2.78-17.94-3.54-17.94-4.29s9.6-42.19,5.56-43.96-16.67,30.32-16.67,30.32c0,0-6.82,1.52-7.83.51-1.01-1.01-27.54-19.2-28.29-19.71Z"/>
      <path class="cls-2" d="M621.39,598.74c-2.02.51-22.48-28.8-13.14-43.2,9.35-14.4,33.85-21.22,49.77-22.23,15.92-1.01,38.91,13.89,38.91,13.89,0,0,18.19-13.64,30.32-6.32,12.13,7.33,16.17,19.71,15.41,30.82-.76,11.12-2.78,20.46-2.78,20.46,0,0,17.43-6.32,22.99,12.63,5.56,18.95-8.08,38.65-8.59,38.15s10.61,4.29,5.31,13.89c-5.31,9.6-12.13,14.65-24.25,15.66-12.13,1.01-44.97-1.01-44.97-.25s-19.45,44.97-19.45,44.97l-25.26-2.02s12.88-19.96,8.84-29.81c-4.04-9.85-8.08-19.71-8.08-19.71,0,0-7.58-24.25-6.82-23.75.76.51,27.28,23.24,29.81,15.41,2.53-7.83-.51-21.22-10.61-27.03-10.11-5.81-26.53-6.57-26.27-8.34.25-1.77,10.86-45.22,4.04-44.21-6.82,1.01-15.16,20.97-15.16,20.97Z"/>
      <path class="cls-7" d="M693.64,675.29l-21.98,40.93s-61.14,10.61-146.27,10.86c-85.14.25-175.07-12.88-216.25-13.89-41.18-1.01-157.64-13.89-169.01-18.44s-18.69-21.47-19.96-21.22c-1.26.25-11.12,1.26-11.62,2.02-.51.76-15.92,8.84.51,26.02,16.42,17.18,101.05,105.85,117.47,116.21,16.42,10.36,59.87,41.43,118.99,45.22s138.44,2.53,158.91-5.56c20.46-8.08,113.94-36.38,145.01-58.61,31.07-22.23,65.43-58.86,71.75-64.67,6.32-5.81,44.21-56.84,45.73-60.38,1.52-3.54,4.55-8.84,1.01-9.85-3.54-1.01-8.84-.76-8.84-.76,0,0-8.08,4.29-23.75,9.35-15.66,5.05-41.68,2.78-41.68,2.78Z"/>
      <path class="cls-2" d="M536.5,485.06c-4.55-2.53-29.31-15.66-30.82-24.25-1.52-8.59-3.03-20.72,2.53-22.23,5.56-1.52,29.31,12.63,35.37,21.22,6.06,8.59,4.04,16.67,9.09,16.67s31.83,1.01,49.01,6.06c17.18,5.05,38.91,24.25,35.87,29.81-3.03,5.56-21.73,9.6-41.43,1.52-19.71-8.08-30.32-18.19-36.38-16.67-6.06,1.52-10.11,2.02-11.62,7.58-1.52,5.56-1.01,9.09-1.01,9.09,0,0-13.64,11.12-20.72,1.01-7.07-10.11-5.05-10.61-5.05-10.61,0,0,5.05.51,7.07-3.03,2.02-3.54,8.08-16.17,8.08-16.17Z"/>
      <path class="cls-5" d="M848.31,377.23c10.32-13.36,18.98-27.54,22.24-44.44,2.24-11.56.74-22.36-6.38-32.04-8.18-11.16-18.46-19.52-31.66-24.16-4.82-1.7-4.94-1.92-2.98-6.72,3.42-8.4,4.52-17.28,1.94-25.7-8.08-26.28-23.7-45.4-52.06-51.38-3.66-.76-7.28-1.72-10.94-2.58-10.8-2.52-19.22-8.38-24.22-18.4-4.22-8.46-8.58-16.94-11.84-25.82-7.8-21.28-18.64-40.8-31.7-59.24-13-18.34-29.38-32.6-49.98-41.78-9.12-4.06-18.32-7.92-27.64-11.46-4.38-1.68-9.08-2.88-13.76-3.42-12.38-1.46-24.8-3.24-37.22-3.46-21.94-.36-43.92-.54-65.54,4.78-33.56,8.26-62.78,23.96-86.82,49.04-16.74,17.46-25.18,38.28-24.54,62.38.26,9.9,2.04,19.8,3.76,29.6,3.14,17.96-5.48,32.86-22.8,38.5-1.42.46-2.86.88-4.3,1.26-11.9,3.16-21.84,9.68-30.76,17.94-14.86,13.78-21.66,30.26-16.66,50.56.84,3.44.08,5.42-3.36,7-9.1,4.18-15.52,11.26-18.16,20.84-4.14,15.08-6.44,30.96-.5,45.64,4.34,10.78,2.24,18.32-4.56,26.1-.16.18-.22.46-.38.64-.84.84-1.68,1.68-2.52,2.5-.36-1.06-.94-2.12-1.02-3.22-.54-6.94-1.08-13.9-1.4-20.88-.78-16.84-6.18-32.16-14.52-46.7-8.6-15-15.42-30.76-18.82-47.88-2.14-10.74-4.32-21.54-7.44-32.04-1.56-5.32-5.02-10.18-8.08-14.94-1.48-2.34-5.32-3.78-5.74-6.06-.46-2.52,1.78-5.54,2.84-8.34.36-.94.7-1.86,1.06-2.8,1.02-2.76,2.76-4.12,5.84-4.98,21.06-5.84,34.1-19.92,40.1-40.64,1.28-4.46,2.2-9.4,1.66-13.92-.42-3.34.12-4.4,2.92-5.42,2.56-.94,5.04-2.18,7.4-3.58,18.12-10.78,26.74-26.7,24.18-47.7-2.32-19.22-14.5-31.18-31.44-38.86-4.8-2.2-4.92-1.92-2.84-6.82,2.46-5.82-.08-9.98-6.34-10.1-1.94-.04-4.04.34-5.82,1.1-6.66,2.78-13.24,5.74-19.8,8.76-3.76,1.74-4,1.7-4.22-2.56-.1-2,0-4-.02-6-.04-7.26.08-14.5-.22-21.74-.3-7.42-4.82-10.14-10.94-6.46-16.74,10.06-28.66,32.4-24.5,46.34,1.54,5.08.84,5.28-4.24,3.32-7.44-2.84-14.78-6.02-22.38-8.32-2.84-.86-6.48-.22-9.42.76-4.6,1.52-6.3,5.34-5.34,10.2,1.02,5.14,3.58,9.44,8.16,12.02,6.08,3.44,12.34,6.54,18.6,9.64,3.56,1.76,9.18,2.38,10.38,5.06,1.36,3.02-1.48,7.78-2.08,11.82-1.08,7.38-2.08,14.78-2.72,22.22-.36,4.18.98,8.12,5.26,9.9,4.5,1.86,7.58-1.1,10.5-3.9,1.26-1.2,2.2-2.74,3.46-3.92.96-.9,2.2-1.5,3.32-2.22.26,1.54,1.06,3.24.68,4.62-1.82,6.48-3.78,12.92-6.04,19.26-4.08,11.48-5.74,23.28-4.82,35.36.64,8.4,2.98,16.32,11.28,20.7,2.22,1.18,2.72,2.72,1.86,4.92-.92,2.32-1.76,4.68-2.82,6.94-.48,1.04-1.44,1.86-2.18,2.78-.46-1.04-1.02-2.04-1.36-3.12-3.5-10.46-9.24-13.7-20.08-11.08-6.94,1.7-13.28,4.82-17.96,10.26-14.14,16.48-22.18,35.5-21.88,57.44.06,4.5-.78,6.74-5.16,8.28-9.12,3.24-16.04,9.46-19.54,18.48-1.86,4.76-2.3,10.14-2.82,15.3-.24,2.52.94,5.1,4.32,4.9,2.86-.18,3.5-2.26,3.7-4.72.2-2.48.36-5.02,1.04-7.38,3.64-12.4,14.46-20.82,28.28-22.22,8.32-.84,16.18.8,24.26,2.98,22.04,5.94,34.06,21.74,32.66,44.64-.1,1.52-1.12,2.98-1.72,4.46-1.38-.9-2.76-1.76-4.12-2.7-.38-.28-.64-.76-.96-1.14-7.02-8.74-16.18-13.78-27-16.36-12.76-3.04-25.38-1.42-37.88.96-7.3,1.4-14.36,4.06-21.42,6.48-3.72,1.26-6.14,3.82-6.64,8.18-.56,4.92-1.82,9.76-2.7,14.66-.72,3.98-1.66,4.7-4.7,2.26-6.18-5-12.28-10.16-17.92-15.76-8.14-8.08-15.66-16.78-23.8-24.88-5.26-5.22-11.92-8.16-19.32-9.22-9.1-1.34-14.7,2.56-15.32,11.76-.36,5.62.18,11.52,1.58,16.98,6.24,24.34,20.98,42.28,42.98,54.08,13.86,7.42,28.16,14,42.24,21,16.1,8,32.28,15.84,48.2,24.18,8.2,4.32,8.4,4.92,5.4,13.58-5.28,15.32-11.66,30.28-16.6,45.7-2.3,7.18-4.98,11.6-13.22,10.24-1.4-.24-2.96.32-4.42.62-20.74,4.24-35.54,16.18-45.22,34.82-2.38,4.56-2.46,4.52-6.96,2.14-13.78-7.26-28.2-6.04-39.62,4.44-5.06,4.64-9.16,10.52-12.8,16.4-2.34,3.78-4.4,5.82-9.14,5.92-20.08.42-34.64,11.76-40.06,31-4.5,15.98-5,32.2-.16,48.08,7.34,24.12,26.74,47.7,61.56,39.2,10.86-2.66,21.42-6.6,32.12-9.92,3.34-1.04,6.68-2.08,10.06-2.94,2.98-.74,4.96.96,5.76,3.5.88,2.76,1.08,5.72,1.5,8.6,0,.16-.78.56-1.24.66-9.36,1.98-11.52,10.18-14.56,17.38-.72,1.7-.24,4.78.92,6.24,7.64,9.54,15.3,19.1,23.58,28.06,11.16,12.12,23.58,23.1,34.2,35.66,13.94,16.46,28.74,32.08,45.44,45.54,13.38,10.78,28.34,19.58,42.56,29.3,23.78,16.22,50.52,24.76,78.48,29.82,10.76,1.94,21.78,2.62,32.7,3.56,22.86,1.96,45.66,5.26,71.58,3.78,3.14,0,9.14.16,15.14-.02,20.28-.6,40.46-2.48,60.06-7.78,42.5-11.5,83.46-27.28,123.44-45.66,11.62-5.36,22.62-11.86,32.2-20.38,16.04-14.28,32.18-28.48,47.54-43.5,24.02-23.48,45.14-49.42,63.22-77.8,3.46-5.4,3.7-8.38-.5-11.82-3.38-2.74-5.4-5.4-4.72-9.86.16-1.12-.28-2.72-1.06-3.52-4.7-4.8-2.18-8.68,1.26-12.62.98-1.1,1.4-2.72,2.42-3.76,1.28-1.32,2.78-2.88,4.44-3.3,11.42-2.88,19.28-10.44,25.28-19.9,15.36-24.22,20.46-50.58,15.46-78.9-1.92-10.8-3.46-21.66-5-32.52-.66-4.6-.68-7.14,5.58-8.38,15.38-3.04,26.56-12.16,34.12-25.78,3.14-5.68,6.46-11.3,9.06-17.22,8.28-18.82,6.26-36.48-6.8-52.6-1.42-1.76-2.72-3.64-4.38-5.14-2.48-2.28-3-4.36-.36-6.9,1.44-1.38,2.6-3.04,3.82-4.62ZM287.97,417.41c.94-5.72-1.06-12.86,6.82-15.66.52-.18.7-1.26,1.06-1.92,10.66-19.42,25.14-35.88,40-52.14,18.86-20.64,42.44-31.66,69.38-36.92,9.56-1.86,18.92-4.74,28.8-3.92,2.96.24,5.92.74,8.84,1.3,5.48,1.08,8.1,4.06,10.22,9.8,5.98,16.28,15.7,30,32.26,37.66,6.6,3.06,13.26,3.96,20.36,2.8,7-1.12,6.9-1,9.22,5.88,4.56,13.42,6.78,27.66,13.8,40.24,10.5,18.72,20.92,37.5,31.56,56.14,2.08,3.68,4.98,6.86,7.42,10.34.54.74.7,1.76,1.04,2.66-.88.22-1.74.5-2.62.64-.48.08-1.02-.18-1.5-.12-7.56,1.02-11.62-1.76-13.62-9.66-1.98-7.82-7.18-14.38-14.02-18.92-6.2-4.14-12.76-7.8-19.44-11.12-6.38-3.16-10.92-1.56-14.5,4.66-4.7,8.18-5.48,16.9-.24,24.84,3.36,5.08,8.06,9.48,12.84,13.34,3.8,3.1,8.72,4.78,13,7.32,1.86,1.12,5.58.62,4.8,4.42-.64,3.22-4.86,7.46-7.56,7.3-18.58-1.14-33.3,6.94-46.42,19.02-.16.16-.48.16-.72.22-.26.2-.52.42-.78.62.16-.3.34-.6.5-.9.76-3.9,1.9-7.78,2.2-11.7.94-12.7-2.98-23.74-12.82-32.04-7.5-6.3-16.4-7.08-25.44-4-3.94,1.34-7.68,3.56-11.12,5.98-2.88,2.02-4.6,2.2-6.54-1-1.56-2.54-3.58-4.82-5.52-7.08-8.42-9.68-20.62-13.24-33.9-6.98-1.06.52-2.28.74-3.42,1.1.1-1.38-.1-2.88.36-4.12,3.54-9.24,8.5-17.78,16.42-23.74,6.26-4.7,7.32-10.32,5.82-17.08-1.2-5.36-2.72-10.64-4.28-15.9-.88-3-2.34-5.7-6.24-4.9-2.84.58-3.94,3.18-2.92,7.34,1.34,5.32,2.72,10.64,4.46,15.84,1.12,3.34.44,5.5-2.24,7.8-12.9,11.14-19,25.94-22.28,42.22-.38,1.94-.72,3.92-1.34,5.8-2.92,8.8-3.04,8.82-11.64,5.28-1.38-.56-2.78-1.16-4.22-1.46-3.4-.74-7.52-.32-10.08-2.14-10.92-7.7-23.12-13.82-31.82-24.4-7.6-9.26-15.12-18.6-22.54-28.02-.96-1.22-1.64-3.24-1.4-4.72ZM496.95,292.31c-1.28-4.74-3.78-9.18-6.04-13.58-1.88-3.7-4.86-5.52-9.2-6.7-5.36-1.44-10.92-4.16-15.06-7.84-17.18-15.24-27.32-34.16-27.28-57.66,0-7.22.48-14.46.72-21.7.1-3.28,1.52-5,4.98-5.16,14.68-.66,27.52-6.52,39.74-14.16,1.12-.7,2.54-.96,3.82-1.42-.28,1.4-.62,2.8-.8,4.24-.46,3.92-1.18,7.84-1.2,11.78-.02,2.96,1.56,5.58,5.1,5,3.34-.56,3.34-3.16,2.5-5.82-1.56-4.86.82-8.98,3.12-12.66,6.58-10.56,6.16-21.24,1.7-32.24-.56-1.38-1.04-2.9-1.96-4.02-.66-.82-1.96-1.38-3.04-1.48-.46-.04-1.58,1.42-1.5,2.1.52,5.02-2.5,5.14-6.38,5.7-15.66,2.3-30.7,6.36-42.54,17.94-.84.82-2.1,1.2-3.14,1.8-.18-1.36-.78-2.82-.48-4.04,2.1-8.44,4.38-16.84,6.58-25.26,1.1-4.24,3.94-6.82,7.92-8.3,10.54-3.94,21.02-6.86,31.3.82.94.72,2.64.46,3.98.64-.44-1.46-.42-3.5-1.4-4.3-3.72-3.06-7.2-5.66-17.54-5.74-4.88.9-9.76,1.7-14.62,2.72-2.94.6-3.06-.62-2.04-2.74,3.92-8.26,10-14.74,16.48-21.1,18.78-18.42,41.72-27.64,67.12-32.04,3.1-.54,4.58.04,5.86,2.76,2,4.3,4.3,8.44,6.48,12.66,2.4,4.66,2.38,4.8-2.7,5.3-10.7,1.06-20.32,4.82-28.8,11.42-1.56,1.2-3.04,2.62-4.24,4.16-.42.54-.24,2.1.26,2.6.54.52,2,.74,2.64.38,1.5-.86,2.72-2.18,4.08-3.24,8.76-6.84,18.5-10.7,29.82-10.02,3.42.2,6.14,1.16,8.54,3.8,4.52,5,9.36,9.7,14.06,14.52,2.9,2.96,2.78,3.62-1,4.88-4.72,1.56-9.48,3-14.2,4.62-8.4,2.88-15.68,7.64-22.02,13.8-1.92,1.88-3.64,4.16-4.88,6.56-4.24,8.08-.46,14.76,8.58,14.94,4.42.08,9.02-.36,13.3-1.46,16.14-4.22,31.1-10.94,42.8-23.28,3.32-3.48,5.28-.58,7.72.58,3.4,1.64,1.36,3.6.14,5.4-6.76,9.92-10.42,20.86-11.32,32.84-.42,5.6-1.9,7.22-7.44,8.36-6.46,1.34-9.98,5.78-11.7,11.46-2.46,8.08-4.3,16.36-6.14,24.62-2.24,9.96-4,20.02-6.36,29.96-2.66,11.24-7.16,21.76-13.52,31.46-2.04,3.1-3.58,6.54-5.28,9.86-3.38,6.56-7.74,12.34-14.3,15.94-14.18,7.78-20.1,20.44-20.64,35.8-.24,6.88.92,13.9,2.14,20.74.64,3.68-.42,4.54-3.62,4.42-7.12-.26-13.68-1.84-19.5-6.42-8.5-6.7-16.5-13.78-22.28-23.04-1.18-1.9-2.34-3.86-3.2-5.9-1.02-2.42.1-3.4,2.48-2.56,5.62,1.96,11.22,4.04,16.82,6.14,2.08.78,4.04,2.02,6.18,2.52,3.22.76,6.68-.2,7.32-3.52,1.82-9.18,5.66-18.3,3.08-27.84ZM464.33,152.51c-.18-.84,1.32-2.78,2.36-3.1,6.88-2,13.8-3.76,20.78-5.4.98-.24,2.68.36,3.2,1.14.44.62-.06,2.42-.74,3.18-8,9.16-18.04,15.26-29.44,19.26-.34.12-.82-.16-1.26-.32-.02.04-.06.08-.08.12l-.12.22.04-.38c.06.02.1.02.16.04,3.1-4.42,6.46-8.68,5.1-14.76ZM584.77,111.77c1.08.42,2.74.9,4.26,1.64,2.12,1.04,2.06,2.62.64,4.24-.82.92-1.72,1.8-2.7,2.58-8.68,6.9-18.46,11.72-28.94,15.24-3.5,1.18-3.9.04-3.08-3.04.7-2.62.82-5.4,1.52-8.02.42-1.52,1.08-3.54,2.28-4.22,7.84-4.52,16.44-6.98,26.02-8.42ZM606.65,584.39c3.48,5.72,7.44,11.18,11.08,16.82.56.88.54,2.12.78,3.18-1.06-.14-2.42.1-3.16-.48-6.54-5.02-12.9-10.28-19.44-15.28-2.76-2.08-5.66-4.26-8.84-5.44-6.52-2.4-11.94,2.42-9.92,9.04,1.78,5.92,4.72,11.5,7.2,17.22,2.3,5.22,2.32,5.48-3.3,5.36-13.12-.3-24.62,3.64-34.18,12.7-2.72,2.58-3.76,1.5-5.42-1.14-3.18-5.08-6.58-10.04-10.32-14.68-2.24-2.76-2.44-5.14-1.02-8.16,4.02-8.6,8.28-17.1,11.76-25.9,4.74-12.04,9.4-24.18,13.04-36.58,3-10.26,2.58-20.66-3.54-30.3-2.7-4.28,2.3-11.62,9.22-11.84,1.52.64,4.64,1.54,7.34,3.16,6.62,3.98,13.1,8.16,19.48,12.48,1.78,1.2,3.26,3.02,4.44,4.84,5.4,8.4,10.5,16.98,16.02,25.3,1.94,2.94,2.1,5.1.06,8.06-7.04,10.2-7.84,20.88-1.28,31.64ZM685.03,584.27c4.06,2.46,9.8,1.68,14.56-2.36,8.38-7.08,10.06-16.24,7.6-26.46-1.34-5.54-1.26-6,3.86-8.46,7.76-3.7,15.22-2.44,20.06,4.3,7.8,10.84,9.26,22.98,5.28,35.62-.56,1.74-3.1,2.9-4.74,4.28-4.54,3.82-9.34,7.38-13.52,11.54-1.8,1.8-2.78,4.76-3.34,7.38-.9,4.24,1.88,7.76,6.14,7.36,3-.28,6.64-1.42,8.6-3.5,3.86-4.12,7.18-8.92,9.92-13.88,2.04-3.68,4.26-4.32,7.86-3.04,7.92,2.84,14.38,12.68,13.36,21.44-.84,7.14-3.9,13.56-9.5,18.16-1.78,1.46-4.96,1.42-7.52,1.64-5.68.52-11.38.54-17.02,1.26-2.36.3-4.7,1.68-6.8,2.94-2.68,1.62-4.7,3.96-4.16,7.38.58,3.64,3.22,5.46,6.58,6.36,5.72,1.52,11.4,1,16.94-.84,3.06-1.02,6.08-2.3,8.9-3.84,2.66-1.46,4.86-1.18,6.7.96,2.26,2.6.36,4.76-1.4,6.5-6.14,6.06-14.06,8.22-22.22,9.84-12.02,2.38-23.8,1.4-35.5-1.94-5.2-1.5-7.96-.08-9.88,4.94-.72,1.84-.92,3.88-1.46,5.78-2.26,7.94-4.58,15.76-10.46,22.06-1.96,2.12-3.66,5.06-4.08,7.84-.62,4.02-2.78,4.72-6.1,4.9-2.72.14-5.42.8-8.14,1.14-2.82.36-3.8-.48-2.22-3.28,6.24-11.04,4.68-22.62,2.2-34.24-.32-1.42-.7-3.24-1.72-4-4.28-3.2-3-8.16-4.12-12.3-.58-2.1,1.12-2.4,2.8-1.64,1.82.82,3.58,1.78,5.42,2.54,4.64,1.94,9.34,2.54,13.32-1.24,3.76-3.6,3.34-8.38,1.86-12.66-4.2-12.12-12-21.16-24.12-26.06-1.38-.56-2.84-.94-4.26-1.38-4.88-1.48-5.26-1.74-3.9-6.8,2.1-7.8,2.92-15.7,2.18-23.7-.34-3.92-.94-8.02-2.46-11.6-2.54-6-7.94-6.46-11.42-.9-2.6,4.16-3.98,9.08-6.02,13.62-.58,1.26-1.58,2.32-2.38,3.48-.86-.84-1.88-1.58-2.52-2.54-10.14-15.12-8.06-29.62,6.26-40.92,10.84-8.58,23.38-13.1,34.84-13.76,11.5.48,20.36,1.32,27.64,7.78,5.06,4.46,4.9,4.4,1.48,10.16-3.04,5.1-5.74,10.52-7.64,16.1-1.96,5.74.34,11.64,4.26,14.04ZM692.07,571.69c1.04-3.12,2.08-6.24,3.2-9.34.1-.3,1.04-.64,1.24-.5.5.38.8,1.02,1.54,2.08-1.56,2.58-3.16,5.24-4.82,7.84-.1.16-.76-.04-1.16-.08ZM745.69,674.63h-.18c-.78,1.68-1.18,4.08-2.48,4.82-2.8,1.6-4.76,3.08-5.1,6.62-.12,1.28-2,2.82-3.44,3.5-15.98,7.48-32,14.94-49.26,19.2-1.28.32-2.76-.18-4.16-.3.62-1.04,1.16-2.12,1.86-3.1,5.26-7.12,8.46-15.16,10.94-23.56.6-2.08.66-4.32,4.22-3.46,15.5,3.72,30.62,2.08,45.4-3.68.58-.24,1.34-.08,2.02-.04.02-.06.04-.1.06-.14l.12.14ZM549.35,646.27c-1.44-4.98-.42-8.66,3.38-12.04,10.46-9.24,22.18-14.28,36.4-11.2,1.22.26,2.48.42,3.6.92,4.7,2.14,4.84,3.36,1.88,7.66-3.52,5.14-6.86,10.4-10.14,15.7-.9,1.46-1.6,3.16-1.92,4.84-1.02,5.54,2.82,9.06,8,6.84,5.02-2.14,9.58-5.34,14.36-8.02,3.46-1.92,6.94-3.78,10.4-5.66,1.74,3.48,3.56,6.92,5.16,10.46,3.86,8.54,9.22,15.98,15.94,22.48,2.72,2.62,5.38,5.28,9.6,5.1,3.04-.12,3.6,1.86,3.88,4.36,1.5,13.9-8.56,27.64-22.46,29.94-8.84,1.44-17.8,2.54-26.76,3.08-8.7.52-17.48.1-26.22.1v1.18h-24.72c-4.54-.02-5.04-.54-3.4-4.6,9.42-23.36,9.92-47.14,3.02-71.14ZM636.39,590.05c-2.3,8.12-4.58,16.22-6.92,24.32-.4,1.44-1.08,2.8-1.46,4.24-1.38,5.22.22,7.94,5.5,9.42,5.26,1.5,10.76,2.4,15.72,4.58,6.92,3.04,13.06,7.48,16.16,14.82.68,1.66.32,3.76.44,5.66-2.1.02-4.74.88-6.22-.08-3.92-2.54-7.56-5.64-10.88-8.96-2.62-2.62-4.5-5.96-6.9-8.84-1.96-2.34-4.56-3.24-7.3-1.44-2.7,1.8-2.96,4.38-1.56,7.24,2.28,4.72,4.8,9.34,6.66,14.22,1.76,4.62,2.86,9.52,4.1,14.34.22.86-.26,1.9-.42,2.86-1.02-.48-2.44-.7-3.02-1.52-2.44-3.46-5.08-6.88-6.8-10.7-2.88-6.36-5.08-13-7.6-19.5-3.2-8.26-7.46-9.84-14.96-5.42-3.44,2.02-6.72,4.32-10.12,6.42-.58.38-1.36.4-2.06.6.12-.88-.06-1.96.4-2.58,2.08-2.8,4.42-5.4,6.54-8.18,3.56-4.68,2.44-10.6-3.02-12.06-6-1.62-8.4-5.88-10.38-10.78-1.7-4.24-4.76-8.22-3.3-13.28,3.88,2.1,8,3.86,11.6,6.38,5.1,3.56,9.8,7.7,14.7,11.56,5.12,4.06,8.62,2.98,10.28-3.42,1.62-6.28,2.82-12.66,4.36-18.96.66-2.64,1.7-5.2,2.66-7.76.26-.66.88-1.16,1.34-1.72.5.74,1.34,1.46,1.44,2.24.2,1.98.06,4,.06,5.98.32.12.64.22.96.32ZM573.95,497.83c-2.96-1.7-6.38-2.88-9.74-3.54-7.2-1.38-13.26.02-16.8,7.58-1.66,3.56-4.6,6.52-6.68,9.92-.64,1.06-.42,2.66-.58,4.02,1.12.04,2.5.52,3.3.04,3.4-2.06,4.32.48,4.3,2.66-.02,6.18.7,12.8-1.18,18.48-4.68,14.16-10.48,27.98-16.16,41.8-3.14,7.62-6.82,15-10.5,22.36-2.74,5.54-2.2,10.24,1.64,15.24,5.46,7.12,10.62,14.52,15.28,22.18,9.8,16.18,11.72,33.72,7.54,51.98-1.6,7.04-3.32,14.08-5.58,20.94-3.18,9.62-5.98,11.3-15.92,10.88-5-.22-9.98-.54-14.96-.82-.02.22-.04.44-.06.64-18.88-1.64-37.74-3.56-56.66-4.86-27.64-1.9-55.3-3.36-82.94-4.96-10.98-.64-21.96-1.08-32.92-1.78-6.16-.4-6.32-.8-2.88-5.62,6.2-8.68,7.9-18.16,5.22-28.42-.78-3.02-.8-4.56,2.94-5.94,6.72-2.46,8.94-7.58,6.42-14.54-2-5.56-4.54-11.26-8.18-15.8-3.66-4.56-3.46-8.38-1.32-13.02,6.24-13.44,15.84-23.44,29.54-29.44,12.74-5.6,26.3-7.6,39.96-8.98,12.4-1.26,24.84-2.16,37.28-3.06,4.06-.3,6.24-2.64,7.9-5.96,3.2-6.48,6.18-13.08,9.76-19.36,5.8-10.2,11.54-20.46,18.14-30.12,7.94-11.64,18.98-19.72,32.48-24.18,4.46-1.48,8.96-3.3,12.82,1.6.46.58,3.62.12,4.34-.8,4.26-5.52,8.3-11.24,12.18-17.04,2.18-3.3,1-6.32-1.98-8.5-3.62-2.64-7.48-4.94-11.14-7.54-4.68-3.32-9.48-6.52-13.78-10.28-4.14-3.66-5.96-8.6-4.86-14.22.84-4.38,2.5-5.18,6.82-3.54,11.14,4.26,20.4,11,25.44,21.98,4.58,10,10.16,14.78,22.36,12.4,10.78-2.1,21.76,2.26,31.98,6.26,10.88,4.24,21.9,8.64,30.36,17.26,1.64,1.66,2.7,3.88,4.02,5.84-2.34.46-4.7,1.36-7.02,1.3-17.72-.46-34.6-4.1-50.18-13.04ZM298.59,661.79c-.36-3.48-.74-6.94-1.04-10.42-.06-.68.22-1.4.34-2.12.66.22,1.44.3,1.96.7,6.86,5.38,13.96,10.48,20.4,16.32,7.22,6.54,10.4,15.2,9.78,24.92-.52,8.04-6.98,12.32-12.14,17.3-.66.64-2.38.4-3.58.3-15.16-1.22-30.3-2.82-45.46-3.68-16.7-.94-33.42-1.42-50.14-1.64-4.96-.06-7.78-1.7-9.88-6.08-4.16-8.64-6.6-17.74-7.58-27.22-1.12-10.72,7.48-28.9,22.06-30.64,9.58-1.14,18.94-4.2,28.4-6.42,5.58-1.32,5.72-1.2,6.7,4.46,2.34,13.32,5.72,26.32,12.44,38.2,1.96,3.44,4.22,6.82,6.94,9.68,6.08,6.42,14.14,5.18,17.2-3.16,2.36-6.42,2.96-13.5,4.32-20.28-.24-.08-.48-.16-.72-.22ZM329.75,658.87c-5.02-2.78-10.12-5.58-14.5-9.18-5.76-4.74-10.94-10.22-16.22-15.5-2.3-2.28-4.26-4.9-6.36-7.38-1.76-2.08-4.08-3.74-6.38-1.74-1.3,1.12-2.02,4-1.66,5.8,2.72,13.32,3.22,26.76,2.42,40.26-.12,2.02-1.4,3.96-2.14,5.94-1.34-1.36-3.16-2.5-3.96-4.14-4.68-9.64-9.42-19.26-13.52-29.14-2.08-5.02-2.96-10.44-1.1-16.1,1.2-3.68-.9-5.66-4.8-5.24-1.46.14-2.86.78-4.28,1.22-16.32,5.2-33.14,7.06-50.12,7.82-2.1.1-4.24-.6-6.36-.94,1.38-1.64,2.52-3.6,4.16-4.9,14.82-11.88,32.04-16.84,50.84-17.62,3.2.46,6.38.9,9.56,1.36,5.44.8,6.38-.84,5.52-6.14-1.9-11.78-3.96-23.64-4.38-35.54-.34-9.52,6.32-17.08,10.86-25.06.18-.34.78-.44,1.2-.66.3.82.88,1.68.84,2.48-.44,7.72-1.38,15.44-1.4,23.16-.04,8.96.36,17.96,1.2,26.88.84,8.9,2.5,9.56,10.08,5.22,6.44-3.7,13.36-5.62,20.76-5,2.28.2,5.92,1.22,6.3,2.58.6,2.14-.36,5.56-1.94,7.24-3.16,3.36-7.02,6.18-10.92,8.72-2.32,1.52-5.14,2.36-5.42,5.58-.3,3.58,2.36,5.22,4.94,6.88,6.72,4.28,13.88,8.04,19.94,13.1,4.68,3.9,8.24,9.28,11.78,14.34,1.38,1.98,1.38,4.94,2,7.44-2.32-.56-4.92-.62-6.94-1.74ZM193.23,641.15c1.4.5,3.02.5,4.28,1.2.7.38,1.48,2.16,1.18,2.6-8.42,12.2-5.52,25.2-2.86,38.2.24,1.18.3,2.38.44,3.58-1.26-.46-2.8-.58-3.7-1.42-1.8-1.64-4.02-3.4-4.72-5.54-5.98-18.16-9.48-36.56-5.22-55.76,1.12-5.08,3.46-7.8,8.54-8.82,4.86-.96,9.58-2.58,14.34-3.92.84-.34,1.64-.68,2.46-1.02.14-.12.26-.24.4-.34.04.02.1.06.16.1-.18.08-.38.16-.56.24-.64.52-1.3,1.06-1.94,1.6-3.8,3.18-7.7,6.22-11.34,9.56-2.2,2.02-4.22,4.28-5.86,6.76-3.66,5.56-1.82,10.72,4.4,12.98ZM327.47,561.81c5.34,3.44,11.16,4.76,17.14,2.58,4.04-1.48,5.94-.72,7.14,3.38,1.82,6.22,3.84,12.38,6.1,18.46.96,2.62.56,4.12-1.8,5.54-12.8,7.72-22.12,18.56-28.2,32.14-1.3,2.9-2.8,3.12-5.14,1.48-.6-.44-1.28-.76-1.9-1.18-2.42-1.6-4.84-3.22-7.26-4.84,1.84-1.98,3.78-3.86,5.44-5.98,2-2.54,4.12-5.1,5.5-7.98,3.76-7.88.26-14.94-8.02-17.68-6.32-2.1-12.36-.42-18.46.66-2.2.4-4.28,1.34-6.42,2.02-5,1.58-5.02,1.58-5.18-3.4-.08-2.5-.02-5-.02-8.26,1.04-12.44,2.16-25.62,3.18-38.82.2-2.48.3-5.02-.08-7.46-.94-6.34-5.48-8.66-11.36-6.04-4.46,1.98-4.94,1.9-4.22-2.98,2.34-16.04,5.06-32,7.66-48,.5-3.08,1.8-3.26,3.56-.8,5.36,7.44,12.48,12.92,20.04,17.82,2.9,1.88,4,3.46,2.18,7.04-13.68,26.88,3.74,51.76,20.12,62.3ZM363.73,518.19c.58,2.58,1.96,5.18,3.58,7.32,5.12,6.86,13.06,6.04,16.7-1.72,2.68-5.7,2.72-11.9.38-17.5-2.3-5.42-5.72-10.42-9.02-15.36-1.46-2.2-2.94-4.12-1.56-6.76,3.74-7.12,7.88-13.92,15.06-18.22,8-4.8,15.84-4.34,22.74,1.88,2.56,2.32,4.54,5.26,6.68,8.02,3.22,4.14,3.56,8.06.42,12.84-4.76,7.2-6.62,15.64-6.96,24.18-.16,3.86.54,8.08,2.06,11.62,3.56,8.2,12.98,8.78,17.76,1.18,4.26-6.8,5.14-14.58,4.18-22.38-.58-4.92-1.88-9.8-3.3-14.54-1-3.36-.32-5.62,2.28-7.9,10.36-9.12,22.32-7.88,30.28,3.44,6.1,8.68,7.64,18.38,2.24,27.52-10.38,17.58-25.02,29.62-46.48,30.98-1.5.1-3.02,0-4.5.2-7.12.94-10.22,4.94-8.84,11.92,1.2,6.1,2.62,12.18,4.32,18.18,1.04,3.7-.32,5.22-3.72,5.36-12.26.58-24.28,2.48-36.02,6.08-3.38,1.04-4.36-1.34-5.38-3.7-2.7-6.16-5.24-12.42-8.16-18.48-4.06-8.36-5.88-9.06-14.58-5.56-4.64,1.88-8.68,1.16-12.74-1.42-15.9-10.14-22.98-34.9-14.88-51.92,7.44-15.66,25.58-22.22,42.68-14.82,2.64,1.14,3.86,2.78,3.36,5.82-.42,2.68-.32,5.46-.46,8.22-.18.02-.34.06-.52.08.76,5.16,1.26,10.36,2.4,15.44ZM368.35,505.05c.76-2.2,1.52-4.4,2.28-6.62,1.62,1.7,3.98,3.14,4.72,5.16,1.52,4.12,2.54,8.52,2.94,12.88.16,1.64-2,3.48-3.1,5.22-1.32-1.32-3.28-2.42-3.82-4.02-1.34-3.98-2.02-8.18-3.02-12.62ZM422.59,517.15c-.42-3.52-1.12-7.06-1.14-10.58-.02-2.4.84-4.82,1.46-7.2.16-.56.94-.98,1.42-1.46.34.64.92,1.26.96,1.9.1,2.46.04,4.92.04,7.88-1,2.8,1.42,7.04-2.74,9.46ZM466.37,532.79c-.26.38-.52.74-.76,1.12-6.16,13.06-12.44,26.04-18.36,39.2-1.92,4.24-4.4,5.9-9.12,5.64-14.42-.8-14.44-.62-17.76-14.62-2.56-10.7-2.56-10.64,8.18-11.4,7.94-.58,14.84-4.14,21.26-8.48,5.16-3.46,9.96-7.44,14.92-11.18.54-.1,1.1-.18,1.64-.28ZM287.57,433.21c.6.4,1.36.7,1.78,1.24,2.32,2.94,4.6,5.9,6.82,8.92,8.48,11.58,18.58,21.48,30.56,29.44,5.54,3.68,5.4,3.6.06,6.8-3.6,2.18-7.08,4.64-10.28,7.38-2.2,1.9-3.46,2.48-6.14.34-7.22-5.74-15.08-10.74-20.16-18.74-2.92-4.62-6.24-9.16-5.16-15.58.38-5.56.76-11.52,1.26-17.5.08-.8.82-1.54,1.26-2.3ZM281.15,143.45c-.02.5,0,1,0,1.5-1.18,19.58-11.42,32.84-28.72,41.16-.92.44-2.2.14-3.32.18.02-.96-.18-2,.12-2.86,1.3-3.76,3.08-7.38,4.08-11.22,2.28-8.88,4.44-17.8,6.16-26.8,1.18-6.18,1.14-6.42,7.6-5.96,3.2.22,6.44.02,9.64-.2,4.76-.36,4.74-.44,4.44,4.2ZM295.79,53.61c.44.26.84.56,1.24.86,14.42,10.38,20.7,39.62,11.88,55.08-8.1,14.2-21.38,18.44-33.96,19.14-11.98-.3-20.96-2.18-28.78-7.62-2.8-1.94-5.38-4.48-7.34-7.26-4.36-6.14-3.74-12.9,1.34-18.42.56-.6,2.46-.86,3.04-.42,1.94,1.54,3.5,3.52,5.32,5.22,4,3.74,7.86,7.64,12.14,11.02,3.1,2.44,6.86,3.02,10.5.68,3.48-2.22,3.64-5.82,3.22-9.32-.26-2.16-.9-4.46-2.04-6.28-4.64-7.38-9.26-14.78-14.4-21.78-2.42-3.3-1.96-4.78,1.18-6.96,5.3-3.7,10.4-7.72,15.32-11.94,5.98-5.14,14.62-6.12,21.34-2ZM227.81,105.09c-.98,4.26-4.96,7.88-7.82,11.62-.58.76-2.14,1-3.26.98-.32-.02-1-1.72-.88-2.58.74-5.14,1.22-10.4,2.66-15.36,1.46-5,3.86-9.72,6-14.5,3.54-7.92,2.58-11.06-5.46-14.72-6.34-2.88-12.94-5.2-19.4-7.86-2.54-1.02-5.1-2.06-7.46-3.44-1.96-1.18-5.36-2.02-4.08-5.08.34-.84,4.48-.6,6.68-.04,2.86.72,5.52,2.22,8.26,3.4,8.46,3.68,16.94,7.28,25.32,11.12,2.36,1.08,4.18,1.12,6.08-.68,2.26-2.1,2-4.38.7-6.78-1.42-2.64-2.96-5.2-4.32-7.86-7.62-15.08-.36-28.46,9.14-37.74,1.86-1.82,3.16-1.16,3.26,1.4.1,3.24.02,6.48.02,9.72.38.04.74.1,1.12.14-1.3,8.58-2.58,17.18-3.92,25.76-.18,1.24-1.08,2.58-.76,3.6.54,1.78,1.38,4.02,2.8,4.78,1.32.72,3.8.22,5.3-.62,1.64-.9,2.76-2.78,4.12-4.26,6.38-6.94,14.3-11.56,22.86-15.24.58-.26,1.36-.06,2.04-.08-.28.82-.34,1.86-.9,2.38-.88.82-2.22,1.12-3.12,1.94-2.34,2.08-4.4,4.46-6.78,6.46-4.52,3.8-9.08,7.58-13.84,11.06-6.98,5.1-7.6,8.48-1.02,14.16,6.46,5.58,11.06,12.12,13.18,20.34.38,1.54-.1,3.3-.18,4.94-1.6-.44-3.6-.44-4.78-1.42-4.56-3.78-9.26-7.54-13.22-11.94-5.3-5.92-7.3-5.84-11.3,1.14-2.8,4.9-5.72,9.46-7.04,15.26ZM230.85,168.83c2.22-13.5,4.3-26.26,6.42-39.02.34-2.08,1.46-2.42,3.06-1.2,2.58,1.96,5.3,3.8,7.56,6.08,1.04,1.04,1.7,3.06,1.58,4.56-1.32,15.46-5.18,30.42-9.54,45.24-.86,2.96-3.38,3.24-4.54.26-2.04-5.26-3.14-10.86-4.54-15.92ZM201.53,260.05c-.34,1.7-.86,3.38-1.22,5.08-.52,2.48-2.12,3.02-4.42,2.82-5.2-.46-10.4-.94-15.62-1.04-3.62-.06-5.04-1.72-4.68-5.06.32-2.96.76-5.92,1.44-8.8,2.88-12.5,7.8-24.16,15.06-34.74,3.88-5.66,8.74-10.14,15.4-12.5,9.68-3.44,13.76-.72,14.5,9.76-1.14,2.64-1.62,5.94-3.52,7.8-10.38,10.14-14.3,23.08-16.94,36.68ZM139.83,336.87c.82-12.88,4.22-16.44,16.56-19.28,14.54-3.32,29.24-3.34,43.74-.06,11.52,2.62,21.04,8.76,28.14,18.44,5,6.8,5.66,13.64,1.08,20.84-1.6,2.52-3.24,5.02-5,7.44-1.3,1.82-2.5,3.82-5.26,1.34-.66-.58-2.9.44-4.34.94-4.4,1.56-8.7,3.44-13.18,4.7-1.28.38-3-.78-4.52-1.28-.08.04-.16.08-.24.12-.02-.04-.04-.08-.06-.12-2.86.76-4.72-.04-4.7-3.38,0-1.96-.02-3.98.46-5.86.26-1.04,1.5-1.82,2.3-2.72.54,1.22,1.82,2.74,1.48,3.6-1.16,2.98-1.02,5.66.46,8.36.06,0,.12-.02.18-.04.04.02.08.02.12.04,8.32-4.12,9.62-13.2,2.6-18.86-11.44-9.26-28.1-9.1-39,.6-1.94,1.72-3.62,2.34-6,1.52-1.16-.42-2.44-.54-3.64-.84-13.1-3.36-12-2.66-11.18-15.5ZM182.31,485.23c4.04-12.34,7.96-24.7,11.74-37.12,2.4-7.84,4.38-15.84,6.68-23.72.94-3.22-1.08-4.54-3.24-5.9-8.24-5.2-16.48-10.42-24.72-15.58-5.72-3.6-11.52-7.04-17.16-10.7-12.86-8.34-26.52-15.06-41-19.94-10.7-3.58-20.16-9.04-27.62-17.32-7.68-8.52-14.84-17.54-21.64-26.78-4.98-6.76-7.14-14.78-6.88-23.3.2-6.3,2.24-8.06,8.48-6.88,6.66,1.28,11.82,5.16,16.16,10.2,6.04,7.02,11.68,14.38,18.08,21.02,4.8,5,10.46,9.16,15.9,13.52,4.48,3.58,9.5,6.54,13.7,10.4,7.76,7.16,17.5,9.34,27.2,11.6,4.1.96,6.38-2.56,8.56-5.06,3.92-4.42,8.74-5.36,14.22-5.12,3.08.12,4.52,1.16,4.08,4.56-.4,2.96-.32,6-.16,9,.26,5.26,2.22,7.54,7.16,9.24,6.36,2.2,12.32.6,18.22-1.7,2.7-1.04,4.96-3.04,8.36-1.42,1.2.56,3.96-.72,5.18-1.96,6.38-6.46,12.12-13.58,13.76-22.72.76-4.24-1.24-8.96-.46-13.18.7-3.86,4.92-7.3,5.06-11.02.3-8.64.12-17.56-1.78-25.94-2.94-13.14-12.52-21.18-24.46-26.54-7.42-3.32-7.52-3.34-6-11.52.96-5.16,1.94-10.34,3.54-15.3,1.12-3.5,3.22-6.7,5-9.98.3-.52,1.2-.7,1.82-1.04.28.62.76,1.24.8,1.88.1,1.74-.06,3.5.02,5.24.14,2.62-.72,6,3.46,6.2,4.2.18,3.96-3.08,3.72-5.8-.6-6.54,2.64-12.08,4.58-17.94,1.28-3.82,3.6-4.06,5.7-.64,1.68,2.7,2.94,5.8,3.66,8.92,2.12,9.22,3.94,18.52,5.8,27.82,3.22,16.2,9.68,31.16,19.8,44.04,16.16,20.54,17.88,44.36,17.8,68.84,0,1.46-.28,3.06-.92,4.38-5.2,10.7-5.32,22.34-5.44,33.74-.26,27.42-6.48,53.96-10.68,80.82-2.16,13.8-3.6,27.72-5.32,41.58-.14,1.22-.4,2.9.24,3.66,3.54,4.22,1.5,7.92-.9,11.48-7.26,10.76-7.42,22.42-4.74,34.54.92,4.14,1.62,8.32,2.36,12.5.34,1.9.18,3.82-2.42,3.44-12.54-1.8-24.5,1.46-36.56,3.98-.08.06-.16.14-.24.2l-.22.22.14-.36c.1-.02.22-.04.32-.06,5.94-5.16,12.44-9.8,17.64-15.62,17.04-19.14,11.02-40.52-1.68-54.1-7.02-7.5-15.9-11-26.38-9.72-5.76.7-5.94.68-7.42-5.2-2.84-11.14-8.68-20.18-18.4-26.38-3.2-2.04-3.6-4.12-2.5-7.46ZM54.77,559.83c2.5.94,5.18,1.52,7.44,2.84,5.7,3.36,9.02,8.36,9.08,15.16.04,2.8-.26,6.08-3.44,6.6-2.38.38-5.52-.3-7.46-1.72-5.2-3.76-6.98-9.38-7.14-15.8.5-2.36,1.02-4.72,1.52-7.08ZM104.03,649.91c-5.76,1.56-11.3,3.96-16.96,5.88-5.66,1.94-11.28,4.1-17.06,5.54-19.7,4.88-36.28-.5-48.52-16.68-10.48-13.88-16.56-29.6-15.62-47.38.7-13.14,6-24.12,16.18-32.58,5.54-4.6,11.88-7.34,19.12-7.7,5.98-.28,6.4.16,5.98,6.1-.08,1.24-.2,2.48-.3,3.72-.5,6.94,1.16,13.42,4.42,19.48,4.02,7.4,12.42,10.88,19.66,8.3,7.58-2.72,12.4-12.02,10.56-20.1-2.3-10.14-9.94-15.22-18.44-19.28-7.46-3.58-7.64-3.56-3.58-10.44,3.78-6.34,8.6-11.7,15.22-15.12,9-4.66,17.84-4,26.32,1.34,3.84,2.44,6.02,5.5,5.18,10.62-.5,2.98.34,6.48,1.52,9.36,1.26,3.06,3.9,5.3,7.74,4.64,2.98-.52,6.06-4.16,5.84-7.8-.2-3.14-1.52-6.2-2.28-9.3-.52-2.1-1.76-4.42-1.28-6.3,5.58-21.6,27.74-39,50.7-35.14,13.88,2.32,24.92,13.84,26.44,27.78.36,3.28-1.22,4.84-3.44,6.78-4.86,4.26-9.64,8.68-13.8,13.58-2.14,2.54-3.52,6.14-4.18,9.46-1.64,8.22,4.76,14,12.6,11.12,3.54-1.3,6.82-4.14,9.4-7.02,4.76-5.3,7.3-11.92,8.44-18.92.56-3.6,2.4-5,5.78-5.66,9.96-1.98,19.44,2,24.86,11.32,6.44,11.08,6.72,22.28-.66,33.18-4.86,7.2-11.16,12.98-18.92,16.68-8.3,3.94-16.82,7.8-25.66,10.14-9.82,2.62-14.38,8.34-16.5,17.88-4.52,20.3-2.9,39.6,6.6,58.24,2.76,5.44,7.32,8.74,11.78,12.3.84.68,3.4.68,3.92.02,2.94-3.86,3.88-1.5,4.9,1.28.42,1.16.94,2.3,1.44,3.44,1.1,2.52.58,3.92-2.46,3.44-10.06-1.66-20.36-2.52-30.16-5.22-11.98-3.3-23.5-8.28-35.28-12.32-4.62-1.58-6.52-4.54-7.26-9.24-.9-5.62-2.16-11.32-4.26-16.6-3.52-8.78-8.88-11.3-17.98-8.82ZM192.53,543.75l-.16.4c-.24,5.02-3.06,8.62-6.64,11.74-.42.36-1.54.48-1.92.2-.4-.32-.66-1.42-.42-1.9,2.04-4.16,4-8.42,8.76-10.26l.38-.18ZM763.33,667.09c.62.26,1.08,2.2.8,3.12-.52,1.62-1.66,3.04-2.54,4.56-12.78,22.2-28.4,42.3-46.04,60.78-18.82,19.72-38.56,38.46-60.34,54.96-13.26,10.06-27.8,17.72-43.4,23.28-35.02,12.46-70.12,24.64-105.2,36.94-15.7,5.5-31.78,8.34-48.5,8.12-15.22-.2-30.48.16-45.7.58-8.72.26-17.42,1.16-26.12,1.76-19.1-.68-37.72-4-56.28-8.14-21.94-4.92-43.66-10.28-64.42-19.16-17.84-7.64-34.3-17.12-48.3-30.82-18.56-18.16-37.98-35.46-56.18-53.98-13.1-13.32-24.82-28-37.14-42.08-3.94-4.52-7.98-8.96-11.78-13.6-3.88-4.78-3.88-6.34-.52-11.26.94-1.38,2.32-2.46,3.48-3.68.56,1.5.76,3.28,1.7,4.46,2.46,3.02,4.82,6.46,8,8.52,9.32,6.06,19.84,9.3,30.74,11.18,17.94,3.08,35.84,6.22,53.82,9,8.86,1.36,17.82,2.48,26.78,2.82,24.94.9,49.9,1.22,74.84,1.98,12.24.38,24.48.98,36.66,2,25.12,2.12,50.2,4.5,75.3,6.94,21.14,2.08,42.28,3.22,63.54,3.16,14.96-.04,29.92,1.4,44.86,2.32,22.5,1.4,44.9.8,67.3-1.92,14.12-1.7,28.36-2.42,42.52-3.82,11.16-1.1,22.32-2.4,33.42-3.92,12.98-1.76,25.18-6.16,36.94-11.82,8.1-3.92,16.14-7.92,24.22-11.84,6.22-3,11.12-7.54,15.32-12.94,2.88-3.7,4.88-7.44,2.8-12.38-1.56-3.66,2.12-4.66,4.12-5.86,1.22-.72,3.64.08,5.3.74ZM789.45,605.95c-2.74,4.78-7.66,8.48-12.08,12.04-3.38,2.72-5.18,1.72-6.26-2.52-.3-1.2-.1-2.52-.38-3.72-2.62-11.7-9.02-19.98-21.28-22.36-3.96-.76-5.16-1.76-4.56-6.3,1.04-7.84,1.26-15.92.74-23.82-.84-13.14-9.28-22.62-21.06-24.94-7.4-1.46-13.98.98-19.82,4.98-4.46,3.06-7.74,3.4-12.54.22-11.94-7.88-25.54-11.48-39.76-11.2-10.9.22-21.12,4.02-30.08,10.3-5.84,4.08-5.54,3.72-9.64-2.06-2.76-3.86-5.56-7.68-8.22-11.62-.94-1.4-1.46-3.06-2.18-4.6,1.88-.18,3.76-.6,5.62-.5,8.22.38,16.42,1.08,24.64,1.3,3.18.1,6.48-.48,9.58-1.3,6.2-1.62,7.9-6.54,3.84-11.26-15.38-17.98-34.2-30.06-58.32-31.44-9.36-.54-14.42-5.7-18.2-12.74-12.06-22.42-23.74-45.04-35.52-67.6-6.94-13.28-13.38-26.76-16.88-41.44-2.48-10.4-2.26-20.92-.52-31.24,1.54-9.28,6.06-17.22,13.84-23.28,17.56-13.66,28.68-32.06,34.86-52.96,5.28-17.84,8.14-36.42,12.22-54.64.98-4.36,2.34-8.64,3.86-12.84.88-2.38,2.72-4.82,5.56-3.92,1.78.56,3.46,2.58,4.4,4.36,1.02,1.92,1.48,4.28,1.6,6.5.8,14.5.8,29.02-3.66,43.02-4.38,13.78-9.34,27.38-14.08,41.04-1.02,2.94-3.74,6.56.48,8.4,4.14,1.82,5.38-2.48,6.68-5.3,8.9-19.36,15.54-39.34,17.86-60.72,1.42-13.08,1.86-25.82-2.8-38.36-.78-2.08,3.16-10.02,5.02-10.8,2.82-1.2,6.14.24,8.74,4.14,4.5,6.7,4.98,14.54,5.76,22.2.42,3.96.08,7.98.08,11.98.44,16.38-2,32.32-7.46,47.76-1.3,3.68-3.32,7.14-5.32,10.52-1.48,2.48-1.02,4.22,1.14,5.76,2.14,1.52,3.84.46,5.16-1.2.94-1.16,1.64-2.52,2.24-3.88,6.1-13.5,9.72-27.58,11.42-42.38,1.64-14.34.84-28.38-1.78-42.42-.58-3.16-1.94-6.16-2.96-9.22-1.24-3.66-.22-5.6,3.48-4.94,3.22.6,6.66,2.18,9.12,4.34,6.84,6.02,9.78,14.4,11.58,23.02,3.54,16.98,1.8,33.8-3.08,50.3-1.24,4.2-3.9,7.98-5.8,12.02-.6,1.28-1.18,2.82-1.02,4.14.1.94,1.34,2.04,2.32,2.48.62.26,1.9-.36,2.58-.94.72-.62,1.14-1.62,1.62-2.5,11.74-21.7,15.06-44.78,10.52-68.92-1.74-9.22-6-17.42-12.58-24.28-.78-.82-1.06-2.08-1.56-3.14,1.16-.36,2.3-.94,3.48-1.04,5.42-.4,9.58,2.42,13.36,5.74,8.04,7.04,12.34,16.2,14.2,26.56.8,4.4,1.16,8.9,1.8,13.34,2.06,14.6-.76,28.24-7.46,41.32-6.82,13.36-14.14,26.34-22.48,38.84-7.44,11.18-13.9,23.06-20.56,34.74-3.4,5.98-3.58,12.28-.86,18.72,7.76,18.4,15.56,36.7,27.14,53.24,6.56,9.38,11.72,19.72,17.74,29.5,4.82,7.86,9.78,15.68,15.04,23.24,10.68,15.38,21.88,30.42,32.3,45.96,3.68,5.5,5.72,12.08,8.56,18.14.38.78,1.16,1.36,1.74,2.04.74-.82,2-1.56,2.12-2.44.2-1.68.16-3.6-.5-5.12-3.96-9.16-7.34-18.66-12.4-27.18-5.68-9.62-12.9-18.34-19.48-27.42-.88-1.22-1.84-2.38-2.74-3.56q-4.52-6.02,1.96-9.6c25.88-14.44,49.46-32,70.54-52.84,3.02-2.98,5.6-6.36,8.38-9.56,1.26-1.44,2.36-1.76,3.1.46,1.1,3.32,2.4,6.56,3.34,9.92,5.56,19.66,11.7,39.18,16.3,59.06,2.74,11.8,3.06,24.18,4.28,36.32.2,1.9-.64,3.88-.82,5.84-.14,1.44-.6,3.4.12,4.28,4.48,5.34,4.62,12.1,5.88,18.3,3.1,15.4,5.6,30.88,5.4,46.74-.26,19.4-7.3,36.6-16.64,52.94ZM759.71,351.73c-1.3.48-2.38,1.74-3.36,2.84-22.68,25.32-49.72,44.52-81.12,57.56-2.64,1.08-5.94,3.64-7.76,2.84-2.6-1.14-4.28-4.64-6.02-7.32-14.88-22.96-25.06-48.22-36.02-73.1-1.64-3.7-1.76-7.24.2-10.76,6.22-11.1,12.32-22.24,18.76-33.2,5.58-9.46,11.98-18.46,17.2-28.1,3.48-6.42,8.32-10.52,14.98-12.58,4.98-1.52,10.14-2.46,13.52-3.26,9.8.48,17.22,2.64,23.02,8.26,4.26,4.14,8.46,8.64,11.5,13.7,10.94,18.18,21.48,36.58,28.08,56.94,2.38,7.34,5.58,14.42,8.56,21.56.9,2.18,1.16,3.62-1.54,4.62ZM764.99,356.95c.98,2,1.98,3.98,3.04,6.1-.56.64-.96,1.18-1.46,1.64-2.6,2.54-5.3,4.98-7.82,7.58-22.06,22.76-47.16,41.5-74.92,56.68-1.7.94-4.96,1.72-5.84.86-2.42-2.36-4-5.6-5.78-8.58-.06-.12,1.18-1.38,1.98-1.62,33.1-10.34,59.08-31.5,83.62-54.88,1.44-1.38,2.52-3.1,3.86-4.58,1.02-1.14,2.2-2.14,3.32-3.2ZM817.23,374.91c-5.6.52-10.02,3-12.72,8.04-5.04,9.44.58,18.48,11.22,18.54,6.6.06,11.22-3.56,15.9-7.38,6.88-5.64,7.6-5.84,12.38,1.8,6.96,11.06,10.7,23.02,7.1,36.32-3.46,12.68-9.14,24.3-16.72,34.94-6.02,8.46-14.84,12.24-24.88,13.66-2.46.36-3.7-.48-4.22-2.92-1.08-5.14-2.28-10.24-3.48-15.34-2.94-12.6-6.94-25.04-8.72-37.82-5.28-37.92-20.6-72.18-36.94-106.2-4.32-8.98-7.44-18.54-11.7-27.54-5.34-11.26-10.3-22.88-17.22-33.12-11.02-16.36-26.42-21.02-46.72-16.88-1.7.36-3.34,1-5.04,1.38-1.18.26-2.4.28-3.6.4.1-1.4-.06-2.88.38-4.18,6.34-18.6,5.2-37.42,1.04-56.12-2.76-12.46-9.9-22.22-21.3-28.56-4.3-2.4-8.86-3.44-13.68-2.66-1.56.26-3.94,1.14-4.3,2.26-1.22,3.88-3.34,3.62-6.2,2.26-3.7-1.78-7.74-1.54-10.74.68-5.1,3.82-9.52.18-14.14-.5-.64-.1-1.62-3.64-1.06-5.02,2.56-6.46,5.54-12.76,8.52-19.04.74-1.54,2.1-2.78,3.06-4.24,2.98-4.48,2.56-7.1-1.8-10-6.02-3.98-12.2-7.74-18.16-11.8-4.74-3.22-9.36-6.62-13.84-10.18-2.66-2.14-6.68-4.2-2.18-8.58.46-.46-.82-3.9-2.08-4.72-2.66-1.74-5.76-3.26-8.88-3.8-5.46-.94-9.02-4.16-11.74-8.44-2.68-4.2-5.14-8.58-7.22-13.1-1.72-3.76-4.24-5.56-8.22-4.7-21.92,4.72-44.44,7.84-62.18,23.6-4.1,3.66-8.48,7-12.66,10.58-6.56,5.6-11.6,12.44-15,20.34-2.86,6.68-5.32,13.4-11.84,17.68-2.24,1.48-3.5,3.74.38,5.5.8.36,1.44,2.32,1.28,3.42-1.82,11.78-3.82,23.54-5.72,35.3-.2,1.22-.6,2.74-.08,3.68,3.94,7.26-.18,14.02-.86,21.04-2.46,25.66.02,50.18,21.24,68.36,6.36,5.46,14.32,9.04,21.36,13.74,3.46,2.32,7.14,4.78,9.6,8.02,4.36,5.78,6.04,12.5,3.76,19.8-1,3.24-1.64,6.6-2.44,9.9-3.26-.98-6.54-1.86-9.76-2.94-16.48-5.56-33.32-7.62-50.76-7.98-17.22-.34-33.78,1.9-50.02,7-21.06,6.64-38.3,19.08-52.16,36.2-2.68,3.3-5.5,6.5-8.06,9.88-2.18,2.88-3.76,1.84-4.7-.72-1.52-4.2-3.12-8.44-3.88-12.82-1.58-9.08-2.72-18.26-.82-27.5,1.96-9.56,6.68-17.12,15.36-21.94,5.18-2.86,5.52-2.82,8.76,2.2,5.22,8.12,12.76,10.78,21.94,9.4,5.18-.78,8.32-3.68,9-7.72.64-3.88-1.4-8.14-6.1-10.12-4.02-1.72-8.52-2.46-12.88-3.12-2.42-.36-5.04,0-7.44.58-3.94.94-5.36-.98-6.28-4.34-3.1-11.48-1.84-22.44,4.66-32.34,9.3-14.2,21.94-24.46,38.1-30.1,3.3-1.14,6.68-2.06,9.98-3.22,10.66-3.76,16.98-11.38,21-21.86,3.02-7.9,2.16-15.44,1.06-23.36-5.24-37.84,4.5-70,35.28-94.7,23.06-18.5,48.8-30.88,77.66-36.9,16.62-3.48,33.28-6.74,50.62-6,14.68-.66,29.22,1.42,43.26,6.28,10.84,3.76,21.6,7.74,32.2,12.08,23.36,9.56,41.5,25.38,55.58,46.28,14.18,21.06,24.54,44,34.36,67.24.48,1.14.94,2.3,1.38,3.48,7.06,19.24,20.44,30.7,40.9,34.08,14.38,2.38,27.02,8.66,37.56,18.92,13.14,12.76,16.46,28.04,11.6,45.32-1.62,5.8-4.26,10.06-11.8,10.16-4.62.06-9.38,2.88-13.74,5.14-2.92,1.5-5.02,4.32-3.76,8.12.92,2.84,4.86,5.12,8.62,4.68,2.44-.28,4.88-1.04,7.16-2,2.26-.96,4.84-2.02,6.36-3.8,5.14-6.06,10.82-4.64,16.78-1.92,9.52,4.34,17.4,10.74,23.8,18.96,7.36,9.42,8.28,20.1,5.4,31.24-4.04,15.7-11.34,29.78-21.52,42.42-2.24,2.8-3.94,3.86-7.28,1.4-4.78-3.5-10.44-4.6-16.36-4.06ZM831.37,386.87c-.94,2.92-10.56,8.84-15.78,8.72-.9-.7-3.58-1.9-4.68-3.96-1.64-3.04.46-5.68,2.98-7.54,3.56-2.62,13.72-2,16.98.98.4.38.66,1.3.5,1.8ZM336.15,290.35c.16-.44,1.2-.94,1.74-.84,3.9.68,7.8,1.34,11.58,2.42,1.04.28,1.68,1.94,2.5,2.96-1.02.62-1.98,1.36-3.06,1.82-.64.28-1.46.12-3.84.26-1.96-1.12-5.16-2.86-8.26-4.74-.46-.3-.84-1.38-.66-1.88ZM805.99,283.63l-.02.44-.54-.22.56-.22ZM727.75,603.91c-.52.5-1.02,1-1.52,1.52-.6.54-1.18,1.08-1.76,1.62l-.2.36.38-.18c.58-.54,1.16-1.1,1.74-1.64.52-.5,1.02-1,1.54-1.5l.2-.32-.38.14Z"/>
      <path class="cls-5" d="M117.35,118.83c-2.92-2.56-6.8-1.18-9.68,1.02-4.74,3.62-9.38,7.42-13.7,11.54-6.82,6.52-6.92,6.76-10.74-1.82-4.22-9.54-9.74-17.98-18.14-24.3-4.24-3.2-8.86-6.58-14.26-3.02-4.98,3.3-4.18,8.76-3.18,13.66,1.28,6.36,2.6,12.76,4.82,18.82,5.9,16.14,12.38,32.06,18.46,48.12,1.84,4.88,5.78,9.46,1.76,15.32-1.26,1.84,3.58,7.68,6.08,7.16,1.56-.32,2.84-2.74,3.88-4.46,1.64-2.66,2.52-5.88,4.48-8.24,12.66-15.28,23.04-31.94,30.5-50.36,1.84-4.58,2.9-9.48,4.6-15.18-1.48-2.66-2.52-6.2-4.88-8.26ZM111.33,139.41c-6.68,15.96-15.46,30.72-26.06,44.4-3.66,4.74-4.3,4.64-6.74-.86-7.5-16.84-15.14-33.62-22.22-50.64-2.34-5.68-3.52-11.96-4.42-18.08-.38-2.56.6-6.84,2.34-7.76,1.94-1.04,6.02.08,8.12,1.66,3.5,2.64,6.7,6.04,9.04,9.74,3.06,4.8,5.18,10.2,7.66,15.36.96,2.02,1.6,4.22,2.76,6.12,2.94,4.78,6.1,5.34,10.44,1.7,3.04-2.56,5.64-5.66,8.62-8.32,2.78-2.48,5.68-4.86,8.74-6.98,1.04-.7,2.86-.88,4.06-.5.6.18.66,2.16.96,3.36-1.1,3.66-1.86,7.36-3.3,10.8Z"/>
      <path class="cls-5" d="M488.44,211.41c-2.85-.43-5.35-.24-7.17-1.26-1.34-.75-2.44-3.05-2.49-4.7-.07-2.51,2.1-3.07,4.33-2.77,2.2.3,4.43,1.12,6.58.94,6.99-.6,10.79-4.4,13.03-11.35,1.75-5.42,4.13-10.64,6.36-15.89.57-1.35,1.39-2.99,2.56-3.59,1.55-.8,4.05-1.5,5.22-.77,1.03.64,1.53,3.58.99,5.03-1.21,3.23-3.45,6.07-4.85,9.25-3.24,7.4-5.64,15.08-2.98,23.15,1.07,3.24,3.42,6.04,4.79,9.21.56,1.31.07,3.07.06,4.62-1.38-.17-2.99.07-4.08-.57-4.03-2.36-6.68-5.95-7.94-10.46-.85-3.07-2.45-3.78-5.53-2.73-3.02,1.03-6.28,1.36-8.89,1.88Z"/>
    </g>
  </g>
</svg>