<?xml version="1.0" encoding="UTF-8"?>
<svg id="Layer_2" data-name="Layer 2" xmlns="http://www.w3.org/2000/svg" viewBox="0 0 855.46 873.86">
  <defs>
    <style>
      .cls-1 {
        fill: #0f967b;
      }

      .cls-2 {
        fill: #bd4d4d;
      }

      .cls-3 {
        fill: #ffd44a;
      }

      .cls-4 {
        fill: #fff;
      }

      .cls-5 {
        fill: #ffd8c7;
      }

      .cls-6 {
        fill: #ff9d87;
      }

      .cls-7 {
        fill: #f05c3e;
      }

      .cls-8 {
        fill: #401c32;
      }

      .cls-9 {
        fill: #5780d9;
      }
    </style>
  </defs>
  <g id="Layer_2-2" data-name="Layer 2">
    <g>
      <path class="cls-1" d="M114.2,521.43s-10.89,8.05-33.15,43.57c-22.26,35.52-53.04,90.93-63.46,116.03-10.42,25.1-16.58,47.36-13.26,80.98,3.32,33.62,9.47,54.94,30.31,74.35,20.84,19.42,48.31,39.31,77.19,35.99,28.89-3.31,45.46-2.37,58.25-10.89,12.79-8.52,40.25-21.78,49.73-31.26,9.47-9.47,20.36-20.36,20.36-20.36l164.81-134.97s5.21-37.41,6.63-42.62c1.42-5.21,8.52-24.63,11.37-35.05,2.84-10.42-5.21-58.25-5.21-58.25l81.93,16.1,108.92-84.77s-23.68-10.89-31.26-11.84c-7.58-.95-97.56-33.15-105.14-34.57-7.58-1.42-57.78-14.21-75.77-10.89-18,3.32-46.41,9-61.09,17.05-14.68,8.05-103.24,78.61-103.24,78.61l-103.24,3.79-14.68,9Z"/>
      <path class="cls-2" d="M202.29,268.78s-34.81,10.66-47.83,30.07c-13.02,19.42-27.7,33.62-32.2,58.01s-3.55,63.46-2.37,80.27c1.18,16.81,6.39,35.99,3.08,51.62-3.32,15.63-7.34,30.07-7.34,30.07,0,0,23.21-3.79,30.78-5.21,7.58-1.42,26.52,1.18,33.62,13.26,7.1,12.08,16.81,23.92,16.34,45.23-.47,21.31.71,66.3,9.95,82.88,9.23,16.58,22.73,18,35.05,13.26,12.31-4.74,26.05-11.84,37.41-22.02,11.37-10.18,26.76-22.26,35.05-35.76,8.29-13.5,13.97-32.68,10.89-53.28-3.08-20.6-28.41-140.89-28.41-140.89l-94.01-147.52Z"/>
      <path class="cls-6" d="M202.29,269.96s11.37,35.28,12.55,60.62c1.18,25.34,2.13,35.28,1.18,53.52-.95,18.23-2.6,39.78-2.6,39.78,0,0,33.39-1.42,49.02,17.29,15.63,18.71,21.31,37.18,22.02,45.23.71,8.05-1.89,8.05,3.55,15.15,5.45,7.1,6.16,8.05,14.21,16.81,8.05,8.76,20.13,23.44,20.13,23.44,0,0,11.13-7.58,14.21-19.42,3.08-11.84,2.37-29.84,0-42.15s-6.63-23.21-9.47-28.89c-2.84-5.68-9.47-10.18-9.47-10.18l-8.76,2.6s14.92-27.94,20.13-40.02,3.32-38.83-2.13-52.33c-5.45-13.5-21.78-50.67-38.6-61.57-16.81-10.89-53.75-22.97-60.15-23.68-6.39-.71-25.81,3.79-25.81,3.79Z"/>
      <g>
        <path class="cls-4" d="M219.81,358.05s-3.08,19.89-3.79,20.84c-.71.95,21.55-4.74,31.26-8.76,9.71-4.03,17.29-12.55,11.37-18-5.92-5.45-38.83,5.92-38.83,5.92Z"/>
        <path class="cls-4" d="M308.13,297.9c-5.92-1.89-22.2,29.5-20.13,33.15,4.97,8.76,12.08-.24,18.71-8.29s7.34-22.97,1.42-24.86Z"/>
      </g>
      <path class="cls-4" d="M290.37,376.75c-2.57,6.17-1.89,15.63,14.68,11.13,16.58-4.5,13.73-13.26,12.55-14.92s-26.05.95-27.23,3.79Z"/>
      <path class="cls-6" d="M205.6,727.68s-7.1,21.07-5.45,36.7c1.66,15.63,7.81,27.7,15.63,35.76,7.81,8.05,20.36,14.44,20.36,14.44l26.52-25.81s-1.66-14.21,11.84-23.21c13.5-9,53.04-24.15,53.04-24.15,0,0,17.52,8.76,12.08,19.65-5.45,10.89-16.58,9.23-16.58,9.23l-12.55,10.66s11.37,10.42,22.73,8.29c11.37-2.13,22.02-4.03,24.63-11.6,2.6-7.58,3.08-9.24,3.08-9.24l23.21-17.52,15.63-10.18,14.92-4.74s9.71-11.6,9-25.1c-.71-13.5-11.84-40.73-32.68-47.83-20.84-7.1-59.43-5.45-69.38-.24-9.95,5.21-25.81,16.1-37.18,22.97-11.37,6.87-53.99,29.36-62.28,34.33-8.29,4.97-16.58,7.58-16.58,7.58Z"/>
      <path class="cls-6" d="M744.07,399.72s-16.81-6.16-13.97-15.63c2.84-9.47,12.79-21.07,12.79-21.07l5.21-14.92s-.71-11.84.71-17.76c1.42-5.92,6.63-17.76,19.42-26.99,12.79-9.23,27.94-13.73,40.73-8.76,12.79,4.97,39.31,19.65,42.39,32.68,3.08,13.02.95,19.89-6.39,40.49-7.34,20.6-51.86,121.24-51.86,121.24,0,0-16.81-13.5-25.1-17.52-8.29-4.03-37.41-13.26-37.41-13.26l50.2-66.78s-8.29-9.71-12.79-10.66c-4.5-.95-7.58,1.66-7.58,1.66l-16.34,17.29Z"/>
      <path class="cls-9" d="M423.21,717.73l34.81-25.34s33.15,18.71,42.15,22.97c9,4.26,87.61-20.13,87.61-20.13,0,0,80.75-30.07,108.45-43.1,27.7-13.02,75.77-46.88,76.25-47.83.47-.95,20.13-32.2,21.31-47.83s5.92-39.31,4.97-48.31c-.95-9-15.15-27.7-21.07-32.2s-52.33-24.86-71.04-23.44c-18.71,1.42-71.04,5.45-116.98,25.1-45.94,19.65-91.88,53.99-104.9,66.78-13.02,12.79-31.49,38.36-36.94,59.43-5.45,21.07-4.74,45.23-.47,55.17,4.26,9.95,10.42,14.68,7.81,18-2.6,3.32-34.33,19.18-34.33,19.18l2.37,21.55Z"/>
      <path class="cls-7" d="M781.95,539.67c1.42-12.31,5.45-24.63.24-39.31-5.21-14.68-38.6-25.81-39.54-25.57-.95.24-17.76,5.92-26.52,9.71-8.76,3.79-25.57,22.02-25.57,22.02,0,0-64.58,57.34-81.69,71.04l-95.9-42.62c-1.42-.47-31.02,19.42-39.31,37.65-8.29,18.23-14.68,46.89-12.79,60.86,1.89,13.97,4.5,33.62,15.15,36.47,10.66,2.84,32.2,6.16,53.52-.24,21.31-6.39,58.49-16.1,80.27-24.15,21.78-8.05,50.44-21.78,49.73-22.5-.05-.05-.26-.27-.61-.63,12.29-5.53,52.09-24.03,65.73-29.44,16.1-6.39,44.75-28.18,54.23-36.94,9.47-8.76,1.66-4.03,3.08-16.34Z"/>
      <path class="cls-8" d="M762.3,383.38s-66.78,81.69-82.17,104.19c-1.74,2.55-23.44-.95-36.94,5.68-13.5,6.63-32.2,26.52-32.2,26.52,0,0,6.39,11.37,8.76,17.05,2.37,5.68,4.97,2.37,4.97,1.42s15.15-25.57,20.6-29.36c5.45-3.79,13.97-1.66,12.31,4.97-1.66,6.63-23.44,37.41-26.52,42.15-3.08,4.74-8.05,6.16-8.05,6.87s-16.34,37.41-16.34,37.41c0,0,26.52,9.71,30.55,10.42,4.03.71,9.23,5.68,18.71.47,9.47-5.21,25.81-21.55,25.81-21.55l-12.55-.47s-4.03,12.55-8.52,9.23c-4.5-3.32-3.08-9.47-3.08-9.47l-9.95-5.45s-8.05,7.1-10.42,4.97c-2.37-2.13-.95-14.92,6.87-28.89,7.81-13.97,22.5-35.76,28.89-39.78s15.39-4.97,15.39,0-23.21,39.07-23.21,39.07l18.71-7.1s11.84-18.47,17.05-18,10.66.47,7.1,5.21-8.29,9.95-8.29,9.95c0,0,13.73,1.66,14.44.71s6.16-12.08,4.97-19.65c-1.18-7.58-5.92-22.26-10.18-24.63-4.26-2.37-10.89-7.34-8.29-11.37,2.6-4.03,80.04-102.53,80.04-102.53,0,0-1.42-8.29-5.45-9.23-4.03-.95-13.02,1.18-13.02,1.18Z"/>
      <path class="cls-1" d="M744.3,549.61s-20.36,5.68-20.36,4.74-26.76-9-41.91-1.89c-15.15,7.1-23.68,15.39-26.28,19.42-2.6,4.03-6.16,10.89-6.16,10.89,0,0,28.18,8.76,45.94,3.08,17.76-5.68,32.91-26.28,32.91-26.28,0,0,17.05,1.89,17.76-1.42.71-3.32-.71-8.52-1.89-8.52Z"/>
      <path class="cls-5" d="M520.3,555.53s-8.76,24.86-5.68,38.83c3.08,13.97,4.5,26.05,24.39,24.15,19.89-1.89,37.41,2.37,55.88-10.89,18.47-13.26,23.68-28.42,27.7-39.31,4.03-10.89,0-33.86-6.16-39.78-6.16-5.92-17.29-10.42-23.44-10.42s-72.7,37.41-72.7,37.41Z"/>
      <path class="cls-1" d="M498.51,636.04c-.41,3.3-1.66,9,3.79,4.97s25.34-18.47,25.34-18.47c0,0,3.31,27.94,13.97,23.21,10.66-4.74,4.97-16.34,5.21-15.63.24.71,9,11.6,18.94,9.95,9.95-1.66,15.87-4.97,13.97-13.97-1.89-9-7.34-12.08-7.34-12.08,0,0,15.15-11.37,7.58-18.94-7.58-7.58-24.86,0-24.86,0,0,0,3.91-15.66-7.58-15.39-11.48.27-15.15,9.95-17.05,17.05-1.89,7.1-8.52,13.26-12.79,16.58-4.26,3.31-18.94,20.84-19.18,22.73Z"/>
      <path class="cls-3" d="M531.43,565.48c4.6,4.09,20.6.71,34.57-8.05,13.97-8.76,27.94-29.13,25.81-34.1-2.13-4.97-21.78-28.41-36.47-29.36-14.68-.95-40.02,11.37-40.73,31.73s12.55,35.99,16.81,39.78Z"/>
      <path class="cls-6" d="M327.55,741.41s-44.99,16.58-52.57,23.21-14.21,22.97-9.71,24.86c4.5,1.89,25.81.95,36.47-5.45,10.66-6.39,37.89-22.97,37.89-22.97,0,0,.47-7.58-2.6-12.31-3.08-4.74-9.47-7.34-9.47-7.34Z"/>
      <path class="cls-7" d="M497.8,702.82s-1.18,31.97,4.74,41.2c5.92,9.24,9,13.5,9,13.5,0,0,6.87,34.57,19.18,45.23,12.31,10.66,41.2,19.89,65.83,24.86,24.63,4.97,62.04,5.21,68.2,2.13,6.16-3.08,39.31-21.78,48.31-26.05,9-4.26,21.55-4.74,23.68-10.66,2.13-5.92,23.92-61.09,29.13-68.43,5.21-7.34,22.26-27.94,32.2-31.26,9.95-3.32,39.31-46.17,44.28-61.8,4.97-15.63,9.24-46.89,9.95-54.94.71-8.05-7.81-56.36-9.47-55.65s-12.08,32.44-18.94,43.81c-6.87,11.37-32.44,47.6-32.44,47.6,0,0,4.97-49.02,2.37-49.49s-28.42,25.81-34.81,34.1c-6.39,8.29-24.86,38.36-28.42,43.81-3.55,5.45-25.34,23.21-32.68,31.02-7.34,7.81-26.05,26.76-28.42,31.73-2.37,4.97-8.76,11.84-8.76,11.84,0,0-15.87-25.1-18.71-24.63-2.84.47-14.68,13.5-17.29,20.36-2.6,6.87-2.6,23.68-6.16,23.68s-43.57-35.99-50.67-34.57c-7.1,1.42-69.85.95-70.09,2.6Z"/>
      <path class="cls-3" d="M518.17,732.89c-.59,3.26,17.29,52.57,21.31,58.01,4.03,5.45,29.84,16.1,35.76,16.81s8.05.95,12.55,6.63,8.76,13.26,8.76,13.26c0,0,50.67,9.47,62.51,4.26s56.36-29.36,56.36-29.36c0,0-2.6-22.5,10.18-42.86,12.79-20.36,34.57-43.57,41.68-52.33,7.1-8.76,29.13-44.04,31.73-51.38,2.6-7.34,7.34-21.78,5.92-19.42-1.42,2.37-22.73,30.55-29.6,37.18-6.87,6.63-28.18,25.34-26.52,21.55,1.66-3.79,15.63-52.8,14.21-50.67-1.42,2.13-40.25,42.62-49.49,52.33-9.23,9.71-17.52,20.84-24.39,32.2s-32.44,48.31-31.97,44.28c.47-4.03-1.18-23.44-7.81-30.31-6.63-6.87-17.76-21.07-17.76-19.42s-.24,30.78.71,39.07c.95,8.29,7.34,25.57,3.08,22.26-4.26-3.32-26.76-25.57-31.73-28.65-4.97-3.08-26.05-17.76-44.99-21.31-18.94-3.55-40.02-4.74-40.49-2.13Z"/>
      <g>
        <path class="cls-8" d="M353.03,260.56c2.95-.88,5.93-1.69,8.79-2.5q3.87,3.82,9.12,5.51c1.12.36,2.25.72,3.38,1.06,6.77,2.05,13.7,2.55,20.62,1.24,7.09-1.34,14.08-3.19,21.44-4.89.57.72,1.44,1.9,2.4,3.01,2,2.32,4.53,4.02,7.56,4.27,3.95.32,7.97.45,11.9.07,3.49-.34,7-1.22,10.34-2.34,6.55-2.19,12.98-4.71,19.66-7.16.81.92,1.78,2.02,2.73,3.13,7.26,8.47,19.52,5.54,24.89-.23,1.63-1.75,2.71-3.53,1.17-5.76-2.16-1.08-3.45-.02-4.74,1.39-4.59,5.02-10.2,5.48-16.26,3.39-2.01-.69-3.66-1.91-4.28-4.3,4.48-4.47,11.79-7.26,9.86-15.55-3.31-2.83-5.41-3.17-8.55-1.23-3.5,2.16-5.38,5.43-5.77,9.49-.17,1.74-.03,3.52-.03,5.23-6.33,3.68-12.62,6.55-19.57,7.74-2.62.45-5.3.57-7.9,1.13-4.89,1.05-9.4-.29-13.81-2.07-1.23-.49-2.14-1.77-3.46-2.91,6.73-4.54,14.38-7.39,16.4-15.7-1.92-6.34-5.89-8.33-11.48-5.65-2.09,1-4.02,2.5-5.71,4.11-3.52,3.35-5.45,7.66-6.38,12.37-.67.3-1.19.58-1.74.76-9.98,3.22-20.04,6-30.57,6.97-3.77.35-7.31.31-10.86-.97-2.04-.73-3.52-1.94-4.3-4.14.6-.44,1.07-.77,1.52-1.13,3.15-2.45,6.4-4.78,9.41-7.4,3.01-2.61,3.6-5.59,2.06-8.29-1.36-2.38-4.36-3.39-7.79-2.66-6.46,1.37-10.15,5.67-12.31,11.59-.4,1.09-.57,2.27-.86,3.45-11.23,5.1-22.9,7.29-35.03,6.5-3.9-.25-7.73-1.74-10.4-5.7,1.3-1.16,2.67-2.1,3.69-3.34,1.39-1.7,2.78-3.49,3.7-5.47,1.48-3.17.84-4.36-2.87-6.29-7.81,1.71-9.64,7.5-9.1,14.98-4.26,1.79-8.29,3.49-12.59,5.3.07.37.2,1.03.34,1.77,5.48,1.03,9.39-2.44,13.98-4.4,4.36,5.24,10.47,7.29,16.81,7.92,8.26.82,16.55.12,24.59-2.28ZM478.34,243c-.72,3.76-2.23,5.56-7.88,9.16,1.13-7.03,3.39-9.56,7.88-9.16ZM431.77,242.94c-1.6,3.16-4.52,4.56-7.28,6.32,1.06-4.2,3.41-6.27,7.28-6.32ZM318.76,240.72c-.28,4.09-3.02,5.99-6.04,8.89.66-4.64,2.13-7.36,6.04-8.89Z"/>
        <path class="cls-8" d="M263.93,246.24c1.37,3.54-3.89,5.47-1.1,9.27h8.6c.45-.79.92-1.63,1.33-2.37-1.65-2.42-3.16-4.63-4.98-7.3-.76.08-1.97.2-3.85.4Z"/>
        <path class="cls-8" d="M614.45,82.03c-.61-3.64-1.86-6.65-6.04-7.88-10.09-2.96-20.13-5.61-30.85-5.19-11.69.46-23.4.11-35.1.43-9.9.27-19.79.92-29.68,1.53-6.19.38-12.37,1.01-18.56,1.49-9.13.7-18.26,1.59-27.41,1.99-7.69.34-15.4.07-23.1.13-4.44.03-8.88.23-13.33.26-12.14.08-24.28.3-36.41.09-14.2-.24-28.4-.93-42.6-1.29-5.03-.13-10.15-.44-15.08.3-7.47,1.12-14.76.12-22.11-.57-7.5-.7-14.97-1.83-22.49-2.15-9.46-.4-18.97-.46-28.43-.12-5.11.19-10.24,1.24-15.25,2.42-7.22,1.69-11.75,6.14-13.46,13.67-1.83,8.07-3.58,16.11-4.45,24.35-.99,9.4-2.23,18.78-3.35,28.17-1.25,10.55-2.45,21.1-3.73,31.65-1.37,11.28-3,22.53-4.17,33.83-.96,9.25-1.37,18.55-2.09,27.83-.42,5.45-.98,10.88-1.44,16.33-.37,4.42-.72,8.84-1.01,13.26-.12,1.92-.3,3.95,2.27,4.82,2.33-.19,3.05-1.75,3.17-3.9.3-5.31.63-10.62.98-15.93.3-4.57.61-9.14,1-13.7.81-9.42,1.65-18.83,2.51-28.24.63-6.91,1.18-13.83,2-20.71.99-8.35,2.25-16.67,3.35-25.01.97-7.31,1.91-14.63,2.8-21.95.93-7.63,1.77-15.27,2.71-22.9.52-4.23,1.16-8.44,1.79-13,2.75-.22,5.22-.51,7.71-.61,9.32-.38,18.64-.58,27.95-1.07,5.6-.29,11.18-1.09,16.78-1.49,5.75-.41,11.51-.87,17.27-.86,7.53,0,15.06.75,22.59.59,7.08-.15,14.13-1.3,21.22-1.56,13.02-.47,26.05-.69,39.08-.87,10.07-.14,20.14-.07,30.21-.12,2.81-.01,5.63-.14,8.44-.18,12.87-.19,25.84-1.42,38.59-.27,15.22,1.38,30.46,1.2,45.67,2.1,14.62.86,29.3.76,43.95,1.08.74.02,1.48.08,2.22.11,11.97.54,23.93,1.1,35.9,1.61,2.22.09,4.47-.2,6.66.06,2.86.35,5.68,1.08,8.75,1.7,0,1.87.06,3.18-.01,4.48-.28,5.32-.52,10.64-.94,15.94-.6,7.51-1.18,15.02-2.06,22.49-.96,8.07-2.29,16.1-3.41,24.15-1.12,8.05-2.2,16.11-3.28,24.17-.66,4.97-1.32,9.95-1.91,14.93-.77,6.46-1.31,12.94-2.26,19.37-1.46,9.94-3.43,19.8-4.72,29.76-1.71,13.18-3.71,26.29-6.2,39.35-1.96,10.3-3.05,20.76-4.81,31.1-1.63,9.59-3.63,19.11-5.43,28.5-1.68,1.09-3.14,2.04-3.9,2.53-2.53.18-4.29.24-6.04.43-3.52.38-7.04,1.11-10.56,1.18-9.02.18-18.04.04-27.07.12-5.03.05-10.06.14-15.08.47-11.5.77-22.94,2.47-34.51,2.19-2.51-.06-5.05-.04-7.54.28-10.84,1.36-21.63,2.89-32.62,2.88-10.48,0-20.94,1.21-31.47.64-5.89-.32-11.83.43-17.75.48-14.52.12-29.03.07-43.55.21-3.38.03-6.77.48-10.14.92-1.8.23-3.45.98-3.68,3.17.53,2.05,2.02,2.44,3.79,2.19,1.17-.16,2.29-.64,3.46-.75,13.74-1.32,27.49-1.27,41.25-.39,6.94.44,13.91.95,20.85.82,9.02-.17,18.02-.94,27.03-1.48,1.03-.06,2.05-.3,3.07-.42,8.22-.95,16.42-2.2,24.66-2.74,7.8-.51,15.66-.13,23.49-.36,8.28-.24,16.55-.72,24.82-1.13,9.45-.47,18.9-.93,28.35-1.49,4.28-.25,8.55-.69,12.82-1.07,2.2-.2,4.4-.65,6.6-.66,6.35-.05,12.7.01,19.04.13,8.64.16,9.98-1.13,10.48-9.71.33-5.59.54-11.25,1.56-16.73,1.68-8.98,3.91-17.86,6.02-26.76,2.77-11.67,4.69-23.47,5.88-35.41.77-7.77,2.2-15.47,3.23-23.22.72-5.41,1.26-10.85,1.89-16.28.83-7.19,1.43-14.42,2.55-21.57,1.7-10.93,3.94-21.79,5.61-32.73,1.78-11.69,3.4-23.42,4.66-35.18,1.11-10.27,1.63-20.61,2.4-30.92.19-2.51.31-5.02.48-7.53.58-8.87.96-17.73-.53-26.55ZM609.85,96.62c-11.02-2.88-21.95-1.17-32.79-1.73-11.08-.57-22.15-1.27-33.24-1.65-14.05-.48-28.12-.66-42.17-1.04-7.39-.2-14.82-1.13-22.17-.68-13.34.81-26.62-.31-39.94-.26-13.02.05-26.04-.67-39.06-.63-14.21.05-28.42.64-42.63.88-6.07.1-12.15-.28-18.21-.08-5.31.17-10.6.84-15.9,1.3-3.67.32-7.34.89-11.02.97-7.38.16-14.7,1.82-22.13.67-2.46-.38-5.03-.22-7.54-.15-4.43.12-8.86.31-13.28.57-9.15.55-18.29,1.18-27.44,1.75-1.31.08-2.64.01-4.57.01,1.06-4,2-7.78,3.07-11.51.86-2.97,3.22-4.55,5.9-5.61,4.57-1.81,9.36-2.88,14.25-2.88,7.54.01,15.08.52,22.63.61,12.14.16,24.29.11,36.43.24,2.8.03,5.62.26,8.38.68,12.33,1.9,24.73,2.15,37.17,2.14,15.69,0,31.41.73,47.08.17,13.74-.5,27.56.71,41.22-1.7.87-.15,1.76-.28,2.64-.31,12.42-.4,24.84-.7,37.25-1.21,7.38-.3,14.75-.92,22.12-1.4.59-.04,1.18-.13,1.77-.15,10.5-.32,21-.63,31.5-.96,8.88-.27,17.75-.74,26.63-.8,8.74-.06,17.41.74,25.68,4,2.04.8,4.22,1.24,6.56,1.91,2.53,5.57,1.71,11.03,1.78,16.83Z"/>
        <path class="cls-8" d="M305.88,215.5c3.03,5.22,8.03,5.12,12.97,4.67,8.85-.79,17.53-2.52,25.86-5.71.91-.35,1.89-.51,2.83-.76,2.16,4.23,5.25,7.23,9.45,8.63,5.63,1.88,11.52,2.96,17.44,2.3,7.63-.85,15.15-2.46,22.3-5.44,3.25-1.36,6.49-2.74,9.43-3.99,2.15,1.14,3.86,2.49,5.8,2.99,6.62,1.7,13.43,1.99,20.19,1.39,7.7-.68,14.98-3.24,22.12-6.11,1.05-.42,2.15-.73,3.26-1.09.63.97,1.11,1.72,1.6,2.45,7.11,10.48,19.22,9.54,26.99,4.12,1.8-1.25,3.19-2.8,1.53-5.13-2.31-1.53-3.92.13-5.69,1.09-6.83,3.71-15.01,1.55-18.97-5.27,1.22-.74,2.48-1.44,3.67-2.24,3.43-2.32,6.92-4.55,10.21-7.05,3.15-2.41,4.82-5.59,3.61-9.94-1.18-2.38-3.36-3.17-6.1-3.23-3.57-.09-6.69,1.11-9.55,3.06-5.66,3.86-8.55,9.24-8.44,16.16-8.63,4.41-17.76,6.83-26.89,9.25-1.28.34-2.6.59-3.92.73-5.02.54-9.64-.25-13.66-4.24,1.64-1.19,3.14-2.09,4.42-3.25,1.96-1.77,4.02-3.52,5.58-5.62,1.69-2.27,1.85-5.12.32-7.53-1.63-2.57-4.44-2.77-7.17-2.19-1.42.3-2.82.92-4.07,1.66-4.34,2.59-6.71,6.55-7.58,11.46-.18.99-.25,2-.38,3.09-11.76,5.13-23.92,7.98-36.56,8.64-3.19.17-6.48-.46-9.63-1.14-2.78-.59-5.1-2.11-5.7-4.96,3.33-2.32,6.45-4.29,9.34-6.56,2.64-2.08,3.79-4.85,2.54-8.23-2.07-2.35-4.67-2.06-6.99-1.05-5.82,2.54-8.46,7.49-9.24,13.86-4.87,1.47-9.6,3.22-14.48,4.3-5.44,1.21-10.98,2.6-16.63,1.1-1.6-.42-3.13-1.11-5.32-1.9,4.55-3.36,9.34-5.4,10.28-10.81-1.71-4.44-5.2-5.97-8.98-3.4-2.08,1.42-3.58,3.82-5.05,5.97-.88,1.28-1.2,2.95-1.83,4.6-3.01.51-5.9.99-8.78,1.47-1.56,3.21-.8,5.05,2.38,5.02,2.45-.03,4.89-.74,7.45-1.17ZM474.98,193.04c-1.69,3.65-5.29,6.55-12.73,10.13,1.94-7.25,6.58-10.78,12.73-10.13ZM417.59,199.62c-1.97,3.04-4.09,4.62-6.72,5.66.91-2.88,2.66-4.85,6.72-5.66ZM360.61,199.42c-1.95,4.39-5.52,6.15-8.97,8.29-.21-4.62,3.65-8.32,8.97-8.29Z"/>
        <g>
          <path class="cls-8" d="M457.23,157.25c-7.12-.56-13.32,3.23-20.41,3.15-.44-4.78-.86-9.38-1.27-13.87,5.14-2.09,11.19-.75,15.17-5.47-1.62-2.9-3.39-2.67-5.37-2.01-3.34,1.1-6.72,2.09-10.68,3.31-.81-4.42-1.77-8.44-1.88-12.67,1.35-.55,2.26-1.09,3.24-1.29,5.34-1.08,10.64-2.42,16.17-2.08,1.51.09,3.36.7,4.05-1.52-1.7-2.05-1.7-2.21-3.84-2.14-3.09.11-6.19.34-9.24.79-5.33.8-10.58,1.93-15.63,4.38.82,2.28,1.97,4.27,2.22,6.36.62,5.26.85,10.56,1.2,15.85.23,3.52.17,7.09.67,10.57.69,4.75,2.63,6.08,7.2,5.42,3.07-.44,6.16-.83,9.16-1.59,3.24-.82,6.69-1.23,9.63-3.7-.12-1.04-.24-2.13-.4-3.49Z"/>
          <path class="cls-8" d="M402.07,124.55c-5.32-.72-9.52,2.55-10.17,8.06.68.79,1.44,1.67,2.24,2.61,3.04,10.99,6.09,22.05,9.2,33.32h2.29c-.26-2.37-.38-4.53-.76-6.65-.69-3.89-1.53-7.75-2.31-11.63,3.83.08,7.13-1.49,10.22-3.5,4.57-2.97,5.78-7.48,3.15-12.29-2.99-5.47-7.5-9.05-13.86-9.92ZM402.81,147.43c-.1.79-.2,1.69-.31,2.59-2.22-6.35-2.55-12.99-3.71-19.49,6.86-1.36,12.77,2.28,15.18,9.02-1.64,5.23-6.82,5.75-11.15,7.87Z"/>
          <path class="cls-8" d="M318.76,161.32c-.94-4.1-1.88-8.23-2.93-12.81,3.46-.65,6.61-1.28,9.77-1.82,1.81-.31,3.47-.7,4.01-2.86-1.75-3.03-4.55-1.7-6.85-1.71-2.57,0-5.14.53-7.97.86-.61-4.24-1.16-8.02-1.73-11.99.86-.11,1.57-.27,2.28-.27,5.48.02,10.95.04,16.43.12,1.91.03,3.61-.09,4-3.08-.69-.48-1.5-1.4-2.48-1.65-8.65-2.27-17.41-2.19-26.46-1.47-.32,5.09-.23,9.58.95,14.02,1.25,4.71,2.53,9.41,3.76,14.13.78,3,1.38,6.06,2.25,9.03,1.17,3.98,3.42,5.55,7.6,5.26,2.64-.18,5.3-.55,7.88-1.13,3.84-.86,7.96-1.11,11.28-4.41-.14-.91-.31-1.98-.55-3.59-7.19,1.03-13.69,4.67-21.24,3.36Z"/>
          <path class="cls-8" d="M289.97,148.22c-1.29-1.16-2.65-2.23-4.12-3.46,2.92-2.84,6.17-5,6.9-8.88.31-1.65.47-3.64-.17-5.09-2.21-5.03-8.31-7.26-13.49-5.22-1.09.43-2.12,1.03-3.19,1.55-.42-.16-.82-.37-1.25-.47-.53-.12-1.08-.16-1.34-.2-1.86,1.2-1.81,2.66-1.29,4.13,2.99,8.57,3.02,17.72,5.18,26.43.75,3.03,0,6.62,3.09,9.31.9-.24,1.94-.51,3.07-.81.67-6.15-1.83-11.55-2.3-17.18,3.38,2.95,6.6,5.99,10.05,8.73,3.54,2.81,6.73,6.15,11.6,8.51.67-.74,1.32-1.47,2.21-2.45-1.15-1.58-1.83-2.9-2.84-3.85-3.98-3.75-8.05-7.4-12.1-11.05ZM279.97,142.74c-2.02-3.19-2.38-6.64-3.09-10.11,4.17-4.71,6.69-5.09,10.78-1.85,1.69,6.52-4.47,8.09-7.7,11.96Z"/>
          <path class="cls-8" d="M367.6,157.96c-1.34.75-2.41,1.61-3.64,1.98-1.35.42-3.02.91-4.23.48-9.14-3.22-15.28-13.26-10.85-23.58.78-1.83,2.01-3.28,4.49-3.08,1.11,1.02,2.28,2.09,3.39,3.11,3.41-.93,4.09-2.41,2.37-4.84-2.55-3.6-7.33-4.34-10.99-1.65-2.74,2.02-4.17,4.91-5.16,8.07-1.95,6.21-.39,11.97,2.35,17.51,3,6.07,8.26,9.13,14.72,10.09,3.17.47,6.15-.7,8.55-2.89,1.83-1.67,1.62-2.74-1-5.21Z"/>
          <path class="cls-8" d="M373.12,131.28c0,2.18-.35,4.01.06,5.65,2.31,9.47,5.29,18.74,9.52,27.55.35.73,1.35,1.14,2.05,1.69.41-.28.82-.57,1.23-.85-1.71-11.57-6.26-22.5-7.95-34.49-1.87.17-3.21.3-4.91.45Z"/>
        </g>
        <path class="cls-8" d="M265.6,207.03c1.89.38,3.09-.65,3.95-2.16,1.2-2.1.78-3.7-1.55-6.11-2.14-.57-3.68.29-4.99,2.31-.11,3.86.62,5.56,2.59,5.96Z"/>
        <path class="cls-5" d="M251.64,82.41c-3.34,3.18-3.38,3.37-1.43,6.97,2.77.84,5.38.74,7.88-2-.09-1.21-.2-2.72-.34-4.57-2.42-.16-4.41-.28-6.1-.39Z"/>
        <path class="cls-5" d="M272.19,80.58c-1.32,1.66-1.41,3.45.18,5.36h4.57c1.58-2.31,2.15-4.29.68-6.53-2.06-.88-3.97-.67-5.43,1.17Z"/>
      </g>
      <g>
        <path class="cls-8" d="M795.16,491.39c1.77,6,3.86,12.16,5.39,18.44,2.28,9.36,2.23,18.67-.94,27.99-1.99,5.85-3.09,12.01-4.56,17.88,2.83,6.06,3.2,12.13,2.37,18.45-1.04,7.91-1.73,15.87-2.52,23.81-.08.76.2,1.55.36,2.66.95-.72,1.76-1.13,2.29-1.77,14.98-18.24,27.02-38.13,34.23-60.77,1.79-5.63,4.18-11.07,6.39-16.56.88-2.2,1.97-4.34,4.56-5.06,2.58-.09,3.82,1.71,4.44,3.66.98,3.09,1.73,6.29,2.21,9.5,1.71,11.41,3.48,22.81,4.83,34.27.93,7.93,1.1,15.88-.55,23.86-1.85,8.97-2.46,18.22-4.62,27.09-8.49,34.85-27.3,63.29-54.75,86.15-2.73,2.27-5.61,4.37-8.36,6.61-8.84,7.2-16.22,15.67-21.05,26.05-4.99,10.73-9.61,21.63-14.27,32.51-3.14,7.34-6.05,14.79-9.12,22.17-1.48,3.56-3.17,7.02-6.61,9.99-1.18.39-2.81,1.15-4.53,1.45-7.16,1.25-13.42,4.54-19.43,8.41-6.22,4.01-12.37,8.14-18.6,12.14-7.24,4.65-14.73,8.81-22.77,11.95-9.59,3.73-19.42,4.76-29.64,3.55-14.98-1.78-30.01-3.1-44.98-4.88-16.62-1.97-32.38-6.97-47.17-14.79-5.22-2.76-10.03-6.29-15.13-9.3-6.66-3.94-11.26-9.59-13.93-16.73-2.07-5.53-4.07-11.14-5.4-16.88-1.82-7.85-4.24-15.32-8.54-22.22-5.56-8.92-9.01-18.62-9.62-29.22-.05-.85-.45-1.69-.8-2.9-1.06-.64-2.26-1.47-3.55-2.14-9.21-4.78-18.23-9.86-26.23-16.56-2.01-1.68-4.35-2.98-6.64-4.52-10.73,7.3-21.24,14.44-32.03,21.78-.96,5.71-2.16,11.5-5.98,16.27-3.39,4.23-7.67,7.35-12.69,10.14-2.02.17-4.37.37-7.05.6-4.2,5.39-9.71,9.16-16.76,10.1-5.58,7.16-10.58,14.74-19.81,16.63-1.66,2.98-3.06,5.58-4.53,8.13-4.91,8.49-12.64,12.17-22.09,12.62-6.9.33-13.55-1.02-19.86-3.85-3.43-1.54-6.83-3.16-10.72-4.96-13.59,5.38-27.63,11.21-43.54,8.35-4.26,4.35-8.66,8.33-12.45,12.83-13.72,16.26-30.26,29.14-48.06,40.49-8.73,5.57-17.69,10.8-26.64,16.02-11.17,6.51-23.33,9.86-36.14,11.37-11.5,1.35-22.99,1.59-34.54,1.67-11.32.07-21.59-2.95-31.45-8.07-3.41-1.77-6.71-3.83-10.24-5.32-14.04-5.94-24.93-15.81-34.42-27.37-3.17-3.86-5.82-8.18-8.48-12.43-2.35-3.76-4.24-7.81-6.56-11.59-7.75-12.64-11.36-26.52-13.03-41.11-1.19-10.36-1.06-20.56.1-30.95,1.22-10.89,2.18-21.78,4.6-32.48,3.88-17.17,10.63-33.28,19.07-48.62,8.99-16.34,18.57-32.35,27.9-48.5,9.48-16.41,18.96-32.82,28.47-49.21,4.16-7.17,8.26-14.35,13.79-20.64,5.11-5.81,10.45-11.3,16.65-15.45,4.12-5.53,4.52-11.88,5.34-17.96,1.31-9.67,2.4-19.4,2.97-29.13.65-11.21.49-22.43-.43-33.68-1.31-15.92-4.44-31.65-4.34-47.71.11-19.42,3.03-38.3,9.96-56.49,5.34-14.02,13.51-26.33,23.32-37.53,4.68-5.34,9.7-10.41,14.94-15.2,9.11-8.33,19.55-13.85,31.92-16.43,8.51-1.77,16.86-3.15,25.43-2.37,13.57,1.25,27.24,2.86,39.68,8.71,12.3,5.78,24.41,12.1,35.37,20.32,1.17.88,2.36,1.72,3.47,2.53,2.71-1.1,5.16-2.09,7.2-2.92,3.29-.37,5.76.44,7.71,2.5,2.18,2.3,2.92,5.24,2.47,8.24-.57,3.77-1.59,7.48-2.65,12.25.54,1.14,1.46,3.3,2.56,5.36,8.71,16.35,14.7,33.64,17.24,51.98,1.95,14.08.23,27.8-6.41,40.58-3.13,6.03-6.71,11.83-10,17.78-.95,1.71-1.62,3.56-2.83,6.25,3.67-.82,5.61-2.58,7.71-3.94,14.77-9.6,30.59-16.74,47.77-20.89,15.45-3.73,31.02-4.31,46.73-2.48,1.47.17,2.92.5,4.4.56,20.55.9,40.46,5.22,59.97,11.46,15.78,5.05,31.39,10.6,47.17,15.65,12.11,3.88,24.35,7.36,36.56,10.94,10.8,3.17,21.56,6.35,31.32,12.22,3.77,2.27,7.97,3.82,12.26,5.84,15.5-4.51,31.11-8.85,47.15-11.82,15.8-2.93,31.78-2.78,48.06-4.7,11.22-18,26.99-32.59,38.72-50.82-4.72-3.22-9.33-6.37-14.11-9.64-2.99-5.56-.55-10.84,1.47-16.01,2.09-5.37,6.25-9.27,9.48-12.23,2.59-5.94,4.71-10.78,6.41-14.67.8-6.77,1.11-12.68,2.25-18.43,2.15-10.92,8.22-19.62,16.89-26.37,19.01-14.8,39.51-16.04,60.82-5.62,8.3,4.05,15.37,10,21.7,16.76,5.96,6.38,9.11,13.89,8.28,22.64-.5,5.27-1.16,10.68-2.8,15.67-4.9,14.89-10.04,29.72-15.68,44.34-2.64,6.84-6.76,13.09-10.01,19.71-7.32,14.89-13.76,30.15-19.38,45.77-2.3,6.4-4.79,12.75-7.43,19.01-1.35,3.19-3.22,6.17-4.86,9.25ZM474.48,562.53c7.14-6.48,14.21-13.05,21.45-19.42,4.4-3.88,9.11-7.41,13.58-11.21,1.03-.88,2.24-2.09.76-3.65-.33.05-.69,0-.9.15-12.1,8.9-23.31,18.79-33.12,30.19-.9,1.05-1.26,2.56-1.87,3.85-3.06,1.46-4.64,3.99-5.21,7.23-.68.51-1.6.88-2.02,1.55-9.7,15.46-17.09,31.86-18.82,50.25-.58,6.14-.83,12.56.36,18.55,1.82,9.22,3.6,18.6,8.45,27,2.09,3.62,3.12,7.71.77,12.75-10.12,7.24-24.12,9.59-33.56,19.75.49,3.24.1,6.49,1.51,9.41.92-.11,1.6.01,2.02-.26,9.13-6.03,18.23-12.1,28.15-18.7.16-.02,1.32-.25,2.48-.23.87.01,1.73.34,2.51.52,7.65,7.76,21.2,16.29,32.3,20.28,1.83-3.39-1.12-8.84,5.4-10.96.94-.05,3-.19,5.06-.29,15.66-.75,31.36-1.14,46.98-2.4,7.51-.6,14.72-.55,21.35,1.72,20.81-7.49,41.22-14.58,61.43-22.19,26.88-10.11,53.27-21.43,79.06-34.08,6.89-3.38,13.45-7.41,18.82-10.4,4.89-7.21,8.73-13.19,12.89-18.94,11.66-16.12,24.87-30.91,38.74-45.14,2.47-2.53,4.86-5.14,7.46-7.91,1.38-8.15,2.38-16.4,4.24-24.45,3.69-16-.14-30.56-7.89-44.35-4.13-7.35-10.07-13.11-17.68-17.03-11.63-5.99-23.79-10.54-36.52-13.54-.52-.12-1.13.14-2.13.28-.97,1.66-3.53,2.7-2.85,6.19,1.47.27,3.12.56,4.78.87,4.06.78,8.31,1.04,12.14,2.45,10.86,3.98,21.38,8.76,30.65,15.86,7.97,6.1,12.6,14.09,12.67,24.29.06,8.59.03,17.18-.32,25.76-.58,13.92-6.94,24.9-17.93,33.22-9.21,6.98-18.71,13.6-29.03,18.84-13.99,7.1-28.08,14-42.23,20.77-9.88,4.73-19.95,9.03-29.89,13.64-30.36,14.09-61.53,26.16-93.17,37-23.31,7.99-47.45,12.54-71.76,16.18-8.31,1.25-16.52.03-24.45-2.88-5.83-2.14-10.2-5.91-13.07-11.4-3.88-7.41-6.73-15.29-7.52-23.56-1.32-13.88-.93-27.73,2.34-41.45,2.2-9.21,4.87-18.24,8.14-27.11,3.09-1.35,4.64-3.89,5.45-7.01ZM531.23,644.37c-.15-.63-.31-1.27-.11-.47-.48-.67-.11-.16.25.35,1.09,6.6,2.82,13.01,5.13,19.09,3.25.35,5.8.17,8.38-2.68-1.64-2.99-.74-7.01-3.21-10.75-3.26-1.73-6.85-3.64-10.44-5.54ZM799.83,647.9c-1.4,1.45-2.98,2.76-4.18,4.36-11.27,14.93-23.36,29.11-37.47,41.46-2.67,2.34-5.44,4.58-8.35,6.6-1.08.75-2.7.74-4.55,1.2-.37-1.78-1.1-3.21-.84-4.44.43-1.99,1.43-3.87,2.34-5.73,4.98-10.15,8.47-20.82,11.3-31.73.39-1.52.27-3.17.46-5.77-5.01,5.37-9.18,9.96-13.48,14.42-11.3,11.74-22.61,23.46-34,35.11-6.67,6.82-12.22,14.44-17.03,22.66-3.44,5.88-6.97,11.71-10.81,17.33-7.69,11.23-15.6,22.32-23.5,33.41-.78,1.09-2.13,1.77-3.23,2.65-1.03-.8-1.71-1.32-2.32-1.79-1.06-17.01-1.56-19.85-4.81-26.96-4.32-9.47-10.68-18.78-16.34-23.57.31,19.91-1.16,39.45,7.52,57.78-.66,1.22-1.2,2.22-1.6,2.95-2.82,1.14-5.14.4-7.08-.97-3.61-2.55-7.3-5.1-10.42-8.19-6.31-6.25-12.29-12.84-18.35-19.33-3.9-4.18-8.59-7.18-13.71-9.65-20.26-9.8-41.67-15.06-64.08-16.39-1.34-.08-2.7.29-4.74.53,5.36,15.39,10.46,30.2,15.67,44.95,4.3,12.16,13.01,19.46,25.38,22.59,3.73.94,7.44,2,11.21,2.74,8.44,1.66,15.51,5.7,21.34,11.95,2.81,3.02,5.51,6.14,8.47,9.43,8.4,2.09,17.1,3.7,26.04,3.7,2.96,0,5.93-.05,8.88.16,11.38.82,22.41-.68,33.07-4.75,14.53-5.54,26.9-14.72,39.64-22.9.69-4.27,1.48-8.04,1.88-11.84.69-6.55,2.51-12.74,5.04-18.79,5.43-12.97,12.99-24.58,22.14-35.18,4.26-4.93,8.63-9.77,12.83-14.75,17.63-20.9,32.93-43.38,45.63-67.61.93-1.77,1.27-3.85,1.89-5.78,1.16-.32,1.81-.83.68-2.19-.2.88-.37,1.6-.53,2.32ZM418.46,535.01c19.92,5.02,40.26,6.8,60.01,10.68,11.42-9.59,22.74-19.1,34.46-28.94,8.93-16.31,21.89-27.12,40.94-26.07,16.5-6.98,31.86-13.49,47.94-20.3-1.64-.94-2.56-1.66-3.6-2.04-8.33-3.04-16.61-6.26-25.04-8.97-27.04-8.68-54.64-15.6-81.06-26.21-2.19-.88-4.53-1.37-6.8-2.04-18.74-5.57-37.79-9.68-57.05-13.07-11.19-1.97-22.07-2.77-33.46-1.66-15.22,1.48-29.67,5.3-43.83,10.62-10.24,3.85-19.87,8.9-29.04,15.77,10.26,9.61,14.4,22.01,16.87,34.84,2.18,11.3,3.26,22.82,2.98,34.44-.21,8.89-2.57,16.95-7.35,24.3-2.73,4.19-5.92,8.08-8.79,11.96.52,6.56,1.34,13.02,1.5,19.49.44,17.71-3.59,34.06-15.49,47.81-.58.67-1.11,1.39-1.56,2.15-3.79,6.41-8.63,12.05-13.99,17.09-11.02,10.37-23.09,19.48-35.94,27.48-4.51,2.81-9.38,5.06-14.15,7.42-9.41,4.67-18.88,4.05-28.36.15-4.22-1.74-7.68-4.36-10.26-8.17-4.54-6.69-7.89-13.82-9.1-21.92-2.54-16.97-4.73-33.95-5.47-51.14-.47-10.9-.99-21.83-2.9-32.68-2.48-14.08-9.41-25.33-19.37-34.57-13.34-5.53-18.31-6.4-30.59-4.99-20.21,2.32-35.87,12.19-45.73,29.89-14.42,25.87-29.17,51.53-44.59,76.81-10.03,16.44-19.44,33.22-27.27,50.84-7.25,16.31-12.64,33.23-15.21,50.88-3.97,27.21-.88,53.73,9.16,79.37,2.27,5.81,5.58,11.04,9.36,16.05,10.3,13.64,23.15,24.53,36.87,34.44,3.77,2.73,8.14,5.03,12.58,6.37,17.09,5.13,34.53,8.22,52.5,6.68,3.83-.33,7.63-.92,11.44-1.4,10.36-1.3,20.37-3.95,29.62-8.84,18.6-9.84,36.79-20.38,53.27-33.59,2.97-2.38,5.81-4.94,9.23-7.86-2.29-1.45-3.91-2.58-5.62-3.54-4.42-2.48-8.55-5.31-11.86-9.21-8.91-10.49-14-22.62-15-36.3-.79-10.86-1.21-21.76,1.73-33.41-2.96,1.06-5.12,1.7-7.17,2.59-19.01,8.23-38.14,16.22-56.97,24.84-16.41,7.51-32.48,15.78-48.74,23.64-2.91,1.41-5.94,2.59-9,3.66-.59.21-1.53-.59-2.55-1.03.18-1.19.35-2.29.54-3.5,9.95-4.99,19.69-9.95,29.5-14.79,10.06-4.97,20.17-9.82,30.32-14.75,2.4-7.6,4.86-14.88,7.01-22.25,7.03-24.16,14.36-48.21,24.77-71.21,2.8-6.19,5.14-12.59,7.76-18.86.16-.38.96-.5,1.67-.84.49.55,1.01,1.14,1.78,2-1.69,4.4-3.42,8.78-5.06,13.2-1.65,4.44-3.23,8.9-4.79,13.37-1.56,4.47-3.05,8.97-4.59,13.44-1.45,4.2-3,8.36-4.38,12.58-1.47,4.5-2.82,9.04-4.18,13.57s-2.66,9.09-4.02,13.62c-1.36,4.53-2.96,9-4.12,13.59-1.13,4.44-3.37,8.64-3.59,13.91,1.62-.57,2.7-.9,3.73-1.33,18.31-7.62,36.56-15.37,54.93-22.84,15.66-6.38,30.89-13.55,45.27-22.5,4.27-2.66,8.66-5.17,13.19-7.33,14.5-6.91,28.11-15.22,40.74-25.13,6.37-5,13.55-8.52,21.31-10.69,8.85-2.47,17.85-4.24,27.09-4.45,2.36-.05,4.75-.09,7.09-.39,12.73-1.66,24.73.62,36.09,6.51,3.09,1.61,6.18,3.23,9.73,5.09.46-1.75.97-2.81.99-3.88.26-12.5,2.48-24.72,5.32-36.84.67-2.86,1.29-5.89,2.74-8.37,3.06-5.24,4.36-10.95,5.61-16.74,2.9-13.49,3.57-27.02.29-40.51-1.94-7.97-2.04-16.53-7.14-23.55-1.43-9.78-7.88-17.01-12.72-25.06-1.05-1.75-2.17-3.46-3.27-5.2.51-1.03.78-1.87,1.3-2.5.31-.37,1.03-.39,1.69-.61.69.39,1.65.65,2.2,1.27,7.54,8.56,10.48,19.86,17.65,29.65ZM209.38,424.42c-.27-1.23-.69-2.1-.62-2.94.32-3.83.79-7.65,1.19-11.47,1-9.41,2.14-18.8,2.93-28.22.65-7.66.9-15.35,1.29-23.03.08-1.48.16-2.98-.02-4.44-1.03-8.51-2.02-17.03-3.25-25.51-.93-6.43-2.13-12.83-3.35-19.22-1.77-9.29-3.58-18.58-5.57-27.83-.6-2.77-.82-5.87-3.17-7.86-.85,0-1.44-.09-1.99.01-11.73,2.27-21.35,8.46-30.03,16.32-11.73,10.6-21.4,22.87-29.65,36.35-9.65,15.78-14.58,32.89-15.08,51.33-.06,2.37-.22,4.73-.25,7.1-.18,13.01-.63,26.03-.4,39.04.13,7.06,1.08,14.16,2.26,21.14,3.99,23.68,4.34,47.08-4.17,70-.16.42.25,1.06.49,1.95,4.98-1.6,9.95-3.24,14.94-4.78,12.39-3.83,24.6-2.75,36.47,1.96,2.59,1.03,4.87,3.31,6.78,5.47,1.93,2.19,3.41,4.84,4.75,7.47,2.82,5.53,5.25,11.27,8.15,16.76,3.8,7.2,6.01,14.88,6.47,22.89.96,16.53,1.75,33.08,2.06,49.64.25,13,3.01,25.21,9.43,36.48,6.87,12.06,19.38,16.82,32.6,12.72,6.53-2.02,12.89-4.55,18.51-8.45,8.26-5.73,16.45-11.6,24.34-17.82,4.85-3.83,9.34-8.2,13.51-12.77,2.51-2.76,4.9-5.71,6.55-9.35,1.51-3.33,5.2-5.61,7.27-8.78,2.24-3.42,4.32-7.18,5.41-11.08,3.59-12.92,4.69-26.19,3.72-39.55-.43-5.94-2.48-11.52-5.52-16.72-4.53-7.73-10.22-14.5-16.75-20.59-2.16-2.02-4.26-4.11-6.5-6.04-7.35-6.36-10.93-14.46-11.7-24.06-.33-4.11-.99-8.25-1.98-12.25-2.01-8.07-4.74-15.89-10.05-22.52-11.07-13.83-24.46-24.01-42.45-26.95-2.91-.48-5.82-1.04-8.74-1.41-2.67-.34-5.26-.8-7.87-2.97ZM787.36,569.36c-4.41,4.69-8.67,9.18-12.89,13.71-15,16.12-28.1,33.61-38.17,53.27-2.32,4.52-5.05,8.74-8.69,12.27-11.26,10.93-22.59,21.78-33.94,32.63-2.78,2.66-5.73,5.14-8.56,7.75-7.95,7.32-14.23,15.83-18.27,25.92-.65,1.64-1.54,3.19-2.44,4.71-.27.45-.94.67-1.76,1.22-.82-.07-1.96-.17-3.05-.27-4.04-3.97-5.91-9.03-8.45-13.67-1.7-3.11-3.23-6.33-5.09-9.34-.87-1.4-2.36-2.42-3.56-3.6-4.67,1.46-7.23,4.69-9.35,8.28-3.18,5.36-5.94,10.94-7.3,17.08-.89,4.04-1.47,8.15-2.25,12.21-.51,2.62-.92,5.36-4.53,6.31-1.03-.53-2.42-1.05-3.59-1.88-13.04-9.24-26.1-18.45-39.04-27.83-7.62-5.52-15.93-7.22-25.18-6.14-14.4,1.69-28.81,3.32-43.36,3.05-2.29-.04-4.59.29-7.31.48,0,1.91-.07,3.32.01,4.71.2,3.24.73,6.49.65,9.72-.16,6.31,1.25,12.36,2.6,18.41,1.04,4.67,3.25,8.89,6.37,12.57,1.71,2.02,3.48,4,4.76,5.47,2.56,11.39,6.16,21.73,10.12,31.91,4.18,10.77,12.08,18.16,22.72,22.48,12.61,5.11,25.23,10.29,38.87,12.14,1.23.17,2.7,1.12,3.73-.6-4.54-6.82-10.85-10.77-18.74-12.44-10.59-2.24-20.04-7.03-28.93-13.09-5.55-3.78-9.64-8.61-12.22-14.84-6.49-15.63-10.57-32.01-15.08-48.26-.58-2.09-.35-4.13,2-5.92,1.3-.07,3.05-.33,4.78-.21,8.56.61,17.11,1.3,25.66,2.01,1.47.12,2.93.42,4.38.7,24.89,4.77,46.13,16.28,63.7,34.55,2.87,2.99,5.66,6.06,8.6,8.99,1.84,1.83,3.88,3.46,6.37,5.66-1.24-10.57-2.9-20.16-3.36-29.8-.46-9.62-1.28-19.47,2.69-29.25,1.96.3,3.83.16,5.19.92,1.75.98,3.32,2.51,4.59,4.11,8.21,10.22,15.47,20.96,18.42,34.06.33,1.45.13,3.47,2.26,4.39,10.13-13.88,20.9-27.25,29.17-42.37,4.57-8.36,10.37-15.85,16.96-22.72,5.95-6.19,12.05-12.25,17.91-18.53,12.1-12.98,25.21-25.09,35.22-39.93.64-.94,1.63-1.68,2.57-2.37.42-.31,1.12-.25,2.22-.47.77.76,1.76,1.73,2.75,2.71-.14,1.72-.16,3.2-.4,4.64-2.15,13.21-5.87,25.95-11.24,38.23-.84,1.92-2.7,3.87-1.23,6.77,11.28-9.65,21.46-19.99,30.55-31.31,6.29-7.84,11.87-16.25,17.75-24.41,1.19-1.65,2.09-3.66,4.75-3.43,2.37,2.18,1.61,4.95.85,7.35-2.23,7.04-4.42,14.14-7.29,20.93-6.37,15.1-15.15,28.86-25.24,41.69-10.8,13.72-22.08,27.07-33.38,40.39-10.72,12.63-18.09,27-23.04,42.69-1.15,3.64-1.66,7.49-2.37,11.25-.09.45.42,1.01.84,1.95,4.42-1.06,8.93-2.14,13.87-3.33,1.6-2.75,3.39-5.43,4.78-8.32,1.66-3.46,2.98-7.09,4.45-10.65,5.31-12.86,10.46-25.78,15.97-38.55,6.48-15.01,16.48-27.23,29.74-36.9,17.81-13,31.19-29.82,41.01-49.46,6.09-12.18,11.54-24.64,16.28-37.43,4.31-11.65,5.67-23.54,4.68-35.78-1.24-15.33-2.54-30.66-5.06-45.85-.17-1.05-.61-2.05-1.24-4.07-3.01,4.26-3.72,8.33-4.93,12.09-4.73,14.73-10.65,28.95-19.27,41.81-8.24,12.29-17.16,24.12-25.82,36.12-.49.68-1.33,1.17-2.09,1.59-.48.26-1.13.23-2.16.42-.78-.82-1.73-1.83-2.48-2.63,6.11-34.36,7.12-43.27,5.2-45.91-.79-.16-1.65-.34-3.61-.75ZM214.69,420.99c5.37,1.02,9.7,1.8,14.01,2.67,13.03,2.65,25.11,7.56,34.39,17.28,11.2,11.73,19.43,25.34,22.44,41.61.48,2.61.69,5.28,1.05,7.92.93,6.9,3.39,12.94,8.21,18.27,9.51,10.51,18.59,21.41,28.14,32.48,6.7-5.97,10.68-13.46,12.44-21.95,4.8-23.2-.84-44.58-12.04-64.86-1.6-2.9-3.7-5.37-6.83-6.73-.48-.21-1.13-.03-3.29-.03-.6.6-2.03,2.02-2.5,2.48-1.87,12.01-.37,21.75,4.64,30.93,1.84,3.38,3.69,6.76,5.28,10.26,1.22,2.67,2.18,5.48,2.98,8.31.25.88-.41,2.03-.88,3.99-1.69-1.57-2.97-2.34-3.67-3.48-3.42-5.54-6.85-11.08-9.97-16.79-8.55-15.62-7.25-31.31.36-46.77,3.66-7.42,7.82-14.6,11.89-21.81,7.17-12.7,8.55-26.35,6.44-40.44-2.52-16.83-8.14-32.69-15.91-47.79-.49-.96-1.2-1.82-2-3.02-3.65,4.37-6.95,8.33-10.4,12.46,2.92,1.21,5.35,2.21,7.43,3.07,2.86,3.7,3.07,7.4,2.28,11.35-.8.5-1.52.95-2.15,1.33-4.55-1.1-2.16-5.85-4.88-8.36-4.64-1.32-9.73-2.78-14.29-4.08-14.03-12.25-17.58-17.72-20.83-31.98,1.43-3.17,2.58-6.95,4.7-10.07,2.02-2.98,5.04-5.29,7.65-7.92-19.11-12.5-57.71-21.45-73.56-16.8,1.52,9.21,4.48,18.21,5.95,27.5,1.51,9.56,2.99,19.12,4.58,29.3,2.7-1.12,5.06-2.19,7.49-3.07,5.63-2.04,11.4-3.22,17.41-2.07,1.23.24,2.05,1.03,1.66,3-4.44.5-9.16.6-13.65,1.66-4.55,1.07-9.08,2.72-12.58,7.26.74,6.22-.51,13.01,2.2,19.95,14.15-3.48,27.97-6.36,42.58-6.55,1.6,1.46,3.29,3.01,4.73,4.32-.39,6.28-1.01,7.73-4.89,11.31-4.66,4.28-10.13,7.26-16.1,9.14-6.48,2.04-13.11,3.63-19.65,5.46-2.21.62-4.37,1.4-6.36,2.04-1.5,13.17-2.94,25.75-4.48,39.25ZM405.11,737.6c5.71-2.1,7.5-3.22,9.94-6.44,2.57-3.4,3.99-7.24,4.13-11.52.42-12.36-2.13-24.06-7.36-35.3-3.41-7.34-8.68-12.64-15.69-16.33-6.64-3.5-13.8-5.55-21.25-5.86-8.86-.37-17.76-.23-26.63-.03-17.05.39-32.58,5-45.97,16.18-10.03,8.37-21.22,15.07-32.9,20.98-7.39,3.74-14.47,8.11-21.82,11.92-10.51,5.45-21.14,10.66-31.73,15.94-1.84.92-3.75,1.7-5.28,2.39-5.6,8.05-5.88,8.89-6.49,17.47-.66,9.22.39,18.29,1.92,27.39,3.04,18.05,13.67,29.54,30.3,36.72,8.07-8.43,16.03-16.75,24.17-25.25.09-.28.31-.84.43-1.41.12-.58.1-1.18.2-1.76,1.55-9.68,6.55-17.03,15.05-21.88,3.33-1.9,6.75-3.73,10.31-5.14,6.86-2.72,13.84-5.12,21.2-7.81.23-2.53,3.18-4.18,3.51-7.37-4.02-.24-7.51-.46-11.18-.68-.47-1.32-.82-2.34-1.33-3.79,1.7-.62,2.98-1.38,4.32-1.52,8.46-.9,16.5.93,24.23,4.23,7.58,3.24,12.06,9.37,14.93,16.79,3.43,8.85-4.47,22.25-15.94,18.82-1.1-.33-2.28-.42-3.32-.6-3.6,1.87-7.06,3.51-10.1,6.7,1.93,1.29,3.48,3,5.31,3.41,6.03,1.35,12.02,2.42,18.41,1.48,10.03-1.48,15.77-7.37,19.25-16.25.53-1.37.85-2.82,1.19-4.26,2.29-9.46,1.32-18.73-1.1-28.07-2.44-9.42-7.71-16.73-15.76-21.73-11.49-7.13-23.74-12.1-37.79-9.81-.44.07-.98-.54-1.62-.91-.06-.74-.13-1.58-.18-2.26,1.88-2.61,4.52-3.01,7.22-3.17,6.29-.35,12.38.54,18.31,2.74,18.73,6.95,32.97,23.23,37.2,43.1.98,4.59,1.09,9.36,1.62,14.05.15,1.36-.37,3.04,2.14,3.79,7.26-5.74,12.46-12.84,13.29-22.71.66-7.78-.25-15.34-2.36-22.83-3.32-11.81-10.73-19.32-22.55-22.87-10.06-3.02-20.26-4.12-30.69-3.79-.82.03-1.65-.46-2.35-.67-.37-.68-.9-1.2-.86-1.67.07-.8.5-1.57.89-2.68,12.31-2.19,24.26-.85,35.49,4.3,15.57,7.15,25.09,19.35,27.96,36.44.98,5.84,2.17,11.65,1.53,17.64-.08.75.4,1.56.61,2.3.51,0,.84.08,1.09-.02.54-.21,1.14-.42,1.56-.81,6.31-5.91,9.84-13.17,10.7-21.79.85-8.59-1.8-16.34-5.25-23.99-2.02-4.47-5.03-7.99-9.03-10.72-4.94-3.37-10.28-5.84-16.2-6.94-9.32-1.72-18.64-3.28-28.18-3.05-2.27.06-4.8.48-6.71-2.2.27-.81.62-1.84,1.04-3.07,1.64-.27,3.06-.6,4.5-.73,5.95-.52,11.78.58,17.67,1.25,9.63,1.1,18.35,4.61,26.63,9.33,7.33,4.18,13.66,9.72,17.11,17.54,5.01,11.36,7.64,23.09,2.13,35.2-.19.42.06,1.05.11,1.58ZM791.77,484.75c1.4-2.68,2.63-4.66,3.51-6.8,4.75-11.48,9.21-23.09,14.15-34.49,8.33-19.25,16.9-38.4,25.58-57.5,5.72-12.58,9.28-26.19,13.32-39.48,3.58-11.81.63-22.21-8.48-30.7-1.52-1.41-3-2.87-4.62-4.16-7.73-6.13-16.27-10.79-25.67-13.8-9.98-3.2-19.85-2.87-29.46,1.38-11.19,4.95-20.01,12.54-25.54,23.63-.33.67-.2,1.57-.38,3.29,2.57-1.76,4.42-3.07,6.3-4.33,15.21-10.24,31.82-14.24,49.85-10.3,14.49,3.16,24.54,12.48,31.88,24.96,1.21,2.07,1.65,4.46.1,7.13-1.45.91-3.06,2.44-5.6.13-.15-1.58-.33-3.55-.54-5.89-2.28-2.79-4.64-5.83-7.16-8.72-5.63-6.48-12.66-10.36-21.15-12.11-10.43-2.15-20.7-1.31-30.79,1.15-8.49,2.07-15.62,7.04-21.61,13.43-2.84,3.03-4.98,6.5-4.75,11.59,1.54-.68,2.64-.98,3.51-1.59,8.21-5.78,17.56-8.56,27.32-9.8,12.32-1.57,23.54,1.33,32.99,9.74,5.45,4.85,11.1,14.28,13.74,22.79-.57.71-1.27,1.57-2.38,2.94-1.37-1.61-2.55-2.76-3.46-4.1-3.49-5.13-6.64-10.51-10.4-15.43-3.89-5.11-9.31-8.07-15.69-9.32-15.42-3.02-29.32.76-42.1,9.37-1.91,1.29-3.4,3.28-4.91,5.09-.72.86-1.23,2.06.41,3.16,6.45-2.33,12.9-5.28,20.2-5.26,6.95.02,13.5,1.69,19.85,4.17,6.67,2.61,12.77,6.22,17.77,11.48,4.91,5.16,9.4,10.53,10.14,18.02-.96.72-1.64,1.22-2.25,1.68-.7-.26-1.43-.3-1.75-.68-.74-.89-1.4-1.89-1.87-2.94-5.61-12.54-15.79-19.62-28.4-23.73-5.1-1.66-10.37-2.62-15.76-1.8-10.88,1.67-20.22,6.5-28.02,14.22-3.7,3.66-6,8.02-5.71,12.83,2.2,6.37,6.73,9.48,11.75,12.08,6.18-5.32,7.78-7.3,10.3-12.98-4.19,1.38-7.99,2.64-12.37,4.08-.32-1.88-.55-3.18-.75-4.35,6.39-5.68,13.75-6.04,21.23-5.8,15.08.49,26.59,14.48,24.42,29.61-.04.26-.32.49-.49.74-1.71,1.21-3.25,1.09-4.88-.95,0-1.39.2-3.17-.06-4.87-.26-1.7-.98-3.33-1.72-5.72-15.48,16.49-28.42,34.07-41.34,51.66-1.52,2.07-2.76,4.36-4.2,6.66,37.63,12.45,36.52,16.33,55.96,30.63ZM691.35,526.48c-2.1,2.98-3.96,5.66-5.86,8.29-3.98,5.52-8.01,11.01-11.97,16.55-.23.32-.07.93-.12,1.96,2.39-.89,4.52-1.69,5.42-2.03,5.49-5.57,9.9-10.38,14.67-14.79,3.55-3.28,7.67-5.68,13.63-3.39.98,1.29,2.36,3.09,3.8,4.98-2.1,3.33-3.97,6.28-6.18,9.77,2.02,0,3.48.14,4.9-.04,1.41-.18,2.78-.67,3.99-.98,4.49-8.13,4.47-16.15,1.47-25.04-5.57-7.5-11.56-15.56-17.41-23.44.89-5.95,4.02-10.18,7.29-14.43,10.28-13.36,20.54-26.74,30.62-40.25,11.86-15.9,23.86-31.69,36.93-46.63,1.91-2.19,3.62-4.55,5.69-7.15-3.1-3.46-6.19-5.92-11.09-6.85-4.64,3.33-8.37,7.89-12.15,12.38-13.74,16.27-26.13,33.61-40.07,49.77-10.6,12.28-20.2,25.55-28.26,39.77-1.38,2.43-3.1,4.28-6.13,5.38-1.98-.19-4.32-.41-6.66-.63-11.62-1.06-22.31,1.65-32.16,7.86-7.55,4.76-14.57,10.19-20.81,16.55-2.42,2.47-5.28,4.79-6.29,8.57,2.65,4.12,3.78,9.21,8.01,12.94,2.72-4.02,5.05-7.76,7.69-11.27,3.73-4.96,7.51-9.91,11.65-14.51,1.91-2.13,4.61-3.65,7.17-5.06,2.88-1.59,5.72-1.1,8.66,1.88.86,2,2.02,4.68,3.33,7.71-8.13,13.74-16.19,27.52-24.43,41.19-1.98,3.28-4.44,6.29-6.88,9.24-1.93,2.34-3.29,4.83-4.01,7.79-2.22,9.13-6.71,17-13.43,23.61-.95.93-2.48,1.75-1.64,4.24,10.51,3.62,21.39,7.27,32.73,9.31,2.24.4,4.72,0,7.01-.45,5.93-1.16,10.83-4.29,15.87-8.8-3.55.66-6.33,1.17-8.55,1.58-5.94-3.81-3.18-8.83-3.06-13.51-2.87-.86-5.62-1.69-8.13-2.44-3.56,2.14-5.46,6.12-10.35,6.41-.99-.84-2.27-1.93-3.41-2.9-.6-3.94-.5-7.44.75-10.87,1.52-4.16,2.7-8.49,4.63-12.46,6.74-13.87,14.6-27.1,24.11-39.28,2.54-3.25,5.42-6.29,8.42-9.12,4.8-4.52,10.42-6.65,17.42-4.72.99,1.09,2.16,2.38,3.17,3.49.13,1.56.31,2.74.3,3.91-.02,1.77-.17,3.54-.3,5.92ZM453.03,674.69c-10.17-20.51-10.92-42.28-7.91-64.2,3.1-22.61,14.82-41.5,28.59-59.65-16.69-4.08-33.33-4.63-49.56-7.77-.27-.05-.61,0-.86.11-.26.12-.45.38-.83.72.81,3.66,1.93,7.33,2.4,11.09,1.51,12.06,2.18,24.2,1.84,36.34-.28,9.85-2.2,19.44-7.39,28.03-2.19,3.63-3.37,7.55-4.35,11.58-1.33,5.46-2.63,10.93-3.82,16.43-1.75,8.1-2.99,16.26-2.48,23.56,4.96,7.4,9.36,13.96,13.8,20.59,4.84-2.78,9.64-5.68,14.58-8.33,5.16-2.77,10.96-4.35,16-8.48ZM581.62,609.49c3.63-1.73,6.2-2.57,8.32-4.05,4.85-3.38,9.63-6.88,14.17-10.66,13.48-11.22,17.36-26.41,16.64-43.04-.26-6.08-.74-12.52-5.46-18.38-5.77-4.53-11.87-10.19-20.92-11.14-.21,1.34-.58,2.48-.55,3.61.22,7.59-2.97,13.88-7.8,19.3-11.61,13.03-26.08,21.21-43.31,24.25-6.56,1.16-12.31-.86-16.97-5.67-1.54-1.59-2.93-3.31-4.75-5.4-.78,1.99-1.39,3.32-1.82,4.7-2.7,8.59-2.52,17.57-3.02,26.38-.31,5.41.77,11.07,4.63,15.56,3.37-1.35,5.03-3.74,6.49-6.21.66-3.02,1.31-5.91,1.91-8.81.88-4.31,3.36-7.53,6.87-9.99,8.31-5.8,17.46-3.67,22.57,5.17.7,1.22,1.5,2.38,1.82,2.88,4.27-.48,7.76-1.24,11.25-1.18,7.55.11,11.97,4.94,11.66,12.58-.12,2.83-.93,5.64-1.72,10.09ZM543.59,503.22c-2.29,5.32-2.9,5.54-7.47,2.91-.24-1.48-.47-2.96-.77-4.86-8.87,5.65-14.18,13.29-17.79,21.45-1.16,7.35.09,13.72,2.21,19.9,1.52,4.44,3.33,8.8,5.31,13.06,2.6,5.6,6.96,8.68,13.38,8.29,1.18-.07,2.39.02,3.54-.21,16.56-3.31,30.38-11.28,40.78-24.68,3.48-4.48,5.65-9.67,4.89-15.47-3.38-4.05-6.47-8.02-9.87-11.72-2.99-3.25-6.07-6.52-9.56-9.2-8.36-6.4-17.69-7.67-27.62-4.11-.36.13-.54.72-.81,1.1,1.31,1.23,2.58,2.42,3.78,3.54ZM661.14,712.12c1.15-1.95,1.96-3.12,2.57-4.39,3.63-7.57,8.65-14.13,14.61-19.97,4.23-4.14,8.67-8.06,12.96-12.15,10.27-9.81,20.51-19.66,30.75-29.51.73-.7,1.3-1.58,3.16-3.89-6.87,2.99-11.98,5.14-17.01,7.42-14.28,6.48-28.53,13.02-42.79,19.52-7,3.19-13.86,6.75-21.03,9.47-19.09,7.22-38.32,14.07-57.48,21.08-2.08.76-4.26,1.35-6.91,2.85,6.9,4.97,13.24,9.27,19.27,13.96,6.28,4.88,12.25,10.14,18.8,15.6.6-1.58,1.28-2.86,1.56-4.23.84-4.05,1.39-8.17,2.28-12.21,1.6-7.31,4.46-14.14,9.1-20.04,3.13-3.98,6.81-7.44,13.2-7.12,6.66,6.33,10.2,15.4,16.96,23.61ZM527.15,620.89c3.54,1.91,3.94,4.51,4.35,7.2.68,4.44,2.01,8.67,5.28,11.96,2.76,2.78,5.85,3.78,9.17,1.64,1.32-2.9.24-5.01-.95-7.08-1.72-2.98-2-6.11-1.05-9.5.66-.46,1.36-.96,2.1-1.48.86.37,1.65.72,2.6,1.13,1.08,2.65,2.19,5.37,3.24,7.96,6.45,3.46,9.15,4.19,14.37,3.91,9.34-.5,13.02-6.08,9.83-15-.28-.79-1.03-1.41-1.71-2.32-2.86-1.08-5.82-2.84-8.95-3.2-3.04-.35-6.25.74-9.66,1.23-.48-1.04-.92-2.02-1.55-3.38,1.98-1.3,3.52-2.74,5.34-3.42,2.46-.92,5.11-1.52,7.73-1.79,4.14-.43,7.22-2.34,9.84-6.05v-6.81c-2.04-3-4.52-3.75-6.67-4-5.55.6-9.27,3.41-12.64,6.87-.56.57-1.56.71-2.61,1.15-.81-.76-1.61-1.52-2.26-2.14.37-2.72.97-5.04.95-7.36-.05-5.11-4.84-8.72-9.78-7.5-4.26,1.06-7.51,3.45-8.9,7.81-.63,1.96-1.27,3.98-1.47,6.01-.42,4.4-2.59,7.78-5.67,10.71-2.36,2.24-4.73,4.47-7.14,6.64-4.6,4.15-9.44,8.09-11.44,13.84-2.54,1.84-4.79,3.28-6.79,5.01-1.1.95-1.79,2.4.48,3.49,7.93-5.46,13.68-14.77,23.97-15.56ZM686.88,589.58c-5.3,5.08-9.75,9.9-14.77,13.99-4.99,4.06-10.58,7.39-16.35,11.34,1.46,1.45,2.82,2.8,4.1,4.08,1.24-.36,2.12-.5,2.89-.85,19.37-8.8,38.77-17.56,58.1-26.45,14.25-6.56,28.18-13.74,41.16-22.59,3.88-2.65,7.34-5.91,10.9-9.01,1.06-.93,2.05-2.16.85-4.15-7.31-2.15-14.98-3.93-23.06-4.61-.56,3.18-1.06,5.97-1.48,8.32-3.16,2.35-6.19,1.59-9.09,1.68-2.92.09-5.83.11-8.54.15-10.94,16.21-25.29,26.16-44.72,28.1ZM336.89,760.46c1.16-3.7-.02-6.99-1.89-10.11-1.84-3.08-4.02-5.81-7.03-6.53-9.65,4.21-18.56,8.12-27.51,11.98-3.53,1.52-7.2,2.76-10.65,4.43-4.25,2.06-8.42,4.33-12.48,6.74-5.08,3.02-8.13,7.74-9.83,13.26-.57,1.84-.25,3.94-.33,5.84,5.23,3.07,10.23,2.12,15.11,1.05,11.06-2.43,21.5-6.41,31.11-12.57,7.47-4.78,15.2-9.14,23.5-14.1ZM678.03,485.8c2.05-2.59,3.81-4.59,5.3-6.76,1.38-2.02,3.72-3.62,3.63-6.88-11.37-.2-22.09,1.94-32.69,4.29-23.73,5.25-46.17,14.33-68.41,23.93-1.35.58-2.74,1.2-3.87,2.1-1.29,1.03-3.43,1.27-3.58,3.91,2.19,2.37,4.57,4.95,7.05,7.62,7.29,1.01,14.5,2.02,22.2,3.09,1.61-1.86,3.05-3.74,4.72-5.4,7.97-7.98,16.85-14.84,26.6-20.49,9.73-5.64,20.12-8.27,31.44-5.98,2.28.46,4.66.37,7.62.57ZM720.92,526.01c.6.16.91.35,1.16.29,2.28-.52,4.61-.92,6.82-1.67,15.77-5.36,31.95-8.28,48.61-8.54,1.35-.02,2.7-.65,3.93-.97,1.42-8.7-1.6-15.44-6.77-21.35-16.33-1.2-45.17,7.92-58.5,18.54,1.58,4.54,3.2,9.2,4.76,13.7ZM652.27,582.58c3.03.61,5.27,1.46,7.51,1.44,9.45-.09,19.03.44,28.32-.9,15.25-2.2,27.56-9.92,36.68-23.62-1.82.11-3.01-.04-4.04.29-2.81.91-5.58,1.95-8.32,3.06-14.28,5.79-29.3,9.21-43.94,13.83-1.58.5-3.69.81-3.43-2.76,8.18-3.43,17.19-5.33,25.58-8.86,8.52-3.59,17.52-6.08,26.59-10.99-19.08-4.38-35.59-.43-50.98,9.17-6.78,4.23-10.9,10.65-13.96,19.35ZM563.41,492.25c-.4.93-.66,1.4-.61,1.44,3.28,2.37,6.59,4.7,9.84,7,9.78-2.83,18.44-7.29,27.29-11.29,8.6-3.88,17.21-7.77,25.94-11.37,20.48-8.45,41.68-12.93,63.96-11.22.84.06,1.71-.35,3.02-.64,1.45-2.29,4.51-3.88,4.8-7.77-1.94,0-3.41-.16-4.83.03-6.14.82-12.25,1.9-18.4,2.61-15.83,1.82-31.56,4.14-47.26,7.04-23.01,4.25-43.72,13.92-63.76,24.17ZM499.05,626.02c-5.48-10.89-10.63-21.87-19.39-30.53-2.84-2.81-5.3-6.24-9.7-7.68-2.5,6.04-4.77,11.7-4.24,18.08,1.51,1.67,2.95,3.15,4.26,4.73,5.98,7.29,12.55,14.11,16.88,22.66,5.1,10.07,8.72,20.62,10.89,31.69.33,1.68.88,3.31,1.29,4.83,7.19.5,7.41.47,14.14-2.33-1.62-8.24-3.28-16.51-7.03-24.12-3.25.44-5.99,2.65-8.75.15q-1.78-4.99-1.3-12.06c.94-1.72,1.9-3.51,2.94-5.42ZM721.63,542.12c10.38.9,19.8,1.27,29.08,2.63,9.25,1.36,18.36,3.7,27.85,5.67,3.83-8.73,4-17.59,2.54-26.86-11.98-1.78-23.35.57-34.64,2.2-8.34,1.2-16.83,2.53-24.83,5.67v10.68ZM464.44,611.56c-.4,1.17-.92,2.2-1.1,3.28-2.68,16.77,1.48,32.18,10.11,46.39,3.93,6.46,10.71,8.4,18.05,8.76.46-7.09-.66-12.08-4.89-22.49-6.46-15.92-14.44-28.92-22.17-35.94ZM580.55,617.17c5.15,5.72,12,6.64,17.03,10.49,5.35,4.1,10.87,7.97,16.57,12.12,4.24-1.69,8.61-3.4,12.94-5.2,1.06-.44,2-1.19,2.99-1.8-5.43-9.62-18.78-19.72-32.01-24.15-5.27,2.57-10.78,5.26-17.52,8.54ZM767.29,487.9c-.51-1.04-.62-1.72-1.01-1.99-5.18-3.65-11.3-5.01-17.24-6.78-1.33-.4-2.98-.16-4.39.19-10.97,2.69-21.67,6.1-31.03,12.71-2.39,1.69-5.09,3.09-6.51,6.28.9,2.97,2.53,5.58,5.19,7.17,9.21-3.6,17.94-7.22,26.82-10.42,9.09-3.27,18.84-4.24,28.16-7.17ZM481.87,564.79c9.73,12.49,18.97,24.36,28.22,36.21.16.2.49.33.75.35.17.02.36-.22.35-.21,0-4.54-.11-8.96.03-13.36.14-4.4.52-8.8.8-13.34-4.77-8.11-9.6-16.06-16.94-22.44-4.81,4.09-9.68,7.44-13.22,12.8ZM637.78,585.78c5.62-4.16,8.65-8.38,11.82-12.45,2.91-3.74,5.85-7.45,8.59-11.3,7.57-10.6,15.06-21.25,22.52-31.93,1.18-1.68,2.29-3.51,2.93-5.44.52-1.53.28-3.32.4-5.33-3.07-.18-5.27.52-7.07,2.09-2.22,1.94-4.48,3.92-6.31,6.22-12.05,15.13-21.87,31.64-30.06,49.13-1.09,2.32-1.57,4.93-2.84,9.02ZM477.6,569.56c-2.84,4.19-4.66,7.78-5.09,11.8,1.66,3.66,4.79,5.59,7.14,8.2,2.17,2.42,4.52,4.68,6.66,7.13,2.33,2.67,4.57,5.43,6.74,8.24,1.99,2.57,3.8,5.27,5.75,7.87,2.03,2.72,3.03,6.26,5.97,8.41,2.69-2.14,5.08-3.84,6.03-6.86-8.63-16.39-18.01-32.02-33.19-44.79ZM628.05,554.45c3.12-1.58,4.07-4.56,5.59-6.96,5.03-7.98,9.96-16.03,14.8-24.13,2.11-3.53,3.97-7.22,5.83-10.9.93-1.83.52-3.42-1.87-4.5-4.13.62-6.93,3.71-9.65,6.76-5.91,6.63-10.95,13.9-15.25,21.66-.98,1.78-1.53,3.8-2.31,5.79.94,4.03,1.87,8.01,2.86,12.27ZM283.39,327.47c1.97-4.41,3.67-8.42,5.53-12.36,1.98-4.22,5.33-7.83,5.61-13.19-2.81-3.39-5.61-7.12-10.02-9.26-8.14,3.15-12.65,8.54-12.43,17.78,2.61,4.37,5.26,8.96,8.06,13.45.75,1.21,1.93,2.15,3.25,3.59ZM607.57,642.18c-10.67-8.99-16.59-12.37-23.72-13.64-1.48,9.59-8.29,13.29-18.05,14.53,6.64,2.89,12.26,5.34,17.98,7.83,7.73-2.74,15.63-4.84,23.8-8.73ZM247.21,356.46c-9.58.99-18.77,2.47-27.62,4.96q-.95,8.09.76,13.54c9.79-2.66,20.05-3.84,28.91-9.08-.72-3.33-1.33-6.15-2.04-9.42ZM511.08,637.76c1.72,5.73,2.98,10.58,4.63,15.29,1.61,4.62,1.5,9.86,4.78,14.38,3.25-.77,6.32-1.51,9.76-2.33-1.98-11.05-5.47-21-9.56-30.75-.4-.96-1.31-1.72-2.34-3.02-2.55,2.25-4.69,4.14-7.28,6.42ZM648.73,616.35c-13.81-3.29-24.94-5.94-37.26-8.87,5.01,4.02,9.23,7.12,13.1,10.61,4.14,3.74,7.95,7.84,12.12,12,5.89-2.1,11.62-4.15,17.35-8.37-2.39-2.41-4.44-4.48-5.31-5.37ZM500.1,547.57c4,6.26,7.93,12.4,11.87,18.54.15.23.43.44.69.52.22.07.5-.06,1.2-.19,1.54-4.7,3.16-9.62,4.82-14.69-2.11-4.5-4.19-8.94-6.51-13.89-4.65,2.75-8.3,5.98-12.07,9.71ZM574.69,653.8c-7.95-4.32-14.67-6.7-21.99-7.65-1.52,1.07-2.9,2.05-4.53,3.19,1.37,3.64.45,7.74,3.67,10.78,7.37-1.16,14.25-3.48,22.85-6.32ZM300.55,308.46c-5.86,6.65-9.11,13.16-10.66,20.48-.26,1.22.41,2.63.67,4.03,4.92-1.63,5.03-1.54,7.11-3.89,3.27-3.7,7.04-7.13,8.12-12.39-1.62-2.55-3.16-4.98-5.24-8.24ZM688.06,549.22c4.16.72,7.52-.85,10.82-1.7,2.68-3.34,5.68-6.11,6.26-10.92-1.47-.11-2.7-.56-3.6-.2-4.36,1.78-8.95,6.22-13.48,12.82ZM721.28,473.19c-1.5,1.89-2.72,3.15-3.59,4.62-.75,1.26-2.73,2.17-1.63,4.44,4.36-1.88,8.61-3.67,12.8-5.58.81-.37,1.38-1.25,2.68-2.49-3.88-.37-6.74-.65-10.25-.99ZM742.68,552.4q-9.08-.26-12.96,3.07c4.94-.29,9.22.53,13.55-.42-.21-.96-.33-1.49-.59-2.65ZM659.39,596.32c3.42-1.11,5.19-3.23,6.4-6.74h-5.8c-.41,1.35-.95,2.65-1.17,3.99-.12.72.3,1.53.57,2.75ZM668.86,596.85c5.59-2.93,5.64-2.88,7-6.94-4.55.22-5.16,4.25-7,6.94ZM525.33,628.66c-.04-.21-.08-.42-.12-.64-.07.27-.15.54-.22.81.11-.06.22-.12.34-.18Z"/>
        <path class="cls-8" d="M285.77,378.32c2.48-4.26,5.95-5.75,9.85-6.39,6.39-1.04,12.81-1.95,19.04-2.89,2.17.7,4.12,1.33,6.02,1.94.46.96,1.06,1.71,1.16,2.53.93,7.42-2.28,12.45-8.96,15.57-4.91,2.29-9.98,3.56-15.42,3.18-4.62-.32-8.65-1.78-11.69-6.57v-7.37ZM290.7,382.33c.95.99,1.87,2.73,3.28,3.31,6.03,2.47,16.12,0,20.48-4.82,1.42-1.57,2.36-3.43.29-6.04-6.28,1.21-13.01,1.23-19.52,3.11-2.1.61-3.77,1.62-4.53,4.44Z"/>
        <path class="cls-8" d="M539.67,514.54c3.73.56,6.88,1.88,8.98,4.82q1.38,7.64-3.76,12.97h-8.09c-4.33-2.52-6.19-6.15-5.63-11.03,1.92-3.04,3.86-5.95,8.49-6.77ZM545.12,521.55c-3.6-2.41-6.21-2.47-8.85-.03-1.21,2.71-.39,4.91,1.82,6.64,2.45,1.08,4.63,1.08,7.04-1.23v-5.37Z"/>
        <path class="cls-8" d="M554.99,501.81c.81,4.37-1.59,5.69-3.67,7.43-.87-.47-1.57-.85-2.52-1.37,1.1-2.9,2.17-5.46,6.19-6.06Z"/>
        <path class="cls-8" d="M564.25,513.56c.71-.31,1.46-.64,2.57-1.13.72.82,1.42,1.61,2.31,2.63-.95,1.03-1.68,1.82-2.38,2.58q-2.27-1.57-2.5-4.08Z"/>
      </g>
      <path class="cls-5" d="M603.89,116.52c-14.72,6.48-32.68,16.58-44.52,32.2-11.84,15.63-22.73,19.89-28.42,26.05s-26.05,25.57-25.57,54.46c.47,28.89,6.63,57.3,20.84,70.09,14.21,12.79,28.41,20.84,31.26,27.94,2.84,7.1,4.26,24.15,17.05,35.99,12.79,11.84,31.26,20.84,46.88,18,15.63-2.84,25.57-7.58,39.31-20.84s29.84-32.68,40.25-44.04c10.42-11.37,20.36-29.36,35.52-39.78,15.15-10.42,21.78-17.05,28.42-18s16.1-4.26,17.05-9,.47-22.26,2.84-26.99c2.37-4.74,14.68-21.31,18.47-30.31,3.79-9,5.21-32.2-3.79-45.46-9-13.26-25.57-31.73-47.83-35.05-22.26-3.32-41.68-1.89-50.67,2.37-9,4.26-28.87,12.62-38.83,8.52s-46.41-11.37-58.25-6.16Z"/>
      <path class="cls-3" d="M685.82,168.61c-2.58-5.49-17.05-13.26-36.47-13.26s-47.83,1.42-61.09,19.89c-13.26,18.47-13.73,32.68-9,48.31,4.74,15.63,18.47,27.47,34.57,28.89,16.1,1.42,36.47-3.32,53.51-14.21,17.05-10.89,25.1-21.31,26.05-30.78.95-9.47-3.79-30.78-7.58-38.83Z"/>
      <g>
        <path class="cls-8" d="M503.7,238.56c.22-2.33.62-4.65.64-6.98.12-10.61,1.87-20.88,5.8-30.77,4.95-12.47,13.56-22.12,23.55-30.7,2.69-2.31,5.49-4.52,8.32-6.66,8.46-6.4,15.7-13.94,21.72-22.68,4.31-6.25,9.16-12.01,15.38-16.49,8.32-5.99,17.64-9.46,27.69-11.19,11.03-1.89,21.79-.34,32.5,2.2,4.31,1.03,8.63,2.03,12.88,3.28,11.38,3.36,22.61,2.44,33.58-1.42,12.5-4.4,25.43-6.54,38.46-8.31,4.97-.68,10.05-1.19,15.04-.92,5.56.3,11.17,1.13,16.56,2.51,10.9,2.79,20.89,7.71,29.05,15.55,6.38,6.14,12.62,12.5,17.59,19.92,3.55,5.3,4.78,11.36,5.84,17.53,1.36,7.95,1.67,15.89.17,23.81-1.2,6.34-4.02,12.04-7.98,17.15-3.45,4.44-7.02,8.79-10.39,13.29-2.31,3.08-4.46,6.32-4.87,10.3-.15,1.45-.12,2.92-.08,4.37.11,3.84.66,7.71.32,11.51-.5,5.65-3.63,10-8.52,12.8-2.8,1.61-5.84,2.95-8.94,3.86-6.47,1.89-12.39,4.8-17.85,8.66-12.68,8.96-23.39,20.02-33.22,31.92-8.2,9.93-16.04,20.16-24.05,30.25-9.23,11.62-19.21,22.55-30.35,32.36-8.5,7.48-17.7,13.85-28.59,17.5-15.21,5.1-30.06,3.27-44.61-2.43-6.74-2.64-12.14-7.27-16.43-13.14-1.57-2.15-3.36-4.14-4.88-6.32-3.99-5.76-6.83-12.05-8.55-18.87-.65-2.58-1.54-5.1-2.39-7.62-1.61-4.75-4.41-8.67-8.37-11.76-4.9-3.82-9.7-7.77-14.66-11.5-14.55-10.94-22.69-25.86-26.8-43.21-1.29-5.44-1.89-11.03-2.85-16.55-.09-.53-.46-1.02-.7-1.52v-9.78ZM804.58,176.62c-.63-4.07-1-8.2-1.97-12.18-1.08-4.44-2.51-8.83-4.15-13.1-2.56-6.67-5.7-13.05-11.53-17.6-2.1-1.64-4.28-3.18-6.51-4.63-12.59-8.18-25.41-15.19-41.1-16.24-13.86-.92-27.07.49-40.06,5.15-5.42,1.95-10.87,3.84-16.38,5.52-9.9,3.01-19.91,4.39-30.1,1.36-3.54-1.05-7.04-2.25-10.59-3.27-10.39-2.97-20.75-5.8-31.81-3.95-10.37,1.73-20.03,4.97-28.58,11.22-5.59,4.09-9.8,9.44-13.71,15.03-6.59,9.43-14.58,17.43-23.55,24.61-5.99,4.79-11.76,9.98-16.99,15.59-12.74,13.7-18.79,30.35-19.17,48.86-.19,9.12,1.07,18.27,3.05,27.24,2.51,11.35,6.82,21.95,12.38,32.16,3.98,7.3,9.58,12.55,16.66,16.69,4.57,2.68,8.92,5.85,13,9.23,5.74,4.76,9.34,10.97,11.01,18.31,1.04,4.61,2.28,9.17,3.45,13.74,1.28,5.04,3.92,9.43,7.91,12.58,8.06,6.37,17.12,11.1,26.87,14.35,2.9.97,6.04,1.37,9.1,1.62,11.96.96,22.76-2.49,32.78-8.87,8.16-5.2,15.45-11.46,22.35-18.2,12.52-12.25,23.42-25.9,34.2-39.66,8.59-10.96,17.25-21.89,27.46-31.4,12.55-11.69,25-23.54,42.65-27.59,5.77-1.32,8.94-6.73,8.95-12.83,0-3.26.01-6.52-.25-9.77-.34-4.35.95-8.2,3.21-11.77,1.74-2.75,3.63-5.4,5.6-7.99,2.23-2.95,4.61-5.79,6.94-8.66,6.04-7.43,9.1-15.83,8.87-25.55Z"/>
        <path class="cls-8" d="M640.11,152.05c11.5.02,22.6,2.02,33.41,5.94,9.94,3.61,16.35,10.14,18.83,20.54.88,3.68,2.74,7.15,3.5,10.85,3.22,15.6-1.15,28.9-12.72,39.83-14.03,13.25-30.62,21.56-49.5,25.17-8.34,1.6-16.71,1.17-24.99-1.06-6.75-1.82-12.34-5.62-17.65-9.9-7.79-6.28-13.46-14.03-16.23-23.77-5.05-17.74-.11-36.96,15.39-50.02,14.42-12.14,31.33-17.38,49.96-17.59ZM623.11,249.95c1.48,0,2.97.09,4.44-.03,1.17-.09,2.31-.47,3.48-.66,18.86-2.96,34.85-11.64,48.73-24.51,7.27-6.74,11.45-15.04,11.91-24.94.21-4.53-.44-9.11-2.18-13.42-.81-2.02-1.76-4.03-2.22-6.13-2.28-10.49-10.6-18.91-21.28-20.53-12.14-1.85-24.33-2.85-36.63-.93-11.26,1.76-21.86,5.06-31.28,11.67-18.18,12.77-24.28,32.74-15.82,53.52,3.39,8.33,8.08,15.95,16.56,20.1,7.62,3.73,15.71,5.97,24.3,5.86Z"/>
        <path class="cls-4" d="M656.77,185.2c3.71,2.22,4.03,5.41,3.01,8.97-.93,3.25-2.86,5.81-5.68,7.68-5.05,3.35-10.69,5.16-16.64,5.56-5.89.4-11.83.24-17.75.13-1.89-.03-3.86-.43-5.63-1.1-6.32-2.38-7.68-9.1-2.82-13.84,3.42-3.34,7.76-4.14,12.32-3.73,2.49.22,4.97.72,7.41,1.27,3.32.74,6.45.46,9.44-1.21,1.16-.65,2.39-1.18,3.58-1.77,3.95-1.97,8.08-2.79,12.75-1.96ZM654.49,189.68c-3.46-2.07-6.37-.4-8.93,1.08-5.77,3.36-11.9,3.98-18.34,3.55-2.5-.17-5.03-.24-7.52-.02-4.06.36-5.7,2.38-5.42,6.65,1.39.63,2.93,1.44,4.54,2.06,5.14,1.97,10.37,1.81,15.67.68,5.64-1.2,11.23-2.56,16.18-5.67,2.93-1.84,4.91-4.24,3.81-8.34Z"/>
        <path class="cls-4" d="M640.12,166.54c2.79.43,3.77,1.88,3.13,3.58-1.44,3.84-3.27,7.54-5.03,11.25-.2.42-.98.58-1.64.94-.78-.69-1.51-1.34-2.29-2.02.96-5.13,2.72-9.7,5.83-13.75Z"/>
        <path class="cls-4" d="M612.08,181.41v-3.3c1.21-1.76,2.89-1.84,6.23-.35v4.4c-2.29,1.94-4.14,1.41-6.23-.75Z"/>
        <path class="cls-4" d="M663.73,176.97c-1.35,3.01-3.31,3.53-6.39,2.6-.24-1.33-.51-2.78-.8-4.33,3.08-1.42,5.05-.3,7.19,1.73Z"/>
      </g>
      <g>
        <path class="cls-5" d="M123.2,251.93c.82,1.93,1.45,3.86,2.41,5.61,3.19,5.84,6.49,11.62,9.75,17.43,1.02,1.81,2.13,3.61,1.22,5.92-1.78,2.22-4.11,1.22-6.05.49-4.28-1.62-8.58-3.32-12.57-5.54-5.94-3.3-11.61-7.07-17.7-10.82-1.66,1.2-3.82,2.47-5.62,4.14-5.28,4.88-11.46,7.69-18.53,8.77-6.11.94-12.21,2.02-18.31,3.05-5.13.87-9.95-.17-14.67-2.18-19.49-8.27-30.7-22.88-33.77-43.82-1.52-10.4-.74-20.55,1.87-30.74,3.83-15,10.02-28.76,19.79-40.81,14.66-18.09,33.06-30.69,55.38-37.51,8.82-2.7,17.82-4.52,27.02-4.3,11.14.27,22.06,1.72,31.85,7.96,6.77,4.32,12,9.97,16.68,16.35,9.08,12.38,11.34,26.23,9.78,41.18-1.19,11.36-4.55,21.91-9.86,31.95-7.27,13.77-17.97,23.72-32.42,29.6-1.64.67-3.24,1.44-4.84,2.2-.39.18-.7.52-1.42,1.07ZM131.65,277.92c.22-.25.45-.5.67-.75-1.09-1.47-2.26-2.89-3.26-4.42-3.37-5.21-7.08-10.25-9.88-15.75-2.89-5.69-1.28-9.07,4.44-11.8,3.2-1.53,6.58-2.75,9.63-4.53,21.93-12.76,31.23-33.04,33.48-57.27.89-9.54-.95-18.8-4.2-27.84-1.64-4.57-4.01-8.6-7.49-11.9-10.89-10.31-24.23-15.22-38.87-16.52-11.95-1.06-23.58,1.38-34.76,5.55-17.14,6.39-31.59,16.84-43.53,30.58-10.9,12.54-19.47,26.43-22.45,43.18-1.97,11.06-2.01,22.05.59,33.01,2.6,10.95,8.44,20.19,16,28.27,4.21,4.51,9.69,7.06,15.99,7.94,5.83.82,11.51.19,17.19-.8,10.82-1.9,21.47-4.28,29.65-12.49.1-.1.21-.2.32-.3.76-1.24,1.53-2.48,2.13-3.47,2.23-.92,3.75-.11,5.29.9,8.28,5.45,16.57,10.89,24.89,16.28,1.3.84,2.76,1.42,4.15,2.12Z"/>
        <path class="cls-3" d="M567.9,0c1.67,2.05.31,3.61-.53,5.03-6.17,10.44-12.27,20.93-18.73,31.18-2.83,4.48-6.42,8.49-9.77,12.63-1.09,1.35-2.5,2.43-4.13,3.98-1.11-1.03-1.97-1.83-3.04-2.83,2.23-2.57,4.17-4.77,6.07-7.02,10.27-12.15,18.78-25.47,26.39-39.41.8-1.46,1.14-3.5,3.74-3.57Z"/>
        <path class="cls-3" d="M483.55,10.36c3.69.57,3.73,2.51,3.34,4.49-.37,1.88-1.04,3.69-1.56,5.54-2.92,10.23-4.91,20.66-6.22,31.21-.22,1.76-.69,3.16-2.8,4.01-.72-.53-1.59-1.19-2.35-1.76.84-13.52,3.45-26.34,7.46-38.89.51-1.6,1.41-3.07,2.13-4.61Z"/>
        <path class="cls-3" d="M407.24,25.19c1,1.31,1.99,2.37,2.72,3.6,4.45,7.5,8.87,15.03,13.24,22.58,1.47,2.53,1.3,2.87-1.66,5.04-.71-.53-1.72-.96-2.24-1.73-5.18-7.73-10.88-15.16-14.31-23.94-1.26-3.23-1.28-3.35,2.26-5.54Z"/>
        <path class="cls-7" d="M109.75,238.72c-2.64,2.44-5.63,2.55-8.51,1.71-3.37-.99-6.91-2.01-9.82-3.88-9.7-6.23-19.32-12.66-27.35-21.06-2.65-2.77-5.11-5.77-7.25-8.94-1.46-2.16-2.51-4.7-3.23-7.22-1.34-4.67.91-8.16,5.55-9.42,4.89-1.33,9.69-.65,14.43.61,7.9,2.11,14.57,6.36,20.61,12.67.25-1.35.52-2.37.62-3.41.97-10.21,4.17-19.67,10.3-27.9,2.15-2.89,5-5.54,8.07-7.42,4.47-2.72,8.62-.5,9.37,4.72.41,2.87.46,5.9.02,8.76-1.62,10.51-3.23,21.03-5.38,31.43-1.76,8.51-4.28,16.86-6.45,25.29-.33,1.28-.62,2.57-.99,4.07Z"/>
      </g>
    </g>
  </g>
</svg>