<?xml version="1.0" encoding="UTF-8"?>
<svg id="Layer_2" data-name="Layer 2" xmlns="http://www.w3.org/2000/svg" viewBox="0 0 257.09 253.59">
  <defs>
    <style>
      .cls-1 {
        fill: #92c244;
      }

      .cls-2 {
        fill: #f7d3c0;
      }

      .cls-3 {
        fill: #fff;
      }

      .cls-4 {
        fill: #d86f6f;
      }

      .cls-5 {
        fill: #d8906f;
      }

      .cls-6 {
        fill: #f5ede9;
      }

      .cls-7 {
        fill: #3c54a5;
      }

      .cls-8 {
        fill: #1d1d1b;
      }

      .cls-9 {
        fill: #b6cde5;
      }

      .cls-10 {
        fill: #571010;
      }
    </style>
  </defs>
  <g id="_Layer_" data-name="&amp;lt;Layer&amp;gt;">
    <g>
      <path class="cls-2" d="M98.34,40.94s19.56,9.45,23.22,11.58c3.66,2.13,8.65,4.39,8.65,4.39l29.41-13.97s-1.26-1.93-1.86-2-12.31-2.53-19.36-8.25c-7.05-5.72-15.9-12.84-15.9-12.84l-3.66-.13s-9.25,6.85-13.11,11.44c-3.86,4.59-7.39,9.78-7.39,9.78Z"/>
      <path class="cls-3" d="M104.19,43.27c.2-1.33,1.8-3.33,5.59-2.33,3.79,1,7.45.8,9.05,4.32,1.6,3.53.67,5.19.67,5.19l-15.3-7.19Z"/>
      <path class="cls-3" d="M136.86,45.46c-.87,2.17.33,2.4,2.53,3.13,2.2.73,4.32.67,4.32.67,0,0,8.98-3.46,9.05-3.73s.73-3.79-.8-4.26-8.25.2-9.31.47c-1.06.27-5.39,2.73-5.79,3.73Z"/>
      <path class="cls-8" d="M97.87,38.48s2.73-11.91,3.59-14.17c.86-2.26,6.72-10.98,8.45-12.51s9.71-7.19,12.84-7.92c3.13-.73,12.57-3.46,16.7-2.79,4.13.67,12.97,4.46,16.9,7.52s13.64,12.91,14.5,13.64c.86.73,9.78,7.39,10.11,7.45.33.07,7.12,3.73,7.12,3.73,0,0-28.48,9.91-28.48,9.71s-.27-2.2-1.86-2.2-16.1-4.32-22.82-9.78c-6.72-5.46-12.18-11.91-12.18-11.91l-6.05,1.26s-14.3,14.77-15.7,16.5c-1.4,1.73-3.13,1.46-3.13,1.46Z"/>
      <path class="cls-2" d="M162.28,33.29c.27.2,3.73,6.59,3.93,6.65.2.07,12.57-3.86,12.57-3.86,0,0,3.59-4.12,3.13-6.05-.47-1.93-4.86-7.05-7.39-6.99-2.53.07-8.85,2.66-9.65,4.19-.8,1.53-2.59,6.05-2.59,6.05Z"/>
      <path class="cls-9" d="M101.53,23.57s14.11-5.72,21.89-5.26c7.78.47,16.5,2.46,22.16,5.39,5.66,2.93,15.64,7.98,15.44,7.72-.2-.27-2.2-4.86-3.39-7.12-1.2-2.26-7.32-7.78-11.84-10.51s-13.51-7.85-23.82-4.52-15.04,6.59-15.04,6.59l-5.39,7.72Z"/>
      <path class="cls-6" d="M46.18,27.1c-.2.07-5.52,4.19-7.78,8.52-2.26,4.32-3.86,6.25-2.86,6.45,1,.2,7.85,2.93,9.85,3.19,2,.27,39.45,11.71,44.51,13.37,5.06,1.66,26.95,7.78,27.08,8.18.13.4,1,3.99,3.93,4.66s11.51,2.53,13.97.8c2.46-1.73,7.32-6.79,8.18-7.12s14.3-4.19,17.17-5.06c2.86-.87,22.49-7.05,24.55-7.58,2.06-.53,19.96-5.99,23.95-6.05,3.99-.07,18.3-2.33,18.3-2.66s.6-8.38-4.72-11.38c-5.32-2.99-14.04-4.59-14.9-4.39s-29.81,8.85-33.53,9.85c-3.73,1-17.3,6.32-21.16,8.18-3.86,1.86-22.02,11.24-22.42,11.11-.4-.13-4.13-1.73-5.59-2.53-1.46-.8-10.65-6.52-22.62-11.31-11.98-4.79-32-11.24-38.26-12.57-6.25-1.33-17.23-3.79-17.63-3.66Z"/>
      <path class="cls-5" d="M31.21,40.34c-1.15.82-1.46.53-.86,7.19s1.8,17.83,1.66,24.75c-.13,6.92,2.4,27.08,2.73,31.2.33,4.12.8,14.7.8,14.7,0,0,55.89,64.67,56.09,64.67s21.29,8.25,21.56,8.38c.27.13,2.26,4.99,11.44,5.12,9.18.13,15.7-4.79,17.56-7.32s2.99-4.92,2.99-4.92l57.02-18.76s24.42-48.1,24.35-48.37c-.07-.27-.07-7.92-.07-7.92,0,0,.13-15.83.8-26.88.67-11.04,1.26-38.32.33-38.52s-17.57,2-26.55,4.46-57.35,16.43-58.88,17.43c-1.53,1-3.13,5.52-8.05,6.72s-12.64.4-14.04-1.13c-1.4-1.53-1.86-4.59-3.13-4.32s-44.58-14.17-47.64-15.04-32.73-8.92-34.4-9.85c-1.66-.93-3.26-1.93-3.73-1.6Z"/>
      <path class="cls-1" d="M71.46,122.38c-.07-1.46-.53-3.79-1.86-3.99-1.33-.2-15.37-4.19-18.36-11.78s-3.99-12.04-3.26-13.64c.73-1.6,1.13-6.32,2.59-6.39,1.46-.07,10.11,4.19,15.9,14.37,5.79,10.18,7.19,11.78,7.19,11.78,0,0,1.33-7.12,8.85-10.65,7.52-3.53,17.7-6.52,18.96-5.39s.07,7.25-2.26,10.25c-2.33,2.99-4.26,6.59-8.58,9.05-4.32,2.46-10.58,4.26-11.91,4.19-1.33-.07-3.13.07-3.26.27-.13.2-.4,2.66-.73,2.46-.33-.2-3.26-.53-3.26-.53Z"/>
      <path class="cls-6" d="M45.78,127.03c-.74-1.37-5.26-4.52-10.71-8.38-5.46-3.86-23.91-10.35-24.48-9.71s-2.53,2.59-2.86,5.99c-.33,3.39,1.26,7.32,1.46,7.32s26.95,6.32,28.21,6.72,1.6.2,2.06.93c.47.73,2.06,6.85,7.78,7.05,5.72.2,7.58-4.32,8.05-4.32s21.09.93,23.35.93,10.65,1.26,10.98.13c.33-1.13,1.5-3.69-.47-6.39-1.97-2.69-3.93-3.66-4.19-3.66s-13.71-2-22.09-.33c-8.38,1.66-16.63,4.59-17.1,3.73Z"/>
      <path class="cls-4" d="M10.58,135.02c-.2-.27-3.73-12.51-2.73-12.64,1-.13,7.32,1,11.38,2,4.06,1,19.76,4.66,20.09,5.26s2.93,7.65,8.65,7.58,6.79-4.72,7.65-4.72,20.09,1.13,22.22,1.13,12.04,0,12.31,1.26c.27,1.26.47,23.75.53,28.28s.67,21.02.47,23.15c-.2,2.13-.67,4.39-1.66,4.99s-2.13.93-2.46.93-24.35-5.72-25.08-5.72-25.75-3.59-29.34-3.59-15.17,1-15.37-.86c-.2-1.86-6.65-47.04-6.65-47.04Z"/>
      <path class="cls-6" d="M15.97,166.29c.4-.13,7.85-1.53,7.78-3.53s-3.06-3.59-3.06-3.59c0,0,7.39-1.06,7.98-2.4.6-1.33-2.46-4.46-2.46-4.46,0,0,4.39-3.53,3.73-5.32-.67-1.8-6.19-3.33-6.19-3.33,0,0,2.99-2.59,2.86-3.53-.13-.93-5.66-2.99-8.18-3.26-2.53-.27-10.84-1.33-13.37-.27-2.53,1.06-3.59,2.2-3.39,5.26.2,3.06,1.66,12.24,2.59,15.37.93,3.13,2.59,5.92,2.59,5.92,0,0-1.86,3.19.33,5.72,2.2,2.53,8.38,5.52,8.38,5.52l-.33-6.19.73-1.93Z"/>
      <path class="cls-7" d="M16.83,182.06l-1.33-8.18-4.72-.93s-9.58,7.32-9.31,18.1c.27,10.78,1.46,14.24,5.19,19.69,3.73,5.46,12.31,8.18,24.09,11.51,11.78,3.33,45.71,7.12,45.78,6.92.07-.2,15.24-8.92,15.17-9.25-.07-.33.73-6.32,1.8-10.05,1.06-3.73,1.33-14.04,1.6-13.91.27.13,3.99,1.06,6.72-.07s6.79-3.59,8.78-2.93,10.05,2.86,10.05,2.86l12.51,4.52s8.65,39.25,9.98,39.32c1.33.07,8.58-2.66,10.58-3.26s21.42-7.19,28.41-8.25c6.99-1.06,26.88-6.85,31.8-7.98,4.92-1.13,17.3-8.45,20.09-9.51,2.79-1.06,14.97-9.51,16.23-16.5s1.8-11.71-.47-16.23c-2.26-4.52-5.92-11.78-6.39-12.84-.47-1.06-3.59-3.79-3.59-3.79,0,0-11.44,5.26-14.3,6.05-2.86.8-6.79,1.33-6.79,1.33,0,0-7.98,3.19-10.11,3.13s-4.86-2.13-4.86-2.13l-14.17-.8-44.71,15.7s-6.79,8.65-10.65,10.31c-3.86,1.66-8.25,1.8-12.58,1.13-4.32-.67-7.78-2.66-8.38-3.59s-2.2-2.33-2.2-2.33l-19.63-7.25s.13,4.86-.6,6.45c-.73,1.6-2.33,3.46-2.33,3.13s-31.4-6.52-37.13-7.32-13.64-2.13-15.37-2c-1.73.13-19.1-.8-19.16-1.06Z"/>
      <path class="cls-2" d="M103.26,248.52c-.24,1.66-.6,4.12-3.19,4.12s-3.93-3.33-3.93-3.33c0,0-1.93,1.2-4.72.27-2.79-.93-4.52-1.46-4.52-1.46,0,0-3.59,1.93-4.72-.33-1.13-2.26-1.13-3.19-1.33-3.06-.2.13-2.53,1.53-4.39-.47-1.86-2-2.2-3.33-2.26-3.13s-4.19,1.93-5.26.33c-1.06-1.6-.6-5.92,1.13-7.32,1.73-1.4,6.92-5.85,10.31-7.58,3.39-1.73,11.04-6.72,11.11-6.92.07-.2,3.79-23.22,3.79-23.22,0,0,5.26.67,6.99-.53,1.73-1.2,6.45-2.99,8.32-2.93s5.72,2.79,5.72,2.79c0,0,7.72,1.2,10.71,2,2.99.8,5.85,1.93,5.85,1.93,0,0,4.79,15.97,5.39,18.1.6,2.13,1.4,6.45,1.4,6.45,0,0-7.12,1.13-8.78,2.2-1.66,1.06-12.18,9.91-14.97,12.04-2.79,2.13-12.57,9.58-12.64,10.05Z"/>
      <path class="cls-4" d="M179.78,124.11c.24-.97,15.97.2,18.3-.07,2.33-.27,13.77-.27,13.97.4.2.67,4.59,7.52,9.18,7.19s7.19-5.66,7.78-7.12,1.46-4.99,2.6-5.86c1.13-.86,21.76-11.98,22.09-11.11s-2.59,15.37-2.59,15.37c0,0-6.12,34.86-7.32,35.86-1.2,1-8.92,5.19-11.84,6.19-2.93,1-13.24,3.73-13.24,3.73,0,0-6.65,2.73-9.91,2.79-3.26.07-5.12-2.66-5.12-2.66,0,0-27.54-.8-27.81-2.46-.27-1.66,3.79-41.72,3.93-42.25Z"/>
      <path class="cls-6" d="M186.43,110.2c-.86.07-4.92,4.13-5.59,7.52-.67,3.39-.07,5.59-.07,5.59l31,.8s5.19,7.72,9.78,7.45c4.59-.27,8.78-8.78,8.98-9.98.2-1.2,0-2.4.73-2.79.73-.4,21.76-10.98,21.62-11.18s-2.53-5.46-5.19-6.52c-2.66-1.06-7.19-.4-7.65-.2-.47.2-11.11,7.98-14.24,12.97-3.13,4.99-4.66,7.39-5.66,6.79-1-.6-16.17-5.59-19.49-6.79s-14.24-3.66-14.24-3.66Z"/>
      <path class="cls-6" d="M254.23,130.56c1-1.6,2.66-4.99,1.4-6.65-1.26-1.66-2.4-2.33-4.79-1.46s-17.76,11.98-19.29,12.91-2.59,3.26-1.53,4.26c1.06,1,3.99.27,3.99.27,0,0-5.52,4.79-4.26,6.65s5.32,1.73,5.12,1.73-3.46,5.52-2.06,7.32c1.4,1.8,11.98-3.93,11.98-3.93,0,0,2.93,3.26,3.26,5.72s.6,7.72,2.46,7.45,5.79-4.92,5.06-8.92c-.73-3.99-3.26-6.19-3.73-6.85-.47-.67-1.93-1.13-1.93-1.13,0,0,3.99-4.72,3.39-6.92s-1.46-2.4-1.46-2.4l2.4-8.05Z"/>
      <path class="cls-10" d="M16.12,122.35c1.36.4,2.72.81,4.09,1.2,6.05,1.73,12.1,3.47,18.17,5.15,1.16.32,1.72,1.1,2.17,2.09,1.03,2.23,2.58,4,4.9,4.91,3.57,1.4,5.48.74,7.31-1.78,1.94-2.67,1.32-2.39,5.05-2.37,4.74.02,9.44.54,14.16.93,4.96.42,9.96,1,14.97.38.84-.1,1.71-.13,2.56-.07,1.16.09,1.65.59,1.71,1.76.05.92-.11,1.84-.07,2.76.19,4.53.42,9.07.62,13.6.04.92.07,1.84.05,2.76-.09,3.55-.33,7.1-.26,10.64.08,4.13.45,8.25.66,12.38.06,1.18.12,2.39-.04,3.55-.19,1.39.41,2.1,1.59,2.53,1.91.7,3.83,1.4,5.75,2.08,4.27,1.5,8.56,2.96,12.82,4.5.74.27,1.06.35,1.11-.57.23-3.54.49-7.08.74-10.62.19-2.56.45-5.11.55-7.67.09-2.36,0-4.73-.01-7.09,0-.26-.1-.52-.1-.78,0-5.13-.05-10.27,0-15.4.04-3.88.33-7.75.3-11.62-.04-5.52-.34-11.04-.38-16.56-.06-8.29.06-16.59,0-24.88-.05-7.56-.24-15.13-.36-22.69,0-.53-.01-1.06.04-1.58.06-.66.43-1.22,1.12-1.06.39.09.78.61.95,1.03.16.39.06.91.04,1.37-.18,6.12-.48,12.24-.51,18.36-.02,5.59.25,11.18.4,16.77.02.92.09,1.84.1,2.76.04,6.71.11,13.43.1,20.14,0,4.6-.2,9.21-.16,13.81.04,4.93.35,9.86.35,14.79,0,6.18,0,12.37-.33,18.54-.27,5.24-.24,10.53-1.57,15.67-.08.29.05.78.26.97.43.39.95.72,1.5.93,4.58,1.78,9.3,2.23,14.13,1.29,3.15-.61,5.62-2.46,8.01-4.46.65-.55,1.17-1.26,1.84-1.79,2.44-1.91,3.21-4.52,3.27-7.47.14-6.52.04-13.02-.97-19.48-.27-1.75-.41-3.53-.5-5.3-.18-3.81-.27-7.62-.44-11.43-.2-4.53-.48-9.06-.67-13.6-.1-2.5-.11-5-.13-7.5-.03-4.15-.01-8.29-.06-12.44-.09-6.58-.38-13.16-.28-19.73.11-7.04.59-14.07.91-21.1.04-.85.11-1.71.12-2.56,0-.22-.16-.44-.25-.66-.22.11-.48.19-.66.35-.39.35-.74.75-1.1,1.13-3.82,4.03-8.53,5.24-13.87,4.36-1.68-.28-3.36-.63-4.97-1.18-1.84-.63-3.4-1.71-4-3.77-.1-.33-.56-.67-.93-.79-3.61-1.21-7.22-2.41-10.85-3.55-15.78-4.97-31.46-10.29-47.43-14.66-6.26-1.71-12.5-3.54-18.7-5.47-2.11-.66-4.09-1.74-6.11-2.67-1.2-.55-1.43-.58-1.52.71-.2,2.75-.28,5.51-.21,8.27.06,2.36.4,4.71.64,7.06.37,3.66.79,7.31,1.13,10.97.22,2.36.32,4.72.47,7.08.23,3.61.5,7.21.69,10.82.11,1.96,0,3.93.15,5.88.14,1.89.49,3.77.75,5.65.26,1.89.63,3.76.76,5.66.32,4.65.57,9.31.75,13.97.03.83.29,1.32.9,1.81,2.64,2.07,5.26,4.16,7.87,6.27.72.58,1.34.76,2.32.5,4.11-1.1,8.23-2.26,12.41-3.01,6.08-1.1,12.25-1.67,18.44-1.1,2.67.25,5.32.78,7.98,1.2.38.06.79.16,1.12.34.25.14.4.44.59.67-.32.14-.66.42-.95.38-1.88-.26-3.75-.61-5.62-.91-.52-.08-1.05-.17-1.57-.15-3.42.11-6.84.13-10.25.39-5.3.4-10.58,1.08-15.75,2.35-2.04.5-4.08,1-6.06,1.68-1.34.46-2.25.1-3.14-.87-2.38-2.58-4.95-4.97-8.09-6.55-4.28-2.16-8.67-4.11-13.02-6.13-2.02-.94-4.03-1.93-6.12-2.69-2.15-.79-4.39-1.33-6.6-1.96-.31-.09-.73-.01-.94-.19-.25-.21-.53-.66-.46-.92.07-.28.51-.56.84-.64.27-.06.61.19.93.28,3.07.92,6.16,1.79,9.22,2.77,1.81.58,3.61,1.24,5.34,2.01,2.52,1.12,4.99,2.35,7.46,3.59.79.4,1.1.25,1.05-.62-.17-3.68-.34-7.35-.53-11.03-.11-2.22-.2-4.45-.38-6.66-.22-2.81-.48-5.63-.8-8.43-.29-2.54-.78-5.06-.99-7.61-.34-4.26-.85-8.54-.7-12.79.16-4.76-.27-9.45-.59-14.16-.21-3.08-.71-6.13-.95-9.21-.13-1.62-.06-3.27.09-4.89.11-1.19.83-2.13,2.07-2.35,1.09-.19,1.97.25,2.73,1.16,1.11,1.34,2.58,2.26,4.28,2.69,5.21,1.32,10.44,2.56,15.65,3.92,4.19,1.1,8.38,2.22,12.51,3.51,10.41,3.24,20.87,6.33,31.14,9.95,6.4,2.26,12.79,4.39,19.41,5.83.84.18,1.27.69,1.39,1.45.31,1.92,1.67,2.82,3.33,3.23,2.67.66,5.37,1.25,8.09,1.69,1.81.29,3.51-.33,5.07-1.27,2.16-1.31,4.04-2.96,5.55-4.98.71-.94,1.57-1.54,2.69-1.87,3.52-1.04,7.04-2.11,10.56-3.16,12.46-3.69,24.9-7.47,37.4-11.01,6.69-1.89,13.5-3.36,20.25-5.03,2.22-.55,4.42-1.29,6.67-1.63,2.72-.42,5.48-.58,8.23-.72,1.63-.08,2.23.53,2.35,2.21.1,1.38.05,2.76.06,4.14.02,2.83.08,5.66.06,8.49-.05,7.04.19,14.07-.68,21.09-.52,4.17-.54,8.41-1.04,12.58-.73,5.99-.09,11.96.08,17.93,0,.28.18.56.27.85.26-.17.56-.3.77-.52,2.69-2.9,5.39-5.78,8.79-7.89.95-.59,1.92-1.14,2.91-1.67.59-.32,1.32-.6,1.74.16.4.74.07,1.32-.68,1.78-4.9,2.95-9,6.86-12.8,11.07-1.84,2.04-3.39,4.36-5.07,6.55-.44.57-.82,1.21-1.33,1.71-.91.88-1.89,1.03-2.85.46-5.43-3.23-11.36-5.15-17.41-6.73-3.62-.95-7.36-1.43-10.93-2.5-2.73-.82-5.46-1.28-8.26-1.59-.27-.03-.5-.45-.75-.68.28-.25.54-.68.83-.7,1.05-.06,2.13-.13,3.14.09,3.65.8,7.32,1.54,10.89,2.62,6.67,2.01,13.27,4.23,19.89,6.38.94.3,1.91.55,2.79.98.92.45,1.45.17,1.97-.59,1.11-1.63,2.28-3.22,3.38-4.86.24-.36.45-.82.47-1.25.22-3.94.39-7.88.61-11.82.2-3.61.46-7.22.66-10.83.16-2.96.31-5.91.37-8.87.15-6.45.23-12.89.37-19.34.03-1.38.27-2.76.25-4.13-.06-3.88-.16-7.75-.33-11.62-.06-1.34-.36-1.49-1.73-1.34-3.71.41-7.44.75-11.14,1.25-6.4.87-12.57,2.72-18.73,4.58-7.85,2.37-15.63,5-23.52,7.25-7.13,2.03-14.37,3.69-21.55,5.55-1.9.49-3.79,1.06-5.67,1.66-1.89.6-1.88.64-1.89,2.62-.04,8.62-.04,17.25-.11,25.87-.07,7.77-.24,15.53-.29,23.3-.01,2.23.29,4.46.38,6.69.28,6.9.53,13.81.8,20.71.27,6.96.57,13.93.8,20.89.18,5.32.26,10.65.39,15.97.01.46.04.92.03,1.38-.01.97.45,1.05,1.25.77,2.54-.89,5.1-1.73,7.65-2.58,5.66-1.9,11.33-3.76,16.99-5.69,5.28-1.8,10.54-3.66,15.81-5.5.23-.08.46-.19.67-.56-2.46-.28-4.93-.56-7.39-.83-1.11-.12-2.22-.3-3.33-.32-1.02-.03-1.41-.6-1.48-1.46-.07-.85-.11-1.72-.03-2.56.27-2.8.59-5.6.9-8.4.18-1.63.45-3.26.59-4.89.21-2.42.33-4.85.49-7.28.4-5.77.81-11.54,1.22-17.31.02-.26.09-.52.15-.77.47-2.26.9-2.67,3.16-2.59,2.3.07,4.6.26,6.9.42,6.63.47,13.26.96,19.91.46,1.18-.09,2.37-.14,3.55-.19.95-.04,1.76.08,1.42,1.4-.05.21.08.52.21.72,1.32,2.1,2.91,3.92,5.24,4.92,1.94.84,3.82.5,5.36-.85,2.78-2.44,4.98-5.27,5.01-9.22,0-.89.36-1.57,1.09-1.96,1.43-.77,2.91-1.46,4.37-2.18.41-.2.84-.38,1.25-.59,4.4-2.23,8.8-4.46,13.19-6.7.7-.36,1.34-.83,2.04-1.19.7-.35,1.41-.74,2.17-.9,1.49-.31,2.17.31,1.95,1.8-.29,1.94-.72,3.87-1.12,5.79-.38,1.8-.77,3.59-1.2,5.38-.22.89-.23,1.46.92,1.68,1.57.3,2.44,1.44,2.86,2.95.12.43.32.84.48,1.26v.79c-1.34,3.69-2.69,7.38-4.01,11.09-.12.34-.18.83-.03,1.1,1.43,2.54.42,4.68-1,6.77-.47.7-1.27,1.35-1.33,2.08-.04.41,1.13.91,1.74,1.39,4.48,3.57,5.32,10.06,1.86,14.64-.54.72-1.26,1.37-2.03,1.83-1.73,1.04-3.25.54-4-1.33-.71-1.77-1.26-3.64-.84-5.57.32-1.47-.34-2.55-1.05-3.67-.13-.2-.4-.32-.6-.48-.18.25-.48.49-.53.76-.19,1.14-.28,2.3-.45,3.45-.05.35-.25.69-.45,1-.09.15-.34.19-.5.3-.81.53-1.61,1.07-2.41,1.61.67.63,1.38,1.21,1.99,1.89.78.87,1.63,1.72,2.2,2.72,2.36,4.13,4.27,8.48,5.15,13.16.72,3.85,1.38,7.72.87,11.73-.76,5.93-3.86,10.38-8.24,14.13-4.99,4.27-10.76,7.32-16.58,10.25-10.85,5.45-22.16,9.54-34.13,11.85-7.14,1.38-14.18,3.31-21.29,4.84-7.02,1.51-13.83,3.68-20.59,6.05-1.73.61-3.38,1.45-5.05,2.22-2.49,1.14-3.46.81-4.19-1.87-.83-3.03-1.42-6.14-2.11-9.21-.11-.51-.21-1.03-.32-1.54-.46-2.25-.45-2.12-2.8-1.99-3.18.18-5.77,1.41-8.13,3.52-3.48,3.12-7.04,6.15-10.69,9.07-3.9,3.12-7.92,6.1-11.93,9.08-.93.69-1.63,1.43-2.08,2.53-.39.95-.96,1.91-1.67,2.65-1.98,2.06-5.11,1.45-6.08-1.23-.34-.95-.61-1.08-1.46-.75-1.71.65-3.67,1.08-5.1-.09-1.58-1.29-3.1-1.42-4.97-1.27-1.73.14-3.11-.77-3.5-2.56-.22-1.02-.7-1.02-1.51-.94-2.19.22-3.91-.43-4.61-2.74-.23-.75-.69-.79-1.38-.65-.89.18-1.82.29-2.73.28-1.99-.03-3.3-1.34-3.44-3.32-.11-1.51.37-2.85,1.15-4.11,1.21-1.95,2.88-3.4,4.82-4.58.24-.15.4-.44.6-.66-.29-.12-.56-.3-.86-.34-6.53-.71-13.07-1.34-19.6-2.1-5.22-.6-10.39-1.46-15.5-2.74-4.2-1.05-8.52-1.62-12.7-2.74-3.54-.95-6.98-2.29-10.39-3.65-4.73-1.89-8.12-5.31-10.3-9.88-1.69-3.55-3.28-7.15-3.97-11.09-.69-3.99-.35-7.86,1.05-11.63.83-2.21,1.81-4.37,2.76-6.53.97-2.22,2.36-4.11,4.42-5.43.86-.56.98-1.02.18-1.79-.7-.68-1.28-1.5-1.81-2.33-1.01-1.56-1.43-3.22-.74-5.06.13-.36.07-.9-.11-1.25-2.46-4.85-3.88-10.01-4.49-15.39-.25-2.21-.37-4.45-.38-6.68-.02-3.52,1.63-5.41,5.11-6.16.91-.2,2.19-.21,2.58-.79.34-.51-.37-1.69-.57-2.58-.56-2.43-1.08-4.86-1.64-7.29-.52-2.3.47-3.15,3.02-2.94,1.49.13,2.97.43,4.46.65.62.11,1.3.25,1.99.39l-.05-.04ZM228.58,136.88c1.37-1.4,2.59-2.99,4.13-4.17,3.86-2.96,7.84-5.77,11.83-8.56,1.28-.9,2.71-1.64,4.15-2.25,1.23-.52,1.86-1.33,2.13-2.58.62-2.82,1.31-5.62,1.93-8.44.19-.86.22-1.75.33-2.63-.77.34-1.55.65-2.3,1.03-5.5,2.81-10.99,5.64-16.51,8.43-1.23.62-1.84,1.56-2.11,2.88-.77,3.8-1.59,7.58-2.4,11.37-.36,1.66-.75,3.32-1.13,4.97-1.87,6.54-3.75,13.08-5.61,19.63-.39,1.38-.71,2.79-1.08,4.18-.52,1.96-1.06,3.91-1.57,5.88-.21.8.28.9.9.77,1.73-.38,3.49-.65,5.17-1.17,4.4-1.36,8.6-3.23,12.62-5.48,4.1-2.29,4.41-2.72,5.19-7.37.04-.24.03-.5.05-.75-.29.07-.61.07-.85.21-1.59.92-3.09,2.03-4.76,2.76-1.35.59-2.88,1-4.34,1.02-2.36.03-3.65-1.96-2.95-4.2.21-.68.56-1.33.91-1.95.64-1.16.66-1.15-.58-1.29-2.95-.35-3.93-2.39-2.28-4.87.54-.81,1.26-1.51,1.9-2.25.35-.41.28-.58-.26-.78-2.25-.82-2.48-1.19-2.48-3.59,0-.26-.02-.53-.03-.79ZM111.35,192.28c-.28-1.08-1.01-1.65-2.06-2.04-4.36-1.64-8.7-3.35-13.05-5.02-.92-.35-1.85-.69-2.79-.97-1.41-.41-1.43-.39-1.59.99-.13,1.11-.23,2.22-.29,3.34-.06,1.06-.6,1.73-1.55,2.06-.31.11-.71-.02-1.07-.05.04-.31.03-.64.14-.92.47-1.2,1.05-2.33.9-3.73-.67-5.98-.06-11.96.14-17.94.12-3.47.46-6.98.14-10.42-.53-5.9-.96-11.79-.97-17.72,0-1.25-.04-2.5.01-3.75.04-.91-.3-1.29-1.22-1.34-6.3-.32-12.6-.71-18.91-1-3.74-.17-7.5-.17-11.24-.28-1.55-.05-1.64.08-1.45,1.66.33,2.74.58,5.48.87,8.22.52,4.89,1.03,9.79,1.57,14.68.16,1.43.42,2.86.6,4.29.37,2.93.66,5.87,1.09,8.79.42,2.85,1.01,5.68,1.43,8.53.22,1.49.22,3.01.39,4.52.2,1.83.3,1.96,2.09,2.27,1.87.33,3.8.41,5.64.84,7.8,1.8,15.59,3.67,23.36,5.6.68.17,1.46.77,1.78,1.39.73,1.39,1.9,1.68,3.15,1.38,1.9-.45,3.81-1,5.58-1.81,2.35-1.07,4.63-2.18,7.32-1.57ZM229.02,126.37c-1.22,1.45-2.3,3.05-3.68,4.33-1.97,1.84-4.42,2.45-6.94,1.3-1.58-.73-2.97-1.89-4.44-2.86-.35-.23-.71-.45-1.07-.67-.15.36-.37.7-.45,1.07-.57,2.83-1.05,5.68-1.68,8.49-1.41,6.34-2.89,12.67-4.36,18.99-.38,1.62-1.04,2.37-1.66,2-1.03-.62-.4-1.51-.21-2.29,2.33-9.7,4.64-19.4,6.34-29.23.47-2.72.51-2.74-2.29-2.78-5-.07-10-.13-15-.16-3.81-.02-7.62-.03-11.42.04-1.7.03-1.78.11-2.03,1.88-.52,3.7-1.05,7.41-1.38,11.14-.47,5.29-.78,10.6-1.14,15.91-.13,1.97-.19,3.94-.32,5.9-.1,1.57-.28,3.14-.39,4.71-.1,1.44.1,1.63,1.58,1.8,4.17.49,8.34,1.03,12.51,1.47,3.4.35,6.81.62,10.22.85,1.67.12,1.94-.17,2.17-1.81.08-.58-.04-1.22.16-1.76.14-.4.65-.67.99-.99.25.35.68.68.72,1.05.09.84-.02,1.71-.03,2.56-.02,2.15.74,2.97,2.92,3.04,2.95.1,5.71-.6,8.37-1.87,1.09-.52,1.74-1.2,2.02-2.43.9-3.89,1.88-7.76,2.92-11.61,2.32-8.54,4.71-17.07,7.05-25.61.22-.81.32-1.66.47-2.49.07-.05.03.03.03.03ZM250.41,187.88c0-1.05.16-2.14-.04-3.15-.34-1.74-.88-3.43-1.36-5.14-1.39-4.94-3.16-9.72-6.04-14.01-.65-.98-1.49-1.83-2.22-2.75-.64-.81-1.24-.74-2.18-.32-4.26,1.89-8.56,3.71-12.89,5.43-1.64.65-3.4,1-5.12,1.43-.74.18-1.63.01-2.26.36-2.74,1.49-5.74,2.19-8.69,3.07-9.37,2.8-18.75,5.61-28.04,8.66-7.86,2.58-15.62,5.5-23.42,8.27-6.06,2.15-12.11,4.31-18.16,6.49-1.5.54-1.51.6-1.17,2.09,1.13,4.92,2.21,9.85,3.47,14.73.69,2.66,1.83,5.2,2.54,7.85,1.26,4.69,2.33,9.42,3.51,14.13.52,2.06.56,2.06,2.6,1.43,7.9-2.44,15.74-5.13,23.73-7.27,8.48-2.27,17.1-4.02,25.66-6,12.18-2.82,23.76-7.17,34.42-13.8,4.1-2.55,8.01-5.33,11.12-9.07,2.99-3.59,4.95-7.59,4.54-12.43ZM74.5,227.79c2.27.52,3.93-.61,5.62-1.87,1.36-1.02,2.86-1.87,4.31-2.77.86-.54,1.94-.83,1.01-2.3-.34-.53.01-1.53.13-2.3.43-2.79.96-5.56,1.32-8.35.59-4.56,1.03-9.13,1.64-13.69.52-3.87.73-3.31-3.17-4.17-5.06-1.11-10.15-2.06-15.23-3.09-3.37-.68-6.72-1.46-10.11-2.07-3.22-.58-6.48-1-9.72-1.5-3.88-.6-7.72-1.38-11.7-1.45-4.06-.07-8.11-.74-12.18-.95-2.88-.15-5.78-.08-8.66.08-1.73.1-2.21-.15-2.35-1.95-.13-1.64-.29-3.27-.39-4.91-.04-.61-.19-.99-.87-1.06-.38-.04-.81-.16-1.1-.4-1.25-1-2.36-.42-3.41.28-1.44.97-2.6,2.24-3.32,3.83-1.08,2.39-2.16,4.79-3.08,7.25-.5,1.33-.8,2.77-1.01,4.19-.58,3.84.08,7.61.9,11.33.59,2.64,1.7,5.1,3.22,7.37,2.24,3.35,5.45,5.54,9.06,7.06,3.62,1.52,7.38,2.72,11.12,3.93,4.62,1.5,9.3,2.78,14.15,3.35,4.17.49,8.32,1.11,12.49,1.62,7.1.87,14.21,1.7,21.31,2.54ZM68.95,238.27c-.07,2.36,1.09,3.46,2.87,2.94,1.93-.56,3.81-1.35,5.64-2.2,1.48-.69,2.84-1.65,4.29-2.43.35-.19.82-.14,1.24-.19-.19.36-.3.8-.59,1.05-.49.43-1.06.78-1.63,1.1-1.37.79-2.76,1.54-4.13,2.31-1,.56-1.17,1.07-.71,2.07.5,1.08,1.69,1.73,2.94,1.5.64-.11,1.29-.31,1.85-.62,1.6-.9,3.16-1.87,4.74-2.81.45-.27.89-.54,1.37-.76.13-.06.47.03.51.14.08.21.12.55,0,.7-.23.3-.56.55-.88.77-1.2.8-2.42,1.59-3.63,2.38-1.13.74-1.29,2.08-.26,2.91.38.3.97.54,1.43.49.9-.1,1.85-.26,2.64-.67,1.33-.71,2.54-1.63,3.79-2.47.33-.22.58-.6.93-.72.31-.11.83-.08,1.02.12.18.19.19.83.01,1-.84.82-1.75,1.58-2.67,2.31-.67.54-.6.95.12,1.31.29.15.6.31.91.33,2.04.17,3.9-.16,5.38-1.77.43-.47,1.01-.83,1.57-1.16.23-.13.6-.03.9-.03,0,.3.06.64-.04.91-.33.92-.82,1.79-1.07,2.72-.21.78-.06,1.65.81,2.02.84.36,1.76.26,2.34-.5.56-.72,1.04-1.53,1.37-2.37.45-1.16,1.2-1.98,2.22-2.66,2.56-1.73,5.17-3.42,7.6-5.32,5.6-4.37,11.15-8.81,16.65-13.31,1.84-1.51,3.86-2.47,6.14-2.98.83-.18,1.68-.31,2.5-.54,1.35-.37,1.57-.72,1.28-2.14-.43-2.05-.67-4.2-1.45-6.12-1.59-3.92-2.77-7.93-3.49-12.08-.36-2.08-1.12-3.57-3.4-3.83-.13-.01-.25-.09-.36-.15-3.23-1.56-6.69-2.34-10.21-2.86-1.35-.2-2.86-.5-4.09-.1-1.63.53-3.28,1.33-4.41,2.83-1.91,2.52-4.07,4.86-5.79,7.5-2.55,3.92-5.86,7.09-9.31,10.15-1.22,1.09-2.5,2.14-3.85,3.06-4.3,2.91-8.64,5.76-12.98,8.62-1.75,1.16-3.59,2.2-5.24,3.49-1.43,1.12-2.74,2.44-3.91,3.83-.6.71-.77,1.77-.95,2.22ZM45.35,173.09c.05,0,.1,0,.16-.01-.19-2.49-.19-5.01-.6-7.46-.98-5.82-2.19-11.6-3.24-17.41-1.03-5.68-1.99-11.37-2.92-17.06-.13-.76-.35-1.21-1.12-1.37-.45-.09-.88-.28-1.32-.38-6.84-1.58-13.67-3.16-20.52-4.71-1.98-.45-3.97-.88-5.97-1.19-1.26-.2-1.33-.09-1.05,1.07.71,2.93,1.48,5.85,2.18,8.78.23.96.7,1.41,1.73,1.49,3.7.29,7.19,1.47,10.67,2.68,1.04.36,2.09.85,2.95,1.52,1.18.92,1.13,2.27.09,3.24-.4.37-.79.74-1.18,1.12.55.18,1.09.36,1.64.53.38.12.76.22,1.13.36,1.51.56,2.65,1.47,2.87,3.19.22,1.76-.52,3.1-1.98,3.99-.89.54-1.03.77-.14,1.55,2.11,1.86,1.65,4.1-.95,5.25-.42.18-.86.33-1.31.42-.9.18-1.81.29-2.71.49-.63.14-.91.34-.28,1.01,1.65,1.74,1.46,3.22-.53,4.51-.65.43-1.39.75-2.12,1.04-1.22.48-2.46.92-3.7,1.34-.8.27-1.05.7-.94,1.61.42,3.39.76,6.78,1.03,10.19.18,2.35.1,2.44,2.36,2.61,4.59.35,9.18.84,13.78.84,3.95,0,7.88-.04,11.8.49.68.09.89-.1.83-.86-.26-2.95-.43-5.9-.63-8.85ZM57.16,158.21c.18-.02.35-.05.53-.07-.74-4.93-1.48-9.85-2.21-14.78-.07-.45-.1-.91-.16-1.37-.26-1.95-.51-3.9-.77-5.85-.07-.52-.28-.72-.74-.31-.24.22-.47.46-.71.69-1.86,1.77-4.03,2.5-6.51,1.62-1.53-.54-2.97-1.34-4.45-2.02-.17-.08-.36-.14-.54-.2-.06.23-.16.46-.16.7,0,.19.11.38.15.57,1.03,5.6,2.12,11.2,3.05,16.82.6,3.62.95,7.28,1.42,10.92.45,3.45.96,6.89,1.38,10.34.26,2.08.37,4.18.61,6.27.17,1.44.6,1.87,1.91,2.1,3.1.55,6.19,1.1,9.29,1.63,1.7.29,1.71.26,1.42-1.37-.61-3.42-1.32-6.82-1.77-10.26-.68-5.13-1.17-10.29-1.75-15.43ZM193.06,169.47c-.54.2-1.31.54-2.11.79-2.32.71-4.7,1.25-6.98,2.08-11.09,4.02-22.15,8.15-33.48,11.48-1.32.39-2.61.9-3.94,1.26-.87.23-1.26.74-1.59,1.54-.34.81-.86,1.6-1.46,2.24-1.04,1.09-2.2,2.06-3.32,3.07-2.53,2.28-5.31,4.07-8.77,4.6-1.17.18-2.33.49-3.49.74,1.19.32,2.38.64,3.56.97.65.18,1.09-.03,1.53-.55.41-.49.94-.98,1.52-1.22,3.4-1.39,6.8-2.76,10.25-4.04,2.52-.94,5.11-1.69,7.64-2.59,1.17-.41,2.26-1.05,3.44-1.44,6.73-2.22,13.49-4.35,20.21-6.61,9.21-3.09,18.18-6.89,27.58-9.43.46-.12.86-.47,1.29-.72-.3-.42-.53-.94-.93-1.24-.31-.24-.82-.26-1.25-.29-1.97-.14-3.93-.23-5.9-.36-1.18-.08-2.36-.18-3.8-.29ZM97.49,198.01c-.02-.09-.05-.17-.07-.26-.26-.02-.54.01-.78-.07-.81-.28-1.18-.1-1.21.85-.05,1.57-.27,3.13-.36,4.71-.25,4.59-.57,9.17-2.43,13.47-.11.26-.05.59-.06.89.29-.08.65-.08.87-.26,3.3-2.61,6.43-5.41,9.02-8.75,1.93-2.49,3.75-5.06,5.62-7.59,1.6-2.16,3.07-4.47,5.98-5.12.58-.13.27-.57.01-.67-2.28-.9-4.59-1.63-7.03-.54-1.61.72-3.19,1.56-4.85,2.15-1.52.54-3.14.82-4.71,1.21ZM19.9,151.24c.66-.13,1.32-.1,1.97-.13.72-.04,1.46-.05,2.16-.2,1.15-.25,2.35-.44,3.38-.96,2-.99,2.05-3.13.08-4.12-2.49-1.25-5.18-1.85-7.99-1.72-1.77.08-3.54.29-5.3.27-1.9-.01-3.8-.2-5.7-.33-1.09-.08-2.13-.07-2.76,1.04-1.23,2.16-1.48,4.46-.82,6.84.09.32.61.76.89.74,1.5-.13,3.18-.02,4.45-.68,2.08-1.08,4.14-1.03,6.29-.9,1.11.07,2.23.11,3.34.16ZM254.79,126.78c.03-2.99-1.19-4.03-3.68-3.31-1.49.43-3.02.98-4.32,1.8-3.38,2.15-6.69,4.43-9.95,6.76-1.71,1.22-3.28,2.63-4.86,4.02-.53.47-.97,1.09-1.29,1.72-.39.78,0,1.45.88,1.59.44.07.95.06,1.35-.11,1.51-.61,3.08-1.14,4.45-2,3.17-1.99,6.25-4.12,9.32-6.27,1.78-1.24,3.76-1.45,5.8-1.39,1.72.06,1.73.15,2.07-1.46.12-.57.18-1.16.21-1.36ZM232.16,147.26c1.18-.33,2.35-.53,3.42-.98,5.34-2.24,10.32-5.17,15.19-8.26.42-.26.85-.66,1.04-1.09.59-1.31,1.06-2.69,1.59-4.02.35-.88-.12-1.24-.87-1.35-.44-.06-.92-.03-1.36.05-1.78.33-3.33,1.13-4.72,2.3-2.67,2.25-5.54,4.18-8.64,5.8-2.58,1.35-4.77,3.25-6.6,5.52-.29.37-.58,1.05-.43,1.38.16.34.86.44,1.37.66ZM134.59,199.68c.05.18.12.5.21.81.58,2.15,1.23,4.27,1.73,6.44.66,2.87,1.13,5.78,1.79,8.64,1.15,4.98,2.41,9.93,3.58,14.9.5,2.11.9,4.23,1.38,6.34.45,2,.76,2.12,2.66,1.31.78-.33,1.08-.65.77-1.61-.69-2.18-1.2-4.43-1.74-6.66-1.33-5.54-2.53-11.12-3.97-16.63-.82-3.16-2.04-6.22-2.99-9.35-.53-1.75-.85-3.57-1.31-5.35-.06-.25-.33-.61-.53-.63-.8-.06-1.61.83-1.58,1.78ZM235.74,155.16c.56-.18,1.62-.37,2.54-.83,4.67-2.36,8.8-5.48,12.33-9.34.65-.71,1.12-1.62,1.52-2.51.42-.9.69-2.02-.14-2.74-.79-.69-1.57.16-2.28.58-3.88,2.32-7.87,4.51-11.6,7.06-1.79,1.22-3.3,3-4.56,4.8-1.16,1.67-.26,2.99,2.18,2.99ZM18.11,152.58c-3.21.4-6.46.78-9.71,1.21-.91.12-1.8.35-2.69.58-.54.14-1.01.42-.81,1.11.58,2.01,1.14,4.02,1.79,6,.15.45.74,1.15.94,1.1.5-.15,1.03-.58,1.29-1.04.83-1.47,2.06-2.4,3.65-2.76,2.11-.47,4.24-.85,6.38-1.16,2.2-.32,4.43-.47,6.63-.8.94-.14,2.3-.28,2.32-1.4.03-1.19-1.36-1.41-2.32-1.79-.12-.05-.25-.07-.38-.08-2.34-.32-4.67-.63-7.09-.96ZM10.61,136.84c-.76,0-1.35-.01-1.94,0-.66.02-1.32.02-1.97.09-1.83.19-2.91,1.03-3.29,2.85-.27,1.33-.25,2.72-.31,4.09,0,.19.23.39.36.59.15-.1.37-.17.45-.32,1.2-2.05,3.19-2.41,5.28-2.31,2.94.15,5.88.41,8.81.67,2.24.2,4.47.34,6.56-.69.47-.23,1.12-.75,1.12-1.13,0-.43-.57-.99-1.04-1.26-.73-.42-1.55-.71-2.37-.93-3.88-1.02-7.83-1.54-11.68-1.66ZM93.67,196.58c-.09-1.68-.36-1.95-2.27-2.49-.78-.22-1.1-.04-1.14.76-.05,1.25-.08,2.49-.19,3.73-.29,3.26-.53,6.54-.97,9.78-.49,3.56-1.18,7.1-1.79,10.65-.11.65-.28,1.28-.36,1.93-.01.1.34.38.43.34.43-.16.84-.38,1.22-.62,1.28-.81,2.92-1.36,2.36-3.47-.1-.38.24-.87.35-1.31.26-1.02.62-2.02.73-3.05.57-5.41,1.08-10.83,1.61-16.24ZM19.17,160.93c-3.87.24-7.21.86-10.2,2.71-1.87,1.16-2.17,2.74-.8,4.47.81,1.03,1.68,2.03,2.65,2.9.87.79,1.9,1.4,2.88,2.06.68.46.98.12.92-.58-.08-.91-.24-1.82-.33-2.73-.07-.69-.06-1.17-1.1-1.12-.99.05-1.28-.93-.51-1.63.52-.47,1.19-.83,1.84-1.09,1.77-.71,3.57-1.32,5.34-2.01.73-.29,1.46-.62,2.1-1.05.67-.45.62-1.04-.15-1.3-.98-.34-2.02-.48-2.65-.62ZM249.28,159.18c.18.93.34,2.23.7,3.48.29,1.03.91,1.15,1.78.51.26-.19.51-.42.71-.67,2.73-3.5,2.83-9.69-1.23-12.95-1.53-1.23-1.99-1.21-3.54.05-.41.33-.8.69-1.24.97-.81.53-.74,1.16-.26,1.83.26.37.68.63.94.99,1.17,1.63,2.75,3.09,2.13,5.8Z"/>
      <path class="cls-10" d="M45.85,26.29c2.31.51,4.61,1.06,6.92,1.53,6.3,1.29,12.64,2.39,18.89,3.86,4.72,1.11,9.36,2.58,13.98,4.06,3.31,1.06,6.54,2.39,9.8,3.59,1.22.45,1.22.43,1.4-.91.27-1.95.52-3.91.84-5.85.56-3.33,1.65-6.48,3.42-9.39,1.09-1.8,2.19-3.6,3.17-5.46,2.63-4.95,6.73-8.36,11.5-11.06,4.71-2.67,9.67-4.81,14.94-6,7.51-1.7,14.45-.07,20.78,4.28,2.98,2.05,6.09,3.92,9.02,6.04,2.12,1.53,4.12,3.27,6.02,5.06,1.37,1.29,2.53,2.82,3.75,4.27.97,1.16,2.02,1.96,3.68,1.85,1.42-.1,2.72.5,3.8,1.4,1.78,1.49,3.38,3.15,4.1,5.44.21.65.51.88,1.17,1.08,1.3.4,2.6.92,3.78,1.6.8.47,1.44.62,2.35.36,6.44-1.81,12.91-3.54,19.36-5.3.19-.05.4-.24.55-.19.4.14.96.29,1.1.59.13.29-.09.95-.37,1.15-.52.36-1.18.55-1.81.72-5.38,1.45-10.76,2.91-16.16,4.32-10.61,2.77-21.17,5.66-31.3,9.94-9.39,3.98-18.53,8.47-27.4,13.49-1.14.64-2.28,1.74-3.43,1.76-1.04.01-2.08-1.18-3.13-1.83-3.63-2.25-7.25-4.52-10.91-6.72-1.01-.6-2.13-1.01-3.22-1.47-4.04-1.71-8.11-3.38-12.14-5.12-9.43-4.07-19.19-7.12-29.04-9.99-6.57-1.91-13.22-3.33-19.95-4.47-1.75-.3-3.53-.4-5.29-.59-.13-.01-.26-.03-.39-.04-.81-.07-1.79-.19-1.65-1.22.13-.95,1.09-.7,1.83-.78ZM126.66,49.96c0,1.12.04,2.24,0,3.35-.03.75.23,1.25.89,1.59.46.24.93.52,1.32.86.66.58,1.24.47,1.95.06,2.97-1.68,5.98-3.3,8.96-4.96.3-.17.52-.48.78-.72-.34-.17-.68-.35-1.02-.5-.89-.39-1.88-.65-2.67-1.18-1.8-1.22-1.96-3.18-.4-4.7.64-.63,1.42-1.25,2.26-1.53,2.22-.75,4.51-1.31,6.77-1.94.9-.25,1.81-.46,2.71-.68-.74-.4-1.48-.8-2.22-1.2-.4-.22-.78-.53-1.21-.65-.61-.17-1.3-.39-1.89-.26-2.88.63-5.75,1.36-8.33,2.9-.28.17-.57.39-.87.44-.27.04-.73-.05-.83-.23-.11-.21-.02-.66.16-.86.29-.34.67-.64,1.08-.84,1.76-.87,3.55-1.69,5.33-2.53.41-.19.82-.39,1.23-.58-.34-.34-.65-.73-1.03-1.02-5.8-4.5-12.35-8.08-17.14-13.83-.49-.58-1-.44-1.59-.24-3.01,1.03-5.74,2.55-8.09,4.69-4.44,4.03-8.52,8.4-11.8,13.45-.45.69-1.87,1.12-1.24,2.09.42.65,1.59.81,2.44,1.18.55.24,1.01.22,1.31-.41.65-1.4,1.94-1.73,3.29-1.75,3.33-.04,6.56.57,9.46,2.26,2.8,1.63,4.57,3.99,4.11,7.44-.13.97.25,1.52.98,1.92.69.38,1.41.7,2.14,1.01,1.11.47,1.26.4,1.36-.75.15-1.77.25-3.54.39-5.31.04-.55-.16-1.38.73-1.33.79.04.69.83.7,1.4.02,1.12,0,2.23,0,3.35ZM110.27,13.19c.74-.37,1.42-.72,2.11-1.04,6.63-3.05,13.37-5.44,20.88-4.27,3.41.53,6.74,1.35,9.63,3.22,3.86,2.5,7.63,5.14,11.27,7.95,3.51,2.71,5.88,6.33,7.17,10.61.09.31.21.61.31.91.21-.23.49-.43.62-.7,1.39-3.04,3.49-5.4,6.52-6.86.77-.37.54-.72.16-1.18-3.41-4.2-7.22-8.01-11.41-11.42-4.51-3.67-9.8-5.83-15.33-7.41-1.74-.5-3.61-.66-5.43-.75-3.64-.19-7.17.59-10.69,1.42-6.21,1.46-11.26,4.89-15.81,9.19-.03.03,0,.12,0,.32ZM159.41,29.66c-.32-.7-.5-1.19-.75-1.65-5.3-9.85-13.59-15.67-24.45-17.82-2.67-.53-5.52-.65-8.23-.35-7.5.82-14.13,3.91-20.02,8.57-.76.6-1.35,1.42-1.97,2.18-.19.23-.22.59-.32.89.3-.01.63.05.9-.05,5.42-2.09,10.99-3.41,16.82-3.79,4.65-.3,9.2.16,13.58,1.61,4.17,1.38,8.27,3.01,12.3,4.77,3.84,1.68,7.54,3.69,11.31,5.54.19.09.45.05.83.09ZM126.15,19.61c-.15,0-.21,0-.28,0-.44.06-.89.12-1.33.18.22.38.36.83.66,1.13,2.35,2.3,4.67,4.64,7.13,6.82,4.69,4.14,10.35,6.68,15.89,9.41,2.97,1.46,6.22,2.04,9.43,2.73.61.13,1.46.34,1.71.78.83,1.49,1.84,1.09,2.98.57.6-.27,1.24-.44,1.85-.69,1.41-.56,1.28-.51.55-1.92-1.15-2.22-3.79-3.17-4.65-5.6-.05-.15-.3-.24-.47-.34-2.05-1.16-4.1-2.33-6.16-3.48-1.83-1.03-3.75-1.92-5.51-3.06-6.66-4.35-14.21-5.62-21.8-6.52ZM181,30.22c-.21-.52-.47-1.54-1-2.41-2.34-3.91-7.64-4.59-11.29-2.47-2.7,1.56-4.27,4.04-5.18,6.95-.16.51-.13,1.22.11,1.69.73,1.47,1.61,2.87,2.41,4.3.52.94,1.19,1.3,2.25.81.77-.35,1.61-.56,2.42-.84,2.82-.97,3.01-1.5,1.43-4.09-.03-.06-.07-.11-.1-.17-.42-.75-.89-.69-1.34-.06-.54.74-1.03,1.53-1.6,2.25-.21.26-.61.36-.93.53-.07-.35-.31-.8-.18-1.04,1.26-2.26,2.86-4.26,4.88-5.89.22-.18.71-.04,1.07-.05-.05.35.01.9-.18,1.01-1.54.87-1.11,1.96-.47,3.13.19.34.29.73.42,1.1.75,2.02.75,2.03,2.79,1.23.55-.21,1.11-.44,1.59-.77,1.64-1.13,2.78-2.59,2.91-5.22ZM98.88,36.03c.15.74.22,1.05.28,1.36.23-.19.49-.35.68-.58.71-.85,1.36-1.76,2.11-2.59,2.99-3.31,5.95-6.65,9.03-9.88,1.17-1.22,2.64-2.15,3.96-3.22.14-.12.22-.31.33-.47-.23-.05-.47-.18-.68-.14-3.9.88-7.74,1.97-11.37,3.68-.81.38-1.48.83-1.72,1.74-.91,3.48-1.81,6.96-2.62,10.08ZM147.91,41.96c-2.75.12-5.33.79-7.84,1.8-.72.29-1.42.71-2,1.22-.32.28-.65,1.1-.5,1.27.45.51,1.1.86,1.73,1.15.11.05.66-.51.74-.85.54-2.11,4.25-3.56,6.26-2.68.62.27,1.26.73,1.65,1.28.92,1.26.87,1.31,2.04.34.5-.42,1-.86,1.42-1.36.62-.75.5-1.32-.45-1.62-.98-.31-2.03-.37-3.05-.53ZM108.25,42.1c-.66,0-1.32-.06-1.96.03-.32.04-.81.3-.87.55-.07.28.18.83.44.95,1.06.51,2.16.92,3.27,1.3.23.08.61-.11.85-.27,1.72-1.13,3.29-1.26,4.86-.08,1.22.91,2.66,1.76,2.51,3.7-.07.91.79,1.03,1.38.98.76-.06.57-.77.45-1.25-.47-1.88-1.51-3.33-3.34-4.12-2.42-1.04-4.91-1.82-7.59-1.79ZM154.39,44.16c1.31-.52,2.58-1.02,3.83-1.55.03-.01-.08-.66-.21-.7-.68-.2-1.39-.31-2.1-.42-.82-.12-1.65-.2-2.47-.3.16.73.33,1.47.48,2.2.03.13,0,.28.06.38.09.14.24.23.41.39ZM185.76,32.62c-.99-.46-1.83-.91-2.71-1.23-.84-.3-.93.4-1.09.98-.14.5-.36.98-.55,1.46-.19.51-.07.79.5.6,1.11-.37,2.21-.78,3.3-1.2.14-.05.23-.25.54-.6Z"/>
      <path class="cls-10" d="M224.63,30.37c.15.1.43.3.71.5-.29.21-.55.54-.87.62-2.68.64-5.38,1.17-8.05,1.85-11.57,2.91-23.21,5.53-34.57,9.22-6.3,2.05-12.66,3.94-18.94,6.07-8.78,2.98-17.28,6.66-25.49,10.98-.76.4-1.53.75-2.29,1.15-.62.32-1.18.32-1.5-.35-.32-.66.06-1.14.63-1.46.34-.2.72-.33,1.07-.51,6.84-3.55,14.09-6.13,21.3-8.76,10.04-3.67,20.11-7.31,30.25-10.69,8.27-2.76,16.78-4.72,25.33-6.43,3.86-.77,7.74-1.4,11.61-2.08.19-.03.39-.05.8-.1Z"/>
      <path class="cls-10" d="M40.75,35.76c.38.09.64.13.89.22,6.73,2.31,13.72,3.39,20.69,4.68,7.15,1.32,14.24,3.02,21.28,4.83,7.37,1.9,14.69,3.99,21.94,6.28,5.19,1.64,10.23,3.75,15.34,5.66.49.18.96.42,1.44.63.62.27,1.02.7.71,1.38-.31.7-.98.62-1.54.39-1.09-.45-2.17-.95-3.21-1.49-5.22-2.73-10.92-4.12-16.5-5.85-12.42-3.84-25.06-6.77-37.74-9.6-7.48-1.66-14.89-3.63-22.34-5.47-.38-.09-.78-.18-1.11-.38-.23-.15-.5-.51-.47-.72.04-.23.42-.4.6-.55Z"/>
      <path class="cls-10" d="M68.98,126.18c2.65.25,5.98.59,9.31.88,2.49.21,4.98.34,7.47.54,1.24.1,2.48.25,3.72.43.18.03.45.35.43.51-.02.18-.31.46-.5.47-.98.02-1.99.08-2.95-.06-6.94-1.01-13.92-.85-20.88-.63-4.98.15-9.96.67-14.77,2.12-.13.04-.25.1-.38.11-.74.08-1.57.16-1.72-.81-.12-.79.54-1.18,1.21-1.3,3.16-.57,6.31-1.22,9.49-1.6,2.93-.36,5.89-.42,9.55-.65Z"/>
      <path class="cls-10" d="M8.28,112.64c.31.09.49.15.68.2,2.9.82,5.83,1.55,8.69,2.49,5.62,1.86,11.08,4.09,16.13,7.25,2.23,1.4,4.56,2.62,6.82,3.96.52.31,1.5.61,1.04,1.38-.47.79-1.16.04-1.66-.29-6.27-4.09-13.38-6.37-20.2-9.27-2.95-1.26-5.93-2.47-8.91-3.68-.85-.34-1.75-.54-2.61-.87-.18-.07-.36-.41-.36-.62,0-.19.25-.38.38-.55Z"/>
      <path class="cls-10" d="M224.62,122.54c-.76.08-1.25-.62-.99-1.24.2-.47.53-.91.89-1.28,2.5-2.51,4.89-5.16,7.58-7.44,3.98-3.39,8.66-5.65,13.62-7.26.35-.11,1.04-.04,1.15.18.35.64-.23.87-.73,1.09-7.97,3.45-14.53,8.82-20.47,15.04-.35.37-.78.67-1.05.91Z"/>
      <path class="cls-10" d="M182.45,114.95c2.39.41,5.18.85,7.95,1.36,5.29.98,10.58,1.98,15.87,3,1.74.34,3.47.72,5.17,1.17.29.08.46.61.68.93-.34.07-.73.29-1.03.2-5.56-1.67-11.32-2.26-17.02-3.18-2.66-.43-5.36-.56-8.03-.89-1.56-.19-3.11-.49-4.66-.72-.68-.1-1.42-.19-1.3-1.1.12-.89.91-.78,1.56-.78.13,0,.26,0,.79,0Z"/>
      <path class="cls-10" d="M136.53,63.93c-.26-.19-.63-.33-.72-.57-.08-.23.04-.72.23-.83.67-.38,1.39-.72,2.13-.96,7.31-2.35,14.63-4.66,21.94-7,1.88-.6,3.74-1.23,5.61-1.85.44-.14.89-.4,1.32-.37.37.02.83.3,1.04.61.1.15-.18.77-.44.92-.5.29-1.09.44-1.66.58-7.85,1.9-15.54,4.36-23.16,7.02-1.73.6-3.43,1.31-5.15,1.97-.36.14-.72.3-1.15.49Z"/>
      <path class="cls-10" d="M185.1,120.7c-1.11,0-2.23.05-3.34-.02-.78-.05-1.57-.18-2.3-.44-.32-.12-.62-.64-.66-1.01-.03-.2.46-.55.78-.69.28-.12.65-.07.97-.04,2.93.24,5.87.48,8.79.78.32.03.6.49.91.74-.34.23-.67.64-1.02.66-1.37.08-2.75.03-4.12.03,0,0,0-.01,0-.02Z"/>
      <path class="cls-10" d="M120.77,61.68c.03,1.04-.59,1.44-1.53,1.17-1.82-.5-3.64-1.06-5.44-1.62-.94-.29-1.87-.61-2.76-1-.28-.12-.41-.56-.61-.85.33-.14.69-.45.97-.39,2.81.6,5.62,1.25,8.4,1.95.42.11.76.57.98.75Z"/>
      <path class="cls-10" d="M14.19,122.01c-.78-.28-1.54-.59-2.33-.83-.59-.18-1.22-.35-1.1-1.11.11-.72.73-.9,1.36-.79,1.79.31,3.59.62,5.36,1.05.37.09.85.71.84,1.08,0,.3-.62.68-1.03.86-.33.15-.77.06-1.16.08-.63-.1-1.31-.24-1.99-.38l.06.03Z"/>
      <path class="cls-10" d="M109.26,34.01c4.36.22,8.41.88,12.14,2.85.35.18.76.32,1.01.59.27.29.41.72.6,1.08-.4.07-.83.27-1.19.18-2.78-.73-5.51-1.73-8.33-2.2-2.29-.39-4.69-.27-7.03-.15-.88.05-1.52-.02-1.63-.84-.1-.73.56-1.09,1.3-1.17,1.11-.11,2.21-.24,3.12-.35Z"/>
      <path class="cls-10" d="M48.83,94.41c.03,3.8,1.17,7.25,2.89,10.56,2.08,4.01,4.87,7.43,9.04,9.3,2.86,1.28,5.93,2.1,8.94,2.99.78.23,1.19.47,1.55,1.21.61,1.27,1.12,2.51,1.06,3.94-.03.59-.09,1.03-.83,1.05-.6.01-1.04-.11-1.03-.84,0-.33-.05-.66-.11-.98-.29-1.54-1.02-2.52-2.72-2.87-5.19-1.08-9.25-4.2-13.22-7.5-3.94-3.27-5.99-7.56-7.04-12.43-.8-3.71-.47-7.31,1.01-10.81.96-2.26,2.37-2.92,4.56-1.88,1.41.67,2.74,1.57,3.97,2.54,4.78,3.74,8.46,8.42,11.44,13.69,1.48,2.63,3.04,5.22,4.55,7.83.26.46.48.83.84.06,4.22-8.85,12.14-12.27,21.01-14.28,1.4-.32,2.84-.51,4.27-.72.51-.07,1.06-.09,1.57-.01,1.4.2,2.04.94,2.14,2.38.19,2.97-.5,5.78-1.96,8.33-4.4,7.68-10.76,12.82-19.53,14.7-1.15.25-2.32.44-3.5.53-1.01.07-1.82.23-1.9,1.46-.05.85-.67.84-1.29.83-.66,0-1-.21-.73-.95.15-.43.17-.9.29-1.35.5-1.94.79-1.98,2.84-1.99,1.61,0,3.24-.4,4.84-.73,6.52-1.38,11.76-4.72,15.63-10.19,1.94-2.75,2.96-5.84,3.43-9.13.21-1.49-.03-1.87-1.29-1.75-8.05.75-15.45,3.09-21.13,9.24-1.67,1.8-2.87,3.91-3.42,6.35-.09.38-.19.77-.36,1.12-.46.94-1.4,1.06-2.03.2-.42-.57-.67-1.27-.97-1.93-1.4-3.11-2.34-6.43-4.34-9.26-3.9-5.5-8.33-10.51-13.76-14.55-2.74-2.03-3.54-1.67-4.17,1.75-.25,1.35-.36,2.73-.53,4.09Z"/>
    </g>
  </g>
</svg>