<?xml version="1.0" encoding="UTF-8"?>
<svg id="Layer_2" data-name="Layer 2" xmlns="http://www.w3.org/2000/svg" viewBox="0 0 928.52 822.86">
  <defs>
    <style>
      .cls-1 {
        fill: #de4f4f;
      }

      .cls-2 {
        fill: #fff;
      }

      .cls-3 {
        fill: #d8906f;
      }

      .cls-4 {
        fill: #aacf6d;
      }

      .cls-5 {
        fill: #eac300;
      }

      .cls-6 {
        fill: #f5ede9;
      }

      .cls-7 {
        fill: #036ca4;
      }

      .cls-8 {
        fill: #f6ceb9;
      }

      .cls-9 {
        fill: #571010;
      }
    </style>
  </defs>
  <g id="_Layer_" data-name="&amp;lt;Layer&amp;gt;">
    <g>
      <path class="cls-8" d="M310.81,38.1c-1.05,0-37.31,29.64-38.35,56.48-1.05,26.85,4.18,51.6,9.06,58.57s7.32,9.41,7.32,9.41c0,0,4.88,8.72,3.14,14.64s-5.93,10.46-3.14,12.9c2.79,2.44,12.2,8.72,16.04,13.6,3.83,4.88,13.6,26.85,42.88,35.56,29.29,8.72,33.82,1.39,46.37,1.05s16.74.7,16.74.7c0,0,6.28-3.49,4.18-6.62-2.09-3.14-9.76-14.64-8.02-24.41,1.74-9.76,14.99-45.32,18.48-49.16,3.49-3.84,16.39-9.76,16.39-9.76,0,0,41.49-19.18,31.38-38.7-10.11-19.52-32.42-14.64-37.31-9.76-4.88,4.88-11.51,20.57-13.95,20.92-2.44.35-36.61,9.41-62.41-10.11-25.8-19.52-43.23-46.72-45.67-55.09-2.44-8.37-3.14-20.22-3.14-20.22Z"/>
      <path class="cls-2" d="M336.96,123.52c-6.98,4.19-19.52,15.69-15.69,22.66,3.83,6.97,18.48,5.93,29.64-2.44,11.16-8.37,17.43-16.39,13.6-21.27-3.84-4.88-24.06-1.05-27.54,1.05Z"/>
      <path class="cls-3" d="M310.11,33.56s-4.88,19.87,15.34,47.77c20.22,27.89,40.79,34.17,53.69,39.75,12.9,5.58,42.88,2.44,42.88,2.44,0,0,4.18-24.06,20.92-23.36s27.89.32,30.33,15.34c2.45,15.02-6.62,27.19-13.95,30.33-7.32,3.14-27.89,8.37-27.89,8.37,0,0-29.98,41.14-25.1,58.22,4.88,17.08,8.72,26.15,8.72,26.15,0,0-30.33,36.96-23.36,59.27,6.97,22.31,21.62,38,28.24,42.54,6.62,4.53,27.19,9.06,27.19,9.06,0,0,23.71-105.99,51.95-117.5,28.24-11.51,61.36-11.16,97.62,6.97,36.26,18.13,50.9,21.62,81.58,51.95,30.68,30.33,61.01,64.15,62.06,63.8,1.05-.35,25.8-9.76,34.52-40.44,8.72-30.68,8.72-50.55,3.84-62.76-4.88-12.2-14.99-19.52-21.97-22.66-6.97-3.14-34.87-6.28-34.87-6.28,0,0,5.23-20.22-7.67-38.35-12.9-18.13-36.61-20.57-36.61-20.57,0,0,7.67-10.46-2.09-31.03-9.76-20.57-33.82-48.81-59.27-59.62-25.45-10.81-63.11-4.88-72.52-4.88s-35.91-1.74-45.32-15.69c-9.41-13.95-21.96-26.85-28.59-31.03-6.62-4.18-30.33-16.04-44.63-16.39-14.29-.35-35.56-5.23-62.76,2.09-27.19,7.32-52.3,26.5-52.3,26.5Z"/>
      <path class="cls-6" d="M325.45,26.94c1.74-.7,44.28-4.18,68.34,27.19,24.06,31.38,33.12,52.99,33.12,52.99,0,0,6.97-5.93,16.04-6.97,9.07-1.05,20.22-.7,19.52-2.79-.7-2.09.35-21.62-8.02-39.4-8.37-17.78-43.23-54.39-44.28-54.39s-22.66-1.39-45.67,4.18c-23.01,5.58-27.89,2.44-33.47,9.06-5.58,6.62-5.58,10.11-5.58,10.11Z"/>
      <path class="cls-5" d="M299.3,546.78s9.76,13.6,23.36,23.36c13.6,9.76,23.71,12.55,23.71,12.55l20.22-24.75s23.36,27.54,34.87,37.31c11.51,9.76,27.19,16.74,27.19,16.74,0,0,46.37-42.88,76.01-92.39,29.64-49.51,31.03-53.34,31.03-53.34,0,0,23.01,16.74,66.24,16.39,43.23-.35,88.91-21.62,105.29-28.24,16.39-6.62,46.37-28.94,52.65-33.82s10.11-10.81,6.62-21.62c-3.49-10.81-8.72-26.85-26.15-44.28s-66.94-71.47-78.8-79.49-58.22-43.58-74.61-43.93c-16.39-.35-51.25-9.76-66.59-5.58-15.34,4.18-26.5,5.23-35.91,22.31-9.41,17.08-21.62,38.7-24.75,54.74-3.14,16.04-12.2,46.37-13.6,47.77-1.39,1.39-18.48-2.44-30.33-16.39-11.85-13.95-22.31-28.24-22.31-28.24,0,0-36.61,85.42-43.93,102.85-7.32,17.43-50.21,138.07-50.21,138.07Z"/>
      <path class="cls-7" d="M570.21,482.28c.7,1.39,18.48,29.29,11.51,33.47-6.97,4.18-54.39,5.23-59.62,6.97-5.23,1.74-21.62,5.58-21.62,5.58,0,0-69.38,88.91-85.07,107.73-15.69,18.83-67.99,74.96-86.12,90.3-18.13,15.34-36.26,29.29-36.26,29.29,0,0,9.76,17.43,35.21,27.19,25.45,9.76,43.93,11.51,65.9,11.51h31.73s67.64,18.83,101.46,22.31c33.82,3.49,142.25-2.09,153.06-2.09s85.42-.7,85.42-6.28-17.08-86.47-17.08-86.47c0,0,49.86-17.08,63.45-34.52,13.6-17.43,17.08-50.21,15.69-80.89-1.39-30.68-17.08-64.15-24.41-78.1-7.32-13.95-63.45-90.65-63.45-90.65,0,0-51.25,36.61-95.88,40.79-44.63,4.18-73.91,3.84-73.91,3.84Z"/>
      <path class="cls-8" d="M774.86,715.87s25.1,27.54,34.87,32.42c9.76,4.88,11.51,4.53,19.87,17.78,8.37,13.25,48.11,50.55,46.72,49.86-1.39-.7-54.04-.7-69.73-3.49-15.69-2.79-41.49-6.97-41.84-8.02s-19.52-82.63-19.52-82.63l29.64-5.93Z"/>
      <path class="cls-9" d="M780.79,709.6c8.08-4.57,22.66-19.18,29.98-15.34,7.32,3.84,19.87,20.57,27.89,33.82,8.02,13.25,31.03,46.37,44.28,53,13.25,6.62,45.32,27.89,44.28,33.12-1.05,5.23-2.44,5.58-10.81,4.88-8.37-.7-37.31-2.79-37.31-2.79,0,0-25.8-19.52-32.42-27.89s-24.06-33.82-29.29-36.26c-5.23-2.44-17.43-10.46-24.41-18.83-6.97-8.37-18.13-17.43-18.13-17.43,0,0-2.09-1.74,5.93-6.28Z"/>
      <path class="cls-9" d="M78.61,712.74c-12.35,4.12-24.75,1.39-32.42,8.37-7.67,6.97-23.01,20.57-27.19,34.52-4.18,13.95-14.99,19.52-4.18,24.75,10.81,5.23,49.51,9.07,61.71,12.9,12.2,3.83,52.65,8.72,74.96,8.72s80.19-3.14,89.25-4.18c9.07-1.05,15.69-3.49,15.34-14.64-.35-11.16-4.18-27.19-10.81-40.79-6.62-13.6-67.64-58.22-71.12-58.22s-43.23-1.39-56.48,2.79c-13.25,4.18-18.83,4.53-23.71,11.16-4.88,6.62-13.25,13.95-15.34,14.64Z"/>
      <path class="cls-8" d="M299.3,546.78s-45.67,82.28-55.09,94.83c-9.41,12.55-25.45,28.24-25.45,28.24,0,0-45.32-14.64-57.88-12.9s-41.14,7.32-51.6,18.13c-10.46,10.81-10.46,18.13-10.46,18.13l26.5-8.37s-4.88,11.85-3.49,13.25-9.07,8.72-9.07,13.6,6.62,10.11,6.62,10.11c0,0,4.53,14.29,6.97,14.99s19.52-.7,31.03-2.79c11.51-2.09,24.06,3.83,24.06,3.83,0,0-31.03,8.02-35.21,12.9-4.18,4.88-13.25,14.64-5.93,16.74,7.32,2.09,20.22.7,30.33-2.44,10.11-3.14,45.32-10.11,49.86-10.11s48.81,5.93,53.69,5.23c4.88-.7,35.91-19.18,48.81-31.73,12.9-12.55,61.01-55.78,67.29-62.76,6.28-6.97,38.35-50.55,38.35-50.55,0,0-28.94-18.48-34.87-26.5s-27.19-30.68-27.19-30.68l-18.83,27.19s-27.2-13.25-32.42-21.27c-5.23-8.02-16.04-17.08-16.04-17.08Z"/>
      <path class="cls-4" d="M130.91,522.72s-19.87,3.84-29.64-10.11c-9.76-13.95-16.04-29.98-18.13-29.98s-35.21,4.18-43.23-9.06c-8.02-13.25-1.74-31.03-4.18-35.21-2.44-4.18-19.87-21.27-24.06-35.91-4.18-14.64-9.41-57.18-2.79-66.24,6.62-9.07,40.79-21.97,40.79-24.75s-4.53-18.48-4.18-26.85c.35-8.37,20.57-19.52,21.62-25.1,1.05-5.58.7-38,3.84-43.93,3.14-5.93,22.66-26.15,36.96-33.82s36.96-11.85,56.48-2.79c19.52,9.06,28.94,28.59,31.38,35.56s1.05,19.87,1.05,19.87c0,0,10.11-7.67,27.89-7.67s39.4,14.29,44.28,29.98c4.88,15.69,0,24.41,2.44,23.71,2.44-.7,18.83,1.39,24.75,3.84s24.75,24.41,25.8,36.61c1.05,12.2,2.44,8.72-2.79,20.92-5.23,12.2-14.99,23.71-14.99,23.71,0,0,9.07,8.37,6.28,24.75-2.79,16.39-9.06,31.03-12.9,35.56-3.84,4.53-5.93,5.93-5.93,6.97s-.7,28.59-5.23,37.31c-4.53,8.72-13.6,27.54-23.01,32.42-9.41,4.88-21.97,8.37-28.24,8.37s-19.87-3.49-19.87-2.44-3.14,23.01-17.43,26.5-22.66,4.88-30.33,1.39c-7.67-3.49-19.87-6.62-19.87-6.62l-16.74-6.97Z"/>
      <path class="cls-3" d="M130.56,493.78c3.1,5.85,3.84,27.54,5.23,34.52,1.39,6.97,2.79,64.85,1.39,82.63-1.39,17.78-8.01,69.52-4.18,68.34,3.83-1.19,17.43,1.05,17.43-2.09s2.79-46.37,1.39-57.53c-1.39-11.16.35-78.1.7-85.07.35-6.97.35-47.77,2.79-52.3s18.83-19.18,27.19-24.06c8.37-4.88,48.11-32.08,52.99-32.08s18.83,1.05,18.83,1.05c0,0,8.02-13.25,6.97-13.25s-21.27-6.28-20.92-13.25c.35-6.97,3.14-21.27,3.14-21.27l-17.43-.35s-1.74,22.66-6.28,31.38-9.41,14.99-17.08,20.22c-7.67,5.23-43.58,20.22-43.93,15.34-.35-4.88,1.05-53.69,1.05-53.69l-25.1,16.04s4.18,55.09,0,56.13c-4.18,1.05-13.25-5.93-17.08-8.72-3.84-2.79-27.89-22.66-27.89-22.66,0,0-6.28,4.88-5.93,8.02.35,3.14,5.93,12.2,5.93,12.2,0,0,37.65,34.52,40.79,40.44Z"/>
      <path class="cls-1" d="M196.8,104.69c2.12-1.59,2.79-19.52,5.58-22.31,2.79-2.79,5.58-10.11,9.41-5.58,3.84,4.53,7.32,15.69,8.72,32.77,1.39,17.08,1.05,35.91-4.53,35.91s-31.03-9.41-40.1-20.57c-9.06-11.16-16.39-25.8-12.9-28.59,3.49-2.79,29.64,11.51,33.82,8.37Z"/>
      <path class="cls-9" d="M177.84,806.6c-6.27-.49-13.81-1.28-21.37-1.61-11.7-.52-23.43-1.08-35.13-.98-13.73.12-26.81-3.52-40.1-5.97-16.69-3.08-33.34-6.37-49.96-9.79-4.93-1.01-9.82-2.46-14.52-4.25-5.7-2.18-7.69-5.47-6.65-11.29,4.53-25.38,18.02-44.52,41.12-56.13,5.11-2.57,11.48-3.14,17.34-3.57,5.67-.42,10.21-2.13,13.93-6.37,2.12-2.42,4.3-4.81,6.71-6.94,2.81-2.49,5.08-4.91,5.36-9.09.16-2.32,1.72-4.82,3.28-6.72,7.69-9.38,16.78-16.99,28.58-20.69,3.17-1,5.11-2.13,5.17-5.96.18-11.69.82-23.37,1.1-35.06.53-22.06.98-44.11,1.35-66.17.14-8.27.11-16.56-.16-24.83-.19-5.72-1.09-6.64-6.47-6.25-19.89,1.44-31.58-9.82-40.17-25.77-1.83-3.39-2.86-7.25-3.97-10.98-.63-2.11-1.3-3.08-3.77-2.57-7.8,1.62-15.6.63-23.26-.93-11.23-2.28-19.52-8.31-21.89-20.11-1.06-5.3-1.37-10.88-1.11-16.29.2-4.14,0-7.62-3.06-10.71-18.2-18.39-25.18-41.69-28.67-66.42-.92-6.55-1.6-13.22-1.52-19.82.12-9.65,4.54-17.69,11.26-24.43,8.29-8.31,17.98-14.2,29.55-16.82,4.73-1.07,4.63-1.14,3.36-5.85-1.07-3.98-1.71-8.09-2.9-12.03-2.18-7.24.1-13.27,5.14-18.22,4.58-4.49,9.56-8.62,14.68-12.47,3.08-2.32,4.27-4.79,4.28-8.66.02-8.94.29-17.9,1.06-26.8.74-8.69,4.59-16.38,9.95-23.12,13.21-16.62,30.04-28.04,51.14-31.29,30.96-4.77,60.94,10.34,70,40.23.86,2.85,1.6,5.76,2.03,8.7.89,6.08.8,6.15,6.33,4.25,28.33-9.71,59.87,8.53,66.21,37.21.98,4.41.66,9.12.84,13.7.09,2.29.84,3.37,3.37,2.84,2.01-.42,4.12-.38,6.17-.62,6.74-.8,12.96.92,18.21,4.93,17.22,13.19,26.23,30.48,24.4,52.47-.35,4.18-2.18,8.5-4.29,12.2-2.6,4.54-6.06,8.63-9.43,12.68-3.65,4.36-3.33,4.05-1.24,9.04,1.82,4.36,3.35,9.2,3.42,13.85.16,11.27-.84,22.58-6.12,32.83-2.28,4.42-5.34,8.63-8.79,12.22-2.97,3.09-4.04,5.99-3.94,10.3.49,21.5-5.91,40.92-20.22,57.05-13.85,15.61-31.25,23.07-52.45,19.08-2.66-.5-3.58.11-4.34,2.65-4.54,15.1-15.87,22.06-30.55,24-7.68,1.02-15.53.91-23.07-2.21-5.22-2.16-8.43.18-8.41,5.84.03,7.81.73,15.63.53,23.43-.38,14.45-1.21,28.88-1.84,43.33-.58,13.53-1.13,27.07-1.72,40.6-.15,3.45,1.68,4.12,4.74,4.11,8.97-.03,17.93.1,26.9.34,10.65.29,21.14,1.49,30.49,7.21,2.67,1.63,4.66,1.21,6.59-1.11,7.07-8.46,15.24-16.22,21.11-25.45,21.45-33.73,43.03-67.43,58.83-104.39,11.74-27.47,21.82-55.53,31.64-83.74,11.62-33.36,22.48-67.03,36.99-99.33,5.08-11.31,10.25-22.57,15.51-33.79,2.98-6.37,4.4-12.54,2.64-19.83-4.22-17.47,2.61-32.41,12.39-46.35.92-1.31,2.05-2.48,2.97-3.81,1.04-1.51.69-2.73-1.26-2.66-2.73.1-5.54.18-8.14.92-15.83,4.5-31.3,2.98-46.64-2.32-9.99-3.45-18.25-9.64-26.08-16.42-3.81-3.29-7.34-7-10.54-10.89-5.24-6.37-10.25-12.47-18.23-16.14-7.55-3.46-8.25-7.14-5.48-15.39,2.09-6.23,2.06-11.6-2.1-17.35-14.12-19.5-17.72-41.95-17-65.4.1-3.41.39-6.96,1.42-10.18,5.35-16.81,10.12-33.9,22.16-47.64,2.08-2.37,3.08-5.74,5.29-7.93,4.21-4.19,8.55-8.46,13.51-11.66,15.82-10.21,33.09-16.9,51.86-19.29,10.24-1.31,20.48-2.66,30.76-3.55,4.27-.37,8.81-.19,12.93.89,4.06,1.07,7.98,1.51,12.12,1.35,23.07-.86,42.74,7.29,59.36,22.99,5.34,5.04,10.43,10.4,15.13,16.04,12.1,14.53,27.28,21.93,46.32,21.57,12.87-.24,25.75-.05,38.63.07,17.55.17,33.97,4.55,49.42,13,23.61,12.91,41.04,31.54,52.49,55.78,3.68,7.79,5.91,16.04,4.36,24.72-.67,3.73.57,5.04,3.96,5.49,19.94,2.6,30.71,15.08,35.44,33.6,1,3.9.71,8.17.75,12.27.02,2.04-.63,4.08-.86,6.14-.69,6.08-.54,5.98,5.42,6.4,5.92.42,11.9.97,17.69,2.2,21.85,4.64,33.68,19.26,38.7,40.14,3.16,13.13.74,26.06-2.67,38.74-1.72,6.4-4.41,12.56-6.86,18.75-5.06,12.79-13.54,22.84-24.94,30.48-1.34.9-2.6,1.93-4.02,2.66-3.33,1.72-2.71,3.63-.57,5.87,3.81,3.98,7.81,7.82,11.24,12.11,3.28,4.1,6.2,8.54,8.83,13.09,5.3,9.16,4.49,19.03,2.23,28.78-.57,2.48-2.6,4.9-4.54,6.74-4.49,4.27-9.2,8.33-14.06,12.17-5.9,4.65-6.44,7.8-1.36,13.87,4.28,5.11,8.66,10.16,13.28,14.95,13.41,13.92,23.01,30.24,31.29,47.56,6.04,12.62,12.94,24.82,19.5,37.19,8.88,16.77,16.18,34.11,16.61,53.41.24,10.52-.61,21.07-1.04,31.61-.33,7.99-.54,16-1.26,23.97-1.08,12.01-6.3,22.44-13.24,32.1-3.53,4.92-3.17,4.43,1.59,7.45,4.97,3.15,10.03,6.79,13.61,11.35,7.37,9.37,14.6,19.03,20.4,29.41,10.97,19.61,26.51,34.43,44.71,47.01,9.06,6.27,17.81,13,26.54,19.73,2.51,1.94,4.99,4.3,6.53,7.01,1.37,2.41,2.11,5.62,1.9,8.38-.37,4.78-4.37,6.59-8.99,5.21-2.99-.89-6.22-1.55-9.31-1.44-22.55.76-44.99-.04-67.37-3.16-10.67-1.49-21.47-2.1-32.2-3.19-11.2-1.14-22.38-2.38-33.58-3.57-4.64-.5-9.47-2.39-13.18,2.64-.67.91-2.99.81-4.55.85-18.15.52-36.31.7-54.44,1.53-18.58.85-37.12,2.54-55.7,3.49-33.28,1.7-66.57,3.7-99.91,1.7-5.94-.36-11.82-1.68-17.73-2.53-19.3-2.76-38.66-5.11-57.87-8.4-12.63-2.17-25.03-5.7-37.54-8.58-1.29-.3-3.29-1.03-3.84-.46-3.74,3.79-7.57,1.4-11.55.84-8.17-1.16-16.4-2.01-24.62-2.69-10.97-.92-21.97-1.59-32.96-2.31-11.96-.79-22.72-5.41-33.25-10.58-7.21-3.54-14.32-7.31-21.27-11.33-6.34-3.66-12.53-7.61-18.51-11.82-2.48-1.75-4.31-2.61-7.4-1.38-7.16,2.84-14.65,3.84-22.31,2.11-3.1-.7-4.38.11-3.43,3.48.86,3.07,1.39,6.23,2.19,9.31,1.68,6.4.67,12.5-3.12,17.69-1.71,2.34-4.92,4.43-7.76,4.96-11.27,2.1-22.62,3.98-34.02,5.1-11.64,1.14-23.38,1.29-36.42,1.94ZM125.58,668.77c-1.29.26-2.89.11-3.83.83-6.18,4.71-12.27,9.55-18.27,14.48-1.2.99-2.01,2.5-2.84,3.86-.29.48-.12,1.24-.15,1.87.63-.04,1.31.07,1.88-.13,5.16-1.85,10.33-3.7,15.43-5.7.9-.35,1.85-1.27,2.24-2.16,1.91-4.35,3.63-8.77,5.42-13.17,0,0,.12.13.12.13ZM563.75,736.73v-1.3c12.87,0,25.76-.45,38.61.11,16.68.72,32.95-2.34,49.37-4.09,10.27-1.09,20.51-2.5,30.81-3.25,15.8-1.14,31.62-2.04,47.09-5.68,18.56-4.37,36.91-9.19,53.61-19.11,12.9-7.67,22.51-17.99,29.47-31.08,8.23-15.48,9.74-32.36,10.21-49.42.06-2.16-1.06-4.35-1.68-6.52-.37-1.29-1.06-2.52-1.22-3.83-.63-5-1.06-10.03-1.66-15.03-2.94-24.58-8.83-48.31-21.08-70.07-4.61-8.2-9.12-16.54-14.62-24.13-14.16-19.52-28.88-38.64-43.28-57.99-2.27-3.05-4.04-2.9-7.29-1.1-13.05,7.21-25.96,14.85-39.62,20.72-31.73,13.62-64.87,21.57-99.66,21.07-5.26-.08-10.5-.99-15.77-1.29-4.6-.27-4.92.04-3.23,4.49,2.03,5.35,4.64,10.49,6.87,15.77,5.3,12.53,3.15,16.04-10.44,16.91-9.17.59-18.42.5-27.52,1.63-12.03,1.51-23.97,3.79-35.9,6-4.9.91-8.52,3.84-11.59,7.97-13.18,17.7-26.64,35.18-40,52.75-.83,1.1-1.76,2.13-2.43,3.32-.13.24.87,1.56,1.1,1.49,1.76-.49,3.45-1.24,5.19-1.84,19.09-6.59,38.01-13.75,57.32-19.61,27.22-8.27,54.72-15.59,82.11-23.29,4.48-1.26,4.55-1.36,1.34-4.78-1.41-1.51-2.91-2.94-4.3-4.48-.92-1.02-1.74-2.14-2.53-3.27-1.26-1.79-1.21-3.78.74-4.7,1.07-.51,3.21-.09,4.17.74,4,3.44,7.66,7.27,11.6,10.78,1.86,1.66,3.85,2.64,6.83,2.18,11.09-1.73,22.23-3.45,33.42-4.23,7.03-.49,14.2.55,21.27,1.25,2.4.24,5.48,1.15,4.6,4.66-.73,2.92-3.35,2.42-5.73,2.12-3.86-.5-7.74-.91-11.62-1.11-12.24-.65-24.33.99-36.27,3.29-34.5,6.63-68.6,15.02-101.83,26.47-23.43,8.08-46.61,16.88-69.88,25.44-5.87,2.16-11.02,5.28-15.19,10.3-22.05,26.52-44.02,53.12-68.11,77.86-1.74,1.79-3.03,4.68-3.24,7.17-.7,8.47-1.2,16.98-1.07,25.47.11,7.38,1.75,14.66,5.56,21.1,12.05,20.37,29.02,35.05,51.8,41.94,20.41,6.17,41.2,11.09,61.72,16.91,16.64,4.72,33.54,7.65,50.78,8.61,6.16.34,12.4-.38,18.53.15,27.83,2.4,55.6-.33,83.39-.92,19.5-.41,38.96-2.54,58.46-3.52,16.3-.82,32.62-1.06,48.93-1.61,4.36-.15,8.73-.39,13.08-.83,5.79-.59,5.77-.69,4.72-6.17-3.08-15.97-6.16-31.95-9.24-47.93-1.25-6.51-2.03-13.16-3.84-19.52-2.06-7.23-2.46-7.01-9.71-5.57-8.77,1.75-17.52,3.77-26.38,4.77-23.03,2.58-46.1,4.74-69.17,6.89-6.63.62-13.33,1.12-19.96.81-21.17-.99-42.28-1.13-63.33,1.7-2.72.37-5.5.36-8.25.48-14.46.64-28.93,1.24-43.39,1.92-4.89.23-9.45,1.31-13.49,4.47-1.7,1.33-4.12,2.13-6.3,2.35-3.01.31-4.47-2.6-2.79-5.16.61-.93,1.65-1.57,2.46-2.37,5.81-5.77,13.18-7.2,20.92-7.24,18.85-.1,37.7-.03,56.55-.03ZM609.23,479.48c5.99-.91,15.63-1.82,25.01-3.91,42.9-9.54,82.61-26.3,117.58-53.38,9.56-7.41,12.1-14.23,8.34-25.88-2.23-6.92-5.81-13.44-9.1-19.98-5.11-10.14-11.73-19.15-20.41-26.62-20.08-17.3-37.33-37.33-54.97-57.01-6.24-6.96-13.08-13.77-20.77-18.98-20.38-13.83-42.71-24.27-64.8-35.07-14.68-7.18-30.05-11.25-46.48-10.55-7.8.33-15.69.36-23.35,1.66-8.63,1.47-16.88,3.21-23.55,10.86-9.2,10.55-16.78,21.84-22.41,34.49-8.7,19.56-15.47,39.86-20.2,60.7-5.5,24.21-12.35,47.97-19.79,71.64-15.68,49.88-35.12,98.13-60.42,143.93-2.28,4.13-2.17,7.98.4,11.62,2.64,3.74,5.32,7.62,8.7,10.64,11.31,10.09,22.65,20.19,34.53,29.59,10.49,8.3,13,5.31,19.49-1.91,5.07-5.63,9.62-11.73,14.38-17.64,31.6-39.24,61.11-79.95,84.61-124.64,14.42-27.43,27.43-55.54,36.53-85.33,2.87-9.4,7.05-18.42,10.77-27.55.66-1.63,1.82-3.25,3.17-4.34.75-.6,2.4-.09,3.64-.08-.1,1.05.09,2.26-.36,3.12-.84,1.58-2.44,2.81-3.06,4.44-4.42,11.56-9.47,22.96-12.76,34.85-4,14.42-8.13,28.71-14.45,42.28-5.43,11.65-11.04,23.23-16.53,34.85-2.11,4.45-2.08,4.48,2.27,6.71,1.23.63,2.48,1.21,3.75,1.74,18.14,7.52,37.17,9.78,60.24,9.77ZM162.44,417.86c0,8.46.07,14.85-.02,21.23-.06,4.09,1.79,3.98,4.7,2.52,5.34-2.67,10.52-5.98,16.17-7.61,7.47-2.16,13.79-6.14,20.24-10.07,4.43-2.71,7.8-6.45,9.68-11.34,3.54-9.21,6.93-18.48,10.47-27.69,1.13-2.94.88-4.89-2.16-6.78-6.26-3.89-8.49-10.02-7.89-17.19.21-2.52.66-5.56,3.98-5.49,3.81.08,2.89,3.26,2.9,5.72.06,8.59,4.81,13.26,13.42,12.65,3.11-.22,6.18-1.49,9.18-2.55,1.48-.52,2.71-1.73,4.14-2.45,4.09-2.03,5.86-1.05,7.82,3.16,1.42,3.05,3.14,6.22,5.51,8.52,3.78,3.65,8.21,6.61,12.38,9.85,1.44,1.12,3.17,2.01,4.26,3.41.64.83.8,2.78.24,3.59-.57.82-2.39,1.36-3.46,1.11-1.74-.41-3.53-1.28-4.9-2.43-6.13-5.15-12.11-10.46-18.15-15.72-.79-.69-1.58-1.39-2.37-2.08-.6.94-1.46,1.8-1.75,2.82-1.44,5.07-2.96,10.14-3.95,15.3-.34,1.77.12,4.84,1.29,5.56,4.85,2.97,10.07,5.34,15.22,7.79,3.38,1.61,4.69-2.11,7.1-3.06,2.05-.81,3.88-1.66,5.46.62,1.7,2.46-.26,3.63-1.7,5.14-3.3,3.45-6.73,6.83-9.64,10.6-4.61,5.96-5.37,12.29-1.56,19.24,2.9,5.28,2.44,6.37-2.67,9.32-4.9,2.83-7.13,7-7.06,12.47.04,2.97.22,5.97.76,8.88.43,2.33.45,4.24-2.15,4.92-2.56.67-3.87-1.09-4.56-3.17-2.5-7.58-2.06-15.03,2.07-21.9,1.84-3.06,5.71-5.33,6.46-8.48.76-3.19-1.23-7.03-1.97-10.59-.14-.67.09-1.47-.19-2.04-.36-.72-1.06-1.8-1.62-1.8-5.18-.04-10.4-1.44-15.39,1.69-14.41,9.02-29.08,17.62-43.45,26.71-7.94,5.03-15.66,10.47-23.1,16.21-2.98,2.3-5.99,5.56-7.19,9.01-3.85,11.13-6.01,22.65-4.12,34.56.39,2.49.55,5.02.67,7.54.23,4.84.19,4.77,4.93,4.9,1.57.04,3.3.25,4.64.97,7.17,3.85,14.71,3.28,22.21,1.83,14.03-2.71,21.63-10.99,23.45-25,.64-4.95,2.19-5.79,6.88-4.18,3.65,1.26,7.36,2.8,11.14,3.15,18.98,1.76,33.61-6.3,44.23-21.47,9.99-14.28,15.33-30.29,14.22-47.96-.35-5.51,1.13-9.77,5.35-13.39,6.71-5.74,10.7-13.31,12.19-21.86,1.18-6.74,1.35-13.67,1.74-20.53.27-4.79-1.35-8.88-4.87-12.39-3.64-3.63-3.36-5.37.09-9.35,4.05-4.68,8.28-9.26,11.91-14.25,3.87-5.32,5.87-11.59,5.2-18.19-1.76-17.22-9.96-30.82-24.2-40.62-6.18-4.25-13.03-5.2-20.41-3.11-4.8,1.36-6.47-.36-5.87-5.19.11-.91.54-1.78.61-2.68.94-12.33-2.08-23.46-11.56-31.78-4.77-4.19-10.31-8-16.16-10.38-15.84-6.43-31.53-8.58-45.04,5.68-.88.93-3.77,1.08-4.87.33-.96-.65-1.48-3.48-.87-4.66,4.71-9.16,2.46-17.96-1.25-26.53-5.38-12.44-15.62-20.35-27.14-26.42-12.9-6.8-26.44-8.45-40.63-3.35-12.11,4.35-22.91,10.68-32.18,19.49-15.75,14.97-23.02,32.91-18.23,54.77,1.17,5.33-.26,9.3-5.07,12.31-4.08,2.55-7.95,5.5-11.58,8.66-7.33,6.36-8.42,11.15-4.95,20.21,1.64,4.29,3.8,8.39,5.23,12.74,1.98,6.05.04,9.03-6.19,10.47-4.02.93-8.22,1.4-12.04,2.87-16.85,6.46-27.48,17.79-28.37,36.78-.58,12.32.85,24.26,4.7,35.98,4.89,14.87,13.56,27.6,22.92,39.82,3.81,4.98,5.6,9.41,3.63,15.73-1.32,4.24-1.47,9.14-.92,13.6,1,8.08,5.44,14.09,13.43,16.78,6.43,2.17,13.05,2.51,19.72,1.09,3.14-.67,6.26-1.59,9.44-1.94,5.56-.62,7.22.27,8.42,5.63,2.95,13.2,11.3,22.51,21.78,29.94,4.34,3.07,9.85,4.81,15.08,6.22,4.7,1.27,6.09-.66,5.07-5.43-.44-2.02-1.24-4.1-1.08-6.08.55-6.64-2.85-11.17-7.04-15.75-10.7-11.69-21.08-23.68-31.58-35.54-.46-.52-.86-1.08-1.34-1.57-1.32-1.34-2.6-2.02-3.68.27-.39.83-.71,1.85-1.38,2.33-.79.56-1.93.62-2.92.9-.2-.85-.84-1.93-.54-2.52,2.61-5.11,1.09-10.27.63-15.47-.16-1.82.33-4.32,1.52-5.53,5.16-5.25,10.66-10.13,13.85-17,.28-.61,1.91-.59,2.91-.87.17,1.04.8,2.3.43,3.07-1.19,2.46-2.69,4.79-4.2,7.09-3.03,4.61-2.93,5.63,1.54,8.98,9.76,7.29,19.54,14.55,29.35,21.76,1.06.78,2.4,1.16,3.6,1.73.4-1.42,1.1-2.82,1.16-4.25.62-13.77,1.14-27.54,1.69-41.3.03-.69.12-1.38.13-2.06.03-1.73-.7-2.58-2.52-2.05-.66.19-1.36.63-1.97.53-1.43-.22-2.83-.69-4.24-1.06,1.01-.96,1.9-2.12,3.06-2.84,7.76-4.79,15.69-9.3,23.31-14.29,2.83-1.85,4.84-4.89,7.5-7.07,1.25-1.02,4.12-2.2,4.56-1.72,3.39,3.66,6.48,7.62,9.34,11.7.44.63-.46,3.18-1.21,3.43-1.2.4-3.1.02-4.15-.77-1.2-.9-1.73-2.66-2.7-3.93-.9-1.18-1.99-2.22-3-3.33-.37,1.62-1.09,3.26-1.03,4.87.28,7.81.77,15.6,1.08,21.35ZM778.17,276.01c0,.76,0,.07,0-.62.4-28.5-15.85-41.79-36.59-48.88-5.21-1.78-11.28-1.07-16.96-1.45-2.94-.19-4.33,1.49-5.59,4.04-2.01,4.09-4.25,8.19-7.07,11.74-4.22,5.29-9.33,6.52-12.4,3.75-3.26-2.93-2.94-9.13,1.61-13.57,3.2-3.12,7.2-5.81,11.32-7.5,3.79-1.55,5.74-3.62,5.73-7.46,0-4.34.1-8.74-.6-13-2.42-14.83-9.9-26.1-24.19-31.9-9.77-3.97-11.8-3.11-19.01,4.29-3.33,3.42-7.4,6.13-11.25,9.01-1.26.94-2.83,1.56-4.34,2.05-4.66,1.51-9.15.61-10.78-2.02-1.88-3.04-.56-7.52,3.32-10.95,1.2-1.06,2.48-2.1,3.89-2.84,4.26-2.24,8.39-5.07,12.95-6.31,6.14-1.66,7.83-5.68,8.19-11.11.82-12.25-2.79-23.14-10.24-32.78-11.38-14.72-25.67-26.31-40.84-36.76-17.82-12.28-37.92-15.57-59.18-13.8-9.15.76-18.38,1.54-27.52,1.14-7.48-.33-15.02-1.87-22.28-3.82-8.41-2.26-15.17-7.35-20.34-14.56-3.35-4.66-7.18-8.97-10.82-13.42-11.07-13.54-26.03-20.82-42.21-26.02-4.35-1.4-8.95-2.06-13.48-2.82-1.45-.24-3.02.3-4.54.49.75,1.09,1.38,2.29,2.27,3.26,10.33,11.22,19.22,23.4,25.89,37.2,6.65,13.75,10.94,28.15,13.2,43.25.37,2.45,1.94,5.11,3.74,6.9,8.36,8.36,10.5,18.17,5.67,28.96-3.99,8.94-10.56,15.65-19.19,20.04-5.28,2.68-11.12,4.23-16.62,6.51-2.24.93-4.99,1.98-6.18,3.83-8.34,12.92-16.74,25.91-20.45,41.1-1.24,5.07-2.31,10.58-1.57,15.61.73,4.99,3.45,9.85,6,14.37,2.8,4.96,3.09,5.88-.88,10.15-1.72,1.85-3.61,3.55-5.36,5.37-6.79,7.07-11.81,15.22-14.86,24.55-3.73,11.39-3.55,22.63,1.67,33.51,7.21,15.05,17.91,27.18,31.72,36.49,2.61,1.76,5.7,3.02,8.75,3.89,6.04,1.72,7.22.88,8.58-5.11.56-2.46.91-4.98,1.53-7.43,8.6-34.08,16.68-68.29,39.41-96.75,3.95-4.94,7.94-9,13.7-10.7,6.33-1.87,12.92-3.07,19.49-3.85,13.86-1.65,27.46,1.5,41.07,3.26,10.62,1.37,21.27,3.08,31.44,7.08,18.04,7.11,34.81,16.58,51.43,26.4,3.34,1.97,6.49,4.4,9.37,7.01,10.74,9.69,21.76,19.12,31.88,29.43,17.2,17.52,36.11,33.48,50.4,53.74,1.78,2.53,3.67,2.83,6.41,1.15,13.37-8.19,23.99-18.82,28.5-34.14,3.68-12.53,6.6-25.32,6.22-40.02ZM158.55,705.43c0-.16,0-.32,0-.48-1.61,0-3.22-.02-4.83,0-8.73.15-17.46.3-26.19.49-4.77.1-8.33,2.39-10.71,6.42-2.22,3.75-1.02,6.37,3.36,6.52,2.33.08,4.91-.83,7.02-1.96,5.71-3.08,11.53-6.29,18.07-6.18,14.91.24,29.82,1.05,44.72,1.76,2.49.12,5.04.64,7.39,1.48.99.35,2.14,2.04,2.08,3.05-.06,1.02-1.4,2.16-2.44,2.84-.65.43-1.78.18-2.69.12-10.54-.66-21.06-1.56-31.61-1.94-6.14-.22-12.41-.21-18.45.76-6.37,1.02-12.31,3.83-17.13,8.36-3.4,3.19-2.71,5.74,1.91,6.55,3.34.59,6.88.52,10.28.18,10.27-1.02,20.49-2.76,30.77-3.29,4.6-.24,9.88.74,13.84,2.96,5.12,2.88,10.09,3.84,15.7,3.55,3.66-.19,7.35.02,11.03.13,1.37.04,2.82.04,4.06.51.88.34,1.47,1.44,2.19,2.21-.81.63-1.58,1.71-2.45,1.79-2.27.22-4.59.1-6.88-.04-18.48-1.17-36.15,2.24-52.91,9.91-4.71,2.16-9.11,5.29-13.09,8.65-3.16,2.67-2.36,4.61,1.7,5.35,2.01.36,4.13.32,6.18.19,4.36-.26,8.71-.67,13.05-1.07,17.92-1.64,35.21-6.07,52.18-11.91,5.31-1.83,10.65-2.37,16.26-1.11,8.71,1.96,17.49,3.7,26.28,5.25,9.27,1.63,18.39,1.29,26.55-4.14,8.59-5.71,17.46-11.11,25.42-17.61,11.75-9.58,22.94-19.85,34.13-30.1,25.65-23.5,48.41-49.7,70.94-76.12,2.24-2.62,4.55-5.19,6.72-7.87,3.33-4.12,3.2-4.51-1.08-7.32-2.88-1.89-5.65-3.93-8.45-5.93-15.67-11.24-28.17-25.63-40.17-40.5-3.78-4.68-3.71-4.76-7.32.43-5.78,8.3-11.49,16.64-17.32,24.9-23.16,32.79-49.05,63.15-79.71,89.25-.7.59-1.68,1.11-1.98,1.87-2.13,5.48-7.06,6.01-11.79,6.71-6.13.89-12.33,1.32-18.43,2.35-9.89,1.67-19.63,1.51-29.31-1.27-4.41-1.27-8.83-2.52-13.31-3.48-16.09-3.45-32.44-2.86-48.73-2.56-4.01.08-8.08,1.5-11.98,2.77-4.15,1.35-5.4,3.56-4.82,7.11.71,4.35,4.19,2.76,6.58,2.78,17.47.13,34.94.05,52.41.12,2.83.01,6.41-.82,7.08,3.49.44,2.84-1.81,4.03-7.22,4.04-8.96.01-17.92,0-26.88,0ZM347.49,581.39c1.23-1.69,2.48-3.29,3.6-4.98,15.71-23.86,28.36-49.31,39.84-75.41,16.29-37.01,29.88-75.02,42.6-113.36,3.32-10.02,6.43-20.11,9.64-30.16.91-2.83.82-4.84-2.98-5.2-9.07-.86-16.38-5.51-23.16-11.24-8.13-6.88-15.21-14.65-20.73-23.8-1.45-2.41-2.45-3.16-3.88.14-8.95,20.62-18.92,40.84-26.89,61.83-20.44,53.81-39.98,107.97-59.97,161.95-.98,2.66-1.11,4.7.84,6.92,11.24,12.88,23.19,24.87,39.02,32.18.59.27,1.15.63,2.07,1.14ZM274.26,111.48c.69,4.36,1.83,13.01,3.5,21.54,1.46,7.44,3.66,14.72,8.21,20.99.41.57,1.36.75,2.05,1.12.14-.65.58-1.42.38-1.94-1.76-4.66-3.43-9.38-5.56-13.88-1.05-2.21-2.52-4.18-.07-6.04,2.55-1.94,4.48.04,5.69,1.93,1.97,3.06,4.03,6.25,5.06,9.69,3.84,12.79,4.17,25.76.53,38.68-1.96,6.96-2.2,7.1,3.63,11.37,4.43,3.24,8.63,6.41,11.72,11.19,10.16,15.75,24.49,25.76,42.76,30.32,12.63,3.16,25.23,4.9,38.08,1.62,6.1-1.56,12.16-2.01,18.32-.18,1.1.32,2.49-.36,3.75-.58-.31-1.19-.28-2.64-.97-3.54-9.83-12.85-10.93-26.78-5.58-41.66,4.63-12.88,11.86-24.31,19.59-35.48,2.88-4.17,6.68-6.72,11.52-8.18,4.82-1.45,9.61-3.15,14.18-5.24,8.76-4,14.86-10.62,18.02-19.82,2.52-7.34.25-14.73-6.64-18.25-14.56-7.45-30.89-3.68-36.13,14.46-.69,2.39-.48,6.02-1.99,6.95-1.91,1.18-5.17.28-7.84.12-9.85-.62-19.71-1.1-29.53-2.05-5.22-.51-10.36-1.9-15.54-2.86-2.24-.41-4.02-.24-4.47,2.7-1.31,8.53-6.94,14.37-13.06,19.66-7.04,6.08-14.97,10.75-24.36,12.1-4.69.67-9.38.07-12.31-4.33-2.93-4.4-1.58-8.81.75-13,6.99-12.53,17.25-20.67,31.53-23.39.98-.19,1.89-.76,2.84-1.15-.52-.71-.95-1.51-1.58-2.11-5.01-4.71-10.2-9.24-15.02-14.14-2.05-2.09-4.14-2.7-6.77-2.23-8.84,1.58-17.66,3.21-24.78,9.36-.52.45-1.11,1.06-1.71,1.1-1.05.07-2.62.12-3.09-.49-.69-.9-1.24-2.84-.74-3.55,1.29-1.82,2.94-3.78,4.9-4.65,6.46-2.87,13.07-5.43,19.72-7.84,3.95-1.43,4.11-1.26,1.67-4.57-7.8-10.62-14.81-21.63-17.02-34.96-.53-3.21-2.19-2.46-3.69-1.05-4.01,3.78-8.1,7.51-11.76,11.62-11.73,13.17-18.28,28.47-18.2,50.66ZM146.09,800.11c14.79-.48,29.25-1.14,43.72-1.37,17.96-.28,35.69-2.25,53.25-5.94,7.41-1.56,10.47-7.05,7.89-14.16-.54-1.48-.9-3.07-1.02-4.63-.55-7.16-4.97-12.68-12.19-14.52-8.11-2.07-16.33-2.38-24.56-.71-16.39,3.31-32.75,6.84-49.18,9.94-7.4,1.4-14.96,2.87-22.43,2.77-8.86-.12-12.32-8.19-6.71-15.1,2.95-3.63,6.95-6.82,11.12-8.95,6.29-3.22,13.15-5.32,19.75-7.95.9-.36,1.69-1.01,2.54-1.53-.87-.18-1.77-.61-2.6-.5-8.4,1.13-16.75,2.74-25.18,3.42-5.38.43-11.02.18-16.28-.98-6.01-1.32-7.69-4.32-7.28-10.57.15-2.38-.32-3.55-2.43-4.92-6.08-3.97-7.32-9.82-3.6-15.99,1.28-2.12,2.94-4.38,5-5.56,3.74-2.13,4.62-4.5,3.76-8.76-1.01-5-.71-5.47-5.49-4.05-3.49,1.04-7.15,2.23-10.07,4.3-5.4,3.84-10.9,7.83-15.26,12.74-5.85,6.59-12.44,10.4-21.29,10.97-7.47.48-14.28,3.45-20.31,7.89-15.12,11.13-25.82,25.32-30.06,43.93-1.69,7.42-1.44,8.54,5.89,10.06,9.64,2,19.46,3.13,29.17,4.86,13.31,2.37,26.72,4.4,39.85,7.59,17.9,4.35,35.87,7.6,54.02,7.72ZM231.45,686.72c5.73,0,10.17.49,14.44-.14,4.19-.61,8.79-1.49,12.17-3.79,6.23-4.25,11.88-9.41,17.44-14.56,17.58-16.27,33.45-34.14,48.37-52.83,6.73-8.43,12.76-17.41,19.1-26.15,1.54-2.13,1.51-3.24-1.49-4.32-4.49-1.61-8.86-3.78-12.93-6.27-9.5-5.8-17.34-13.53-24.59-21.92-3.14-3.64-3.39-3.44-5.68.57-12.97,22.73-26.18,45.33-38.91,68.2-8.92,16.03-20.82,29.68-32.88,43.24-5.49,6.17-7.97,6.56-14.89,2.33-5.66-3.46-11.74-5.02-18.24-5.57-8.92-.77-17.83-1.73-26.75-2.47-3.2-.27-6.43-.1-9.64-.24-2.97-.12-4.18,1.31-4.07,4.16.04,1.15-.05,2.3-.05,3.45-.03,6.86-.03,6.97,6.67,6.8,15.04-.4,29.86,1.36,44.17,5.78,9.6,2.96,19.15,4.55,27.76,3.76ZM405.72,122.46c3.22,0,6.44.1,9.65-.03,3.69-.15,6.71-1.23,7.52-5.56.33-1.75,1.69-3.3,2.1-5.06.32-1.38.35-3.12-.23-4.37-6.07-13.15-12.82-25.94-21.61-37.51-10.41-13.69-22.86-25.19-38.01-33.43-15.67-8.52-31.77-7.39-47.9-1.16-2.05.79-3.18,1.82-3.12,4.54.27,12.98,3.17,25.06,11.56,35.26,5.69,6.91,11.79,13.49,17.69,20.23,16.51,18.87,37.73,26.91,62.35,27.09ZM140.51,437.15c-.46,9.3-.63,17.35-1.32,25.36-.51,5.94-4.63,8.24-10.23,6.03-1.87-.74-3.65-1.97-5.18-3.3-10.37-9.04-20.65-18.19-31.02-27.25-.88-.77-2.58-1.84-3.14-1.5-1.25.75-2.3,2.18-2.87,3.56-.37.9.2,2.21.41,3.33,1.02,5.46,5.56,8.16,9.1,11.69,11.56,11.5,23.14,22.99,34.5,34.69,4.85,5,7.4,11.43,6.21,18.3-1.41,8.2-.15,16.16,1.51,23.9,2.2,10.21,3.1,20.38,2.97,30.74-.09,7.12.31,14.25.07,21.36-.41,12.39-.32,24.88-1.95,37.13-1.83,13.68-3.3,27.31-3.4,41.1-.03,4.32-.53,8.64-.61,12.96-.02.98.73,2.79,1.25,2.84,2.7.23,5.54.43,8.09-.26.88-.24,1.37-3.07,1.48-4.75.88-13.05,1.67-26.11,2.37-39.17.25-4.58.29-9.19.22-13.78-.27-16.52-.89-33.04-.86-49.56.01-10.52,1.83-21.04-.44-31.54-.22-1.04.32-2.23.45-3.36,1.4-12.29,2.79-24.5,1.83-37.01-.79-10.35.84-20.91,9.83-28.09,7.16-5.72,14.59-11.17,22.31-16.1,8.9-5.68,18.36-10.45,27.35-16,7.2-4.44,13.98-9.56,21.08-14.17,3.18-2.06,6.16-3.69,10.67-1.66,5.63,2.52,11.08.47,13.54-3.02,1.71-2.43,1.73-3.89-1.34-5.09-3.83-1.5-7.62-3.19-11.25-5.13-4.71-2.51-7.07-6.53-6.19-11.97.66-4.06,1.62-8.07,2.43-12.11.72-3.59-.27-4.39-3.9-4.03-2.89.29-2.93,2.49-3.61,4.33-3.53,9.46-6.97,18.95-10.54,28.39-2.7,7.12-7.58,12.35-13.91,16.6-12.29,8.26-26.16,13.11-39.51,19.09-1.44.64-3.09.93-4.67,1.1-4.43.47-5.83-.57-6.62-4.9-.41-2.26-.8-4.56-.78-6.84.13-12.63.4-25.27.57-37.9.01-1.03-.34-2.07-.53-3.1-1.01.46-2.09.81-3.01,1.41-3.09,1.99-6,4.28-9.2,6.06-2.83,1.58-3.61,3.64-3.41,6.76.58,8.7.88,17.42,1.24,24.89ZM861.26,811.63c0,.1-.01.19-.02.29,1.15.06,2.3.2,3.44.16,1.12-.04,2.23-.27,3.34-.41-.82-.97-1.53-2.08-2.48-2.9-6.08-5.2-12.89-9.74-18.16-15.65-7.45-8.36-14.02-17.56-20.5-26.74-4.05-5.73-8.21-10.8-15.06-13.41-3.35-1.28-6.26-3.8-9.23-5.95-10.1-7.33-18.95-15.99-26.69-25.74-2.2-2.78-4.05-3.72-7.47-2.22-3.97,1.75-8.22,2.88-12.35,4.26-5.09,1.7-4.91,1.63-3.4,6.51,1.28,4.14,2.24,8.39,3.06,12.65,3.53,18.42,7.06,36.85,10.31,55.32.69,3.9,2.74,5.37,6.21,5.89,8.39,1.26,16.73,3.06,25.17,3.73,21.26,1.68,42.55,2.84,63.83,4.22ZM459.74,88.06c-.76-15.37-5.8-29.45-15.17-41.37-8.92-11.34-19.21-21.63-29.12-32.18-6.04-6.43-13.76-8.95-22.53-8.03-6.4.67-12.81,1.25-19.17,2.22-14.37,2.18-28.28,5.99-41.33,12.53-.84.42-1.36,1.5-2.03,2.27.88.09,1.79.34,2.65.24,9.12-1.13,17.84.53,26.34,3.7,25.97,9.68,45.53,26.23,56.42,52.27,3.27,7.83,7.36,15.32,10.9,23.05,1.2,2.62,2.37,2.96,4.55,1.1,6.64-5.64,14.62-7.37,23.06-7.69,5.27-.2,5.27-.24,5.42-5.34.03-.92,0-1.84,0-2.76ZM921.46,816.02c.03.34.05.69.08,1.03.94-.36,2.43-.51,2.69-1.15.35-.86.07-2.36-.53-3.13-1.1-1.42-2.51-2.68-4.01-3.69-6.65-4.52-13.11-9.39-20.1-13.31-21.63-12.12-37.65-29.66-51.12-50.17-8.18-12.46-17.54-24.15-26.61-36.01-3.95-5.17-8.78-9.51-15.69-10.32-1.43-.17-3.23-.09-4.38.63-6.42,4.01-12.62,8.38-19.06,12.36-2.63,1.62-3,2.91-1.01,5.31,10.07,12.14,21.53,22.76,35.39,30.29,5.55,3.02,9.31,6.87,12.61,12.06,10.95,17.2,23.68,32.71,42.02,42.84,3.83,2.11,6.64,6.04,10,9.03.93.83,2.16,1.75,3.31,1.83,12.13.89,24.26,1.62,36.4,2.4ZM398.78,794.1c.05-.27.11-.55.16-.82,2.53,0,5.06.08,7.58-.05.77-.04,1.52-.62,2.27-.95-.6-.61-1.09-1.44-1.82-1.79-5.17-2.49-10.45-4.75-15.58-7.33-13.88-6.98-22.91-17.92-27.22-32.95-3.98-13.89-8.85-27.56-8.09-42.34.04-.75-.6-1.53-.92-2.3-.78.39-1.61.72-2.34,1.19-.57.37-1.02.92-1.55,1.37-17.91,15.46-34.28,32.74-54.05,46-2.24,1.5-2.62,2.99-.52,4.88,10.61,9.62,21.55,18.72,35.97,22.14,8.25,1.96,16.48,4.1,24.8,5.69,13.73,2.62,27.53,4.85,41.3,7.25ZM576.66,512.75c-.52-1.4-.82-2.27-1.17-3.12-3.44-8.22-6.75-16.5-10.44-24.6-.7-1.55-2.71-2.85-4.41-3.54-6.13-2.51-12.45-4.59-18.59-7.09-4.78-1.95-4.66-2.09-7.33,2.27-7.42,12.13-14.86,24.24-22.33,36.33-1.32,2.14-2.88,4.14-4.21,6.29-1.17,1.89-.3,2.42,1.61,2.06.67-.13,1.38-.12,2.05-.27,17.51-3.95,35.26-5.41,53.18-5.48,3.18-.01,6.38-.66,9.53-1.23.83-.15,1.5-1.13,2.11-1.62ZM353.36,121.87c-6.45,1.28-14.26,2.43-19.61,9.65-2.17,2.93-2.46,4.51.3,7.11,1.44,1.35,1.93,3.97,2.3,6.11.34,1.97.84,3.16,2.96,2.32,9.01-3.54,16.4-9.12,20.74-17.94,2.6-5.28.92-7.34-6.7-7.25ZM714.11,229.02c-.3-.19-.76-.75-1.22-.75-3.36,0-10.41,6.84-10.74,10.37-.2,2.22,1.03,2.85,2.94,2.26,2.69-.82,8.91-8.86,9.02-11.88ZM130.28,677.38c-.62-1.52-1-2.46-1.39-3.4-.67.58-1.69,1.03-1.94,1.75-.62,1.84-.89,3.79-1.24,5.71-.01.06.95.46,1.04.35,1.23-1.45,2.39-2.96,3.52-4.41Z"/>
      <path class="cls-9" d="M224,121.55c.07,3.24.04,6.49-.07,9.73-.29,8.08-2.31,20.32-13.17,17.74-2.21-.53-4.38-1.4-6.45-2.35-16.64-7.66-30.17-19.15-40.61-34.11-2.39-3.42-3.99-7.78-4.67-11.92-.85-5.2,2.22-8.63,7.45-8.4,4.7.21,9.5,1.38,13.95,2.97,4.27,1.53,8.19,4.07,12.2,6.3,2.62,1.46,3.48.76,3.87-2.14.6-4.53,1.12-9.2,2.7-13.42,1.31-3.51,3.67-6.88,6.34-9.55,9.56-9.53,14.46,11.19,15.47,16.51,1.79,9.44,2.8,19.03,3,28.64ZM216.97,121.49c.02-8.71-.74-17.42-1.67-26.07-.41-3.84-1.62-7.61-2.75-11.33-.34-1.12-1.65-2.68-2.53-2.69-1.02-.01-2.54,1.26-2.99,2.33-1.32,3.13-2.59,6.38-3.16,9.71-.58,3.36-.19,6.87-.4,10.3-.44,7.09-3.81,9-9.96,5.73-1.42-.75-2.67-1.83-4.11-2.5-4.97-2.34-9.87-4.93-15.04-6.67-2.51-.84-6.29-3.11-8.09.08-.86,1.53,1.04,5.12,2.41,7.33,9.51,15.35,23.24,25.75,39.5,33.08.63.28,1.26.58,1.92.75,7.97,2.04,6.48-8.68,6.73-13.88.1-2.05.15-4.11.15-6.16Z"/>
      <path class="cls-6" d="M162.9,342.73c-8.55-.29-18.1-1.17-27.17-4.84-1.06-.43-2.14-.83-3.15-1.37-2.22-1.18-5.04-2.35-3.39-5.56,1.34-2.62,3.76-1.7,6.05-.9,6.47,2.27,12.89,4.76,19.51,6.49,18.44,4.81,33.84-.52,46.33-14.71,1.21-1.37,2.23-2.93,3.56-4.15.49-.45,1.91-.51,2.42-.12.51.39.81,1.79.5,2.37-.96,1.81-2.12,3.55-3.45,5.11-10.52,12.31-24.07,17.8-41.2,17.68Z"/>
      <path class="cls-6" d="M148.5,276.78c1.03-1.09,2.16-3.22,3.26-3.21,1.28.01,3.2,1.65,3.71,3.01,2.83,7.49,5.29,15.11,7.94,22.67,1.51,4.32,3.11,8.61,4.72,12.89.92,2.44,2.08,5.25-1.18,6.44-3.27,1.19-4.27-1.96-5.16-4.2-3.21-8.08-6.34-16.2-9.3-24.38-1.47-4.07-2.53-8.29-4-13.22Z"/>
      <path class="cls-6" d="M107.33,293.67c4.87-.06,11.06,8.6,9.32,13.04-1.03,2.61-4.53,4.07-6.76,1.99-2.9-2.69-5.33-6.12-7.19-9.64-1.19-2.25,1.86-5.35,4.64-5.39Z"/>
      <path class="cls-6" d="M192.13,282.69c.05-2.25,2.65-4.4,4.9-3.11,3.4,1.95,6.5,4.71,9.08,7.69,1.47,1.7-1.36,5.19-3.41,4.11-3.71-1.95-6.93-4.83-10.31-7.39-.26-.2-.18-.85-.26-1.3Z"/>
      <path class="cls-9" d="M451.63,111.78c.79,1.54,1.98,2.89,2.04,4.28.05,1.09-1.11,2.43-2.05,3.34-2.33,2.24-4.28,4.17-.59,7.07.84.66,1.13,3.32.5,4.17-.66.89-3.19,1.45-4.16.88-4.28-2.52-6.15-.34-7.83,3.2-.99,2.09-2.39,4.32-5.22,2.85-3.05-1.58-2.53-4.26-.87-6.39,4.62-5.9,9.46-11.63,14.32-17.34.67-.78,1.94-1.06,3.86-2.05Z"/>
      <path class="cls-9" d="M349.51,185.43c-1.13,3.1-1.5,5.81-2.93,7.75-4.32,5.89-9,11.52-13.66,17.14-.83,1.01-2.18,1.93-3.42,2.16-1.14.21-2.91-.22-3.56-1.03-.64-.8-.61-2.62-.16-3.68.5-1.17,1.78-2.03,2.78-2.96,5.63-5.21,10.3-11.1,13.07-18.35.33-.86.48-1.97,1.1-2.49,1.14-.95,2.88-2.4,3.81-2.07,1.29.46,2.07,2.37,2.97,3.53Z"/>
    </g>
  </g>
</svg>